G04 MADE WITH FRITZING*
G04 WWW.FRITZING.ORG*
G04 DOUBLE SIDED*
G04 HOLES PLATED*
G04 CONTOUR ON CENTER OF CONTOUR VECTOR*
%ASAXBY*%
%FSLAX23Y23*%
%MOIN*%
%OFA0B0*%
%SFA1.0B1.0*%
%ADD10C,0.085433*%
%ADD11C,0.085361*%
%ADD12C,0.084000*%
%ADD13C,0.085000*%
%ADD14C,0.072992*%
%ADD15C,0.076000*%
%ADD16C,0.086000*%
%ADD17C,0.136614*%
%ADD18R,0.001000X0.001000*%
%LNMASK1*%
G90*
G70*
G54D10*
X256Y400D03*
G54D11*
X56Y100D03*
X156Y100D03*
X256Y100D03*
X356Y100D03*
X356Y200D03*
X256Y200D03*
X156Y200D03*
X56Y200D03*
G54D12*
X756Y1000D03*
X756Y900D03*
X756Y800D03*
X756Y700D03*
X756Y600D03*
X756Y500D03*
X756Y400D03*
G54D13*
X956Y500D03*
X1356Y500D03*
G54D14*
X956Y1300D03*
G54D13*
X856Y200D03*
X1256Y200D03*
G54D10*
X1156Y900D03*
G54D15*
X356Y1200D03*
X456Y1200D03*
X556Y1200D03*
X656Y1200D03*
X756Y1200D03*
G54D16*
X956Y1100D03*
X1056Y1100D03*
X1156Y1100D03*
X1256Y1100D03*
X1356Y1100D03*
X1456Y1100D03*
G54D17*
X1556Y200D03*
G54D16*
X1556Y800D03*
X1556Y600D03*
X1556Y500D03*
X1556Y700D03*
X1556Y400D03*
G54D12*
X156Y900D03*
X256Y890D03*
X356Y900D03*
X456Y890D03*
X156Y900D03*
X256Y890D03*
X356Y900D03*
X456Y890D03*
G54D10*
X1456Y1200D03*
X1656Y500D03*
X656Y100D03*
G54D18*
X114Y942D02*
X197Y942D01*
X114Y941D02*
X197Y941D01*
X114Y940D02*
X197Y940D01*
X114Y939D02*
X197Y939D01*
X114Y938D02*
X197Y938D01*
X114Y937D02*
X197Y937D01*
X114Y936D02*
X197Y936D01*
X114Y935D02*
X197Y935D01*
X114Y934D02*
X197Y934D01*
X114Y933D02*
X197Y933D01*
X114Y932D02*
X197Y932D01*
X114Y931D02*
X197Y931D01*
X114Y930D02*
X197Y930D01*
X114Y929D02*
X197Y929D01*
X114Y928D02*
X197Y928D01*
X114Y927D02*
X197Y927D01*
X114Y926D02*
X197Y926D01*
X114Y925D02*
X197Y925D01*
X114Y924D02*
X197Y924D01*
X114Y923D02*
X197Y923D01*
X114Y922D02*
X197Y922D01*
X114Y921D02*
X197Y921D01*
X114Y920D02*
X197Y920D01*
X114Y919D02*
X197Y919D01*
X114Y918D02*
X197Y918D01*
X114Y917D02*
X197Y917D01*
X114Y916D02*
X197Y916D01*
X114Y915D02*
X150Y915D01*
X161Y915D02*
X197Y915D01*
X114Y914D02*
X148Y914D01*
X163Y914D02*
X197Y914D01*
X114Y913D02*
X146Y913D01*
X165Y913D02*
X197Y913D01*
X114Y912D02*
X145Y912D01*
X166Y912D02*
X197Y912D01*
X114Y911D02*
X144Y911D01*
X167Y911D02*
X197Y911D01*
X114Y910D02*
X143Y910D01*
X168Y910D02*
X197Y910D01*
X114Y909D02*
X142Y909D01*
X168Y909D02*
X197Y909D01*
X114Y908D02*
X142Y908D01*
X169Y908D02*
X197Y908D01*
X114Y907D02*
X141Y907D01*
X170Y907D02*
X197Y907D01*
X114Y906D02*
X141Y906D01*
X170Y906D02*
X197Y906D01*
X114Y905D02*
X140Y905D01*
X170Y905D02*
X197Y905D01*
X114Y904D02*
X140Y904D01*
X171Y904D02*
X197Y904D01*
X114Y903D02*
X140Y903D01*
X171Y903D02*
X197Y903D01*
X114Y902D02*
X140Y902D01*
X171Y902D02*
X197Y902D01*
X114Y901D02*
X140Y901D01*
X171Y901D02*
X197Y901D01*
X114Y900D02*
X140Y900D01*
X171Y900D02*
X197Y900D01*
X114Y899D02*
X140Y899D01*
X171Y899D02*
X197Y899D01*
X114Y898D02*
X140Y898D01*
X171Y898D02*
X197Y898D01*
X114Y897D02*
X140Y897D01*
X170Y897D02*
X197Y897D01*
X114Y896D02*
X141Y896D01*
X170Y896D02*
X197Y896D01*
X114Y895D02*
X141Y895D01*
X170Y895D02*
X197Y895D01*
X114Y894D02*
X141Y894D01*
X169Y894D02*
X197Y894D01*
X114Y893D02*
X142Y893D01*
X169Y893D02*
X197Y893D01*
X114Y892D02*
X143Y892D01*
X168Y892D02*
X197Y892D01*
X114Y891D02*
X144Y891D01*
X167Y891D02*
X197Y891D01*
X114Y890D02*
X145Y890D01*
X166Y890D02*
X197Y890D01*
X114Y889D02*
X146Y889D01*
X165Y889D02*
X197Y889D01*
X114Y888D02*
X147Y888D01*
X164Y888D02*
X197Y888D01*
X114Y887D02*
X149Y887D01*
X162Y887D02*
X197Y887D01*
X114Y886D02*
X153Y886D01*
X158Y886D02*
X197Y886D01*
X114Y885D02*
X197Y885D01*
X114Y884D02*
X197Y884D01*
X114Y883D02*
X197Y883D01*
X114Y882D02*
X197Y882D01*
X114Y881D02*
X197Y881D01*
X114Y880D02*
X197Y880D01*
X114Y879D02*
X197Y879D01*
X114Y878D02*
X197Y878D01*
X114Y877D02*
X197Y877D01*
X114Y876D02*
X197Y876D01*
X114Y875D02*
X197Y875D01*
X114Y874D02*
X197Y874D01*
X114Y873D02*
X197Y873D01*
X114Y872D02*
X197Y872D01*
X114Y871D02*
X197Y871D01*
X114Y870D02*
X197Y870D01*
X114Y869D02*
X197Y869D01*
X114Y868D02*
X197Y868D01*
X114Y867D02*
X197Y867D01*
X114Y866D02*
X197Y866D01*
X114Y865D02*
X197Y865D01*
X114Y864D02*
X197Y864D01*
X114Y863D02*
X197Y863D01*
X114Y862D02*
X197Y862D01*
X114Y861D02*
X197Y861D01*
X114Y860D02*
X197Y860D01*
X114Y859D02*
X197Y859D01*
D02*
G04 End of Mask1*
M02*