G04 MADE WITH FRITZING*
G04 WWW.FRITZING.ORG*
G04 DOUBLE SIDED*
G04 HOLES PLATED*
G04 CONTOUR ON CENTER OF CONTOUR VECTOR*
%ASAXBY*%
%FSLAX23Y23*%
%MOIN*%
%OFA0B0*%
%SFA1.0B1.0*%
%ADD10C,0.075433*%
%ADD11C,0.075361*%
%ADD12C,0.074000*%
%ADD13C,0.075000*%
%ADD14C,0.062992*%
%ADD15C,0.066000*%
%ADD16C,0.076000*%
%ADD17C,0.126614*%
%ADD18C,0.024000*%
%ADD19R,0.001000X0.001000*%
%LNCOPPER0*%
G90*
G70*
G54D10*
X256Y400D03*
G54D11*
X56Y100D03*
X156Y100D03*
X256Y100D03*
X356Y100D03*
X356Y200D03*
X256Y200D03*
X156Y200D03*
X56Y200D03*
G54D12*
X756Y1000D03*
X756Y900D03*
X756Y800D03*
X756Y700D03*
X756Y600D03*
X756Y500D03*
X756Y400D03*
G54D13*
X956Y500D03*
X1356Y500D03*
G54D14*
X956Y1300D03*
G54D13*
X856Y200D03*
X1256Y200D03*
G54D10*
X1156Y900D03*
G54D15*
X356Y1200D03*
X456Y1200D03*
X556Y1200D03*
X656Y1200D03*
X756Y1200D03*
G54D16*
X956Y1100D03*
X1056Y1100D03*
X1156Y1100D03*
X1256Y1100D03*
X1356Y1100D03*
X1456Y1100D03*
G54D17*
X1556Y200D03*
G54D16*
X1556Y800D03*
X1556Y600D03*
X1556Y500D03*
X1556Y700D03*
X1556Y400D03*
G54D12*
X156Y900D03*
X256Y890D03*
X356Y900D03*
X456Y890D03*
G54D10*
X1456Y1200D03*
X1656Y500D03*
X656Y100D03*
G54D18*
X356Y200D02*
X827Y200D01*
D02*
X656Y1169D02*
X656Y700D01*
D02*
X324Y200D02*
X356Y200D01*
D02*
X656Y700D02*
X725Y700D01*
D02*
X556Y400D02*
X725Y400D01*
D02*
X956Y800D02*
X956Y528D01*
D02*
X556Y500D02*
X556Y400D01*
D02*
X787Y800D02*
X956Y800D01*
D02*
X256Y231D02*
X256Y371D01*
D02*
X756Y469D02*
X756Y431D01*
D02*
X856Y800D02*
X787Y800D01*
D02*
X156Y231D02*
X156Y500D01*
D02*
X856Y1200D02*
X856Y800D01*
D02*
X156Y500D02*
X556Y500D01*
D02*
X787Y1200D02*
X856Y1200D01*
D02*
X156Y869D02*
X156Y400D01*
D02*
X156Y400D02*
X156Y500D01*
D02*
X325Y1200D02*
X156Y1200D01*
D02*
X156Y1200D02*
X156Y931D01*
D02*
X425Y1200D02*
X387Y1200D01*
D02*
X856Y300D02*
X1256Y300D01*
D02*
X856Y600D02*
X856Y400D01*
D02*
X456Y1300D02*
X456Y1231D01*
D02*
X856Y400D02*
X856Y300D01*
D02*
X929Y1300D02*
X456Y1300D01*
D02*
X1256Y300D02*
X1256Y228D01*
D02*
X1156Y400D02*
X1356Y400D01*
D02*
X787Y600D02*
X856Y600D01*
D02*
X1356Y400D02*
X1356Y100D01*
D02*
X256Y859D02*
X256Y600D01*
D02*
X1156Y871D02*
X1156Y400D01*
D02*
X256Y600D02*
X556Y600D01*
D02*
X1356Y100D02*
X856Y100D01*
D02*
X556Y600D02*
X725Y600D01*
D02*
X856Y100D02*
X856Y171D01*
D02*
X556Y1169D02*
X556Y600D01*
D02*
X1658Y1197D02*
X1485Y1199D01*
D02*
X1656Y529D02*
X1658Y1197D01*
D02*
X387Y100D02*
X627Y100D01*
G54D19*
X119Y937D02*
X192Y937D01*
X119Y936D02*
X192Y936D01*
X119Y935D02*
X192Y935D01*
X119Y934D02*
X192Y934D01*
X119Y933D02*
X192Y933D01*
X119Y932D02*
X192Y932D01*
X119Y931D02*
X192Y931D01*
X119Y930D02*
X192Y930D01*
X119Y929D02*
X192Y929D01*
X119Y928D02*
X192Y928D01*
X119Y927D02*
X192Y927D01*
X119Y926D02*
X192Y926D01*
X119Y925D02*
X192Y925D01*
X119Y924D02*
X192Y924D01*
X119Y923D02*
X192Y923D01*
X119Y922D02*
X192Y922D01*
X119Y921D02*
X192Y921D01*
X119Y920D02*
X150Y920D01*
X161Y920D02*
X192Y920D01*
X119Y919D02*
X147Y919D01*
X164Y919D02*
X192Y919D01*
X119Y918D02*
X145Y918D01*
X166Y918D02*
X192Y918D01*
X119Y917D02*
X143Y917D01*
X167Y917D02*
X192Y917D01*
X119Y916D02*
X142Y916D01*
X169Y916D02*
X192Y916D01*
X119Y915D02*
X141Y915D01*
X170Y915D02*
X192Y915D01*
X119Y914D02*
X140Y914D01*
X171Y914D02*
X192Y914D01*
X119Y913D02*
X139Y913D01*
X172Y913D02*
X192Y913D01*
X119Y912D02*
X138Y912D01*
X172Y912D02*
X192Y912D01*
X119Y911D02*
X138Y911D01*
X173Y911D02*
X192Y911D01*
X119Y910D02*
X137Y910D01*
X174Y910D02*
X192Y910D01*
X119Y909D02*
X137Y909D01*
X174Y909D02*
X192Y909D01*
X119Y908D02*
X136Y908D01*
X174Y908D02*
X192Y908D01*
X119Y907D02*
X136Y907D01*
X175Y907D02*
X192Y907D01*
X119Y906D02*
X136Y906D01*
X175Y906D02*
X192Y906D01*
X119Y905D02*
X135Y905D01*
X175Y905D02*
X192Y905D01*
X119Y904D02*
X135Y904D01*
X176Y904D02*
X192Y904D01*
X119Y903D02*
X135Y903D01*
X176Y903D02*
X192Y903D01*
X119Y902D02*
X135Y902D01*
X176Y902D02*
X192Y902D01*
X119Y901D02*
X135Y901D01*
X176Y901D02*
X192Y901D01*
X119Y900D02*
X135Y900D01*
X176Y900D02*
X192Y900D01*
X119Y899D02*
X135Y899D01*
X176Y899D02*
X192Y899D01*
X119Y898D02*
X135Y898D01*
X176Y898D02*
X192Y898D01*
X119Y897D02*
X135Y897D01*
X175Y897D02*
X192Y897D01*
X119Y896D02*
X136Y896D01*
X175Y896D02*
X192Y896D01*
X119Y895D02*
X136Y895D01*
X175Y895D02*
X192Y895D01*
X119Y894D02*
X136Y894D01*
X175Y894D02*
X192Y894D01*
X119Y893D02*
X136Y893D01*
X174Y893D02*
X192Y893D01*
X119Y892D02*
X137Y892D01*
X174Y892D02*
X192Y892D01*
X119Y891D02*
X138Y891D01*
X173Y891D02*
X192Y891D01*
X119Y890D02*
X138Y890D01*
X173Y890D02*
X192Y890D01*
X119Y889D02*
X139Y889D01*
X172Y889D02*
X192Y889D01*
X119Y888D02*
X140Y888D01*
X171Y888D02*
X192Y888D01*
X119Y887D02*
X140Y887D01*
X170Y887D02*
X192Y887D01*
X119Y886D02*
X142Y886D01*
X169Y886D02*
X192Y886D01*
X119Y885D02*
X143Y885D01*
X168Y885D02*
X192Y885D01*
X119Y884D02*
X144Y884D01*
X167Y884D02*
X192Y884D01*
X119Y883D02*
X146Y883D01*
X165Y883D02*
X192Y883D01*
X119Y882D02*
X148Y882D01*
X162Y882D02*
X192Y882D01*
X119Y881D02*
X153Y881D01*
X158Y881D02*
X192Y881D01*
X119Y880D02*
X192Y880D01*
X119Y879D02*
X192Y879D01*
X119Y878D02*
X192Y878D01*
X119Y877D02*
X192Y877D01*
X119Y876D02*
X192Y876D01*
X119Y875D02*
X192Y875D01*
X119Y874D02*
X192Y874D01*
X119Y873D02*
X192Y873D01*
X119Y872D02*
X192Y872D01*
X119Y871D02*
X192Y871D01*
X119Y870D02*
X192Y870D01*
X119Y869D02*
X192Y869D01*
X119Y868D02*
X192Y868D01*
X119Y867D02*
X192Y867D01*
X119Y866D02*
X192Y866D01*
X119Y865D02*
X192Y865D01*
X119Y864D02*
X192Y864D01*
D02*
G04 End of Copper0*
M02*