; NON-PLATED HOLES START AT T1
; THROUGH (PLATED) HOLES START AT T100
M48
INCH
T100C0.039370
T101C0.040639
T102C0.086614
T103C0.040000
T104C0.031496
T105C0.035000
T106C0.035433
%
T100
X015558Y006998
X014558Y010998
X004558Y011998
X005558Y011998
X015558Y007998
X006558Y011998
X007558Y011998
X010558Y010998
X015558Y003998
X009558Y010998
X011558Y010998
X015558Y004998
X012558Y010998
X013558Y010998
X003558Y011998
X015558Y005998
T101
X003558Y000998
X002558Y000998
X001558Y000998
X000558Y000998
X003558Y001998
X002558Y001998
X001558Y001998
X000558Y001998
T102
X015558Y001998
T103
X007558Y005998
X004558Y008898
X007558Y006998
X007558Y007998
X007558Y008998
X007558Y009998
X007558Y003998
X001558Y008998
X007558Y004998
X002558Y008898
X003558Y008998
T104
X009558Y012998
T105
X008558Y001998
X009558Y004998
X012558Y001998
X013558Y004998
T106
X014558Y011998
X002558Y003998
X016558Y004998
X011558Y008998
X006558Y000998
T00
M30
