G04 MADE WITH FRITZING*
G04 WWW.FRITZING.ORG*
G04 DOUBLE SIDED*
G04 HOLES PLATED*
G04 CONTOUR ON CENTER OF CONTOUR VECTOR*
%ASAXBY*%
%FSLAX23Y23*%
%MOIN*%
%OFA0B0*%
%SFA1.0B1.0*%
%ADD10R,0.001000X0.001000*%
%LNSILK0*%
G90*
G70*
G54D10*
X0Y1865D02*
X710Y1865D01*
X0Y1864D02*
X710Y1864D01*
X0Y1863D02*
X710Y1863D01*
X0Y1862D02*
X710Y1862D01*
X0Y1861D02*
X710Y1861D01*
X0Y1860D02*
X710Y1860D01*
X0Y1859D02*
X710Y1859D01*
X0Y1858D02*
X710Y1858D01*
X0Y1857D02*
X7Y1857D01*
X703Y1857D02*
X710Y1857D01*
X0Y1856D02*
X7Y1856D01*
X703Y1856D02*
X710Y1856D01*
X0Y1855D02*
X7Y1855D01*
X703Y1855D02*
X710Y1855D01*
X0Y1854D02*
X7Y1854D01*
X703Y1854D02*
X710Y1854D01*
X0Y1853D02*
X7Y1853D01*
X703Y1853D02*
X710Y1853D01*
X0Y1852D02*
X7Y1852D01*
X703Y1852D02*
X710Y1852D01*
X0Y1851D02*
X7Y1851D01*
X703Y1851D02*
X710Y1851D01*
X0Y1850D02*
X7Y1850D01*
X703Y1850D02*
X710Y1850D01*
X0Y1849D02*
X7Y1849D01*
X703Y1849D02*
X710Y1849D01*
X0Y1848D02*
X7Y1848D01*
X703Y1848D02*
X710Y1848D01*
X0Y1847D02*
X7Y1847D01*
X703Y1847D02*
X710Y1847D01*
X0Y1846D02*
X7Y1846D01*
X703Y1846D02*
X710Y1846D01*
X0Y1845D02*
X7Y1845D01*
X703Y1845D02*
X710Y1845D01*
X0Y1844D02*
X7Y1844D01*
X703Y1844D02*
X710Y1844D01*
X0Y1843D02*
X7Y1843D01*
X703Y1843D02*
X710Y1843D01*
X0Y1842D02*
X7Y1842D01*
X703Y1842D02*
X710Y1842D01*
X0Y1841D02*
X7Y1841D01*
X703Y1841D02*
X710Y1841D01*
X0Y1840D02*
X7Y1840D01*
X703Y1840D02*
X710Y1840D01*
X0Y1839D02*
X7Y1839D01*
X703Y1839D02*
X710Y1839D01*
X0Y1838D02*
X7Y1838D01*
X703Y1838D02*
X710Y1838D01*
X0Y1837D02*
X7Y1837D01*
X703Y1837D02*
X710Y1837D01*
X0Y1836D02*
X7Y1836D01*
X703Y1836D02*
X710Y1836D01*
X0Y1835D02*
X7Y1835D01*
X703Y1835D02*
X710Y1835D01*
X0Y1834D02*
X7Y1834D01*
X703Y1834D02*
X710Y1834D01*
X0Y1833D02*
X7Y1833D01*
X703Y1833D02*
X710Y1833D01*
X0Y1832D02*
X7Y1832D01*
X703Y1832D02*
X710Y1832D01*
X0Y1831D02*
X7Y1831D01*
X703Y1831D02*
X710Y1831D01*
X0Y1830D02*
X7Y1830D01*
X703Y1830D02*
X710Y1830D01*
X0Y1829D02*
X7Y1829D01*
X703Y1829D02*
X710Y1829D01*
X0Y1828D02*
X7Y1828D01*
X703Y1828D02*
X710Y1828D01*
X0Y1827D02*
X7Y1827D01*
X703Y1827D02*
X710Y1827D01*
X0Y1826D02*
X7Y1826D01*
X703Y1826D02*
X710Y1826D01*
X0Y1825D02*
X7Y1825D01*
X703Y1825D02*
X710Y1825D01*
X0Y1824D02*
X7Y1824D01*
X703Y1824D02*
X710Y1824D01*
X0Y1823D02*
X7Y1823D01*
X703Y1823D02*
X710Y1823D01*
X0Y1822D02*
X7Y1822D01*
X703Y1822D02*
X710Y1822D01*
X0Y1821D02*
X7Y1821D01*
X703Y1821D02*
X710Y1821D01*
X0Y1820D02*
X7Y1820D01*
X703Y1820D02*
X710Y1820D01*
X0Y1819D02*
X7Y1819D01*
X703Y1819D02*
X710Y1819D01*
X0Y1818D02*
X7Y1818D01*
X703Y1818D02*
X710Y1818D01*
X0Y1817D02*
X7Y1817D01*
X703Y1817D02*
X710Y1817D01*
X0Y1816D02*
X7Y1816D01*
X703Y1816D02*
X710Y1816D01*
X0Y1815D02*
X7Y1815D01*
X703Y1815D02*
X710Y1815D01*
X0Y1814D02*
X7Y1814D01*
X703Y1814D02*
X710Y1814D01*
X0Y1813D02*
X7Y1813D01*
X703Y1813D02*
X710Y1813D01*
X0Y1812D02*
X7Y1812D01*
X703Y1812D02*
X710Y1812D01*
X0Y1811D02*
X7Y1811D01*
X703Y1811D02*
X710Y1811D01*
X0Y1810D02*
X7Y1810D01*
X703Y1810D02*
X710Y1810D01*
X0Y1809D02*
X7Y1809D01*
X703Y1809D02*
X710Y1809D01*
X0Y1808D02*
X7Y1808D01*
X703Y1808D02*
X710Y1808D01*
X0Y1807D02*
X7Y1807D01*
X703Y1807D02*
X710Y1807D01*
X0Y1806D02*
X7Y1806D01*
X703Y1806D02*
X710Y1806D01*
X0Y1805D02*
X7Y1805D01*
X703Y1805D02*
X710Y1805D01*
X0Y1804D02*
X7Y1804D01*
X703Y1804D02*
X710Y1804D01*
X0Y1803D02*
X7Y1803D01*
X703Y1803D02*
X710Y1803D01*
X0Y1802D02*
X7Y1802D01*
X703Y1802D02*
X710Y1802D01*
X0Y1801D02*
X7Y1801D01*
X703Y1801D02*
X710Y1801D01*
X0Y1800D02*
X7Y1800D01*
X703Y1800D02*
X710Y1800D01*
X0Y1799D02*
X7Y1799D01*
X703Y1799D02*
X710Y1799D01*
X0Y1798D02*
X7Y1798D01*
X703Y1798D02*
X710Y1798D01*
X0Y1797D02*
X7Y1797D01*
X703Y1797D02*
X710Y1797D01*
X0Y1796D02*
X7Y1796D01*
X703Y1796D02*
X710Y1796D01*
X0Y1795D02*
X7Y1795D01*
X703Y1795D02*
X710Y1795D01*
X0Y1794D02*
X7Y1794D01*
X703Y1794D02*
X710Y1794D01*
X0Y1793D02*
X7Y1793D01*
X703Y1793D02*
X710Y1793D01*
X0Y1792D02*
X7Y1792D01*
X703Y1792D02*
X710Y1792D01*
X0Y1791D02*
X7Y1791D01*
X703Y1791D02*
X710Y1791D01*
X0Y1790D02*
X7Y1790D01*
X703Y1790D02*
X710Y1790D01*
X0Y1789D02*
X7Y1789D01*
X703Y1789D02*
X710Y1789D01*
X0Y1788D02*
X7Y1788D01*
X703Y1788D02*
X710Y1788D01*
X0Y1787D02*
X7Y1787D01*
X703Y1787D02*
X710Y1787D01*
X0Y1786D02*
X7Y1786D01*
X703Y1786D02*
X710Y1786D01*
X0Y1785D02*
X7Y1785D01*
X703Y1785D02*
X710Y1785D01*
X0Y1784D02*
X7Y1784D01*
X703Y1784D02*
X710Y1784D01*
X0Y1783D02*
X7Y1783D01*
X703Y1783D02*
X710Y1783D01*
X0Y1782D02*
X7Y1782D01*
X703Y1782D02*
X710Y1782D01*
X0Y1781D02*
X7Y1781D01*
X703Y1781D02*
X710Y1781D01*
X0Y1780D02*
X7Y1780D01*
X703Y1780D02*
X710Y1780D01*
X0Y1779D02*
X7Y1779D01*
X703Y1779D02*
X710Y1779D01*
X0Y1778D02*
X7Y1778D01*
X703Y1778D02*
X710Y1778D01*
X0Y1777D02*
X7Y1777D01*
X703Y1777D02*
X710Y1777D01*
X0Y1776D02*
X7Y1776D01*
X703Y1776D02*
X710Y1776D01*
X0Y1775D02*
X7Y1775D01*
X703Y1775D02*
X710Y1775D01*
X0Y1774D02*
X7Y1774D01*
X703Y1774D02*
X710Y1774D01*
X0Y1773D02*
X7Y1773D01*
X703Y1773D02*
X710Y1773D01*
X0Y1772D02*
X7Y1772D01*
X703Y1772D02*
X710Y1772D01*
X0Y1771D02*
X7Y1771D01*
X703Y1771D02*
X710Y1771D01*
X0Y1770D02*
X7Y1770D01*
X703Y1770D02*
X710Y1770D01*
X0Y1769D02*
X7Y1769D01*
X703Y1769D02*
X710Y1769D01*
X0Y1768D02*
X7Y1768D01*
X703Y1768D02*
X710Y1768D01*
X0Y1767D02*
X7Y1767D01*
X703Y1767D02*
X710Y1767D01*
X0Y1766D02*
X7Y1766D01*
X703Y1766D02*
X710Y1766D01*
X0Y1765D02*
X7Y1765D01*
X703Y1765D02*
X710Y1765D01*
X0Y1764D02*
X7Y1764D01*
X703Y1764D02*
X710Y1764D01*
X0Y1763D02*
X7Y1763D01*
X703Y1763D02*
X710Y1763D01*
X0Y1762D02*
X7Y1762D01*
X703Y1762D02*
X710Y1762D01*
X0Y1761D02*
X7Y1761D01*
X703Y1761D02*
X710Y1761D01*
X0Y1760D02*
X7Y1760D01*
X703Y1760D02*
X710Y1760D01*
X0Y1759D02*
X7Y1759D01*
X703Y1759D02*
X710Y1759D01*
X0Y1758D02*
X7Y1758D01*
X703Y1758D02*
X710Y1758D01*
X0Y1757D02*
X7Y1757D01*
X703Y1757D02*
X710Y1757D01*
X0Y1756D02*
X7Y1756D01*
X703Y1756D02*
X710Y1756D01*
X0Y1755D02*
X7Y1755D01*
X703Y1755D02*
X710Y1755D01*
X0Y1754D02*
X7Y1754D01*
X703Y1754D02*
X710Y1754D01*
X0Y1753D02*
X7Y1753D01*
X703Y1753D02*
X710Y1753D01*
X0Y1752D02*
X7Y1752D01*
X703Y1752D02*
X710Y1752D01*
X0Y1751D02*
X7Y1751D01*
X703Y1751D02*
X710Y1751D01*
X0Y1750D02*
X7Y1750D01*
X703Y1750D02*
X710Y1750D01*
X0Y1749D02*
X7Y1749D01*
X703Y1749D02*
X710Y1749D01*
X0Y1748D02*
X7Y1748D01*
X703Y1748D02*
X710Y1748D01*
X0Y1747D02*
X7Y1747D01*
X703Y1747D02*
X710Y1747D01*
X0Y1746D02*
X7Y1746D01*
X703Y1746D02*
X710Y1746D01*
X0Y1745D02*
X7Y1745D01*
X703Y1745D02*
X710Y1745D01*
X0Y1744D02*
X7Y1744D01*
X703Y1744D02*
X710Y1744D01*
X0Y1743D02*
X7Y1743D01*
X703Y1743D02*
X710Y1743D01*
X0Y1742D02*
X7Y1742D01*
X703Y1742D02*
X710Y1742D01*
X0Y1741D02*
X7Y1741D01*
X703Y1741D02*
X710Y1741D01*
X0Y1740D02*
X7Y1740D01*
X703Y1740D02*
X710Y1740D01*
X0Y1739D02*
X7Y1739D01*
X703Y1739D02*
X710Y1739D01*
X0Y1738D02*
X7Y1738D01*
X703Y1738D02*
X710Y1738D01*
X0Y1737D02*
X7Y1737D01*
X703Y1737D02*
X710Y1737D01*
X0Y1736D02*
X7Y1736D01*
X703Y1736D02*
X710Y1736D01*
X0Y1735D02*
X7Y1735D01*
X703Y1735D02*
X710Y1735D01*
X0Y1734D02*
X7Y1734D01*
X703Y1734D02*
X710Y1734D01*
X0Y1733D02*
X7Y1733D01*
X703Y1733D02*
X710Y1733D01*
X0Y1732D02*
X7Y1732D01*
X703Y1732D02*
X710Y1732D01*
X0Y1731D02*
X7Y1731D01*
X703Y1731D02*
X710Y1731D01*
X0Y1730D02*
X7Y1730D01*
X703Y1730D02*
X710Y1730D01*
X0Y1729D02*
X7Y1729D01*
X703Y1729D02*
X710Y1729D01*
X0Y1728D02*
X7Y1728D01*
X703Y1728D02*
X710Y1728D01*
X0Y1727D02*
X7Y1727D01*
X703Y1727D02*
X710Y1727D01*
X0Y1726D02*
X7Y1726D01*
X703Y1726D02*
X710Y1726D01*
X0Y1725D02*
X7Y1725D01*
X703Y1725D02*
X710Y1725D01*
X0Y1724D02*
X7Y1724D01*
X703Y1724D02*
X710Y1724D01*
X0Y1723D02*
X7Y1723D01*
X703Y1723D02*
X710Y1723D01*
X0Y1722D02*
X7Y1722D01*
X703Y1722D02*
X710Y1722D01*
X0Y1721D02*
X7Y1721D01*
X703Y1721D02*
X710Y1721D01*
X0Y1720D02*
X7Y1720D01*
X703Y1720D02*
X710Y1720D01*
X0Y1719D02*
X7Y1719D01*
X703Y1719D02*
X710Y1719D01*
X0Y1718D02*
X7Y1718D01*
X703Y1718D02*
X710Y1718D01*
X0Y1717D02*
X7Y1717D01*
X703Y1717D02*
X710Y1717D01*
X0Y1716D02*
X7Y1716D01*
X703Y1716D02*
X710Y1716D01*
X0Y1715D02*
X7Y1715D01*
X703Y1715D02*
X710Y1715D01*
X0Y1714D02*
X7Y1714D01*
X703Y1714D02*
X710Y1714D01*
X0Y1713D02*
X7Y1713D01*
X703Y1713D02*
X710Y1713D01*
X0Y1712D02*
X7Y1712D01*
X703Y1712D02*
X710Y1712D01*
X0Y1711D02*
X7Y1711D01*
X703Y1711D02*
X710Y1711D01*
X0Y1710D02*
X7Y1710D01*
X703Y1710D02*
X710Y1710D01*
X0Y1709D02*
X7Y1709D01*
X703Y1709D02*
X710Y1709D01*
X0Y1708D02*
X7Y1708D01*
X703Y1708D02*
X710Y1708D01*
X0Y1707D02*
X7Y1707D01*
X703Y1707D02*
X710Y1707D01*
X0Y1706D02*
X7Y1706D01*
X703Y1706D02*
X710Y1706D01*
X0Y1705D02*
X7Y1705D01*
X703Y1705D02*
X710Y1705D01*
X0Y1704D02*
X7Y1704D01*
X703Y1704D02*
X710Y1704D01*
X0Y1703D02*
X7Y1703D01*
X703Y1703D02*
X710Y1703D01*
X0Y1702D02*
X7Y1702D01*
X703Y1702D02*
X710Y1702D01*
X0Y1701D02*
X7Y1701D01*
X703Y1701D02*
X710Y1701D01*
X0Y1700D02*
X7Y1700D01*
X703Y1700D02*
X710Y1700D01*
X0Y1699D02*
X7Y1699D01*
X703Y1699D02*
X710Y1699D01*
X0Y1698D02*
X7Y1698D01*
X703Y1698D02*
X710Y1698D01*
X0Y1697D02*
X7Y1697D01*
X703Y1697D02*
X710Y1697D01*
X0Y1696D02*
X7Y1696D01*
X703Y1696D02*
X710Y1696D01*
X0Y1695D02*
X7Y1695D01*
X703Y1695D02*
X710Y1695D01*
X0Y1694D02*
X7Y1694D01*
X703Y1694D02*
X710Y1694D01*
X0Y1693D02*
X7Y1693D01*
X703Y1693D02*
X710Y1693D01*
X0Y1692D02*
X7Y1692D01*
X703Y1692D02*
X710Y1692D01*
X0Y1691D02*
X7Y1691D01*
X703Y1691D02*
X710Y1691D01*
X0Y1690D02*
X7Y1690D01*
X703Y1690D02*
X710Y1690D01*
X0Y1689D02*
X7Y1689D01*
X703Y1689D02*
X710Y1689D01*
X0Y1688D02*
X7Y1688D01*
X703Y1688D02*
X710Y1688D01*
X0Y1687D02*
X7Y1687D01*
X703Y1687D02*
X710Y1687D01*
X0Y1686D02*
X7Y1686D01*
X703Y1686D02*
X710Y1686D01*
X0Y1685D02*
X7Y1685D01*
X703Y1685D02*
X710Y1685D01*
X0Y1684D02*
X7Y1684D01*
X703Y1684D02*
X710Y1684D01*
X0Y1683D02*
X7Y1683D01*
X703Y1683D02*
X710Y1683D01*
X0Y1682D02*
X7Y1682D01*
X703Y1682D02*
X710Y1682D01*
X0Y1681D02*
X7Y1681D01*
X703Y1681D02*
X710Y1681D01*
X0Y1680D02*
X7Y1680D01*
X703Y1680D02*
X710Y1680D01*
X0Y1679D02*
X7Y1679D01*
X703Y1679D02*
X710Y1679D01*
X0Y1678D02*
X7Y1678D01*
X703Y1678D02*
X710Y1678D01*
X0Y1677D02*
X7Y1677D01*
X703Y1677D02*
X710Y1677D01*
X0Y1676D02*
X7Y1676D01*
X703Y1676D02*
X710Y1676D01*
X0Y1675D02*
X7Y1675D01*
X703Y1675D02*
X710Y1675D01*
X0Y1674D02*
X7Y1674D01*
X703Y1674D02*
X710Y1674D01*
X0Y1673D02*
X7Y1673D01*
X703Y1673D02*
X710Y1673D01*
X0Y1672D02*
X7Y1672D01*
X703Y1672D02*
X710Y1672D01*
X0Y1671D02*
X7Y1671D01*
X703Y1671D02*
X710Y1671D01*
X0Y1670D02*
X7Y1670D01*
X703Y1670D02*
X710Y1670D01*
X0Y1669D02*
X7Y1669D01*
X703Y1669D02*
X710Y1669D01*
X0Y1668D02*
X7Y1668D01*
X703Y1668D02*
X710Y1668D01*
X0Y1667D02*
X7Y1667D01*
X703Y1667D02*
X710Y1667D01*
X0Y1666D02*
X7Y1666D01*
X703Y1666D02*
X710Y1666D01*
X0Y1665D02*
X7Y1665D01*
X703Y1665D02*
X710Y1665D01*
X0Y1664D02*
X7Y1664D01*
X703Y1664D02*
X710Y1664D01*
X0Y1663D02*
X7Y1663D01*
X703Y1663D02*
X710Y1663D01*
X0Y1662D02*
X7Y1662D01*
X703Y1662D02*
X710Y1662D01*
X0Y1661D02*
X7Y1661D01*
X703Y1661D02*
X710Y1661D01*
X0Y1660D02*
X7Y1660D01*
X703Y1660D02*
X710Y1660D01*
X0Y1659D02*
X7Y1659D01*
X703Y1659D02*
X710Y1659D01*
X0Y1658D02*
X7Y1658D01*
X703Y1658D02*
X710Y1658D01*
X0Y1657D02*
X7Y1657D01*
X703Y1657D02*
X710Y1657D01*
X0Y1656D02*
X7Y1656D01*
X703Y1656D02*
X710Y1656D01*
X0Y1655D02*
X7Y1655D01*
X703Y1655D02*
X710Y1655D01*
X0Y1654D02*
X7Y1654D01*
X703Y1654D02*
X710Y1654D01*
X0Y1653D02*
X7Y1653D01*
X703Y1653D02*
X710Y1653D01*
X0Y1652D02*
X7Y1652D01*
X703Y1652D02*
X710Y1652D01*
X0Y1651D02*
X7Y1651D01*
X703Y1651D02*
X710Y1651D01*
X0Y1650D02*
X7Y1650D01*
X703Y1650D02*
X710Y1650D01*
X0Y1649D02*
X7Y1649D01*
X703Y1649D02*
X710Y1649D01*
X0Y1648D02*
X7Y1648D01*
X703Y1648D02*
X710Y1648D01*
X0Y1647D02*
X7Y1647D01*
X703Y1647D02*
X710Y1647D01*
X0Y1646D02*
X7Y1646D01*
X703Y1646D02*
X710Y1646D01*
X0Y1645D02*
X7Y1645D01*
X703Y1645D02*
X710Y1645D01*
X0Y1644D02*
X7Y1644D01*
X703Y1644D02*
X710Y1644D01*
X0Y1643D02*
X7Y1643D01*
X703Y1643D02*
X710Y1643D01*
X0Y1642D02*
X7Y1642D01*
X703Y1642D02*
X710Y1642D01*
X0Y1641D02*
X7Y1641D01*
X703Y1641D02*
X710Y1641D01*
X0Y1640D02*
X7Y1640D01*
X703Y1640D02*
X710Y1640D01*
X0Y1639D02*
X7Y1639D01*
X703Y1639D02*
X710Y1639D01*
X0Y1638D02*
X7Y1638D01*
X703Y1638D02*
X710Y1638D01*
X0Y1637D02*
X7Y1637D01*
X703Y1637D02*
X710Y1637D01*
X0Y1636D02*
X7Y1636D01*
X703Y1636D02*
X710Y1636D01*
X0Y1635D02*
X7Y1635D01*
X703Y1635D02*
X710Y1635D01*
X0Y1634D02*
X7Y1634D01*
X703Y1634D02*
X710Y1634D01*
X0Y1633D02*
X7Y1633D01*
X703Y1633D02*
X710Y1633D01*
X0Y1632D02*
X7Y1632D01*
X703Y1632D02*
X710Y1632D01*
X0Y1631D02*
X7Y1631D01*
X703Y1631D02*
X710Y1631D01*
X0Y1630D02*
X7Y1630D01*
X703Y1630D02*
X710Y1630D01*
X0Y1629D02*
X7Y1629D01*
X703Y1629D02*
X710Y1629D01*
X0Y1628D02*
X7Y1628D01*
X703Y1628D02*
X710Y1628D01*
X0Y1627D02*
X7Y1627D01*
X703Y1627D02*
X710Y1627D01*
X0Y1626D02*
X7Y1626D01*
X703Y1626D02*
X710Y1626D01*
X0Y1625D02*
X7Y1625D01*
X703Y1625D02*
X710Y1625D01*
X0Y1624D02*
X7Y1624D01*
X703Y1624D02*
X710Y1624D01*
X0Y1623D02*
X7Y1623D01*
X703Y1623D02*
X710Y1623D01*
X0Y1622D02*
X7Y1622D01*
X703Y1622D02*
X710Y1622D01*
X0Y1621D02*
X7Y1621D01*
X703Y1621D02*
X710Y1621D01*
X0Y1620D02*
X7Y1620D01*
X703Y1620D02*
X710Y1620D01*
X0Y1619D02*
X7Y1619D01*
X703Y1619D02*
X710Y1619D01*
X0Y1618D02*
X7Y1618D01*
X703Y1618D02*
X710Y1618D01*
X0Y1617D02*
X7Y1617D01*
X703Y1617D02*
X710Y1617D01*
X0Y1616D02*
X7Y1616D01*
X703Y1616D02*
X710Y1616D01*
X0Y1615D02*
X7Y1615D01*
X703Y1615D02*
X710Y1615D01*
X0Y1614D02*
X7Y1614D01*
X703Y1614D02*
X710Y1614D01*
X0Y1613D02*
X7Y1613D01*
X703Y1613D02*
X710Y1613D01*
X0Y1612D02*
X7Y1612D01*
X703Y1612D02*
X710Y1612D01*
X0Y1611D02*
X7Y1611D01*
X703Y1611D02*
X710Y1611D01*
X0Y1610D02*
X7Y1610D01*
X703Y1610D02*
X710Y1610D01*
X0Y1609D02*
X7Y1609D01*
X703Y1609D02*
X710Y1609D01*
X0Y1608D02*
X7Y1608D01*
X703Y1608D02*
X710Y1608D01*
X0Y1607D02*
X7Y1607D01*
X703Y1607D02*
X710Y1607D01*
X0Y1606D02*
X7Y1606D01*
X703Y1606D02*
X710Y1606D01*
X0Y1605D02*
X7Y1605D01*
X703Y1605D02*
X710Y1605D01*
X0Y1604D02*
X7Y1604D01*
X703Y1604D02*
X710Y1604D01*
X0Y1603D02*
X7Y1603D01*
X703Y1603D02*
X710Y1603D01*
X0Y1602D02*
X7Y1602D01*
X703Y1602D02*
X710Y1602D01*
X0Y1601D02*
X7Y1601D01*
X703Y1601D02*
X710Y1601D01*
X0Y1600D02*
X7Y1600D01*
X703Y1600D02*
X710Y1600D01*
X0Y1599D02*
X7Y1599D01*
X703Y1599D02*
X710Y1599D01*
X0Y1598D02*
X7Y1598D01*
X703Y1598D02*
X710Y1598D01*
X0Y1597D02*
X7Y1597D01*
X703Y1597D02*
X710Y1597D01*
X0Y1596D02*
X7Y1596D01*
X703Y1596D02*
X710Y1596D01*
X0Y1595D02*
X7Y1595D01*
X703Y1595D02*
X710Y1595D01*
X0Y1594D02*
X7Y1594D01*
X703Y1594D02*
X710Y1594D01*
X0Y1593D02*
X7Y1593D01*
X703Y1593D02*
X710Y1593D01*
X0Y1592D02*
X7Y1592D01*
X703Y1592D02*
X710Y1592D01*
X0Y1591D02*
X7Y1591D01*
X703Y1591D02*
X710Y1591D01*
X0Y1590D02*
X7Y1590D01*
X703Y1590D02*
X710Y1590D01*
X0Y1589D02*
X7Y1589D01*
X703Y1589D02*
X710Y1589D01*
X0Y1588D02*
X7Y1588D01*
X703Y1588D02*
X710Y1588D01*
X0Y1587D02*
X7Y1587D01*
X703Y1587D02*
X710Y1587D01*
X0Y1586D02*
X7Y1586D01*
X703Y1586D02*
X710Y1586D01*
X0Y1585D02*
X7Y1585D01*
X703Y1585D02*
X710Y1585D01*
X0Y1584D02*
X7Y1584D01*
X703Y1584D02*
X710Y1584D01*
X0Y1583D02*
X7Y1583D01*
X703Y1583D02*
X710Y1583D01*
X0Y1582D02*
X7Y1582D01*
X703Y1582D02*
X710Y1582D01*
X0Y1581D02*
X7Y1581D01*
X703Y1581D02*
X710Y1581D01*
X0Y1580D02*
X7Y1580D01*
X703Y1580D02*
X710Y1580D01*
X0Y1579D02*
X7Y1579D01*
X703Y1579D02*
X710Y1579D01*
X0Y1578D02*
X7Y1578D01*
X703Y1578D02*
X710Y1578D01*
X0Y1577D02*
X7Y1577D01*
X703Y1577D02*
X710Y1577D01*
X0Y1576D02*
X7Y1576D01*
X703Y1576D02*
X710Y1576D01*
X0Y1575D02*
X7Y1575D01*
X703Y1575D02*
X710Y1575D01*
X0Y1574D02*
X7Y1574D01*
X703Y1574D02*
X710Y1574D01*
X0Y1573D02*
X7Y1573D01*
X703Y1573D02*
X710Y1573D01*
X0Y1572D02*
X7Y1572D01*
X703Y1572D02*
X710Y1572D01*
X0Y1571D02*
X7Y1571D01*
X703Y1571D02*
X710Y1571D01*
X0Y1570D02*
X7Y1570D01*
X703Y1570D02*
X710Y1570D01*
X0Y1569D02*
X7Y1569D01*
X703Y1569D02*
X710Y1569D01*
X0Y1568D02*
X7Y1568D01*
X703Y1568D02*
X710Y1568D01*
X0Y1567D02*
X7Y1567D01*
X703Y1567D02*
X710Y1567D01*
X0Y1566D02*
X7Y1566D01*
X703Y1566D02*
X710Y1566D01*
X0Y1565D02*
X7Y1565D01*
X703Y1565D02*
X710Y1565D01*
X0Y1564D02*
X7Y1564D01*
X703Y1564D02*
X710Y1564D01*
X0Y1563D02*
X7Y1563D01*
X703Y1563D02*
X710Y1563D01*
X0Y1562D02*
X7Y1562D01*
X703Y1562D02*
X710Y1562D01*
X0Y1561D02*
X7Y1561D01*
X703Y1561D02*
X710Y1561D01*
X0Y1560D02*
X7Y1560D01*
X703Y1560D02*
X710Y1560D01*
X0Y1559D02*
X7Y1559D01*
X703Y1559D02*
X710Y1559D01*
X0Y1558D02*
X7Y1558D01*
X703Y1558D02*
X710Y1558D01*
X0Y1557D02*
X7Y1557D01*
X703Y1557D02*
X710Y1557D01*
X0Y1556D02*
X7Y1556D01*
X703Y1556D02*
X710Y1556D01*
X0Y1555D02*
X7Y1555D01*
X703Y1555D02*
X710Y1555D01*
X0Y1554D02*
X7Y1554D01*
X703Y1554D02*
X710Y1554D01*
X0Y1553D02*
X7Y1553D01*
X703Y1553D02*
X710Y1553D01*
X0Y1552D02*
X7Y1552D01*
X703Y1552D02*
X710Y1552D01*
X0Y1551D02*
X7Y1551D01*
X703Y1551D02*
X710Y1551D01*
X0Y1550D02*
X7Y1550D01*
X703Y1550D02*
X710Y1550D01*
X0Y1549D02*
X7Y1549D01*
X703Y1549D02*
X710Y1549D01*
X0Y1548D02*
X7Y1548D01*
X703Y1548D02*
X710Y1548D01*
X0Y1547D02*
X7Y1547D01*
X703Y1547D02*
X710Y1547D01*
X0Y1546D02*
X7Y1546D01*
X703Y1546D02*
X710Y1546D01*
X0Y1545D02*
X7Y1545D01*
X703Y1545D02*
X710Y1545D01*
X0Y1544D02*
X7Y1544D01*
X703Y1544D02*
X710Y1544D01*
X0Y1543D02*
X7Y1543D01*
X703Y1543D02*
X710Y1543D01*
X0Y1542D02*
X7Y1542D01*
X703Y1542D02*
X710Y1542D01*
X0Y1541D02*
X7Y1541D01*
X703Y1541D02*
X710Y1541D01*
X0Y1540D02*
X7Y1540D01*
X703Y1540D02*
X710Y1540D01*
X0Y1539D02*
X7Y1539D01*
X703Y1539D02*
X710Y1539D01*
X0Y1538D02*
X7Y1538D01*
X703Y1538D02*
X710Y1538D01*
X0Y1537D02*
X7Y1537D01*
X703Y1537D02*
X710Y1537D01*
X0Y1536D02*
X7Y1536D01*
X703Y1536D02*
X710Y1536D01*
X0Y1535D02*
X7Y1535D01*
X703Y1535D02*
X710Y1535D01*
X0Y1534D02*
X7Y1534D01*
X703Y1534D02*
X710Y1534D01*
X0Y1533D02*
X7Y1533D01*
X703Y1533D02*
X710Y1533D01*
X0Y1532D02*
X7Y1532D01*
X703Y1532D02*
X710Y1532D01*
X0Y1531D02*
X7Y1531D01*
X703Y1531D02*
X710Y1531D01*
X0Y1530D02*
X7Y1530D01*
X703Y1530D02*
X710Y1530D01*
X0Y1529D02*
X7Y1529D01*
X703Y1529D02*
X710Y1529D01*
X0Y1528D02*
X7Y1528D01*
X703Y1528D02*
X710Y1528D01*
X0Y1527D02*
X7Y1527D01*
X703Y1527D02*
X710Y1527D01*
X0Y1526D02*
X7Y1526D01*
X703Y1526D02*
X710Y1526D01*
X0Y1525D02*
X7Y1525D01*
X703Y1525D02*
X710Y1525D01*
X0Y1524D02*
X7Y1524D01*
X703Y1524D02*
X710Y1524D01*
X0Y1523D02*
X7Y1523D01*
X703Y1523D02*
X710Y1523D01*
X0Y1522D02*
X7Y1522D01*
X703Y1522D02*
X710Y1522D01*
X0Y1521D02*
X7Y1521D01*
X703Y1521D02*
X710Y1521D01*
X0Y1520D02*
X7Y1520D01*
X703Y1520D02*
X710Y1520D01*
X0Y1519D02*
X7Y1519D01*
X703Y1519D02*
X710Y1519D01*
X0Y1518D02*
X7Y1518D01*
X703Y1518D02*
X710Y1518D01*
X0Y1517D02*
X7Y1517D01*
X703Y1517D02*
X710Y1517D01*
X0Y1516D02*
X7Y1516D01*
X703Y1516D02*
X710Y1516D01*
X0Y1515D02*
X7Y1515D01*
X703Y1515D02*
X710Y1515D01*
X0Y1514D02*
X7Y1514D01*
X703Y1514D02*
X710Y1514D01*
X0Y1513D02*
X7Y1513D01*
X703Y1513D02*
X710Y1513D01*
X0Y1512D02*
X7Y1512D01*
X703Y1512D02*
X710Y1512D01*
X0Y1511D02*
X7Y1511D01*
X703Y1511D02*
X710Y1511D01*
X0Y1510D02*
X7Y1510D01*
X703Y1510D02*
X710Y1510D01*
X0Y1509D02*
X7Y1509D01*
X703Y1509D02*
X710Y1509D01*
X0Y1508D02*
X7Y1508D01*
X703Y1508D02*
X710Y1508D01*
X0Y1507D02*
X7Y1507D01*
X703Y1507D02*
X710Y1507D01*
X0Y1506D02*
X7Y1506D01*
X703Y1506D02*
X710Y1506D01*
X0Y1505D02*
X7Y1505D01*
X703Y1505D02*
X710Y1505D01*
X0Y1504D02*
X7Y1504D01*
X703Y1504D02*
X710Y1504D01*
X0Y1503D02*
X7Y1503D01*
X703Y1503D02*
X710Y1503D01*
X0Y1502D02*
X7Y1502D01*
X703Y1502D02*
X710Y1502D01*
X0Y1501D02*
X7Y1501D01*
X703Y1501D02*
X710Y1501D01*
X0Y1500D02*
X7Y1500D01*
X703Y1500D02*
X710Y1500D01*
X0Y1499D02*
X7Y1499D01*
X703Y1499D02*
X710Y1499D01*
X0Y1498D02*
X7Y1498D01*
X703Y1498D02*
X710Y1498D01*
X0Y1497D02*
X7Y1497D01*
X703Y1497D02*
X710Y1497D01*
X0Y1496D02*
X7Y1496D01*
X703Y1496D02*
X710Y1496D01*
X0Y1495D02*
X7Y1495D01*
X703Y1495D02*
X710Y1495D01*
X0Y1494D02*
X7Y1494D01*
X703Y1494D02*
X710Y1494D01*
X0Y1493D02*
X7Y1493D01*
X703Y1493D02*
X710Y1493D01*
X0Y1492D02*
X7Y1492D01*
X703Y1492D02*
X710Y1492D01*
X0Y1491D02*
X7Y1491D01*
X703Y1491D02*
X710Y1491D01*
X0Y1490D02*
X7Y1490D01*
X703Y1490D02*
X710Y1490D01*
X0Y1489D02*
X7Y1489D01*
X703Y1489D02*
X710Y1489D01*
X0Y1488D02*
X7Y1488D01*
X703Y1488D02*
X710Y1488D01*
X0Y1487D02*
X7Y1487D01*
X703Y1487D02*
X710Y1487D01*
X0Y1486D02*
X7Y1486D01*
X703Y1486D02*
X710Y1486D01*
X0Y1485D02*
X7Y1485D01*
X703Y1485D02*
X710Y1485D01*
X0Y1484D02*
X7Y1484D01*
X703Y1484D02*
X710Y1484D01*
X0Y1483D02*
X7Y1483D01*
X703Y1483D02*
X710Y1483D01*
X0Y1482D02*
X7Y1482D01*
X703Y1482D02*
X710Y1482D01*
X0Y1481D02*
X7Y1481D01*
X703Y1481D02*
X710Y1481D01*
X0Y1480D02*
X7Y1480D01*
X703Y1480D02*
X710Y1480D01*
X0Y1479D02*
X7Y1479D01*
X703Y1479D02*
X710Y1479D01*
X0Y1478D02*
X7Y1478D01*
X703Y1478D02*
X710Y1478D01*
X0Y1477D02*
X7Y1477D01*
X703Y1477D02*
X710Y1477D01*
X0Y1476D02*
X7Y1476D01*
X703Y1476D02*
X710Y1476D01*
X0Y1475D02*
X7Y1475D01*
X703Y1475D02*
X710Y1475D01*
X0Y1474D02*
X7Y1474D01*
X703Y1474D02*
X710Y1474D01*
X0Y1473D02*
X7Y1473D01*
X703Y1473D02*
X710Y1473D01*
X0Y1472D02*
X7Y1472D01*
X703Y1472D02*
X710Y1472D01*
X0Y1471D02*
X7Y1471D01*
X703Y1471D02*
X710Y1471D01*
X0Y1470D02*
X7Y1470D01*
X703Y1470D02*
X710Y1470D01*
X0Y1469D02*
X7Y1469D01*
X703Y1469D02*
X710Y1469D01*
X0Y1468D02*
X7Y1468D01*
X703Y1468D02*
X710Y1468D01*
X0Y1467D02*
X7Y1467D01*
X703Y1467D02*
X710Y1467D01*
X0Y1466D02*
X7Y1466D01*
X703Y1466D02*
X710Y1466D01*
X0Y1465D02*
X7Y1465D01*
X703Y1465D02*
X710Y1465D01*
X0Y1464D02*
X7Y1464D01*
X703Y1464D02*
X710Y1464D01*
X0Y1463D02*
X7Y1463D01*
X703Y1463D02*
X710Y1463D01*
X0Y1462D02*
X7Y1462D01*
X703Y1462D02*
X710Y1462D01*
X0Y1461D02*
X7Y1461D01*
X703Y1461D02*
X710Y1461D01*
X0Y1460D02*
X7Y1460D01*
X703Y1460D02*
X710Y1460D01*
X0Y1459D02*
X7Y1459D01*
X703Y1459D02*
X710Y1459D01*
X0Y1458D02*
X7Y1458D01*
X703Y1458D02*
X710Y1458D01*
X0Y1457D02*
X7Y1457D01*
X703Y1457D02*
X710Y1457D01*
X0Y1456D02*
X7Y1456D01*
X703Y1456D02*
X710Y1456D01*
X0Y1455D02*
X7Y1455D01*
X703Y1455D02*
X710Y1455D01*
X0Y1454D02*
X7Y1454D01*
X703Y1454D02*
X710Y1454D01*
X0Y1453D02*
X7Y1453D01*
X703Y1453D02*
X710Y1453D01*
X0Y1452D02*
X7Y1452D01*
X703Y1452D02*
X710Y1452D01*
X0Y1451D02*
X7Y1451D01*
X703Y1451D02*
X710Y1451D01*
X0Y1450D02*
X7Y1450D01*
X703Y1450D02*
X710Y1450D01*
X0Y1449D02*
X7Y1449D01*
X703Y1449D02*
X710Y1449D01*
X0Y1448D02*
X7Y1448D01*
X703Y1448D02*
X710Y1448D01*
X0Y1447D02*
X7Y1447D01*
X703Y1447D02*
X710Y1447D01*
X0Y1446D02*
X7Y1446D01*
X703Y1446D02*
X710Y1446D01*
X0Y1445D02*
X7Y1445D01*
X703Y1445D02*
X710Y1445D01*
X0Y1444D02*
X7Y1444D01*
X703Y1444D02*
X710Y1444D01*
X0Y1443D02*
X7Y1443D01*
X703Y1443D02*
X710Y1443D01*
X0Y1442D02*
X7Y1442D01*
X703Y1442D02*
X710Y1442D01*
X0Y1441D02*
X7Y1441D01*
X703Y1441D02*
X710Y1441D01*
X0Y1440D02*
X7Y1440D01*
X703Y1440D02*
X710Y1440D01*
X0Y1439D02*
X7Y1439D01*
X703Y1439D02*
X710Y1439D01*
X0Y1438D02*
X7Y1438D01*
X703Y1438D02*
X710Y1438D01*
X0Y1437D02*
X7Y1437D01*
X703Y1437D02*
X710Y1437D01*
X0Y1436D02*
X7Y1436D01*
X703Y1436D02*
X710Y1436D01*
X0Y1435D02*
X7Y1435D01*
X703Y1435D02*
X710Y1435D01*
X0Y1434D02*
X7Y1434D01*
X703Y1434D02*
X710Y1434D01*
X0Y1433D02*
X7Y1433D01*
X703Y1433D02*
X710Y1433D01*
X0Y1432D02*
X7Y1432D01*
X703Y1432D02*
X710Y1432D01*
X0Y1431D02*
X7Y1431D01*
X703Y1431D02*
X710Y1431D01*
X0Y1430D02*
X7Y1430D01*
X703Y1430D02*
X710Y1430D01*
X0Y1429D02*
X7Y1429D01*
X703Y1429D02*
X710Y1429D01*
X0Y1428D02*
X7Y1428D01*
X703Y1428D02*
X710Y1428D01*
X0Y1427D02*
X7Y1427D01*
X703Y1427D02*
X710Y1427D01*
X0Y1426D02*
X7Y1426D01*
X703Y1426D02*
X710Y1426D01*
X0Y1425D02*
X7Y1425D01*
X703Y1425D02*
X710Y1425D01*
X0Y1424D02*
X7Y1424D01*
X703Y1424D02*
X710Y1424D01*
X0Y1423D02*
X7Y1423D01*
X703Y1423D02*
X710Y1423D01*
X0Y1422D02*
X7Y1422D01*
X703Y1422D02*
X710Y1422D01*
X0Y1421D02*
X7Y1421D01*
X703Y1421D02*
X710Y1421D01*
X0Y1420D02*
X7Y1420D01*
X703Y1420D02*
X710Y1420D01*
X0Y1419D02*
X7Y1419D01*
X703Y1419D02*
X710Y1419D01*
X0Y1418D02*
X7Y1418D01*
X703Y1418D02*
X710Y1418D01*
X0Y1417D02*
X7Y1417D01*
X703Y1417D02*
X710Y1417D01*
X0Y1416D02*
X7Y1416D01*
X703Y1416D02*
X710Y1416D01*
X0Y1415D02*
X7Y1415D01*
X703Y1415D02*
X710Y1415D01*
X0Y1414D02*
X7Y1414D01*
X703Y1414D02*
X710Y1414D01*
X0Y1413D02*
X7Y1413D01*
X703Y1413D02*
X710Y1413D01*
X0Y1412D02*
X7Y1412D01*
X703Y1412D02*
X710Y1412D01*
X0Y1411D02*
X7Y1411D01*
X703Y1411D02*
X710Y1411D01*
X0Y1410D02*
X7Y1410D01*
X703Y1410D02*
X710Y1410D01*
X0Y1409D02*
X7Y1409D01*
X703Y1409D02*
X710Y1409D01*
X0Y1408D02*
X7Y1408D01*
X703Y1408D02*
X710Y1408D01*
X0Y1407D02*
X7Y1407D01*
X703Y1407D02*
X710Y1407D01*
X0Y1406D02*
X7Y1406D01*
X703Y1406D02*
X710Y1406D01*
X0Y1405D02*
X7Y1405D01*
X703Y1405D02*
X710Y1405D01*
X0Y1404D02*
X7Y1404D01*
X703Y1404D02*
X710Y1404D01*
X0Y1403D02*
X7Y1403D01*
X703Y1403D02*
X710Y1403D01*
X0Y1402D02*
X7Y1402D01*
X703Y1402D02*
X710Y1402D01*
X0Y1401D02*
X7Y1401D01*
X703Y1401D02*
X710Y1401D01*
X0Y1400D02*
X7Y1400D01*
X703Y1400D02*
X710Y1400D01*
X0Y1399D02*
X7Y1399D01*
X703Y1399D02*
X710Y1399D01*
X0Y1398D02*
X7Y1398D01*
X703Y1398D02*
X710Y1398D01*
X0Y1397D02*
X7Y1397D01*
X703Y1397D02*
X710Y1397D01*
X0Y1396D02*
X7Y1396D01*
X703Y1396D02*
X710Y1396D01*
X0Y1395D02*
X7Y1395D01*
X703Y1395D02*
X710Y1395D01*
X0Y1394D02*
X7Y1394D01*
X703Y1394D02*
X710Y1394D01*
X0Y1393D02*
X7Y1393D01*
X703Y1393D02*
X710Y1393D01*
X0Y1392D02*
X7Y1392D01*
X703Y1392D02*
X710Y1392D01*
X0Y1391D02*
X7Y1391D01*
X703Y1391D02*
X710Y1391D01*
X0Y1390D02*
X7Y1390D01*
X703Y1390D02*
X710Y1390D01*
X0Y1389D02*
X7Y1389D01*
X703Y1389D02*
X710Y1389D01*
X0Y1388D02*
X7Y1388D01*
X703Y1388D02*
X710Y1388D01*
X0Y1387D02*
X7Y1387D01*
X703Y1387D02*
X710Y1387D01*
X0Y1386D02*
X7Y1386D01*
X703Y1386D02*
X710Y1386D01*
X0Y1385D02*
X7Y1385D01*
X703Y1385D02*
X710Y1385D01*
X0Y1384D02*
X7Y1384D01*
X703Y1384D02*
X710Y1384D01*
X0Y1383D02*
X7Y1383D01*
X703Y1383D02*
X710Y1383D01*
X0Y1382D02*
X7Y1382D01*
X703Y1382D02*
X710Y1382D01*
X0Y1381D02*
X7Y1381D01*
X703Y1381D02*
X710Y1381D01*
X0Y1380D02*
X7Y1380D01*
X703Y1380D02*
X710Y1380D01*
X0Y1379D02*
X7Y1379D01*
X703Y1379D02*
X710Y1379D01*
X0Y1378D02*
X7Y1378D01*
X703Y1378D02*
X710Y1378D01*
X0Y1377D02*
X7Y1377D01*
X703Y1377D02*
X710Y1377D01*
X0Y1376D02*
X7Y1376D01*
X703Y1376D02*
X710Y1376D01*
X0Y1375D02*
X7Y1375D01*
X703Y1375D02*
X710Y1375D01*
X0Y1374D02*
X7Y1374D01*
X703Y1374D02*
X710Y1374D01*
X0Y1373D02*
X7Y1373D01*
X703Y1373D02*
X710Y1373D01*
X0Y1372D02*
X7Y1372D01*
X703Y1372D02*
X710Y1372D01*
X0Y1371D02*
X7Y1371D01*
X703Y1371D02*
X710Y1371D01*
X0Y1370D02*
X7Y1370D01*
X703Y1370D02*
X710Y1370D01*
X0Y1369D02*
X7Y1369D01*
X703Y1369D02*
X710Y1369D01*
X0Y1368D02*
X7Y1368D01*
X703Y1368D02*
X710Y1368D01*
X0Y1367D02*
X7Y1367D01*
X703Y1367D02*
X710Y1367D01*
X0Y1366D02*
X7Y1366D01*
X703Y1366D02*
X710Y1366D01*
X0Y1365D02*
X7Y1365D01*
X703Y1365D02*
X710Y1365D01*
X0Y1364D02*
X7Y1364D01*
X703Y1364D02*
X710Y1364D01*
X0Y1363D02*
X7Y1363D01*
X703Y1363D02*
X710Y1363D01*
X0Y1362D02*
X7Y1362D01*
X703Y1362D02*
X710Y1362D01*
X0Y1361D02*
X7Y1361D01*
X703Y1361D02*
X710Y1361D01*
X0Y1360D02*
X7Y1360D01*
X703Y1360D02*
X710Y1360D01*
X0Y1359D02*
X7Y1359D01*
X703Y1359D02*
X710Y1359D01*
X0Y1358D02*
X7Y1358D01*
X703Y1358D02*
X710Y1358D01*
X0Y1357D02*
X7Y1357D01*
X703Y1357D02*
X710Y1357D01*
X0Y1356D02*
X7Y1356D01*
X703Y1356D02*
X710Y1356D01*
X0Y1355D02*
X7Y1355D01*
X703Y1355D02*
X710Y1355D01*
X0Y1354D02*
X7Y1354D01*
X703Y1354D02*
X710Y1354D01*
X0Y1353D02*
X7Y1353D01*
X703Y1353D02*
X710Y1353D01*
X0Y1352D02*
X7Y1352D01*
X703Y1352D02*
X710Y1352D01*
X0Y1351D02*
X7Y1351D01*
X703Y1351D02*
X710Y1351D01*
X0Y1350D02*
X7Y1350D01*
X703Y1350D02*
X710Y1350D01*
X0Y1349D02*
X7Y1349D01*
X703Y1349D02*
X710Y1349D01*
X0Y1348D02*
X7Y1348D01*
X703Y1348D02*
X710Y1348D01*
X0Y1347D02*
X7Y1347D01*
X703Y1347D02*
X710Y1347D01*
X0Y1346D02*
X7Y1346D01*
X703Y1346D02*
X710Y1346D01*
X0Y1345D02*
X7Y1345D01*
X703Y1345D02*
X710Y1345D01*
X0Y1344D02*
X7Y1344D01*
X703Y1344D02*
X710Y1344D01*
X0Y1343D02*
X7Y1343D01*
X703Y1343D02*
X710Y1343D01*
X0Y1342D02*
X7Y1342D01*
X703Y1342D02*
X710Y1342D01*
X0Y1341D02*
X7Y1341D01*
X703Y1341D02*
X710Y1341D01*
X0Y1340D02*
X7Y1340D01*
X703Y1340D02*
X710Y1340D01*
X0Y1339D02*
X7Y1339D01*
X703Y1339D02*
X710Y1339D01*
X0Y1338D02*
X7Y1338D01*
X703Y1338D02*
X710Y1338D01*
X0Y1337D02*
X7Y1337D01*
X703Y1337D02*
X710Y1337D01*
X0Y1336D02*
X7Y1336D01*
X703Y1336D02*
X710Y1336D01*
X0Y1335D02*
X7Y1335D01*
X703Y1335D02*
X710Y1335D01*
X0Y1334D02*
X7Y1334D01*
X703Y1334D02*
X710Y1334D01*
X0Y1333D02*
X7Y1333D01*
X703Y1333D02*
X710Y1333D01*
X0Y1332D02*
X7Y1332D01*
X703Y1332D02*
X710Y1332D01*
X0Y1331D02*
X7Y1331D01*
X703Y1331D02*
X710Y1331D01*
X0Y1330D02*
X7Y1330D01*
X703Y1330D02*
X710Y1330D01*
X0Y1329D02*
X7Y1329D01*
X703Y1329D02*
X710Y1329D01*
X0Y1328D02*
X7Y1328D01*
X703Y1328D02*
X710Y1328D01*
X0Y1327D02*
X7Y1327D01*
X703Y1327D02*
X710Y1327D01*
X0Y1326D02*
X7Y1326D01*
X703Y1326D02*
X710Y1326D01*
X0Y1325D02*
X7Y1325D01*
X703Y1325D02*
X710Y1325D01*
X0Y1324D02*
X7Y1324D01*
X703Y1324D02*
X710Y1324D01*
X0Y1323D02*
X7Y1323D01*
X703Y1323D02*
X710Y1323D01*
X0Y1322D02*
X7Y1322D01*
X703Y1322D02*
X710Y1322D01*
X0Y1321D02*
X7Y1321D01*
X703Y1321D02*
X710Y1321D01*
X0Y1320D02*
X7Y1320D01*
X703Y1320D02*
X710Y1320D01*
X0Y1319D02*
X7Y1319D01*
X703Y1319D02*
X710Y1319D01*
X0Y1318D02*
X7Y1318D01*
X703Y1318D02*
X710Y1318D01*
X0Y1317D02*
X7Y1317D01*
X703Y1317D02*
X710Y1317D01*
X0Y1316D02*
X7Y1316D01*
X703Y1316D02*
X710Y1316D01*
X0Y1315D02*
X7Y1315D01*
X703Y1315D02*
X710Y1315D01*
X0Y1314D02*
X7Y1314D01*
X703Y1314D02*
X710Y1314D01*
X0Y1313D02*
X7Y1313D01*
X703Y1313D02*
X710Y1313D01*
X0Y1312D02*
X7Y1312D01*
X703Y1312D02*
X710Y1312D01*
X0Y1311D02*
X7Y1311D01*
X703Y1311D02*
X710Y1311D01*
X0Y1310D02*
X7Y1310D01*
X703Y1310D02*
X710Y1310D01*
X0Y1309D02*
X7Y1309D01*
X703Y1309D02*
X710Y1309D01*
X0Y1308D02*
X7Y1308D01*
X703Y1308D02*
X710Y1308D01*
X0Y1307D02*
X7Y1307D01*
X703Y1307D02*
X710Y1307D01*
X0Y1306D02*
X7Y1306D01*
X703Y1306D02*
X710Y1306D01*
X0Y1305D02*
X7Y1305D01*
X703Y1305D02*
X710Y1305D01*
X0Y1304D02*
X7Y1304D01*
X703Y1304D02*
X710Y1304D01*
X0Y1303D02*
X7Y1303D01*
X703Y1303D02*
X710Y1303D01*
X0Y1302D02*
X7Y1302D01*
X703Y1302D02*
X710Y1302D01*
X0Y1301D02*
X7Y1301D01*
X703Y1301D02*
X710Y1301D01*
X0Y1300D02*
X7Y1300D01*
X703Y1300D02*
X710Y1300D01*
X0Y1299D02*
X7Y1299D01*
X703Y1299D02*
X710Y1299D01*
X0Y1298D02*
X7Y1298D01*
X703Y1298D02*
X710Y1298D01*
X0Y1297D02*
X7Y1297D01*
X703Y1297D02*
X710Y1297D01*
X0Y1296D02*
X7Y1296D01*
X703Y1296D02*
X710Y1296D01*
X0Y1295D02*
X7Y1295D01*
X703Y1295D02*
X710Y1295D01*
X0Y1294D02*
X7Y1294D01*
X703Y1294D02*
X710Y1294D01*
X0Y1293D02*
X7Y1293D01*
X703Y1293D02*
X710Y1293D01*
X0Y1292D02*
X7Y1292D01*
X703Y1292D02*
X710Y1292D01*
X0Y1291D02*
X7Y1291D01*
X703Y1291D02*
X710Y1291D01*
X0Y1290D02*
X7Y1290D01*
X703Y1290D02*
X710Y1290D01*
X0Y1289D02*
X7Y1289D01*
X703Y1289D02*
X710Y1289D01*
X0Y1288D02*
X7Y1288D01*
X703Y1288D02*
X710Y1288D01*
X0Y1287D02*
X7Y1287D01*
X703Y1287D02*
X710Y1287D01*
X0Y1286D02*
X7Y1286D01*
X703Y1286D02*
X710Y1286D01*
X0Y1285D02*
X7Y1285D01*
X703Y1285D02*
X710Y1285D01*
X0Y1284D02*
X7Y1284D01*
X703Y1284D02*
X710Y1284D01*
X0Y1283D02*
X7Y1283D01*
X703Y1283D02*
X710Y1283D01*
X0Y1282D02*
X7Y1282D01*
X703Y1282D02*
X710Y1282D01*
X0Y1281D02*
X7Y1281D01*
X703Y1281D02*
X710Y1281D01*
X0Y1280D02*
X7Y1280D01*
X703Y1280D02*
X710Y1280D01*
X0Y1279D02*
X7Y1279D01*
X703Y1279D02*
X710Y1279D01*
X0Y1278D02*
X7Y1278D01*
X703Y1278D02*
X710Y1278D01*
X0Y1277D02*
X7Y1277D01*
X703Y1277D02*
X710Y1277D01*
X0Y1276D02*
X7Y1276D01*
X703Y1276D02*
X710Y1276D01*
X0Y1275D02*
X7Y1275D01*
X703Y1275D02*
X710Y1275D01*
X0Y1274D02*
X7Y1274D01*
X703Y1274D02*
X710Y1274D01*
X0Y1273D02*
X7Y1273D01*
X703Y1273D02*
X710Y1273D01*
X0Y1272D02*
X7Y1272D01*
X703Y1272D02*
X710Y1272D01*
X0Y1271D02*
X7Y1271D01*
X703Y1271D02*
X710Y1271D01*
X0Y1270D02*
X7Y1270D01*
X703Y1270D02*
X710Y1270D01*
X0Y1269D02*
X7Y1269D01*
X703Y1269D02*
X710Y1269D01*
X0Y1268D02*
X7Y1268D01*
X703Y1268D02*
X710Y1268D01*
X0Y1267D02*
X7Y1267D01*
X703Y1267D02*
X710Y1267D01*
X0Y1266D02*
X7Y1266D01*
X703Y1266D02*
X710Y1266D01*
X0Y1265D02*
X7Y1265D01*
X703Y1265D02*
X710Y1265D01*
X0Y1264D02*
X7Y1264D01*
X703Y1264D02*
X710Y1264D01*
X0Y1263D02*
X7Y1263D01*
X703Y1263D02*
X710Y1263D01*
X0Y1262D02*
X7Y1262D01*
X703Y1262D02*
X710Y1262D01*
X0Y1261D02*
X7Y1261D01*
X703Y1261D02*
X710Y1261D01*
X0Y1260D02*
X7Y1260D01*
X703Y1260D02*
X710Y1260D01*
X0Y1259D02*
X7Y1259D01*
X703Y1259D02*
X710Y1259D01*
X0Y1258D02*
X7Y1258D01*
X703Y1258D02*
X710Y1258D01*
X0Y1257D02*
X7Y1257D01*
X703Y1257D02*
X710Y1257D01*
X0Y1256D02*
X7Y1256D01*
X703Y1256D02*
X710Y1256D01*
X0Y1255D02*
X7Y1255D01*
X703Y1255D02*
X710Y1255D01*
X0Y1254D02*
X7Y1254D01*
X703Y1254D02*
X710Y1254D01*
X0Y1253D02*
X7Y1253D01*
X703Y1253D02*
X710Y1253D01*
X0Y1252D02*
X7Y1252D01*
X703Y1252D02*
X710Y1252D01*
X0Y1251D02*
X7Y1251D01*
X703Y1251D02*
X710Y1251D01*
X0Y1250D02*
X7Y1250D01*
X703Y1250D02*
X710Y1250D01*
X0Y1249D02*
X7Y1249D01*
X703Y1249D02*
X710Y1249D01*
X0Y1248D02*
X7Y1248D01*
X703Y1248D02*
X710Y1248D01*
X0Y1247D02*
X7Y1247D01*
X703Y1247D02*
X710Y1247D01*
X0Y1246D02*
X7Y1246D01*
X703Y1246D02*
X710Y1246D01*
X0Y1245D02*
X7Y1245D01*
X703Y1245D02*
X710Y1245D01*
X0Y1244D02*
X7Y1244D01*
X703Y1244D02*
X710Y1244D01*
X0Y1243D02*
X7Y1243D01*
X703Y1243D02*
X710Y1243D01*
X0Y1242D02*
X7Y1242D01*
X703Y1242D02*
X710Y1242D01*
X0Y1241D02*
X7Y1241D01*
X703Y1241D02*
X710Y1241D01*
X0Y1240D02*
X7Y1240D01*
X703Y1240D02*
X710Y1240D01*
X0Y1239D02*
X7Y1239D01*
X703Y1239D02*
X710Y1239D01*
X0Y1238D02*
X7Y1238D01*
X703Y1238D02*
X710Y1238D01*
X0Y1237D02*
X7Y1237D01*
X703Y1237D02*
X710Y1237D01*
X0Y1236D02*
X7Y1236D01*
X703Y1236D02*
X710Y1236D01*
X0Y1235D02*
X7Y1235D01*
X703Y1235D02*
X710Y1235D01*
X0Y1234D02*
X7Y1234D01*
X703Y1234D02*
X710Y1234D01*
X0Y1233D02*
X7Y1233D01*
X703Y1233D02*
X710Y1233D01*
X0Y1232D02*
X7Y1232D01*
X703Y1232D02*
X710Y1232D01*
X0Y1231D02*
X7Y1231D01*
X703Y1231D02*
X710Y1231D01*
X0Y1230D02*
X7Y1230D01*
X703Y1230D02*
X710Y1230D01*
X0Y1229D02*
X7Y1229D01*
X703Y1229D02*
X710Y1229D01*
X0Y1228D02*
X7Y1228D01*
X703Y1228D02*
X710Y1228D01*
X0Y1227D02*
X7Y1227D01*
X703Y1227D02*
X710Y1227D01*
X0Y1226D02*
X7Y1226D01*
X703Y1226D02*
X710Y1226D01*
X0Y1225D02*
X7Y1225D01*
X703Y1225D02*
X710Y1225D01*
X0Y1224D02*
X7Y1224D01*
X703Y1224D02*
X710Y1224D01*
X0Y1223D02*
X7Y1223D01*
X703Y1223D02*
X710Y1223D01*
X0Y1222D02*
X7Y1222D01*
X703Y1222D02*
X710Y1222D01*
X0Y1221D02*
X7Y1221D01*
X703Y1221D02*
X710Y1221D01*
X0Y1220D02*
X7Y1220D01*
X703Y1220D02*
X710Y1220D01*
X0Y1219D02*
X7Y1219D01*
X703Y1219D02*
X710Y1219D01*
X0Y1218D02*
X7Y1218D01*
X703Y1218D02*
X710Y1218D01*
X0Y1217D02*
X7Y1217D01*
X703Y1217D02*
X710Y1217D01*
X0Y1216D02*
X7Y1216D01*
X703Y1216D02*
X710Y1216D01*
X0Y1215D02*
X7Y1215D01*
X703Y1215D02*
X710Y1215D01*
X0Y1214D02*
X7Y1214D01*
X703Y1214D02*
X710Y1214D01*
X0Y1213D02*
X7Y1213D01*
X703Y1213D02*
X710Y1213D01*
X0Y1212D02*
X7Y1212D01*
X703Y1212D02*
X710Y1212D01*
X0Y1211D02*
X7Y1211D01*
X703Y1211D02*
X710Y1211D01*
X0Y1210D02*
X7Y1210D01*
X703Y1210D02*
X710Y1210D01*
X0Y1209D02*
X7Y1209D01*
X703Y1209D02*
X710Y1209D01*
X0Y1208D02*
X7Y1208D01*
X703Y1208D02*
X710Y1208D01*
X0Y1207D02*
X7Y1207D01*
X703Y1207D02*
X710Y1207D01*
X0Y1206D02*
X7Y1206D01*
X703Y1206D02*
X710Y1206D01*
X0Y1205D02*
X7Y1205D01*
X703Y1205D02*
X710Y1205D01*
X0Y1204D02*
X7Y1204D01*
X703Y1204D02*
X710Y1204D01*
X0Y1203D02*
X7Y1203D01*
X703Y1203D02*
X710Y1203D01*
X0Y1202D02*
X7Y1202D01*
X703Y1202D02*
X710Y1202D01*
X0Y1201D02*
X7Y1201D01*
X703Y1201D02*
X710Y1201D01*
X0Y1200D02*
X7Y1200D01*
X703Y1200D02*
X710Y1200D01*
X0Y1199D02*
X7Y1199D01*
X703Y1199D02*
X710Y1199D01*
X0Y1198D02*
X7Y1198D01*
X703Y1198D02*
X710Y1198D01*
X0Y1197D02*
X7Y1197D01*
X703Y1197D02*
X710Y1197D01*
X0Y1196D02*
X7Y1196D01*
X703Y1196D02*
X710Y1196D01*
X0Y1195D02*
X7Y1195D01*
X703Y1195D02*
X710Y1195D01*
X0Y1194D02*
X7Y1194D01*
X703Y1194D02*
X710Y1194D01*
X0Y1193D02*
X7Y1193D01*
X703Y1193D02*
X710Y1193D01*
X0Y1192D02*
X7Y1192D01*
X703Y1192D02*
X710Y1192D01*
X0Y1191D02*
X7Y1191D01*
X703Y1191D02*
X710Y1191D01*
X0Y1190D02*
X7Y1190D01*
X703Y1190D02*
X710Y1190D01*
X0Y1189D02*
X7Y1189D01*
X703Y1189D02*
X710Y1189D01*
X0Y1188D02*
X7Y1188D01*
X703Y1188D02*
X710Y1188D01*
X0Y1187D02*
X7Y1187D01*
X703Y1187D02*
X710Y1187D01*
X0Y1186D02*
X7Y1186D01*
X703Y1186D02*
X710Y1186D01*
X0Y1185D02*
X7Y1185D01*
X703Y1185D02*
X710Y1185D01*
X0Y1184D02*
X7Y1184D01*
X703Y1184D02*
X710Y1184D01*
X0Y1183D02*
X7Y1183D01*
X703Y1183D02*
X710Y1183D01*
X0Y1182D02*
X7Y1182D01*
X703Y1182D02*
X710Y1182D01*
X0Y1181D02*
X7Y1181D01*
X703Y1181D02*
X710Y1181D01*
X0Y1180D02*
X7Y1180D01*
X703Y1180D02*
X710Y1180D01*
X0Y1179D02*
X7Y1179D01*
X703Y1179D02*
X710Y1179D01*
X0Y1178D02*
X7Y1178D01*
X703Y1178D02*
X710Y1178D01*
X0Y1177D02*
X7Y1177D01*
X703Y1177D02*
X710Y1177D01*
X0Y1176D02*
X7Y1176D01*
X703Y1176D02*
X710Y1176D01*
X0Y1175D02*
X7Y1175D01*
X703Y1175D02*
X710Y1175D01*
X0Y1174D02*
X7Y1174D01*
X703Y1174D02*
X710Y1174D01*
X0Y1173D02*
X7Y1173D01*
X703Y1173D02*
X710Y1173D01*
X0Y1172D02*
X7Y1172D01*
X703Y1172D02*
X710Y1172D01*
X0Y1171D02*
X7Y1171D01*
X703Y1171D02*
X710Y1171D01*
X0Y1170D02*
X7Y1170D01*
X703Y1170D02*
X710Y1170D01*
X0Y1169D02*
X7Y1169D01*
X703Y1169D02*
X710Y1169D01*
X0Y1168D02*
X7Y1168D01*
X703Y1168D02*
X710Y1168D01*
X0Y1167D02*
X7Y1167D01*
X703Y1167D02*
X710Y1167D01*
X0Y1166D02*
X7Y1166D01*
X703Y1166D02*
X710Y1166D01*
X0Y1165D02*
X7Y1165D01*
X703Y1165D02*
X710Y1165D01*
X0Y1164D02*
X7Y1164D01*
X703Y1164D02*
X710Y1164D01*
X0Y1163D02*
X7Y1163D01*
X703Y1163D02*
X710Y1163D01*
X0Y1162D02*
X7Y1162D01*
X703Y1162D02*
X710Y1162D01*
X0Y1161D02*
X7Y1161D01*
X703Y1161D02*
X710Y1161D01*
X0Y1160D02*
X7Y1160D01*
X703Y1160D02*
X710Y1160D01*
X0Y1159D02*
X7Y1159D01*
X703Y1159D02*
X710Y1159D01*
X0Y1158D02*
X7Y1158D01*
X703Y1158D02*
X710Y1158D01*
X0Y1157D02*
X7Y1157D01*
X703Y1157D02*
X710Y1157D01*
X0Y1156D02*
X7Y1156D01*
X703Y1156D02*
X710Y1156D01*
X0Y1155D02*
X7Y1155D01*
X703Y1155D02*
X710Y1155D01*
X0Y1154D02*
X7Y1154D01*
X703Y1154D02*
X710Y1154D01*
X0Y1153D02*
X7Y1153D01*
X703Y1153D02*
X710Y1153D01*
X0Y1152D02*
X7Y1152D01*
X703Y1152D02*
X710Y1152D01*
X0Y1151D02*
X7Y1151D01*
X703Y1151D02*
X710Y1151D01*
X0Y1150D02*
X7Y1150D01*
X703Y1150D02*
X710Y1150D01*
X0Y1149D02*
X7Y1149D01*
X703Y1149D02*
X710Y1149D01*
X0Y1148D02*
X7Y1148D01*
X703Y1148D02*
X710Y1148D01*
X0Y1147D02*
X7Y1147D01*
X703Y1147D02*
X710Y1147D01*
X0Y1146D02*
X7Y1146D01*
X703Y1146D02*
X710Y1146D01*
X0Y1145D02*
X7Y1145D01*
X703Y1145D02*
X710Y1145D01*
X0Y1144D02*
X7Y1144D01*
X703Y1144D02*
X710Y1144D01*
X0Y1143D02*
X7Y1143D01*
X703Y1143D02*
X710Y1143D01*
X0Y1142D02*
X7Y1142D01*
X703Y1142D02*
X710Y1142D01*
X0Y1141D02*
X7Y1141D01*
X703Y1141D02*
X710Y1141D01*
X0Y1140D02*
X7Y1140D01*
X703Y1140D02*
X710Y1140D01*
X0Y1139D02*
X7Y1139D01*
X703Y1139D02*
X710Y1139D01*
X0Y1138D02*
X7Y1138D01*
X703Y1138D02*
X710Y1138D01*
X0Y1137D02*
X7Y1137D01*
X703Y1137D02*
X710Y1137D01*
X0Y1136D02*
X7Y1136D01*
X703Y1136D02*
X710Y1136D01*
X0Y1135D02*
X7Y1135D01*
X703Y1135D02*
X710Y1135D01*
X0Y1134D02*
X7Y1134D01*
X703Y1134D02*
X710Y1134D01*
X0Y1133D02*
X7Y1133D01*
X703Y1133D02*
X710Y1133D01*
X0Y1132D02*
X7Y1132D01*
X703Y1132D02*
X710Y1132D01*
X0Y1131D02*
X7Y1131D01*
X703Y1131D02*
X710Y1131D01*
X0Y1130D02*
X7Y1130D01*
X703Y1130D02*
X710Y1130D01*
X0Y1129D02*
X7Y1129D01*
X703Y1129D02*
X710Y1129D01*
X0Y1128D02*
X7Y1128D01*
X703Y1128D02*
X710Y1128D01*
X0Y1127D02*
X7Y1127D01*
X703Y1127D02*
X710Y1127D01*
X0Y1126D02*
X7Y1126D01*
X703Y1126D02*
X710Y1126D01*
X0Y1125D02*
X7Y1125D01*
X703Y1125D02*
X710Y1125D01*
X0Y1124D02*
X7Y1124D01*
X703Y1124D02*
X710Y1124D01*
X0Y1123D02*
X7Y1123D01*
X703Y1123D02*
X710Y1123D01*
X0Y1122D02*
X7Y1122D01*
X703Y1122D02*
X710Y1122D01*
X0Y1121D02*
X7Y1121D01*
X703Y1121D02*
X710Y1121D01*
X0Y1120D02*
X7Y1120D01*
X703Y1120D02*
X710Y1120D01*
X0Y1119D02*
X7Y1119D01*
X703Y1119D02*
X710Y1119D01*
X0Y1118D02*
X7Y1118D01*
X703Y1118D02*
X710Y1118D01*
X0Y1117D02*
X7Y1117D01*
X703Y1117D02*
X710Y1117D01*
X0Y1116D02*
X7Y1116D01*
X703Y1116D02*
X710Y1116D01*
X0Y1115D02*
X7Y1115D01*
X703Y1115D02*
X710Y1115D01*
X0Y1114D02*
X7Y1114D01*
X703Y1114D02*
X710Y1114D01*
X0Y1113D02*
X7Y1113D01*
X703Y1113D02*
X710Y1113D01*
X0Y1112D02*
X7Y1112D01*
X703Y1112D02*
X710Y1112D01*
X0Y1111D02*
X7Y1111D01*
X703Y1111D02*
X710Y1111D01*
X0Y1110D02*
X7Y1110D01*
X703Y1110D02*
X710Y1110D01*
X0Y1109D02*
X7Y1109D01*
X703Y1109D02*
X710Y1109D01*
X0Y1108D02*
X7Y1108D01*
X703Y1108D02*
X710Y1108D01*
X0Y1107D02*
X7Y1107D01*
X703Y1107D02*
X710Y1107D01*
X0Y1106D02*
X7Y1106D01*
X703Y1106D02*
X710Y1106D01*
X0Y1105D02*
X7Y1105D01*
X703Y1105D02*
X710Y1105D01*
X0Y1104D02*
X7Y1104D01*
X703Y1104D02*
X710Y1104D01*
X0Y1103D02*
X7Y1103D01*
X703Y1103D02*
X710Y1103D01*
X0Y1102D02*
X7Y1102D01*
X703Y1102D02*
X710Y1102D01*
X0Y1101D02*
X7Y1101D01*
X703Y1101D02*
X710Y1101D01*
X0Y1100D02*
X7Y1100D01*
X703Y1100D02*
X710Y1100D01*
X0Y1099D02*
X7Y1099D01*
X703Y1099D02*
X710Y1099D01*
X0Y1098D02*
X7Y1098D01*
X703Y1098D02*
X710Y1098D01*
X0Y1097D02*
X7Y1097D01*
X703Y1097D02*
X710Y1097D01*
X0Y1096D02*
X7Y1096D01*
X703Y1096D02*
X710Y1096D01*
X0Y1095D02*
X7Y1095D01*
X703Y1095D02*
X710Y1095D01*
X0Y1094D02*
X7Y1094D01*
X703Y1094D02*
X710Y1094D01*
X0Y1093D02*
X7Y1093D01*
X703Y1093D02*
X710Y1093D01*
X0Y1092D02*
X7Y1092D01*
X703Y1092D02*
X710Y1092D01*
X0Y1091D02*
X7Y1091D01*
X703Y1091D02*
X710Y1091D01*
X0Y1090D02*
X7Y1090D01*
X703Y1090D02*
X710Y1090D01*
X0Y1089D02*
X7Y1089D01*
X703Y1089D02*
X710Y1089D01*
X0Y1088D02*
X7Y1088D01*
X703Y1088D02*
X710Y1088D01*
X0Y1087D02*
X7Y1087D01*
X703Y1087D02*
X710Y1087D01*
X0Y1086D02*
X7Y1086D01*
X703Y1086D02*
X710Y1086D01*
X0Y1085D02*
X7Y1085D01*
X703Y1085D02*
X710Y1085D01*
X0Y1084D02*
X7Y1084D01*
X703Y1084D02*
X710Y1084D01*
X0Y1083D02*
X7Y1083D01*
X703Y1083D02*
X710Y1083D01*
X0Y1082D02*
X7Y1082D01*
X703Y1082D02*
X710Y1082D01*
X0Y1081D02*
X7Y1081D01*
X703Y1081D02*
X710Y1081D01*
X0Y1080D02*
X7Y1080D01*
X703Y1080D02*
X710Y1080D01*
X0Y1079D02*
X7Y1079D01*
X703Y1079D02*
X710Y1079D01*
X0Y1078D02*
X7Y1078D01*
X703Y1078D02*
X710Y1078D01*
X0Y1077D02*
X7Y1077D01*
X703Y1077D02*
X710Y1077D01*
X0Y1076D02*
X7Y1076D01*
X703Y1076D02*
X710Y1076D01*
X0Y1075D02*
X7Y1075D01*
X703Y1075D02*
X710Y1075D01*
X0Y1074D02*
X7Y1074D01*
X703Y1074D02*
X710Y1074D01*
X0Y1073D02*
X7Y1073D01*
X703Y1073D02*
X710Y1073D01*
X0Y1072D02*
X7Y1072D01*
X703Y1072D02*
X710Y1072D01*
X0Y1071D02*
X7Y1071D01*
X703Y1071D02*
X710Y1071D01*
X0Y1070D02*
X7Y1070D01*
X703Y1070D02*
X710Y1070D01*
X0Y1069D02*
X7Y1069D01*
X703Y1069D02*
X710Y1069D01*
X0Y1068D02*
X7Y1068D01*
X703Y1068D02*
X710Y1068D01*
X0Y1067D02*
X7Y1067D01*
X703Y1067D02*
X710Y1067D01*
X0Y1066D02*
X7Y1066D01*
X703Y1066D02*
X710Y1066D01*
X0Y1065D02*
X7Y1065D01*
X703Y1065D02*
X710Y1065D01*
X0Y1064D02*
X7Y1064D01*
X703Y1064D02*
X710Y1064D01*
X0Y1063D02*
X7Y1063D01*
X703Y1063D02*
X710Y1063D01*
X0Y1062D02*
X7Y1062D01*
X703Y1062D02*
X710Y1062D01*
X0Y1061D02*
X7Y1061D01*
X703Y1061D02*
X710Y1061D01*
X0Y1060D02*
X7Y1060D01*
X703Y1060D02*
X710Y1060D01*
X0Y1059D02*
X7Y1059D01*
X703Y1059D02*
X710Y1059D01*
X0Y1058D02*
X7Y1058D01*
X703Y1058D02*
X710Y1058D01*
X0Y1057D02*
X7Y1057D01*
X703Y1057D02*
X710Y1057D01*
X0Y1056D02*
X7Y1056D01*
X703Y1056D02*
X710Y1056D01*
X0Y1055D02*
X7Y1055D01*
X703Y1055D02*
X710Y1055D01*
X0Y1054D02*
X7Y1054D01*
X703Y1054D02*
X710Y1054D01*
X0Y1053D02*
X7Y1053D01*
X703Y1053D02*
X710Y1053D01*
X0Y1052D02*
X7Y1052D01*
X703Y1052D02*
X710Y1052D01*
X0Y1051D02*
X7Y1051D01*
X703Y1051D02*
X710Y1051D01*
X0Y1050D02*
X7Y1050D01*
X703Y1050D02*
X710Y1050D01*
X0Y1049D02*
X7Y1049D01*
X703Y1049D02*
X710Y1049D01*
X0Y1048D02*
X7Y1048D01*
X703Y1048D02*
X710Y1048D01*
X0Y1047D02*
X7Y1047D01*
X703Y1047D02*
X710Y1047D01*
X0Y1046D02*
X7Y1046D01*
X703Y1046D02*
X710Y1046D01*
X0Y1045D02*
X7Y1045D01*
X703Y1045D02*
X710Y1045D01*
X0Y1044D02*
X7Y1044D01*
X703Y1044D02*
X710Y1044D01*
X0Y1043D02*
X7Y1043D01*
X703Y1043D02*
X710Y1043D01*
X0Y1042D02*
X7Y1042D01*
X703Y1042D02*
X710Y1042D01*
X0Y1041D02*
X7Y1041D01*
X703Y1041D02*
X710Y1041D01*
X0Y1040D02*
X7Y1040D01*
X703Y1040D02*
X710Y1040D01*
X0Y1039D02*
X7Y1039D01*
X703Y1039D02*
X710Y1039D01*
X0Y1038D02*
X7Y1038D01*
X703Y1038D02*
X710Y1038D01*
X0Y1037D02*
X7Y1037D01*
X703Y1037D02*
X710Y1037D01*
X0Y1036D02*
X7Y1036D01*
X703Y1036D02*
X710Y1036D01*
X0Y1035D02*
X7Y1035D01*
X703Y1035D02*
X710Y1035D01*
X0Y1034D02*
X7Y1034D01*
X703Y1034D02*
X710Y1034D01*
X0Y1033D02*
X7Y1033D01*
X703Y1033D02*
X710Y1033D01*
X0Y1032D02*
X7Y1032D01*
X703Y1032D02*
X710Y1032D01*
X0Y1031D02*
X7Y1031D01*
X703Y1031D02*
X710Y1031D01*
X0Y1030D02*
X7Y1030D01*
X703Y1030D02*
X710Y1030D01*
X0Y1029D02*
X7Y1029D01*
X703Y1029D02*
X710Y1029D01*
X0Y1028D02*
X7Y1028D01*
X703Y1028D02*
X710Y1028D01*
X0Y1027D02*
X7Y1027D01*
X703Y1027D02*
X710Y1027D01*
X0Y1026D02*
X7Y1026D01*
X703Y1026D02*
X710Y1026D01*
X0Y1025D02*
X7Y1025D01*
X703Y1025D02*
X710Y1025D01*
X0Y1024D02*
X7Y1024D01*
X703Y1024D02*
X710Y1024D01*
X0Y1023D02*
X7Y1023D01*
X703Y1023D02*
X710Y1023D01*
X0Y1022D02*
X7Y1022D01*
X703Y1022D02*
X710Y1022D01*
X0Y1021D02*
X7Y1021D01*
X703Y1021D02*
X710Y1021D01*
X0Y1020D02*
X7Y1020D01*
X703Y1020D02*
X710Y1020D01*
X0Y1019D02*
X7Y1019D01*
X703Y1019D02*
X710Y1019D01*
X0Y1018D02*
X7Y1018D01*
X703Y1018D02*
X710Y1018D01*
X0Y1017D02*
X7Y1017D01*
X703Y1017D02*
X710Y1017D01*
X0Y1016D02*
X7Y1016D01*
X703Y1016D02*
X710Y1016D01*
X0Y1015D02*
X7Y1015D01*
X703Y1015D02*
X710Y1015D01*
X0Y1014D02*
X7Y1014D01*
X703Y1014D02*
X710Y1014D01*
X0Y1013D02*
X7Y1013D01*
X703Y1013D02*
X710Y1013D01*
X0Y1012D02*
X7Y1012D01*
X703Y1012D02*
X710Y1012D01*
X0Y1011D02*
X7Y1011D01*
X703Y1011D02*
X710Y1011D01*
X0Y1010D02*
X7Y1010D01*
X703Y1010D02*
X710Y1010D01*
X0Y1009D02*
X7Y1009D01*
X703Y1009D02*
X710Y1009D01*
X0Y1008D02*
X7Y1008D01*
X703Y1008D02*
X710Y1008D01*
X0Y1007D02*
X7Y1007D01*
X703Y1007D02*
X710Y1007D01*
X0Y1006D02*
X7Y1006D01*
X703Y1006D02*
X710Y1006D01*
X0Y1005D02*
X7Y1005D01*
X703Y1005D02*
X710Y1005D01*
X0Y1004D02*
X7Y1004D01*
X703Y1004D02*
X710Y1004D01*
X0Y1003D02*
X7Y1003D01*
X703Y1003D02*
X710Y1003D01*
X0Y1002D02*
X7Y1002D01*
X703Y1002D02*
X710Y1002D01*
X0Y1001D02*
X7Y1001D01*
X703Y1001D02*
X710Y1001D01*
X0Y1000D02*
X7Y1000D01*
X703Y1000D02*
X710Y1000D01*
X0Y999D02*
X7Y999D01*
X703Y999D02*
X710Y999D01*
X0Y998D02*
X7Y998D01*
X703Y998D02*
X710Y998D01*
X0Y997D02*
X7Y997D01*
X703Y997D02*
X710Y997D01*
X0Y996D02*
X7Y996D01*
X703Y996D02*
X710Y996D01*
X0Y995D02*
X7Y995D01*
X703Y995D02*
X710Y995D01*
X0Y994D02*
X7Y994D01*
X703Y994D02*
X710Y994D01*
X0Y993D02*
X7Y993D01*
X703Y993D02*
X710Y993D01*
X0Y992D02*
X7Y992D01*
X703Y992D02*
X710Y992D01*
X0Y991D02*
X7Y991D01*
X703Y991D02*
X710Y991D01*
X0Y990D02*
X7Y990D01*
X703Y990D02*
X710Y990D01*
X0Y989D02*
X7Y989D01*
X703Y989D02*
X710Y989D01*
X0Y988D02*
X7Y988D01*
X703Y988D02*
X710Y988D01*
X0Y987D02*
X7Y987D01*
X703Y987D02*
X710Y987D01*
X0Y986D02*
X7Y986D01*
X703Y986D02*
X710Y986D01*
X0Y985D02*
X7Y985D01*
X703Y985D02*
X710Y985D01*
X0Y984D02*
X7Y984D01*
X703Y984D02*
X710Y984D01*
X0Y983D02*
X7Y983D01*
X703Y983D02*
X710Y983D01*
X0Y982D02*
X7Y982D01*
X703Y982D02*
X710Y982D01*
X0Y981D02*
X7Y981D01*
X703Y981D02*
X710Y981D01*
X0Y980D02*
X7Y980D01*
X703Y980D02*
X710Y980D01*
X0Y979D02*
X7Y979D01*
X703Y979D02*
X710Y979D01*
X0Y978D02*
X7Y978D01*
X703Y978D02*
X710Y978D01*
X0Y977D02*
X7Y977D01*
X703Y977D02*
X710Y977D01*
X0Y976D02*
X7Y976D01*
X703Y976D02*
X710Y976D01*
X0Y975D02*
X7Y975D01*
X703Y975D02*
X710Y975D01*
X0Y974D02*
X7Y974D01*
X703Y974D02*
X710Y974D01*
X0Y973D02*
X7Y973D01*
X703Y973D02*
X710Y973D01*
X0Y972D02*
X7Y972D01*
X703Y972D02*
X710Y972D01*
X0Y971D02*
X7Y971D01*
X703Y971D02*
X710Y971D01*
X0Y970D02*
X7Y970D01*
X703Y970D02*
X710Y970D01*
X0Y969D02*
X7Y969D01*
X703Y969D02*
X710Y969D01*
X0Y968D02*
X7Y968D01*
X703Y968D02*
X710Y968D01*
X0Y967D02*
X7Y967D01*
X703Y967D02*
X710Y967D01*
X0Y966D02*
X7Y966D01*
X703Y966D02*
X710Y966D01*
X0Y965D02*
X7Y965D01*
X703Y965D02*
X710Y965D01*
X0Y964D02*
X7Y964D01*
X703Y964D02*
X710Y964D01*
X0Y963D02*
X7Y963D01*
X703Y963D02*
X710Y963D01*
X0Y962D02*
X7Y962D01*
X703Y962D02*
X710Y962D01*
X0Y961D02*
X7Y961D01*
X703Y961D02*
X710Y961D01*
X0Y960D02*
X7Y960D01*
X703Y960D02*
X710Y960D01*
X0Y959D02*
X7Y959D01*
X703Y959D02*
X710Y959D01*
X0Y958D02*
X7Y958D01*
X703Y958D02*
X710Y958D01*
X0Y957D02*
X7Y957D01*
X703Y957D02*
X710Y957D01*
X0Y956D02*
X7Y956D01*
X703Y956D02*
X710Y956D01*
X0Y955D02*
X7Y955D01*
X703Y955D02*
X710Y955D01*
X0Y954D02*
X7Y954D01*
X703Y954D02*
X710Y954D01*
X0Y953D02*
X7Y953D01*
X703Y953D02*
X710Y953D01*
X0Y952D02*
X7Y952D01*
X703Y952D02*
X710Y952D01*
X0Y951D02*
X7Y951D01*
X703Y951D02*
X710Y951D01*
X0Y950D02*
X7Y950D01*
X703Y950D02*
X710Y950D01*
X0Y949D02*
X7Y949D01*
X703Y949D02*
X710Y949D01*
X0Y948D02*
X7Y948D01*
X703Y948D02*
X710Y948D01*
X0Y947D02*
X7Y947D01*
X703Y947D02*
X710Y947D01*
X0Y946D02*
X7Y946D01*
X703Y946D02*
X710Y946D01*
X0Y945D02*
X7Y945D01*
X703Y945D02*
X710Y945D01*
X0Y944D02*
X7Y944D01*
X703Y944D02*
X710Y944D01*
X0Y943D02*
X7Y943D01*
X703Y943D02*
X710Y943D01*
X0Y942D02*
X7Y942D01*
X703Y942D02*
X710Y942D01*
X0Y941D02*
X7Y941D01*
X703Y941D02*
X710Y941D01*
X0Y940D02*
X7Y940D01*
X703Y940D02*
X710Y940D01*
X0Y939D02*
X7Y939D01*
X703Y939D02*
X710Y939D01*
X0Y938D02*
X7Y938D01*
X703Y938D02*
X710Y938D01*
X0Y937D02*
X7Y937D01*
X703Y937D02*
X710Y937D01*
X0Y936D02*
X7Y936D01*
X703Y936D02*
X710Y936D01*
X0Y935D02*
X7Y935D01*
X703Y935D02*
X710Y935D01*
X0Y934D02*
X7Y934D01*
X703Y934D02*
X710Y934D01*
X0Y933D02*
X7Y933D01*
X703Y933D02*
X710Y933D01*
X0Y932D02*
X7Y932D01*
X703Y932D02*
X710Y932D01*
X0Y931D02*
X7Y931D01*
X703Y931D02*
X710Y931D01*
X0Y930D02*
X7Y930D01*
X703Y930D02*
X710Y930D01*
X0Y929D02*
X7Y929D01*
X703Y929D02*
X710Y929D01*
X0Y928D02*
X7Y928D01*
X703Y928D02*
X710Y928D01*
X0Y927D02*
X7Y927D01*
X703Y927D02*
X710Y927D01*
X0Y926D02*
X7Y926D01*
X703Y926D02*
X710Y926D01*
X0Y925D02*
X7Y925D01*
X703Y925D02*
X710Y925D01*
X0Y924D02*
X7Y924D01*
X703Y924D02*
X710Y924D01*
X0Y923D02*
X7Y923D01*
X703Y923D02*
X710Y923D01*
X0Y922D02*
X7Y922D01*
X703Y922D02*
X710Y922D01*
X0Y921D02*
X7Y921D01*
X703Y921D02*
X710Y921D01*
X0Y920D02*
X7Y920D01*
X703Y920D02*
X710Y920D01*
X0Y919D02*
X7Y919D01*
X703Y919D02*
X710Y919D01*
X0Y918D02*
X7Y918D01*
X703Y918D02*
X710Y918D01*
X0Y917D02*
X7Y917D01*
X703Y917D02*
X710Y917D01*
X0Y916D02*
X7Y916D01*
X703Y916D02*
X710Y916D01*
X0Y915D02*
X7Y915D01*
X703Y915D02*
X710Y915D01*
X0Y914D02*
X7Y914D01*
X703Y914D02*
X710Y914D01*
X0Y913D02*
X7Y913D01*
X703Y913D02*
X710Y913D01*
X0Y912D02*
X7Y912D01*
X703Y912D02*
X710Y912D01*
X0Y911D02*
X7Y911D01*
X703Y911D02*
X710Y911D01*
X0Y910D02*
X7Y910D01*
X703Y910D02*
X710Y910D01*
X0Y909D02*
X7Y909D01*
X703Y909D02*
X710Y909D01*
X0Y908D02*
X7Y908D01*
X703Y908D02*
X710Y908D01*
X0Y907D02*
X7Y907D01*
X703Y907D02*
X710Y907D01*
X0Y906D02*
X7Y906D01*
X703Y906D02*
X710Y906D01*
X0Y905D02*
X7Y905D01*
X703Y905D02*
X710Y905D01*
X0Y904D02*
X7Y904D01*
X703Y904D02*
X710Y904D01*
X0Y903D02*
X7Y903D01*
X703Y903D02*
X710Y903D01*
X0Y902D02*
X7Y902D01*
X703Y902D02*
X710Y902D01*
X0Y901D02*
X7Y901D01*
X703Y901D02*
X710Y901D01*
X0Y900D02*
X7Y900D01*
X703Y900D02*
X710Y900D01*
X0Y899D02*
X7Y899D01*
X703Y899D02*
X710Y899D01*
X0Y898D02*
X7Y898D01*
X703Y898D02*
X710Y898D01*
X0Y897D02*
X7Y897D01*
X703Y897D02*
X710Y897D01*
X0Y896D02*
X7Y896D01*
X703Y896D02*
X710Y896D01*
X0Y895D02*
X7Y895D01*
X703Y895D02*
X710Y895D01*
X0Y894D02*
X7Y894D01*
X703Y894D02*
X710Y894D01*
X0Y893D02*
X7Y893D01*
X703Y893D02*
X710Y893D01*
X0Y892D02*
X7Y892D01*
X703Y892D02*
X710Y892D01*
X0Y891D02*
X7Y891D01*
X703Y891D02*
X710Y891D01*
X0Y890D02*
X7Y890D01*
X703Y890D02*
X710Y890D01*
X0Y889D02*
X7Y889D01*
X703Y889D02*
X710Y889D01*
X0Y888D02*
X7Y888D01*
X703Y888D02*
X710Y888D01*
X0Y887D02*
X7Y887D01*
X703Y887D02*
X710Y887D01*
X0Y886D02*
X7Y886D01*
X703Y886D02*
X710Y886D01*
X0Y885D02*
X7Y885D01*
X703Y885D02*
X710Y885D01*
X0Y884D02*
X7Y884D01*
X703Y884D02*
X710Y884D01*
X0Y883D02*
X7Y883D01*
X703Y883D02*
X710Y883D01*
X0Y882D02*
X7Y882D01*
X703Y882D02*
X710Y882D01*
X0Y881D02*
X7Y881D01*
X703Y881D02*
X710Y881D01*
X0Y880D02*
X7Y880D01*
X703Y880D02*
X710Y880D01*
X0Y879D02*
X7Y879D01*
X703Y879D02*
X710Y879D01*
X0Y878D02*
X7Y878D01*
X703Y878D02*
X710Y878D01*
X0Y877D02*
X7Y877D01*
X703Y877D02*
X710Y877D01*
X0Y876D02*
X7Y876D01*
X703Y876D02*
X710Y876D01*
X0Y875D02*
X7Y875D01*
X703Y875D02*
X710Y875D01*
X0Y874D02*
X7Y874D01*
X703Y874D02*
X710Y874D01*
X0Y873D02*
X7Y873D01*
X703Y873D02*
X710Y873D01*
X0Y872D02*
X7Y872D01*
X703Y872D02*
X710Y872D01*
X0Y871D02*
X7Y871D01*
X703Y871D02*
X710Y871D01*
X0Y870D02*
X7Y870D01*
X703Y870D02*
X710Y870D01*
X0Y869D02*
X7Y869D01*
X703Y869D02*
X710Y869D01*
X0Y868D02*
X7Y868D01*
X703Y868D02*
X710Y868D01*
X0Y867D02*
X7Y867D01*
X703Y867D02*
X710Y867D01*
X0Y866D02*
X7Y866D01*
X703Y866D02*
X710Y866D01*
X0Y865D02*
X7Y865D01*
X703Y865D02*
X710Y865D01*
X0Y864D02*
X7Y864D01*
X703Y864D02*
X710Y864D01*
X0Y863D02*
X7Y863D01*
X703Y863D02*
X710Y863D01*
X0Y862D02*
X7Y862D01*
X703Y862D02*
X710Y862D01*
X0Y861D02*
X7Y861D01*
X703Y861D02*
X710Y861D01*
X0Y860D02*
X7Y860D01*
X703Y860D02*
X710Y860D01*
X0Y859D02*
X7Y859D01*
X703Y859D02*
X710Y859D01*
X0Y858D02*
X7Y858D01*
X703Y858D02*
X710Y858D01*
X0Y857D02*
X7Y857D01*
X703Y857D02*
X710Y857D01*
X0Y856D02*
X7Y856D01*
X703Y856D02*
X710Y856D01*
X0Y855D02*
X7Y855D01*
X703Y855D02*
X710Y855D01*
X0Y854D02*
X7Y854D01*
X703Y854D02*
X710Y854D01*
X0Y853D02*
X7Y853D01*
X703Y853D02*
X710Y853D01*
X0Y852D02*
X7Y852D01*
X703Y852D02*
X710Y852D01*
X0Y851D02*
X7Y851D01*
X703Y851D02*
X710Y851D01*
X0Y850D02*
X7Y850D01*
X703Y850D02*
X710Y850D01*
X0Y849D02*
X7Y849D01*
X703Y849D02*
X710Y849D01*
X0Y848D02*
X7Y848D01*
X703Y848D02*
X710Y848D01*
X0Y847D02*
X7Y847D01*
X703Y847D02*
X710Y847D01*
X0Y846D02*
X7Y846D01*
X703Y846D02*
X710Y846D01*
X0Y845D02*
X7Y845D01*
X703Y845D02*
X710Y845D01*
X0Y844D02*
X7Y844D01*
X703Y844D02*
X710Y844D01*
X0Y843D02*
X7Y843D01*
X703Y843D02*
X710Y843D01*
X0Y842D02*
X7Y842D01*
X703Y842D02*
X710Y842D01*
X0Y841D02*
X7Y841D01*
X703Y841D02*
X710Y841D01*
X0Y840D02*
X7Y840D01*
X703Y840D02*
X710Y840D01*
X0Y839D02*
X7Y839D01*
X703Y839D02*
X710Y839D01*
X0Y838D02*
X7Y838D01*
X703Y838D02*
X710Y838D01*
X0Y837D02*
X7Y837D01*
X703Y837D02*
X710Y837D01*
X0Y836D02*
X7Y836D01*
X703Y836D02*
X710Y836D01*
X0Y835D02*
X7Y835D01*
X703Y835D02*
X710Y835D01*
X0Y834D02*
X7Y834D01*
X703Y834D02*
X710Y834D01*
X0Y833D02*
X7Y833D01*
X703Y833D02*
X710Y833D01*
X0Y832D02*
X7Y832D01*
X703Y832D02*
X710Y832D01*
X0Y831D02*
X7Y831D01*
X703Y831D02*
X710Y831D01*
X0Y830D02*
X7Y830D01*
X703Y830D02*
X710Y830D01*
X0Y829D02*
X7Y829D01*
X703Y829D02*
X710Y829D01*
X0Y828D02*
X7Y828D01*
X703Y828D02*
X710Y828D01*
X0Y827D02*
X7Y827D01*
X703Y827D02*
X710Y827D01*
X0Y826D02*
X7Y826D01*
X703Y826D02*
X710Y826D01*
X0Y825D02*
X7Y825D01*
X703Y825D02*
X710Y825D01*
X0Y824D02*
X7Y824D01*
X703Y824D02*
X710Y824D01*
X0Y823D02*
X7Y823D01*
X703Y823D02*
X710Y823D01*
X0Y822D02*
X7Y822D01*
X703Y822D02*
X710Y822D01*
X0Y821D02*
X7Y821D01*
X703Y821D02*
X710Y821D01*
X0Y820D02*
X7Y820D01*
X703Y820D02*
X710Y820D01*
X0Y819D02*
X7Y819D01*
X703Y819D02*
X710Y819D01*
X0Y818D02*
X7Y818D01*
X703Y818D02*
X710Y818D01*
X0Y817D02*
X7Y817D01*
X703Y817D02*
X710Y817D01*
X0Y816D02*
X7Y816D01*
X703Y816D02*
X710Y816D01*
X0Y815D02*
X7Y815D01*
X703Y815D02*
X710Y815D01*
X0Y814D02*
X7Y814D01*
X703Y814D02*
X710Y814D01*
X0Y813D02*
X7Y813D01*
X703Y813D02*
X710Y813D01*
X0Y812D02*
X7Y812D01*
X703Y812D02*
X710Y812D01*
X0Y811D02*
X7Y811D01*
X703Y811D02*
X710Y811D01*
X0Y810D02*
X7Y810D01*
X703Y810D02*
X710Y810D01*
X0Y809D02*
X7Y809D01*
X703Y809D02*
X710Y809D01*
X0Y808D02*
X7Y808D01*
X703Y808D02*
X710Y808D01*
X0Y807D02*
X7Y807D01*
X703Y807D02*
X710Y807D01*
X0Y806D02*
X7Y806D01*
X703Y806D02*
X710Y806D01*
X0Y805D02*
X7Y805D01*
X703Y805D02*
X710Y805D01*
X0Y804D02*
X7Y804D01*
X703Y804D02*
X710Y804D01*
X0Y803D02*
X7Y803D01*
X703Y803D02*
X710Y803D01*
X0Y802D02*
X7Y802D01*
X703Y802D02*
X710Y802D01*
X0Y801D02*
X7Y801D01*
X703Y801D02*
X710Y801D01*
X0Y800D02*
X7Y800D01*
X703Y800D02*
X710Y800D01*
X0Y799D02*
X7Y799D01*
X703Y799D02*
X710Y799D01*
X0Y798D02*
X7Y798D01*
X703Y798D02*
X710Y798D01*
X0Y797D02*
X7Y797D01*
X703Y797D02*
X710Y797D01*
X0Y796D02*
X7Y796D01*
X703Y796D02*
X710Y796D01*
X0Y795D02*
X7Y795D01*
X703Y795D02*
X710Y795D01*
X0Y794D02*
X7Y794D01*
X703Y794D02*
X710Y794D01*
X0Y793D02*
X7Y793D01*
X703Y793D02*
X710Y793D01*
X0Y792D02*
X7Y792D01*
X703Y792D02*
X710Y792D01*
X0Y791D02*
X7Y791D01*
X703Y791D02*
X710Y791D01*
X0Y790D02*
X7Y790D01*
X703Y790D02*
X710Y790D01*
X0Y789D02*
X7Y789D01*
X703Y789D02*
X710Y789D01*
X0Y788D02*
X7Y788D01*
X703Y788D02*
X710Y788D01*
X0Y787D02*
X7Y787D01*
X703Y787D02*
X710Y787D01*
X0Y786D02*
X7Y786D01*
X703Y786D02*
X710Y786D01*
X0Y785D02*
X7Y785D01*
X703Y785D02*
X710Y785D01*
X0Y784D02*
X7Y784D01*
X703Y784D02*
X710Y784D01*
X0Y783D02*
X7Y783D01*
X703Y783D02*
X710Y783D01*
X0Y782D02*
X7Y782D01*
X703Y782D02*
X710Y782D01*
X0Y781D02*
X7Y781D01*
X703Y781D02*
X710Y781D01*
X0Y780D02*
X7Y780D01*
X703Y780D02*
X710Y780D01*
X0Y779D02*
X7Y779D01*
X703Y779D02*
X710Y779D01*
X0Y778D02*
X7Y778D01*
X703Y778D02*
X710Y778D01*
X0Y777D02*
X7Y777D01*
X703Y777D02*
X710Y777D01*
X0Y776D02*
X7Y776D01*
X703Y776D02*
X710Y776D01*
X0Y775D02*
X7Y775D01*
X703Y775D02*
X710Y775D01*
X0Y774D02*
X7Y774D01*
X703Y774D02*
X710Y774D01*
X0Y773D02*
X7Y773D01*
X703Y773D02*
X710Y773D01*
X0Y772D02*
X7Y772D01*
X703Y772D02*
X710Y772D01*
X0Y771D02*
X7Y771D01*
X703Y771D02*
X710Y771D01*
X0Y770D02*
X7Y770D01*
X703Y770D02*
X710Y770D01*
X0Y769D02*
X7Y769D01*
X703Y769D02*
X710Y769D01*
X0Y768D02*
X7Y768D01*
X703Y768D02*
X710Y768D01*
X0Y767D02*
X7Y767D01*
X703Y767D02*
X710Y767D01*
X0Y766D02*
X7Y766D01*
X703Y766D02*
X710Y766D01*
X0Y765D02*
X7Y765D01*
X703Y765D02*
X710Y765D01*
X0Y764D02*
X7Y764D01*
X703Y764D02*
X710Y764D01*
X0Y763D02*
X7Y763D01*
X703Y763D02*
X710Y763D01*
X0Y762D02*
X7Y762D01*
X703Y762D02*
X710Y762D01*
X0Y761D02*
X7Y761D01*
X703Y761D02*
X710Y761D01*
X0Y760D02*
X7Y760D01*
X703Y760D02*
X710Y760D01*
X0Y759D02*
X7Y759D01*
X703Y759D02*
X710Y759D01*
X0Y758D02*
X7Y758D01*
X703Y758D02*
X710Y758D01*
X0Y757D02*
X7Y757D01*
X703Y757D02*
X710Y757D01*
X0Y756D02*
X7Y756D01*
X703Y756D02*
X710Y756D01*
X0Y755D02*
X7Y755D01*
X703Y755D02*
X710Y755D01*
X0Y754D02*
X7Y754D01*
X703Y754D02*
X710Y754D01*
X0Y753D02*
X7Y753D01*
X703Y753D02*
X710Y753D01*
X0Y752D02*
X7Y752D01*
X703Y752D02*
X710Y752D01*
X0Y751D02*
X7Y751D01*
X703Y751D02*
X710Y751D01*
X0Y750D02*
X7Y750D01*
X703Y750D02*
X710Y750D01*
X0Y749D02*
X7Y749D01*
X703Y749D02*
X710Y749D01*
X0Y748D02*
X7Y748D01*
X703Y748D02*
X710Y748D01*
X0Y747D02*
X7Y747D01*
X703Y747D02*
X710Y747D01*
X0Y746D02*
X7Y746D01*
X703Y746D02*
X710Y746D01*
X0Y745D02*
X7Y745D01*
X703Y745D02*
X710Y745D01*
X0Y744D02*
X7Y744D01*
X703Y744D02*
X710Y744D01*
X0Y743D02*
X7Y743D01*
X703Y743D02*
X710Y743D01*
X0Y742D02*
X7Y742D01*
X703Y742D02*
X710Y742D01*
X0Y741D02*
X7Y741D01*
X703Y741D02*
X710Y741D01*
X0Y740D02*
X7Y740D01*
X703Y740D02*
X710Y740D01*
X0Y739D02*
X7Y739D01*
X703Y739D02*
X710Y739D01*
X0Y738D02*
X7Y738D01*
X703Y738D02*
X710Y738D01*
X0Y737D02*
X7Y737D01*
X703Y737D02*
X710Y737D01*
X0Y736D02*
X7Y736D01*
X703Y736D02*
X710Y736D01*
X0Y735D02*
X7Y735D01*
X703Y735D02*
X710Y735D01*
X0Y734D02*
X7Y734D01*
X703Y734D02*
X710Y734D01*
X0Y733D02*
X7Y733D01*
X703Y733D02*
X710Y733D01*
X0Y732D02*
X7Y732D01*
X703Y732D02*
X710Y732D01*
X0Y731D02*
X7Y731D01*
X703Y731D02*
X710Y731D01*
X0Y730D02*
X7Y730D01*
X703Y730D02*
X710Y730D01*
X0Y729D02*
X7Y729D01*
X703Y729D02*
X710Y729D01*
X0Y728D02*
X7Y728D01*
X703Y728D02*
X710Y728D01*
X0Y727D02*
X7Y727D01*
X703Y727D02*
X710Y727D01*
X0Y726D02*
X7Y726D01*
X703Y726D02*
X710Y726D01*
X0Y725D02*
X7Y725D01*
X703Y725D02*
X710Y725D01*
X0Y724D02*
X7Y724D01*
X703Y724D02*
X710Y724D01*
X0Y723D02*
X7Y723D01*
X703Y723D02*
X710Y723D01*
X0Y722D02*
X7Y722D01*
X703Y722D02*
X710Y722D01*
X0Y721D02*
X7Y721D01*
X703Y721D02*
X710Y721D01*
X0Y720D02*
X7Y720D01*
X703Y720D02*
X710Y720D01*
X0Y719D02*
X7Y719D01*
X703Y719D02*
X710Y719D01*
X0Y718D02*
X7Y718D01*
X703Y718D02*
X710Y718D01*
X0Y717D02*
X7Y717D01*
X703Y717D02*
X710Y717D01*
X0Y716D02*
X7Y716D01*
X703Y716D02*
X710Y716D01*
X0Y715D02*
X7Y715D01*
X703Y715D02*
X710Y715D01*
X0Y714D02*
X7Y714D01*
X703Y714D02*
X710Y714D01*
X0Y713D02*
X7Y713D01*
X703Y713D02*
X710Y713D01*
X0Y712D02*
X7Y712D01*
X703Y712D02*
X710Y712D01*
X0Y711D02*
X7Y711D01*
X703Y711D02*
X710Y711D01*
X0Y710D02*
X7Y710D01*
X703Y710D02*
X710Y710D01*
X0Y709D02*
X7Y709D01*
X703Y709D02*
X710Y709D01*
X0Y708D02*
X7Y708D01*
X703Y708D02*
X710Y708D01*
X0Y707D02*
X7Y707D01*
X703Y707D02*
X710Y707D01*
X0Y706D02*
X7Y706D01*
X703Y706D02*
X710Y706D01*
X0Y705D02*
X7Y705D01*
X703Y705D02*
X710Y705D01*
X0Y704D02*
X7Y704D01*
X703Y704D02*
X710Y704D01*
X0Y703D02*
X7Y703D01*
X703Y703D02*
X710Y703D01*
X0Y702D02*
X7Y702D01*
X703Y702D02*
X710Y702D01*
X0Y701D02*
X7Y701D01*
X703Y701D02*
X710Y701D01*
X0Y700D02*
X7Y700D01*
X703Y700D02*
X710Y700D01*
X0Y699D02*
X7Y699D01*
X703Y699D02*
X710Y699D01*
X0Y698D02*
X7Y698D01*
X703Y698D02*
X710Y698D01*
X0Y697D02*
X7Y697D01*
X703Y697D02*
X710Y697D01*
X0Y696D02*
X7Y696D01*
X703Y696D02*
X710Y696D01*
X0Y695D02*
X7Y695D01*
X703Y695D02*
X710Y695D01*
X0Y694D02*
X7Y694D01*
X703Y694D02*
X710Y694D01*
X0Y693D02*
X7Y693D01*
X703Y693D02*
X710Y693D01*
X0Y692D02*
X7Y692D01*
X703Y692D02*
X710Y692D01*
X0Y691D02*
X7Y691D01*
X703Y691D02*
X710Y691D01*
X0Y690D02*
X7Y690D01*
X703Y690D02*
X710Y690D01*
X0Y689D02*
X7Y689D01*
X703Y689D02*
X710Y689D01*
X0Y688D02*
X7Y688D01*
X703Y688D02*
X710Y688D01*
X0Y687D02*
X7Y687D01*
X703Y687D02*
X710Y687D01*
X0Y686D02*
X7Y686D01*
X703Y686D02*
X710Y686D01*
X0Y685D02*
X7Y685D01*
X703Y685D02*
X710Y685D01*
X0Y684D02*
X7Y684D01*
X703Y684D02*
X710Y684D01*
X0Y683D02*
X7Y683D01*
X703Y683D02*
X710Y683D01*
X0Y682D02*
X7Y682D01*
X703Y682D02*
X710Y682D01*
X0Y681D02*
X7Y681D01*
X703Y681D02*
X710Y681D01*
X0Y680D02*
X7Y680D01*
X703Y680D02*
X710Y680D01*
X0Y679D02*
X7Y679D01*
X703Y679D02*
X710Y679D01*
X0Y678D02*
X7Y678D01*
X703Y678D02*
X710Y678D01*
X0Y677D02*
X7Y677D01*
X703Y677D02*
X710Y677D01*
X0Y676D02*
X7Y676D01*
X703Y676D02*
X710Y676D01*
X0Y675D02*
X7Y675D01*
X703Y675D02*
X710Y675D01*
X0Y674D02*
X7Y674D01*
X703Y674D02*
X710Y674D01*
X0Y673D02*
X7Y673D01*
X703Y673D02*
X710Y673D01*
X0Y672D02*
X7Y672D01*
X703Y672D02*
X710Y672D01*
X0Y671D02*
X7Y671D01*
X703Y671D02*
X710Y671D01*
X0Y670D02*
X7Y670D01*
X703Y670D02*
X710Y670D01*
X0Y669D02*
X7Y669D01*
X703Y669D02*
X710Y669D01*
X0Y668D02*
X7Y668D01*
X703Y668D02*
X710Y668D01*
X0Y667D02*
X7Y667D01*
X703Y667D02*
X710Y667D01*
X0Y666D02*
X7Y666D01*
X703Y666D02*
X710Y666D01*
X0Y665D02*
X7Y665D01*
X703Y665D02*
X710Y665D01*
X0Y664D02*
X7Y664D01*
X703Y664D02*
X710Y664D01*
X0Y663D02*
X7Y663D01*
X703Y663D02*
X710Y663D01*
X0Y662D02*
X7Y662D01*
X703Y662D02*
X710Y662D01*
X0Y661D02*
X7Y661D01*
X703Y661D02*
X710Y661D01*
X0Y660D02*
X7Y660D01*
X703Y660D02*
X710Y660D01*
X0Y659D02*
X7Y659D01*
X703Y659D02*
X710Y659D01*
X0Y658D02*
X7Y658D01*
X703Y658D02*
X710Y658D01*
X0Y657D02*
X7Y657D01*
X703Y657D02*
X710Y657D01*
X0Y656D02*
X7Y656D01*
X703Y656D02*
X710Y656D01*
X0Y655D02*
X7Y655D01*
X703Y655D02*
X710Y655D01*
X0Y654D02*
X7Y654D01*
X703Y654D02*
X710Y654D01*
X0Y653D02*
X7Y653D01*
X703Y653D02*
X710Y653D01*
X0Y652D02*
X7Y652D01*
X703Y652D02*
X710Y652D01*
X0Y651D02*
X7Y651D01*
X703Y651D02*
X710Y651D01*
X0Y650D02*
X7Y650D01*
X703Y650D02*
X710Y650D01*
X0Y649D02*
X7Y649D01*
X703Y649D02*
X710Y649D01*
X0Y648D02*
X7Y648D01*
X703Y648D02*
X710Y648D01*
X0Y647D02*
X7Y647D01*
X703Y647D02*
X710Y647D01*
X0Y646D02*
X7Y646D01*
X703Y646D02*
X710Y646D01*
X0Y645D02*
X7Y645D01*
X703Y645D02*
X710Y645D01*
X0Y644D02*
X7Y644D01*
X703Y644D02*
X710Y644D01*
X0Y643D02*
X7Y643D01*
X703Y643D02*
X710Y643D01*
X0Y642D02*
X7Y642D01*
X703Y642D02*
X710Y642D01*
X0Y641D02*
X7Y641D01*
X703Y641D02*
X710Y641D01*
X0Y640D02*
X7Y640D01*
X703Y640D02*
X710Y640D01*
X0Y639D02*
X7Y639D01*
X703Y639D02*
X710Y639D01*
X0Y638D02*
X7Y638D01*
X703Y638D02*
X710Y638D01*
X0Y637D02*
X7Y637D01*
X703Y637D02*
X710Y637D01*
X0Y636D02*
X7Y636D01*
X703Y636D02*
X710Y636D01*
X0Y635D02*
X7Y635D01*
X703Y635D02*
X710Y635D01*
X0Y634D02*
X7Y634D01*
X703Y634D02*
X710Y634D01*
X0Y633D02*
X7Y633D01*
X703Y633D02*
X710Y633D01*
X0Y632D02*
X7Y632D01*
X703Y632D02*
X710Y632D01*
X0Y631D02*
X7Y631D01*
X703Y631D02*
X710Y631D01*
X0Y630D02*
X7Y630D01*
X703Y630D02*
X710Y630D01*
X0Y629D02*
X7Y629D01*
X703Y629D02*
X710Y629D01*
X0Y628D02*
X7Y628D01*
X703Y628D02*
X710Y628D01*
X0Y627D02*
X7Y627D01*
X703Y627D02*
X710Y627D01*
X0Y626D02*
X7Y626D01*
X703Y626D02*
X710Y626D01*
X0Y625D02*
X7Y625D01*
X703Y625D02*
X710Y625D01*
X0Y624D02*
X7Y624D01*
X703Y624D02*
X710Y624D01*
X0Y623D02*
X7Y623D01*
X703Y623D02*
X710Y623D01*
X0Y622D02*
X7Y622D01*
X703Y622D02*
X710Y622D01*
X0Y621D02*
X7Y621D01*
X703Y621D02*
X710Y621D01*
X0Y620D02*
X7Y620D01*
X703Y620D02*
X710Y620D01*
X0Y619D02*
X7Y619D01*
X703Y619D02*
X710Y619D01*
X0Y618D02*
X7Y618D01*
X703Y618D02*
X710Y618D01*
X0Y617D02*
X7Y617D01*
X703Y617D02*
X710Y617D01*
X0Y616D02*
X7Y616D01*
X703Y616D02*
X710Y616D01*
X0Y615D02*
X7Y615D01*
X703Y615D02*
X710Y615D01*
X0Y614D02*
X7Y614D01*
X703Y614D02*
X710Y614D01*
X0Y613D02*
X7Y613D01*
X703Y613D02*
X710Y613D01*
X0Y612D02*
X7Y612D01*
X703Y612D02*
X710Y612D01*
X0Y611D02*
X7Y611D01*
X703Y611D02*
X710Y611D01*
X0Y610D02*
X7Y610D01*
X703Y610D02*
X710Y610D01*
X0Y609D02*
X7Y609D01*
X703Y609D02*
X710Y609D01*
X0Y608D02*
X7Y608D01*
X703Y608D02*
X710Y608D01*
X0Y607D02*
X7Y607D01*
X703Y607D02*
X710Y607D01*
X0Y606D02*
X7Y606D01*
X703Y606D02*
X710Y606D01*
X0Y605D02*
X7Y605D01*
X703Y605D02*
X710Y605D01*
X0Y604D02*
X7Y604D01*
X703Y604D02*
X710Y604D01*
X0Y603D02*
X7Y603D01*
X703Y603D02*
X710Y603D01*
X0Y602D02*
X7Y602D01*
X703Y602D02*
X710Y602D01*
X0Y601D02*
X7Y601D01*
X703Y601D02*
X710Y601D01*
X0Y600D02*
X7Y600D01*
X703Y600D02*
X710Y600D01*
X0Y599D02*
X7Y599D01*
X703Y599D02*
X710Y599D01*
X0Y598D02*
X7Y598D01*
X703Y598D02*
X710Y598D01*
X0Y597D02*
X7Y597D01*
X703Y597D02*
X710Y597D01*
X0Y596D02*
X7Y596D01*
X703Y596D02*
X710Y596D01*
X0Y595D02*
X7Y595D01*
X703Y595D02*
X710Y595D01*
X0Y594D02*
X7Y594D01*
X703Y594D02*
X710Y594D01*
X0Y593D02*
X7Y593D01*
X703Y593D02*
X710Y593D01*
X0Y592D02*
X7Y592D01*
X703Y592D02*
X710Y592D01*
X0Y591D02*
X7Y591D01*
X703Y591D02*
X710Y591D01*
X0Y590D02*
X7Y590D01*
X703Y590D02*
X710Y590D01*
X0Y589D02*
X7Y589D01*
X703Y589D02*
X710Y589D01*
X0Y588D02*
X7Y588D01*
X703Y588D02*
X710Y588D01*
X0Y587D02*
X7Y587D01*
X703Y587D02*
X710Y587D01*
X0Y586D02*
X7Y586D01*
X703Y586D02*
X710Y586D01*
X0Y585D02*
X7Y585D01*
X703Y585D02*
X710Y585D01*
X0Y584D02*
X7Y584D01*
X703Y584D02*
X710Y584D01*
X0Y583D02*
X7Y583D01*
X703Y583D02*
X710Y583D01*
X0Y582D02*
X7Y582D01*
X703Y582D02*
X710Y582D01*
X0Y581D02*
X7Y581D01*
X703Y581D02*
X710Y581D01*
X0Y580D02*
X7Y580D01*
X703Y580D02*
X710Y580D01*
X0Y579D02*
X7Y579D01*
X703Y579D02*
X710Y579D01*
X0Y578D02*
X7Y578D01*
X703Y578D02*
X710Y578D01*
X0Y577D02*
X7Y577D01*
X703Y577D02*
X710Y577D01*
X0Y576D02*
X7Y576D01*
X703Y576D02*
X710Y576D01*
X0Y575D02*
X7Y575D01*
X703Y575D02*
X710Y575D01*
X0Y574D02*
X7Y574D01*
X703Y574D02*
X710Y574D01*
X0Y573D02*
X7Y573D01*
X703Y573D02*
X710Y573D01*
X0Y572D02*
X7Y572D01*
X703Y572D02*
X710Y572D01*
X0Y571D02*
X7Y571D01*
X703Y571D02*
X710Y571D01*
X0Y570D02*
X7Y570D01*
X703Y570D02*
X710Y570D01*
X0Y569D02*
X7Y569D01*
X703Y569D02*
X710Y569D01*
X0Y568D02*
X7Y568D01*
X703Y568D02*
X710Y568D01*
X0Y567D02*
X7Y567D01*
X703Y567D02*
X710Y567D01*
X0Y566D02*
X7Y566D01*
X703Y566D02*
X710Y566D01*
X0Y565D02*
X7Y565D01*
X703Y565D02*
X710Y565D01*
X0Y564D02*
X7Y564D01*
X703Y564D02*
X710Y564D01*
X0Y563D02*
X7Y563D01*
X703Y563D02*
X710Y563D01*
X0Y562D02*
X7Y562D01*
X703Y562D02*
X710Y562D01*
X0Y561D02*
X7Y561D01*
X703Y561D02*
X710Y561D01*
X0Y560D02*
X7Y560D01*
X703Y560D02*
X710Y560D01*
X0Y559D02*
X7Y559D01*
X703Y559D02*
X710Y559D01*
X0Y558D02*
X7Y558D01*
X703Y558D02*
X710Y558D01*
X0Y557D02*
X7Y557D01*
X703Y557D02*
X710Y557D01*
X0Y556D02*
X7Y556D01*
X703Y556D02*
X710Y556D01*
X0Y555D02*
X7Y555D01*
X703Y555D02*
X710Y555D01*
X0Y554D02*
X7Y554D01*
X703Y554D02*
X710Y554D01*
X0Y553D02*
X7Y553D01*
X703Y553D02*
X710Y553D01*
X0Y552D02*
X7Y552D01*
X703Y552D02*
X710Y552D01*
X0Y551D02*
X7Y551D01*
X703Y551D02*
X710Y551D01*
X0Y550D02*
X7Y550D01*
X703Y550D02*
X710Y550D01*
X0Y549D02*
X7Y549D01*
X703Y549D02*
X710Y549D01*
X0Y548D02*
X7Y548D01*
X703Y548D02*
X710Y548D01*
X0Y547D02*
X7Y547D01*
X703Y547D02*
X710Y547D01*
X0Y546D02*
X7Y546D01*
X703Y546D02*
X710Y546D01*
X0Y545D02*
X7Y545D01*
X703Y545D02*
X710Y545D01*
X0Y544D02*
X7Y544D01*
X703Y544D02*
X710Y544D01*
X0Y543D02*
X7Y543D01*
X703Y543D02*
X710Y543D01*
X0Y542D02*
X7Y542D01*
X703Y542D02*
X710Y542D01*
X0Y541D02*
X7Y541D01*
X703Y541D02*
X710Y541D01*
X0Y540D02*
X7Y540D01*
X703Y540D02*
X710Y540D01*
X0Y539D02*
X7Y539D01*
X703Y539D02*
X710Y539D01*
X0Y538D02*
X7Y538D01*
X703Y538D02*
X710Y538D01*
X0Y537D02*
X7Y537D01*
X703Y537D02*
X710Y537D01*
X0Y536D02*
X7Y536D01*
X703Y536D02*
X710Y536D01*
X0Y535D02*
X7Y535D01*
X703Y535D02*
X710Y535D01*
X0Y534D02*
X7Y534D01*
X703Y534D02*
X710Y534D01*
X0Y533D02*
X7Y533D01*
X703Y533D02*
X710Y533D01*
X0Y532D02*
X7Y532D01*
X703Y532D02*
X710Y532D01*
X0Y531D02*
X7Y531D01*
X703Y531D02*
X710Y531D01*
X0Y530D02*
X7Y530D01*
X703Y530D02*
X710Y530D01*
X0Y529D02*
X7Y529D01*
X703Y529D02*
X710Y529D01*
X0Y528D02*
X7Y528D01*
X703Y528D02*
X710Y528D01*
X0Y527D02*
X7Y527D01*
X703Y527D02*
X710Y527D01*
X0Y526D02*
X7Y526D01*
X703Y526D02*
X710Y526D01*
X0Y525D02*
X7Y525D01*
X703Y525D02*
X710Y525D01*
X0Y524D02*
X7Y524D01*
X703Y524D02*
X710Y524D01*
X0Y523D02*
X7Y523D01*
X703Y523D02*
X710Y523D01*
X0Y522D02*
X7Y522D01*
X703Y522D02*
X710Y522D01*
X0Y521D02*
X7Y521D01*
X703Y521D02*
X710Y521D01*
X0Y520D02*
X7Y520D01*
X703Y520D02*
X710Y520D01*
X0Y519D02*
X7Y519D01*
X703Y519D02*
X710Y519D01*
X0Y518D02*
X7Y518D01*
X703Y518D02*
X710Y518D01*
X0Y517D02*
X7Y517D01*
X703Y517D02*
X710Y517D01*
X0Y516D02*
X7Y516D01*
X703Y516D02*
X710Y516D01*
X0Y515D02*
X7Y515D01*
X703Y515D02*
X710Y515D01*
X0Y514D02*
X7Y514D01*
X703Y514D02*
X710Y514D01*
X0Y513D02*
X7Y513D01*
X703Y513D02*
X710Y513D01*
X0Y512D02*
X7Y512D01*
X703Y512D02*
X710Y512D01*
X0Y511D02*
X7Y511D01*
X703Y511D02*
X710Y511D01*
X0Y510D02*
X7Y510D01*
X703Y510D02*
X710Y510D01*
X0Y509D02*
X7Y509D01*
X703Y509D02*
X710Y509D01*
X0Y508D02*
X7Y508D01*
X703Y508D02*
X710Y508D01*
X0Y507D02*
X7Y507D01*
X703Y507D02*
X710Y507D01*
X0Y506D02*
X7Y506D01*
X703Y506D02*
X710Y506D01*
X0Y505D02*
X7Y505D01*
X703Y505D02*
X710Y505D01*
X0Y504D02*
X7Y504D01*
X703Y504D02*
X710Y504D01*
X0Y503D02*
X7Y503D01*
X703Y503D02*
X710Y503D01*
X0Y502D02*
X7Y502D01*
X703Y502D02*
X710Y502D01*
X0Y501D02*
X7Y501D01*
X703Y501D02*
X710Y501D01*
X0Y500D02*
X7Y500D01*
X703Y500D02*
X710Y500D01*
X0Y499D02*
X7Y499D01*
X703Y499D02*
X710Y499D01*
X0Y498D02*
X7Y498D01*
X703Y498D02*
X710Y498D01*
X0Y497D02*
X7Y497D01*
X703Y497D02*
X710Y497D01*
X0Y496D02*
X7Y496D01*
X703Y496D02*
X710Y496D01*
X0Y495D02*
X7Y495D01*
X703Y495D02*
X710Y495D01*
X0Y494D02*
X7Y494D01*
X703Y494D02*
X710Y494D01*
X0Y493D02*
X7Y493D01*
X703Y493D02*
X710Y493D01*
X0Y492D02*
X7Y492D01*
X703Y492D02*
X710Y492D01*
X0Y491D02*
X7Y491D01*
X703Y491D02*
X710Y491D01*
X0Y490D02*
X7Y490D01*
X703Y490D02*
X710Y490D01*
X0Y489D02*
X7Y489D01*
X703Y489D02*
X710Y489D01*
X0Y488D02*
X7Y488D01*
X703Y488D02*
X710Y488D01*
X0Y487D02*
X7Y487D01*
X703Y487D02*
X710Y487D01*
X0Y486D02*
X7Y486D01*
X703Y486D02*
X710Y486D01*
X0Y485D02*
X7Y485D01*
X703Y485D02*
X710Y485D01*
X0Y484D02*
X7Y484D01*
X703Y484D02*
X710Y484D01*
X0Y483D02*
X7Y483D01*
X703Y483D02*
X710Y483D01*
X0Y482D02*
X7Y482D01*
X703Y482D02*
X710Y482D01*
X0Y481D02*
X7Y481D01*
X703Y481D02*
X710Y481D01*
X0Y480D02*
X7Y480D01*
X703Y480D02*
X710Y480D01*
X0Y479D02*
X7Y479D01*
X703Y479D02*
X710Y479D01*
X0Y478D02*
X7Y478D01*
X703Y478D02*
X710Y478D01*
X0Y477D02*
X7Y477D01*
X703Y477D02*
X710Y477D01*
X0Y476D02*
X7Y476D01*
X703Y476D02*
X710Y476D01*
X0Y475D02*
X7Y475D01*
X703Y475D02*
X710Y475D01*
X0Y474D02*
X7Y474D01*
X703Y474D02*
X710Y474D01*
X0Y473D02*
X7Y473D01*
X703Y473D02*
X710Y473D01*
X0Y472D02*
X7Y472D01*
X703Y472D02*
X710Y472D01*
X0Y471D02*
X7Y471D01*
X703Y471D02*
X710Y471D01*
X0Y470D02*
X7Y470D01*
X703Y470D02*
X710Y470D01*
X0Y469D02*
X7Y469D01*
X703Y469D02*
X710Y469D01*
X0Y468D02*
X7Y468D01*
X703Y468D02*
X710Y468D01*
X0Y467D02*
X7Y467D01*
X703Y467D02*
X710Y467D01*
X0Y466D02*
X7Y466D01*
X703Y466D02*
X710Y466D01*
X0Y465D02*
X7Y465D01*
X703Y465D02*
X710Y465D01*
X0Y464D02*
X7Y464D01*
X703Y464D02*
X710Y464D01*
X0Y463D02*
X7Y463D01*
X703Y463D02*
X710Y463D01*
X0Y462D02*
X7Y462D01*
X703Y462D02*
X710Y462D01*
X0Y461D02*
X7Y461D01*
X703Y461D02*
X710Y461D01*
X0Y460D02*
X7Y460D01*
X703Y460D02*
X710Y460D01*
X0Y459D02*
X7Y459D01*
X703Y459D02*
X710Y459D01*
X0Y458D02*
X7Y458D01*
X703Y458D02*
X710Y458D01*
X0Y457D02*
X7Y457D01*
X703Y457D02*
X710Y457D01*
X0Y456D02*
X7Y456D01*
X703Y456D02*
X710Y456D01*
X0Y455D02*
X7Y455D01*
X703Y455D02*
X710Y455D01*
X0Y454D02*
X7Y454D01*
X703Y454D02*
X710Y454D01*
X0Y453D02*
X7Y453D01*
X703Y453D02*
X710Y453D01*
X0Y452D02*
X7Y452D01*
X703Y452D02*
X710Y452D01*
X0Y451D02*
X7Y451D01*
X703Y451D02*
X710Y451D01*
X0Y450D02*
X7Y450D01*
X703Y450D02*
X710Y450D01*
X0Y449D02*
X7Y449D01*
X703Y449D02*
X710Y449D01*
X0Y448D02*
X7Y448D01*
X703Y448D02*
X710Y448D01*
X0Y447D02*
X7Y447D01*
X703Y447D02*
X710Y447D01*
X0Y446D02*
X7Y446D01*
X703Y446D02*
X710Y446D01*
X0Y445D02*
X7Y445D01*
X703Y445D02*
X710Y445D01*
X0Y444D02*
X7Y444D01*
X703Y444D02*
X710Y444D01*
X0Y443D02*
X7Y443D01*
X703Y443D02*
X710Y443D01*
X0Y442D02*
X7Y442D01*
X703Y442D02*
X710Y442D01*
X0Y441D02*
X7Y441D01*
X703Y441D02*
X710Y441D01*
X0Y440D02*
X7Y440D01*
X703Y440D02*
X710Y440D01*
X0Y439D02*
X7Y439D01*
X703Y439D02*
X710Y439D01*
X0Y438D02*
X7Y438D01*
X703Y438D02*
X710Y438D01*
X0Y437D02*
X7Y437D01*
X703Y437D02*
X710Y437D01*
X0Y436D02*
X7Y436D01*
X703Y436D02*
X710Y436D01*
X0Y435D02*
X7Y435D01*
X703Y435D02*
X710Y435D01*
X0Y434D02*
X7Y434D01*
X703Y434D02*
X710Y434D01*
X0Y433D02*
X7Y433D01*
X703Y433D02*
X710Y433D01*
X0Y432D02*
X7Y432D01*
X703Y432D02*
X710Y432D01*
X0Y431D02*
X7Y431D01*
X703Y431D02*
X710Y431D01*
X0Y430D02*
X7Y430D01*
X703Y430D02*
X710Y430D01*
X0Y429D02*
X7Y429D01*
X703Y429D02*
X710Y429D01*
X0Y428D02*
X7Y428D01*
X703Y428D02*
X710Y428D01*
X0Y427D02*
X7Y427D01*
X703Y427D02*
X710Y427D01*
X0Y426D02*
X7Y426D01*
X703Y426D02*
X710Y426D01*
X0Y425D02*
X7Y425D01*
X703Y425D02*
X710Y425D01*
X0Y424D02*
X7Y424D01*
X703Y424D02*
X710Y424D01*
X0Y423D02*
X7Y423D01*
X703Y423D02*
X710Y423D01*
X0Y422D02*
X7Y422D01*
X703Y422D02*
X710Y422D01*
X0Y421D02*
X7Y421D01*
X703Y421D02*
X710Y421D01*
X0Y420D02*
X7Y420D01*
X703Y420D02*
X710Y420D01*
X0Y419D02*
X7Y419D01*
X703Y419D02*
X710Y419D01*
X0Y418D02*
X7Y418D01*
X703Y418D02*
X710Y418D01*
X0Y417D02*
X7Y417D01*
X703Y417D02*
X710Y417D01*
X0Y416D02*
X7Y416D01*
X703Y416D02*
X710Y416D01*
X0Y415D02*
X7Y415D01*
X703Y415D02*
X710Y415D01*
X0Y414D02*
X7Y414D01*
X703Y414D02*
X710Y414D01*
X0Y413D02*
X7Y413D01*
X703Y413D02*
X710Y413D01*
X0Y412D02*
X7Y412D01*
X703Y412D02*
X710Y412D01*
X0Y411D02*
X7Y411D01*
X703Y411D02*
X710Y411D01*
X0Y410D02*
X7Y410D01*
X703Y410D02*
X710Y410D01*
X0Y409D02*
X7Y409D01*
X703Y409D02*
X710Y409D01*
X0Y408D02*
X7Y408D01*
X703Y408D02*
X710Y408D01*
X0Y407D02*
X7Y407D01*
X703Y407D02*
X710Y407D01*
X0Y406D02*
X7Y406D01*
X703Y406D02*
X710Y406D01*
X0Y405D02*
X7Y405D01*
X703Y405D02*
X710Y405D01*
X0Y404D02*
X7Y404D01*
X703Y404D02*
X710Y404D01*
X0Y403D02*
X7Y403D01*
X703Y403D02*
X710Y403D01*
X0Y402D02*
X7Y402D01*
X703Y402D02*
X710Y402D01*
X0Y401D02*
X7Y401D01*
X703Y401D02*
X710Y401D01*
X0Y400D02*
X7Y400D01*
X703Y400D02*
X710Y400D01*
X0Y399D02*
X7Y399D01*
X703Y399D02*
X710Y399D01*
X0Y398D02*
X7Y398D01*
X703Y398D02*
X710Y398D01*
X0Y397D02*
X7Y397D01*
X703Y397D02*
X710Y397D01*
X0Y396D02*
X7Y396D01*
X703Y396D02*
X710Y396D01*
X0Y395D02*
X7Y395D01*
X703Y395D02*
X710Y395D01*
X0Y394D02*
X7Y394D01*
X703Y394D02*
X710Y394D01*
X0Y393D02*
X7Y393D01*
X703Y393D02*
X710Y393D01*
X0Y392D02*
X7Y392D01*
X703Y392D02*
X710Y392D01*
X0Y391D02*
X7Y391D01*
X703Y391D02*
X710Y391D01*
X0Y390D02*
X7Y390D01*
X703Y390D02*
X710Y390D01*
X0Y389D02*
X7Y389D01*
X703Y389D02*
X710Y389D01*
X0Y388D02*
X7Y388D01*
X703Y388D02*
X710Y388D01*
X0Y387D02*
X7Y387D01*
X703Y387D02*
X710Y387D01*
X0Y386D02*
X7Y386D01*
X703Y386D02*
X710Y386D01*
X0Y385D02*
X7Y385D01*
X703Y385D02*
X710Y385D01*
X0Y384D02*
X7Y384D01*
X703Y384D02*
X710Y384D01*
X0Y383D02*
X7Y383D01*
X703Y383D02*
X710Y383D01*
X0Y382D02*
X7Y382D01*
X703Y382D02*
X710Y382D01*
X0Y381D02*
X7Y381D01*
X703Y381D02*
X710Y381D01*
X0Y380D02*
X7Y380D01*
X703Y380D02*
X710Y380D01*
X0Y379D02*
X7Y379D01*
X703Y379D02*
X710Y379D01*
X0Y378D02*
X7Y378D01*
X703Y378D02*
X710Y378D01*
X0Y377D02*
X7Y377D01*
X703Y377D02*
X710Y377D01*
X0Y376D02*
X7Y376D01*
X703Y376D02*
X710Y376D01*
X0Y375D02*
X7Y375D01*
X703Y375D02*
X710Y375D01*
X0Y374D02*
X7Y374D01*
X703Y374D02*
X710Y374D01*
X0Y373D02*
X7Y373D01*
X703Y373D02*
X710Y373D01*
X0Y372D02*
X7Y372D01*
X703Y372D02*
X710Y372D01*
X0Y371D02*
X7Y371D01*
X703Y371D02*
X710Y371D01*
X0Y370D02*
X7Y370D01*
X703Y370D02*
X710Y370D01*
X0Y369D02*
X7Y369D01*
X703Y369D02*
X710Y369D01*
X0Y368D02*
X7Y368D01*
X703Y368D02*
X710Y368D01*
X0Y367D02*
X7Y367D01*
X703Y367D02*
X710Y367D01*
X0Y366D02*
X7Y366D01*
X703Y366D02*
X710Y366D01*
X0Y365D02*
X7Y365D01*
X703Y365D02*
X710Y365D01*
X0Y364D02*
X7Y364D01*
X703Y364D02*
X710Y364D01*
X0Y363D02*
X7Y363D01*
X703Y363D02*
X710Y363D01*
X0Y362D02*
X7Y362D01*
X703Y362D02*
X710Y362D01*
X0Y361D02*
X7Y361D01*
X703Y361D02*
X710Y361D01*
X0Y360D02*
X7Y360D01*
X703Y360D02*
X710Y360D01*
X0Y359D02*
X7Y359D01*
X703Y359D02*
X710Y359D01*
X0Y358D02*
X7Y358D01*
X703Y358D02*
X710Y358D01*
X0Y357D02*
X7Y357D01*
X703Y357D02*
X710Y357D01*
X0Y356D02*
X7Y356D01*
X703Y356D02*
X710Y356D01*
X0Y355D02*
X7Y355D01*
X703Y355D02*
X710Y355D01*
X0Y354D02*
X7Y354D01*
X703Y354D02*
X710Y354D01*
X0Y353D02*
X7Y353D01*
X703Y353D02*
X710Y353D01*
X0Y352D02*
X7Y352D01*
X703Y352D02*
X710Y352D01*
X0Y351D02*
X7Y351D01*
X703Y351D02*
X710Y351D01*
X0Y350D02*
X7Y350D01*
X703Y350D02*
X710Y350D01*
X0Y349D02*
X7Y349D01*
X703Y349D02*
X710Y349D01*
X0Y348D02*
X7Y348D01*
X703Y348D02*
X710Y348D01*
X0Y347D02*
X7Y347D01*
X703Y347D02*
X710Y347D01*
X0Y346D02*
X7Y346D01*
X703Y346D02*
X710Y346D01*
X0Y345D02*
X7Y345D01*
X703Y345D02*
X710Y345D01*
X0Y344D02*
X7Y344D01*
X703Y344D02*
X710Y344D01*
X0Y343D02*
X7Y343D01*
X703Y343D02*
X710Y343D01*
X0Y342D02*
X7Y342D01*
X703Y342D02*
X710Y342D01*
X0Y341D02*
X7Y341D01*
X703Y341D02*
X710Y341D01*
X0Y340D02*
X7Y340D01*
X703Y340D02*
X710Y340D01*
X0Y339D02*
X7Y339D01*
X703Y339D02*
X710Y339D01*
X0Y338D02*
X7Y338D01*
X703Y338D02*
X710Y338D01*
X0Y337D02*
X7Y337D01*
X703Y337D02*
X710Y337D01*
X0Y336D02*
X7Y336D01*
X703Y336D02*
X710Y336D01*
X0Y335D02*
X7Y335D01*
X703Y335D02*
X710Y335D01*
X0Y334D02*
X7Y334D01*
X703Y334D02*
X710Y334D01*
X0Y333D02*
X7Y333D01*
X703Y333D02*
X710Y333D01*
X0Y332D02*
X7Y332D01*
X703Y332D02*
X710Y332D01*
X0Y331D02*
X7Y331D01*
X703Y331D02*
X710Y331D01*
X0Y330D02*
X7Y330D01*
X703Y330D02*
X710Y330D01*
X0Y329D02*
X7Y329D01*
X703Y329D02*
X710Y329D01*
X0Y328D02*
X7Y328D01*
X703Y328D02*
X710Y328D01*
X0Y327D02*
X7Y327D01*
X703Y327D02*
X710Y327D01*
X0Y326D02*
X7Y326D01*
X703Y326D02*
X710Y326D01*
X0Y325D02*
X7Y325D01*
X703Y325D02*
X710Y325D01*
X0Y324D02*
X7Y324D01*
X703Y324D02*
X710Y324D01*
X0Y323D02*
X7Y323D01*
X703Y323D02*
X710Y323D01*
X0Y322D02*
X7Y322D01*
X703Y322D02*
X710Y322D01*
X0Y321D02*
X7Y321D01*
X703Y321D02*
X710Y321D01*
X0Y320D02*
X7Y320D01*
X703Y320D02*
X710Y320D01*
X0Y319D02*
X7Y319D01*
X703Y319D02*
X710Y319D01*
X0Y318D02*
X7Y318D01*
X703Y318D02*
X710Y318D01*
X0Y317D02*
X7Y317D01*
X703Y317D02*
X710Y317D01*
X0Y316D02*
X7Y316D01*
X703Y316D02*
X710Y316D01*
X0Y315D02*
X7Y315D01*
X703Y315D02*
X710Y315D01*
X0Y314D02*
X7Y314D01*
X703Y314D02*
X710Y314D01*
X0Y313D02*
X7Y313D01*
X703Y313D02*
X710Y313D01*
X0Y312D02*
X7Y312D01*
X703Y312D02*
X710Y312D01*
X0Y311D02*
X7Y311D01*
X703Y311D02*
X710Y311D01*
X0Y310D02*
X7Y310D01*
X703Y310D02*
X710Y310D01*
X0Y309D02*
X7Y309D01*
X703Y309D02*
X710Y309D01*
X0Y308D02*
X7Y308D01*
X703Y308D02*
X710Y308D01*
X0Y307D02*
X7Y307D01*
X703Y307D02*
X710Y307D01*
X0Y306D02*
X7Y306D01*
X703Y306D02*
X710Y306D01*
X0Y305D02*
X7Y305D01*
X703Y305D02*
X710Y305D01*
X0Y304D02*
X7Y304D01*
X703Y304D02*
X710Y304D01*
X0Y303D02*
X7Y303D01*
X703Y303D02*
X710Y303D01*
X0Y302D02*
X7Y302D01*
X703Y302D02*
X710Y302D01*
X0Y301D02*
X7Y301D01*
X703Y301D02*
X710Y301D01*
X0Y300D02*
X7Y300D01*
X703Y300D02*
X710Y300D01*
X0Y299D02*
X7Y299D01*
X703Y299D02*
X710Y299D01*
X0Y298D02*
X7Y298D01*
X703Y298D02*
X710Y298D01*
X0Y297D02*
X7Y297D01*
X703Y297D02*
X710Y297D01*
X0Y296D02*
X7Y296D01*
X703Y296D02*
X710Y296D01*
X0Y295D02*
X7Y295D01*
X703Y295D02*
X710Y295D01*
X0Y294D02*
X7Y294D01*
X703Y294D02*
X710Y294D01*
X0Y293D02*
X7Y293D01*
X703Y293D02*
X710Y293D01*
X0Y292D02*
X7Y292D01*
X703Y292D02*
X710Y292D01*
X0Y291D02*
X7Y291D01*
X703Y291D02*
X710Y291D01*
X0Y290D02*
X7Y290D01*
X703Y290D02*
X710Y290D01*
X0Y289D02*
X7Y289D01*
X703Y289D02*
X710Y289D01*
X0Y288D02*
X7Y288D01*
X703Y288D02*
X710Y288D01*
X0Y287D02*
X7Y287D01*
X703Y287D02*
X710Y287D01*
X0Y286D02*
X7Y286D01*
X703Y286D02*
X710Y286D01*
X0Y285D02*
X7Y285D01*
X703Y285D02*
X710Y285D01*
X0Y284D02*
X7Y284D01*
X703Y284D02*
X710Y284D01*
X0Y283D02*
X7Y283D01*
X703Y283D02*
X710Y283D01*
X0Y282D02*
X7Y282D01*
X703Y282D02*
X710Y282D01*
X0Y281D02*
X7Y281D01*
X703Y281D02*
X710Y281D01*
X0Y280D02*
X7Y280D01*
X703Y280D02*
X710Y280D01*
X0Y279D02*
X7Y279D01*
X703Y279D02*
X710Y279D01*
X0Y278D02*
X7Y278D01*
X703Y278D02*
X710Y278D01*
X0Y277D02*
X7Y277D01*
X703Y277D02*
X710Y277D01*
X0Y276D02*
X7Y276D01*
X703Y276D02*
X710Y276D01*
X0Y275D02*
X7Y275D01*
X703Y275D02*
X710Y275D01*
X0Y274D02*
X7Y274D01*
X703Y274D02*
X710Y274D01*
X0Y273D02*
X7Y273D01*
X703Y273D02*
X710Y273D01*
X0Y272D02*
X7Y272D01*
X703Y272D02*
X710Y272D01*
X0Y271D02*
X7Y271D01*
X703Y271D02*
X710Y271D01*
X0Y270D02*
X7Y270D01*
X703Y270D02*
X710Y270D01*
X0Y269D02*
X7Y269D01*
X703Y269D02*
X710Y269D01*
X0Y268D02*
X7Y268D01*
X703Y268D02*
X710Y268D01*
X0Y267D02*
X7Y267D01*
X703Y267D02*
X710Y267D01*
X0Y266D02*
X7Y266D01*
X703Y266D02*
X710Y266D01*
X0Y265D02*
X7Y265D01*
X703Y265D02*
X710Y265D01*
X0Y264D02*
X7Y264D01*
X703Y264D02*
X710Y264D01*
X0Y263D02*
X7Y263D01*
X703Y263D02*
X710Y263D01*
X0Y262D02*
X7Y262D01*
X703Y262D02*
X710Y262D01*
X0Y261D02*
X7Y261D01*
X703Y261D02*
X710Y261D01*
X0Y260D02*
X7Y260D01*
X703Y260D02*
X710Y260D01*
X0Y259D02*
X7Y259D01*
X703Y259D02*
X710Y259D01*
X0Y258D02*
X7Y258D01*
X703Y258D02*
X710Y258D01*
X0Y257D02*
X7Y257D01*
X703Y257D02*
X710Y257D01*
X0Y256D02*
X7Y256D01*
X703Y256D02*
X710Y256D01*
X0Y255D02*
X7Y255D01*
X703Y255D02*
X710Y255D01*
X0Y254D02*
X7Y254D01*
X703Y254D02*
X710Y254D01*
X0Y253D02*
X7Y253D01*
X703Y253D02*
X710Y253D01*
X0Y252D02*
X7Y252D01*
X703Y252D02*
X710Y252D01*
X0Y251D02*
X7Y251D01*
X703Y251D02*
X710Y251D01*
X0Y250D02*
X7Y250D01*
X703Y250D02*
X710Y250D01*
X0Y249D02*
X7Y249D01*
X703Y249D02*
X710Y249D01*
X0Y248D02*
X7Y248D01*
X703Y248D02*
X710Y248D01*
X0Y247D02*
X7Y247D01*
X703Y247D02*
X710Y247D01*
X0Y246D02*
X7Y246D01*
X703Y246D02*
X710Y246D01*
X0Y245D02*
X7Y245D01*
X703Y245D02*
X710Y245D01*
X0Y244D02*
X7Y244D01*
X703Y244D02*
X710Y244D01*
X0Y243D02*
X7Y243D01*
X703Y243D02*
X710Y243D01*
X0Y242D02*
X7Y242D01*
X703Y242D02*
X710Y242D01*
X0Y241D02*
X7Y241D01*
X703Y241D02*
X710Y241D01*
X0Y240D02*
X7Y240D01*
X703Y240D02*
X710Y240D01*
X0Y239D02*
X7Y239D01*
X703Y239D02*
X710Y239D01*
X0Y238D02*
X7Y238D01*
X703Y238D02*
X710Y238D01*
X0Y237D02*
X7Y237D01*
X703Y237D02*
X710Y237D01*
X0Y236D02*
X7Y236D01*
X703Y236D02*
X710Y236D01*
X0Y235D02*
X7Y235D01*
X703Y235D02*
X710Y235D01*
X0Y234D02*
X7Y234D01*
X703Y234D02*
X710Y234D01*
X0Y233D02*
X7Y233D01*
X703Y233D02*
X710Y233D01*
X0Y232D02*
X7Y232D01*
X703Y232D02*
X710Y232D01*
X0Y231D02*
X7Y231D01*
X703Y231D02*
X710Y231D01*
X0Y230D02*
X7Y230D01*
X703Y230D02*
X710Y230D01*
X0Y229D02*
X7Y229D01*
X703Y229D02*
X710Y229D01*
X0Y228D02*
X7Y228D01*
X703Y228D02*
X710Y228D01*
X0Y227D02*
X7Y227D01*
X703Y227D02*
X710Y227D01*
X0Y226D02*
X7Y226D01*
X703Y226D02*
X710Y226D01*
X0Y225D02*
X7Y225D01*
X703Y225D02*
X710Y225D01*
X0Y224D02*
X7Y224D01*
X703Y224D02*
X710Y224D01*
X0Y223D02*
X7Y223D01*
X703Y223D02*
X710Y223D01*
X0Y222D02*
X7Y222D01*
X703Y222D02*
X710Y222D01*
X0Y221D02*
X7Y221D01*
X703Y221D02*
X710Y221D01*
X0Y220D02*
X7Y220D01*
X703Y220D02*
X710Y220D01*
X0Y219D02*
X7Y219D01*
X703Y219D02*
X710Y219D01*
X0Y218D02*
X7Y218D01*
X703Y218D02*
X710Y218D01*
X0Y217D02*
X7Y217D01*
X703Y217D02*
X710Y217D01*
X0Y216D02*
X7Y216D01*
X703Y216D02*
X710Y216D01*
X0Y215D02*
X7Y215D01*
X703Y215D02*
X710Y215D01*
X0Y214D02*
X7Y214D01*
X703Y214D02*
X710Y214D01*
X0Y213D02*
X7Y213D01*
X703Y213D02*
X710Y213D01*
X0Y212D02*
X7Y212D01*
X703Y212D02*
X710Y212D01*
X0Y211D02*
X7Y211D01*
X703Y211D02*
X710Y211D01*
X0Y210D02*
X7Y210D01*
X703Y210D02*
X710Y210D01*
X0Y209D02*
X7Y209D01*
X703Y209D02*
X710Y209D01*
X0Y208D02*
X7Y208D01*
X703Y208D02*
X710Y208D01*
X0Y207D02*
X7Y207D01*
X703Y207D02*
X710Y207D01*
X0Y206D02*
X7Y206D01*
X703Y206D02*
X710Y206D01*
X0Y205D02*
X7Y205D01*
X703Y205D02*
X710Y205D01*
X0Y204D02*
X7Y204D01*
X703Y204D02*
X710Y204D01*
X0Y203D02*
X7Y203D01*
X703Y203D02*
X710Y203D01*
X0Y202D02*
X7Y202D01*
X703Y202D02*
X710Y202D01*
X0Y201D02*
X7Y201D01*
X703Y201D02*
X710Y201D01*
X0Y200D02*
X7Y200D01*
X703Y200D02*
X710Y200D01*
X0Y199D02*
X7Y199D01*
X703Y199D02*
X710Y199D01*
X0Y198D02*
X7Y198D01*
X703Y198D02*
X710Y198D01*
X0Y197D02*
X7Y197D01*
X703Y197D02*
X710Y197D01*
X0Y196D02*
X7Y196D01*
X703Y196D02*
X710Y196D01*
X0Y195D02*
X7Y195D01*
X703Y195D02*
X710Y195D01*
X0Y194D02*
X7Y194D01*
X703Y194D02*
X710Y194D01*
X0Y193D02*
X7Y193D01*
X703Y193D02*
X710Y193D01*
X0Y192D02*
X7Y192D01*
X703Y192D02*
X710Y192D01*
X0Y191D02*
X7Y191D01*
X703Y191D02*
X710Y191D01*
X0Y190D02*
X7Y190D01*
X703Y190D02*
X710Y190D01*
X0Y189D02*
X7Y189D01*
X703Y189D02*
X710Y189D01*
X0Y188D02*
X7Y188D01*
X703Y188D02*
X710Y188D01*
X0Y187D02*
X7Y187D01*
X703Y187D02*
X710Y187D01*
X0Y186D02*
X7Y186D01*
X703Y186D02*
X710Y186D01*
X0Y185D02*
X7Y185D01*
X703Y185D02*
X710Y185D01*
X0Y184D02*
X7Y184D01*
X703Y184D02*
X710Y184D01*
X0Y183D02*
X7Y183D01*
X703Y183D02*
X710Y183D01*
X0Y182D02*
X7Y182D01*
X703Y182D02*
X710Y182D01*
X0Y181D02*
X7Y181D01*
X703Y181D02*
X710Y181D01*
X0Y180D02*
X7Y180D01*
X703Y180D02*
X710Y180D01*
X0Y179D02*
X7Y179D01*
X703Y179D02*
X710Y179D01*
X0Y178D02*
X7Y178D01*
X703Y178D02*
X710Y178D01*
X0Y177D02*
X7Y177D01*
X703Y177D02*
X710Y177D01*
X0Y176D02*
X7Y176D01*
X703Y176D02*
X710Y176D01*
X0Y175D02*
X7Y175D01*
X703Y175D02*
X710Y175D01*
X0Y174D02*
X7Y174D01*
X703Y174D02*
X710Y174D01*
X0Y173D02*
X7Y173D01*
X703Y173D02*
X710Y173D01*
X0Y172D02*
X7Y172D01*
X703Y172D02*
X710Y172D01*
X0Y171D02*
X7Y171D01*
X703Y171D02*
X710Y171D01*
X0Y170D02*
X7Y170D01*
X703Y170D02*
X710Y170D01*
X0Y169D02*
X7Y169D01*
X703Y169D02*
X710Y169D01*
X0Y168D02*
X7Y168D01*
X703Y168D02*
X710Y168D01*
X0Y167D02*
X7Y167D01*
X703Y167D02*
X710Y167D01*
X0Y166D02*
X7Y166D01*
X703Y166D02*
X710Y166D01*
X0Y165D02*
X7Y165D01*
X703Y165D02*
X710Y165D01*
X0Y164D02*
X7Y164D01*
X703Y164D02*
X710Y164D01*
X0Y163D02*
X7Y163D01*
X703Y163D02*
X710Y163D01*
X0Y162D02*
X7Y162D01*
X703Y162D02*
X710Y162D01*
X0Y161D02*
X7Y161D01*
X703Y161D02*
X710Y161D01*
X0Y160D02*
X7Y160D01*
X703Y160D02*
X710Y160D01*
X0Y159D02*
X7Y159D01*
X703Y159D02*
X710Y159D01*
X0Y158D02*
X7Y158D01*
X703Y158D02*
X710Y158D01*
X0Y157D02*
X7Y157D01*
X703Y157D02*
X710Y157D01*
X0Y156D02*
X7Y156D01*
X703Y156D02*
X710Y156D01*
X0Y155D02*
X7Y155D01*
X703Y155D02*
X710Y155D01*
X0Y154D02*
X7Y154D01*
X703Y154D02*
X710Y154D01*
X0Y153D02*
X7Y153D01*
X703Y153D02*
X710Y153D01*
X0Y152D02*
X7Y152D01*
X703Y152D02*
X710Y152D01*
X0Y151D02*
X7Y151D01*
X703Y151D02*
X710Y151D01*
X0Y150D02*
X7Y150D01*
X703Y150D02*
X710Y150D01*
X0Y149D02*
X7Y149D01*
X703Y149D02*
X710Y149D01*
X0Y148D02*
X7Y148D01*
X703Y148D02*
X710Y148D01*
X0Y147D02*
X7Y147D01*
X703Y147D02*
X710Y147D01*
X0Y146D02*
X7Y146D01*
X703Y146D02*
X710Y146D01*
X0Y145D02*
X7Y145D01*
X703Y145D02*
X710Y145D01*
X0Y144D02*
X7Y144D01*
X703Y144D02*
X710Y144D01*
X0Y143D02*
X7Y143D01*
X703Y143D02*
X710Y143D01*
X0Y142D02*
X7Y142D01*
X703Y142D02*
X710Y142D01*
X0Y141D02*
X7Y141D01*
X703Y141D02*
X710Y141D01*
X0Y140D02*
X7Y140D01*
X703Y140D02*
X710Y140D01*
X0Y139D02*
X7Y139D01*
X703Y139D02*
X710Y139D01*
X0Y138D02*
X7Y138D01*
X703Y138D02*
X710Y138D01*
X0Y137D02*
X7Y137D01*
X703Y137D02*
X710Y137D01*
X0Y136D02*
X7Y136D01*
X703Y136D02*
X710Y136D01*
X0Y135D02*
X7Y135D01*
X703Y135D02*
X710Y135D01*
X0Y134D02*
X7Y134D01*
X703Y134D02*
X710Y134D01*
X0Y133D02*
X7Y133D01*
X703Y133D02*
X710Y133D01*
X0Y132D02*
X7Y132D01*
X703Y132D02*
X710Y132D01*
X0Y131D02*
X7Y131D01*
X703Y131D02*
X710Y131D01*
X0Y130D02*
X7Y130D01*
X703Y130D02*
X710Y130D01*
X0Y129D02*
X7Y129D01*
X703Y129D02*
X710Y129D01*
X0Y128D02*
X7Y128D01*
X703Y128D02*
X710Y128D01*
X0Y127D02*
X7Y127D01*
X703Y127D02*
X710Y127D01*
X0Y126D02*
X7Y126D01*
X703Y126D02*
X710Y126D01*
X0Y125D02*
X7Y125D01*
X703Y125D02*
X710Y125D01*
X0Y124D02*
X7Y124D01*
X703Y124D02*
X710Y124D01*
X0Y123D02*
X7Y123D01*
X703Y123D02*
X710Y123D01*
X0Y122D02*
X7Y122D01*
X703Y122D02*
X710Y122D01*
X0Y121D02*
X7Y121D01*
X703Y121D02*
X710Y121D01*
X0Y120D02*
X7Y120D01*
X703Y120D02*
X710Y120D01*
X0Y119D02*
X7Y119D01*
X703Y119D02*
X710Y119D01*
X0Y118D02*
X7Y118D01*
X703Y118D02*
X710Y118D01*
X0Y117D02*
X7Y117D01*
X703Y117D02*
X710Y117D01*
X0Y116D02*
X7Y116D01*
X703Y116D02*
X710Y116D01*
X0Y115D02*
X7Y115D01*
X703Y115D02*
X710Y115D01*
X0Y114D02*
X7Y114D01*
X703Y114D02*
X710Y114D01*
X0Y113D02*
X7Y113D01*
X703Y113D02*
X710Y113D01*
X0Y112D02*
X7Y112D01*
X703Y112D02*
X710Y112D01*
X0Y111D02*
X7Y111D01*
X703Y111D02*
X710Y111D01*
X0Y110D02*
X7Y110D01*
X703Y110D02*
X710Y110D01*
X0Y109D02*
X7Y109D01*
X703Y109D02*
X710Y109D01*
X0Y108D02*
X7Y108D01*
X703Y108D02*
X710Y108D01*
X0Y107D02*
X7Y107D01*
X703Y107D02*
X710Y107D01*
X0Y106D02*
X7Y106D01*
X703Y106D02*
X710Y106D01*
X0Y105D02*
X7Y105D01*
X703Y105D02*
X710Y105D01*
X0Y104D02*
X7Y104D01*
X703Y104D02*
X710Y104D01*
X0Y103D02*
X7Y103D01*
X703Y103D02*
X710Y103D01*
X0Y102D02*
X7Y102D01*
X703Y102D02*
X710Y102D01*
X0Y101D02*
X7Y101D01*
X703Y101D02*
X710Y101D01*
X0Y100D02*
X7Y100D01*
X703Y100D02*
X710Y100D01*
X0Y99D02*
X7Y99D01*
X703Y99D02*
X710Y99D01*
X0Y98D02*
X7Y98D01*
X703Y98D02*
X710Y98D01*
X0Y97D02*
X7Y97D01*
X703Y97D02*
X710Y97D01*
X0Y96D02*
X7Y96D01*
X703Y96D02*
X710Y96D01*
X0Y95D02*
X7Y95D01*
X703Y95D02*
X710Y95D01*
X0Y94D02*
X7Y94D01*
X703Y94D02*
X710Y94D01*
X0Y93D02*
X7Y93D01*
X703Y93D02*
X710Y93D01*
X0Y92D02*
X7Y92D01*
X703Y92D02*
X710Y92D01*
X0Y91D02*
X7Y91D01*
X703Y91D02*
X710Y91D01*
X0Y90D02*
X7Y90D01*
X703Y90D02*
X710Y90D01*
X0Y89D02*
X7Y89D01*
X703Y89D02*
X710Y89D01*
X0Y88D02*
X7Y88D01*
X703Y88D02*
X710Y88D01*
X0Y87D02*
X7Y87D01*
X703Y87D02*
X710Y87D01*
X0Y86D02*
X7Y86D01*
X703Y86D02*
X710Y86D01*
X0Y85D02*
X7Y85D01*
X703Y85D02*
X710Y85D01*
X0Y84D02*
X7Y84D01*
X703Y84D02*
X710Y84D01*
X0Y83D02*
X7Y83D01*
X703Y83D02*
X710Y83D01*
X0Y82D02*
X7Y82D01*
X703Y82D02*
X710Y82D01*
X0Y81D02*
X7Y81D01*
X703Y81D02*
X710Y81D01*
X0Y80D02*
X7Y80D01*
X703Y80D02*
X710Y80D01*
X0Y79D02*
X7Y79D01*
X703Y79D02*
X710Y79D01*
X0Y78D02*
X7Y78D01*
X703Y78D02*
X710Y78D01*
X0Y77D02*
X7Y77D01*
X703Y77D02*
X710Y77D01*
X0Y76D02*
X7Y76D01*
X703Y76D02*
X710Y76D01*
X0Y75D02*
X7Y75D01*
X703Y75D02*
X710Y75D01*
X0Y74D02*
X7Y74D01*
X703Y74D02*
X710Y74D01*
X0Y73D02*
X7Y73D01*
X703Y73D02*
X710Y73D01*
X0Y72D02*
X7Y72D01*
X703Y72D02*
X710Y72D01*
X0Y71D02*
X7Y71D01*
X703Y71D02*
X710Y71D01*
X0Y70D02*
X7Y70D01*
X703Y70D02*
X710Y70D01*
X0Y69D02*
X7Y69D01*
X703Y69D02*
X710Y69D01*
X0Y68D02*
X7Y68D01*
X703Y68D02*
X710Y68D01*
X0Y67D02*
X7Y67D01*
X703Y67D02*
X710Y67D01*
X0Y66D02*
X7Y66D01*
X703Y66D02*
X710Y66D01*
X0Y65D02*
X7Y65D01*
X703Y65D02*
X710Y65D01*
X0Y64D02*
X7Y64D01*
X703Y64D02*
X710Y64D01*
X0Y63D02*
X7Y63D01*
X703Y63D02*
X710Y63D01*
X0Y62D02*
X7Y62D01*
X703Y62D02*
X710Y62D01*
X0Y61D02*
X7Y61D01*
X703Y61D02*
X710Y61D01*
X0Y60D02*
X7Y60D01*
X703Y60D02*
X710Y60D01*
X0Y59D02*
X7Y59D01*
X703Y59D02*
X710Y59D01*
X0Y58D02*
X7Y58D01*
X703Y58D02*
X710Y58D01*
X0Y57D02*
X7Y57D01*
X703Y57D02*
X710Y57D01*
X0Y56D02*
X7Y56D01*
X703Y56D02*
X710Y56D01*
X0Y55D02*
X7Y55D01*
X703Y55D02*
X710Y55D01*
X0Y54D02*
X7Y54D01*
X703Y54D02*
X710Y54D01*
X0Y53D02*
X7Y53D01*
X703Y53D02*
X710Y53D01*
X0Y52D02*
X7Y52D01*
X703Y52D02*
X710Y52D01*
X0Y51D02*
X7Y51D01*
X703Y51D02*
X710Y51D01*
X0Y50D02*
X7Y50D01*
X703Y50D02*
X710Y50D01*
X0Y49D02*
X7Y49D01*
X703Y49D02*
X710Y49D01*
X0Y48D02*
X7Y48D01*
X703Y48D02*
X710Y48D01*
X0Y47D02*
X7Y47D01*
X703Y47D02*
X710Y47D01*
X0Y46D02*
X7Y46D01*
X703Y46D02*
X710Y46D01*
X0Y45D02*
X7Y45D01*
X703Y45D02*
X710Y45D01*
X0Y44D02*
X7Y44D01*
X703Y44D02*
X710Y44D01*
X0Y43D02*
X7Y43D01*
X703Y43D02*
X710Y43D01*
X0Y42D02*
X7Y42D01*
X703Y42D02*
X710Y42D01*
X0Y41D02*
X7Y41D01*
X703Y41D02*
X710Y41D01*
X0Y40D02*
X7Y40D01*
X703Y40D02*
X710Y40D01*
X0Y39D02*
X7Y39D01*
X703Y39D02*
X710Y39D01*
X0Y38D02*
X7Y38D01*
X703Y38D02*
X710Y38D01*
X0Y37D02*
X7Y37D01*
X703Y37D02*
X710Y37D01*
X0Y36D02*
X7Y36D01*
X703Y36D02*
X710Y36D01*
X0Y35D02*
X7Y35D01*
X703Y35D02*
X710Y35D01*
X0Y34D02*
X7Y34D01*
X703Y34D02*
X710Y34D01*
X0Y33D02*
X7Y33D01*
X703Y33D02*
X710Y33D01*
X0Y32D02*
X7Y32D01*
X703Y32D02*
X710Y32D01*
X0Y31D02*
X7Y31D01*
X703Y31D02*
X710Y31D01*
X0Y30D02*
X7Y30D01*
X703Y30D02*
X710Y30D01*
X0Y29D02*
X7Y29D01*
X703Y29D02*
X710Y29D01*
X0Y28D02*
X7Y28D01*
X703Y28D02*
X710Y28D01*
X0Y27D02*
X7Y27D01*
X703Y27D02*
X710Y27D01*
X0Y26D02*
X7Y26D01*
X703Y26D02*
X710Y26D01*
X0Y25D02*
X7Y25D01*
X703Y25D02*
X710Y25D01*
X0Y24D02*
X7Y24D01*
X703Y24D02*
X710Y24D01*
X0Y23D02*
X7Y23D01*
X703Y23D02*
X710Y23D01*
X0Y22D02*
X7Y22D01*
X703Y22D02*
X710Y22D01*
X0Y21D02*
X7Y21D01*
X703Y21D02*
X710Y21D01*
X0Y20D02*
X7Y20D01*
X703Y20D02*
X710Y20D01*
X0Y19D02*
X7Y19D01*
X703Y19D02*
X710Y19D01*
X0Y18D02*
X7Y18D01*
X703Y18D02*
X710Y18D01*
X0Y17D02*
X7Y17D01*
X703Y17D02*
X710Y17D01*
X0Y16D02*
X7Y16D01*
X703Y16D02*
X710Y16D01*
X0Y15D02*
X7Y15D01*
X703Y15D02*
X710Y15D01*
X0Y14D02*
X7Y14D01*
X703Y14D02*
X710Y14D01*
X0Y13D02*
X7Y13D01*
X703Y13D02*
X710Y13D01*
X0Y12D02*
X7Y12D01*
X703Y12D02*
X710Y12D01*
X0Y11D02*
X7Y11D01*
X703Y11D02*
X710Y11D01*
X0Y10D02*
X7Y10D01*
X703Y10D02*
X710Y10D01*
X0Y9D02*
X7Y9D01*
X703Y9D02*
X710Y9D01*
X0Y8D02*
X710Y8D01*
X0Y7D02*
X710Y7D01*
X0Y6D02*
X710Y6D01*
X0Y5D02*
X710Y5D01*
X0Y4D02*
X710Y4D01*
X0Y3D02*
X710Y3D01*
X0Y2D02*
X47Y2D01*
X58Y2D02*
X147Y2D01*
X158Y2D02*
X247Y2D01*
X258Y2D02*
X347Y2D01*
X358Y2D02*
X447Y2D01*
X458Y2D02*
X710Y2D01*
X0Y1D02*
X42Y1D01*
X64Y1D02*
X142Y1D01*
X164Y1D02*
X242Y1D01*
X264Y1D02*
X342Y1D01*
X364Y1D02*
X441Y1D01*
X463Y1D02*
X710Y1D01*
D02*
G04 End of Silk0*
M02*