G04 MADE WITH FRITZING*
G04 WWW.FRITZING.ORG*
G04 DOUBLE SIDED*
G04 HOLES PLATED*
G04 CONTOUR ON CENTER OF CONTOUR VECTOR*
%ASAXBY*%
%FSLAX23Y23*%
%MOIN*%
%OFA0B0*%
%SFA1.0B1.0*%
%ADD10C,0.085361*%
%ADD11C,0.085000*%
%ADD12C,0.076000*%
%ADD13C,0.148425*%
%ADD14C,0.084000*%
%ADD15C,0.086000*%
%ADD16R,0.084000X0.084000*%
%ADD17R,0.001000X0.001000*%
%LNMASK1*%
G90*
G70*
G54D10*
X454Y59D03*
X354Y59D03*
X254Y59D03*
X154Y59D03*
X54Y59D03*
G54D11*
X554Y1559D03*
X154Y1559D03*
X554Y259D03*
X154Y259D03*
G54D12*
X154Y1259D03*
G54D13*
X599Y1759D03*
G54D12*
X254Y1259D03*
X354Y1259D03*
X454Y1259D03*
X554Y1259D03*
G54D13*
X104Y1759D03*
G54D14*
X354Y459D03*
X554Y459D03*
X254Y459D03*
X454Y459D03*
X354Y659D03*
X554Y659D03*
X254Y659D03*
X454Y659D03*
X354Y1059D03*
X554Y1059D03*
X254Y1059D03*
X454Y1059D03*
G54D15*
X454Y859D03*
X554Y859D03*
X154Y859D03*
X254Y859D03*
X354Y859D03*
G54D16*
X254Y459D03*
X254Y659D03*
X254Y1059D03*
G54D17*
X49Y2D02*
X57Y2D01*
X149Y2D02*
X157Y2D01*
X249Y2D02*
X257Y2D01*
X349Y2D02*
X357Y2D01*
X449Y2D02*
X457Y2D01*
X44Y1D02*
X63Y1D01*
X144Y1D02*
X163Y1D01*
X244Y1D02*
X263Y1D01*
X343Y1D02*
X363Y1D01*
X443Y1D02*
X462Y1D01*
X40Y0D02*
X67Y0D01*
X140Y0D02*
X166Y0D01*
X240Y0D02*
X266Y0D01*
X340Y0D02*
X366Y0D01*
X440Y0D02*
X466Y0D01*
X38Y-1D02*
X69Y-1D01*
X137Y-1D02*
X169Y-1D01*
X237Y-1D02*
X269Y-1D01*
X337Y-1D02*
X369Y-1D01*
X437Y-1D02*
X469Y-1D01*
D02*
G04 End of Mask1*
M02*