; NON-PLATED HOLES START AT T1
; THROUGH (PLATED) HOLES START AT T100
M48
INCH
T100C0.035000
T101C0.040639
T102C0.098425
T103C0.040000
T104C0.039370
%
T100
X005540Y002591
X005540Y015591
X001540Y002591
X001540Y015591
T101
X000540Y000591
X003539Y000591
X004540Y000591
X002540Y000591
X001540Y000591
T102
X001040Y017591
X005990Y017591
T103
X004540Y010591
X005540Y006591
X005540Y010591
X002540Y004591
X003540Y004591
X004540Y004591
X002540Y006591
X002540Y010591
X005540Y004591
X003540Y006591
X003540Y010591
X004540Y006591
T104
X002540Y012591
X003540Y008591
X004540Y008591
X003540Y012591
X004540Y012591
X005540Y008591
X005540Y012591
X001540Y008591
X002540Y008591
X001540Y012591
T00
M30
