G04 MADE WITH FRITZING*
G04 WWW.FRITZING.ORG*
G04 DOUBLE SIDED*
G04 HOLES PLATED*
G04 CONTOUR ON CENTER OF CONTOUR VECTOR*
%ASAXBY*%
%FSLAX23Y23*%
%MOIN*%
%OFA0B0*%
%SFA1.0B1.0*%
%ADD10C,0.010000*%
%ADD11C,0.008000*%
%ADD12R,0.001000X0.001000*%
%LNSILK1*%
G90*
G70*
G54D10*
X445Y1526D02*
X245Y1526D01*
D02*
X245Y1526D02*
X245Y1592D01*
D02*
X245Y1592D02*
X445Y1592D01*
D02*
X445Y1592D02*
X445Y1526D01*
D02*
X445Y226D02*
X245Y226D01*
D02*
X245Y226D02*
X245Y292D01*
D02*
X245Y292D02*
X445Y292D01*
D02*
X445Y292D02*
X445Y226D01*
G54D11*
D02*
X532Y582D02*
X532Y609D01*
D02*
X532Y582D02*
X500Y582D01*
D02*
X276Y582D02*
X308Y582D01*
D02*
X529Y509D02*
X579Y509D01*
D02*
X579Y509D02*
X604Y484D01*
D02*
X604Y434D02*
X579Y409D01*
D02*
X404Y484D02*
X429Y509D01*
D02*
X429Y509D02*
X479Y509D01*
D02*
X479Y509D02*
X504Y484D01*
D02*
X504Y434D02*
X479Y409D01*
D02*
X479Y409D02*
X429Y409D01*
D02*
X429Y409D02*
X404Y434D01*
D02*
X529Y509D02*
X504Y484D01*
D02*
X504Y434D02*
X529Y409D01*
D02*
X579Y409D02*
X529Y409D01*
D02*
X229Y509D02*
X279Y509D01*
D02*
X304Y484D02*
X329Y509D01*
D02*
X329Y509D02*
X379Y509D01*
D02*
X379Y509D02*
X404Y484D01*
D02*
X404Y434D02*
X379Y409D01*
D02*
X379Y409D02*
X329Y409D01*
D02*
X329Y409D02*
X304Y434D01*
D02*
X204Y484D02*
X204Y434D01*
D02*
X279Y409D02*
X229Y409D01*
D02*
X604Y484D02*
X604Y434D01*
D02*
X532Y782D02*
X532Y809D01*
D02*
X532Y782D02*
X500Y782D01*
D02*
X276Y815D02*
X276Y782D01*
D02*
X276Y782D02*
X308Y782D01*
D02*
X529Y709D02*
X579Y709D01*
D02*
X579Y709D02*
X604Y684D01*
D02*
X604Y634D02*
X579Y609D01*
D02*
X404Y684D02*
X429Y709D01*
D02*
X429Y709D02*
X479Y709D01*
D02*
X479Y709D02*
X504Y684D01*
D02*
X504Y634D02*
X479Y609D01*
D02*
X479Y609D02*
X429Y609D01*
D02*
X429Y609D02*
X404Y634D01*
D02*
X529Y709D02*
X504Y684D01*
D02*
X504Y634D02*
X529Y609D01*
D02*
X579Y609D02*
X529Y609D01*
D02*
X229Y709D02*
X279Y709D01*
D02*
X304Y684D02*
X329Y709D01*
D02*
X329Y709D02*
X379Y709D01*
D02*
X379Y709D02*
X404Y684D01*
D02*
X404Y634D02*
X379Y609D01*
D02*
X379Y609D02*
X329Y609D01*
D02*
X329Y609D02*
X304Y634D01*
D02*
X204Y684D02*
X204Y634D01*
D02*
X279Y609D02*
X229Y609D01*
D02*
X604Y684D02*
X604Y634D01*
G54D10*
D02*
X214Y1284D02*
X194Y1304D01*
G54D11*
D02*
X532Y1182D02*
X532Y1209D01*
D02*
X532Y1406D02*
X532Y1437D01*
D02*
X310Y1437D02*
X286Y1437D01*
D02*
X286Y1437D02*
X276Y1428D01*
D02*
X276Y1428D02*
X276Y1406D01*
D02*
X532Y1437D02*
X500Y1437D01*
D02*
X532Y1182D02*
X500Y1182D01*
D02*
X276Y1215D02*
X276Y1182D01*
D02*
X276Y1182D02*
X308Y1182D01*
D02*
X529Y1109D02*
X579Y1109D01*
D02*
X579Y1109D02*
X604Y1084D01*
D02*
X604Y1034D02*
X579Y1009D01*
D02*
X404Y1084D02*
X429Y1109D01*
D02*
X429Y1109D02*
X479Y1109D01*
D02*
X479Y1109D02*
X504Y1084D01*
D02*
X504Y1034D02*
X479Y1009D01*
D02*
X479Y1009D02*
X429Y1009D01*
D02*
X429Y1009D02*
X404Y1034D01*
D02*
X529Y1109D02*
X504Y1084D01*
D02*
X579Y1009D02*
X529Y1009D01*
D02*
X229Y1109D02*
X279Y1109D01*
D02*
X304Y1084D02*
X329Y1109D01*
D02*
X329Y1109D02*
X379Y1109D01*
D02*
X379Y1109D02*
X404Y1084D01*
D02*
X404Y1034D02*
X379Y1009D01*
D02*
X379Y1009D02*
X329Y1009D01*
D02*
X329Y1009D02*
X304Y1034D01*
D02*
X204Y1084D02*
X204Y1034D01*
D02*
X279Y1009D02*
X229Y1009D01*
D02*
X604Y1084D02*
X604Y1034D01*
G54D12*
X0Y1865D02*
X710Y1865D01*
X0Y1864D02*
X710Y1864D01*
X0Y1863D02*
X710Y1863D01*
X0Y1862D02*
X710Y1862D01*
X0Y1861D02*
X710Y1861D01*
X0Y1860D02*
X710Y1860D01*
X0Y1859D02*
X710Y1859D01*
X0Y1858D02*
X710Y1858D01*
X0Y1857D02*
X7Y1857D01*
X67Y1857D02*
X634Y1857D01*
X703Y1857D02*
X710Y1857D01*
X0Y1856D02*
X7Y1856D01*
X65Y1856D02*
X97Y1856D01*
X604Y1856D02*
X637Y1856D01*
X703Y1856D02*
X710Y1856D01*
X0Y1855D02*
X7Y1855D01*
X62Y1855D02*
X88Y1855D01*
X613Y1855D02*
X639Y1855D01*
X703Y1855D02*
X710Y1855D01*
X0Y1854D02*
X7Y1854D01*
X60Y1854D02*
X83Y1854D01*
X618Y1854D02*
X641Y1854D01*
X703Y1854D02*
X710Y1854D01*
X0Y1853D02*
X7Y1853D01*
X58Y1853D02*
X79Y1853D01*
X622Y1853D02*
X643Y1853D01*
X703Y1853D02*
X710Y1853D01*
X0Y1852D02*
X7Y1852D01*
X56Y1852D02*
X75Y1852D01*
X626Y1852D02*
X645Y1852D01*
X703Y1852D02*
X710Y1852D01*
X0Y1851D02*
X7Y1851D01*
X55Y1851D02*
X72Y1851D01*
X629Y1851D02*
X646Y1851D01*
X703Y1851D02*
X710Y1851D01*
X0Y1850D02*
X7Y1850D01*
X53Y1850D02*
X70Y1850D01*
X632Y1850D02*
X648Y1850D01*
X703Y1850D02*
X710Y1850D01*
X0Y1849D02*
X7Y1849D01*
X51Y1849D02*
X67Y1849D01*
X634Y1849D02*
X650Y1849D01*
X703Y1849D02*
X710Y1849D01*
X0Y1848D02*
X7Y1848D01*
X49Y1848D02*
X65Y1848D01*
X636Y1848D02*
X652Y1848D01*
X703Y1848D02*
X710Y1848D01*
X0Y1847D02*
X7Y1847D01*
X48Y1847D02*
X63Y1847D01*
X638Y1847D02*
X653Y1847D01*
X703Y1847D02*
X710Y1847D01*
X0Y1846D02*
X7Y1846D01*
X47Y1846D02*
X61Y1846D01*
X640Y1846D02*
X654Y1846D01*
X703Y1846D02*
X710Y1846D01*
X0Y1845D02*
X7Y1845D01*
X45Y1845D02*
X59Y1845D01*
X642Y1845D02*
X656Y1845D01*
X703Y1845D02*
X710Y1845D01*
X0Y1844D02*
X7Y1844D01*
X44Y1844D02*
X57Y1844D01*
X644Y1844D02*
X657Y1844D01*
X703Y1844D02*
X710Y1844D01*
X0Y1843D02*
X7Y1843D01*
X43Y1843D02*
X56Y1843D01*
X646Y1843D02*
X659Y1843D01*
X703Y1843D02*
X710Y1843D01*
X0Y1842D02*
X7Y1842D01*
X41Y1842D02*
X54Y1842D01*
X647Y1842D02*
X660Y1842D01*
X703Y1842D02*
X710Y1842D01*
X0Y1841D02*
X7Y1841D01*
X40Y1841D02*
X52Y1841D01*
X649Y1841D02*
X661Y1841D01*
X703Y1841D02*
X710Y1841D01*
X0Y1840D02*
X7Y1840D01*
X39Y1840D02*
X51Y1840D01*
X650Y1840D02*
X662Y1840D01*
X703Y1840D02*
X710Y1840D01*
X0Y1839D02*
X7Y1839D01*
X38Y1839D02*
X50Y1839D01*
X652Y1839D02*
X664Y1839D01*
X703Y1839D02*
X710Y1839D01*
X0Y1838D02*
X7Y1838D01*
X36Y1838D02*
X48Y1838D01*
X653Y1838D02*
X665Y1838D01*
X703Y1838D02*
X710Y1838D01*
X0Y1837D02*
X7Y1837D01*
X35Y1837D02*
X47Y1837D01*
X654Y1837D02*
X666Y1837D01*
X703Y1837D02*
X710Y1837D01*
X0Y1836D02*
X7Y1836D01*
X34Y1836D02*
X45Y1836D01*
X656Y1836D02*
X667Y1836D01*
X703Y1836D02*
X710Y1836D01*
X0Y1835D02*
X7Y1835D01*
X33Y1835D02*
X44Y1835D01*
X657Y1835D02*
X668Y1835D01*
X703Y1835D02*
X710Y1835D01*
X0Y1834D02*
X7Y1834D01*
X32Y1834D02*
X43Y1834D01*
X658Y1834D02*
X669Y1834D01*
X703Y1834D02*
X710Y1834D01*
X0Y1833D02*
X7Y1833D01*
X31Y1833D02*
X42Y1833D01*
X659Y1833D02*
X670Y1833D01*
X703Y1833D02*
X710Y1833D01*
X0Y1832D02*
X7Y1832D01*
X30Y1832D02*
X41Y1832D01*
X660Y1832D02*
X671Y1832D01*
X703Y1832D02*
X710Y1832D01*
X0Y1831D02*
X7Y1831D01*
X30Y1831D02*
X40Y1831D01*
X661Y1831D02*
X672Y1831D01*
X703Y1831D02*
X710Y1831D01*
X0Y1830D02*
X7Y1830D01*
X29Y1830D02*
X39Y1830D01*
X662Y1830D02*
X672Y1830D01*
X703Y1830D02*
X710Y1830D01*
X0Y1829D02*
X7Y1829D01*
X28Y1829D02*
X38Y1829D01*
X663Y1829D02*
X673Y1829D01*
X703Y1829D02*
X710Y1829D01*
X0Y1828D02*
X7Y1828D01*
X27Y1828D02*
X37Y1828D01*
X664Y1828D02*
X674Y1828D01*
X703Y1828D02*
X710Y1828D01*
X0Y1827D02*
X7Y1827D01*
X26Y1827D02*
X36Y1827D01*
X665Y1827D02*
X675Y1827D01*
X703Y1827D02*
X710Y1827D01*
X0Y1826D02*
X7Y1826D01*
X25Y1826D02*
X35Y1826D01*
X666Y1826D02*
X676Y1826D01*
X703Y1826D02*
X710Y1826D01*
X0Y1825D02*
X7Y1825D01*
X25Y1825D02*
X34Y1825D01*
X667Y1825D02*
X676Y1825D01*
X703Y1825D02*
X710Y1825D01*
X0Y1824D02*
X7Y1824D01*
X24Y1824D02*
X33Y1824D01*
X668Y1824D02*
X677Y1824D01*
X703Y1824D02*
X710Y1824D01*
X0Y1823D02*
X7Y1823D01*
X23Y1823D02*
X32Y1823D01*
X669Y1823D02*
X678Y1823D01*
X703Y1823D02*
X710Y1823D01*
X0Y1822D02*
X7Y1822D01*
X23Y1822D02*
X31Y1822D01*
X670Y1822D02*
X679Y1822D01*
X703Y1822D02*
X710Y1822D01*
X0Y1821D02*
X7Y1821D01*
X22Y1821D02*
X31Y1821D01*
X670Y1821D02*
X679Y1821D01*
X703Y1821D02*
X710Y1821D01*
X0Y1820D02*
X7Y1820D01*
X21Y1820D02*
X30Y1820D01*
X671Y1820D02*
X680Y1820D01*
X703Y1820D02*
X710Y1820D01*
X0Y1819D02*
X7Y1819D01*
X20Y1819D02*
X29Y1819D01*
X672Y1819D02*
X681Y1819D01*
X703Y1819D02*
X710Y1819D01*
X0Y1818D02*
X7Y1818D01*
X20Y1818D02*
X28Y1818D01*
X673Y1818D02*
X681Y1818D01*
X703Y1818D02*
X710Y1818D01*
X0Y1817D02*
X7Y1817D01*
X19Y1817D02*
X28Y1817D01*
X673Y1817D02*
X682Y1817D01*
X703Y1817D02*
X710Y1817D01*
X0Y1816D02*
X7Y1816D01*
X19Y1816D02*
X27Y1816D01*
X674Y1816D02*
X683Y1816D01*
X703Y1816D02*
X710Y1816D01*
X0Y1815D02*
X7Y1815D01*
X18Y1815D02*
X26Y1815D01*
X675Y1815D02*
X683Y1815D01*
X703Y1815D02*
X710Y1815D01*
X0Y1814D02*
X7Y1814D01*
X17Y1814D02*
X26Y1814D01*
X676Y1814D02*
X684Y1814D01*
X703Y1814D02*
X710Y1814D01*
X0Y1813D02*
X7Y1813D01*
X17Y1813D02*
X25Y1813D01*
X676Y1813D02*
X684Y1813D01*
X703Y1813D02*
X710Y1813D01*
X0Y1812D02*
X7Y1812D01*
X16Y1812D02*
X24Y1812D01*
X677Y1812D02*
X685Y1812D01*
X703Y1812D02*
X710Y1812D01*
X0Y1811D02*
X7Y1811D01*
X16Y1811D02*
X24Y1811D01*
X677Y1811D02*
X685Y1811D01*
X703Y1811D02*
X710Y1811D01*
X0Y1810D02*
X7Y1810D01*
X15Y1810D02*
X23Y1810D01*
X678Y1810D02*
X686Y1810D01*
X703Y1810D02*
X710Y1810D01*
X0Y1809D02*
X7Y1809D01*
X15Y1809D02*
X23Y1809D01*
X678Y1809D02*
X686Y1809D01*
X703Y1809D02*
X710Y1809D01*
X0Y1808D02*
X7Y1808D01*
X14Y1808D02*
X22Y1808D01*
X679Y1808D02*
X687Y1808D01*
X703Y1808D02*
X710Y1808D01*
X0Y1807D02*
X7Y1807D01*
X14Y1807D02*
X21Y1807D01*
X680Y1807D02*
X687Y1807D01*
X703Y1807D02*
X710Y1807D01*
X0Y1806D02*
X7Y1806D01*
X13Y1806D02*
X21Y1806D01*
X680Y1806D02*
X688Y1806D01*
X703Y1806D02*
X710Y1806D01*
X0Y1805D02*
X7Y1805D01*
X13Y1805D02*
X20Y1805D01*
X681Y1805D02*
X688Y1805D01*
X703Y1805D02*
X710Y1805D01*
X0Y1804D02*
X7Y1804D01*
X12Y1804D02*
X20Y1804D01*
X681Y1804D02*
X689Y1804D01*
X703Y1804D02*
X710Y1804D01*
X0Y1803D02*
X7Y1803D01*
X12Y1803D02*
X20Y1803D01*
X682Y1803D02*
X689Y1803D01*
X703Y1803D02*
X710Y1803D01*
X0Y1802D02*
X7Y1802D01*
X11Y1802D02*
X19Y1802D01*
X682Y1802D02*
X690Y1802D01*
X703Y1802D02*
X710Y1802D01*
X0Y1801D02*
X7Y1801D01*
X11Y1801D02*
X19Y1801D01*
X682Y1801D02*
X690Y1801D01*
X703Y1801D02*
X710Y1801D01*
X0Y1800D02*
X7Y1800D01*
X11Y1800D02*
X18Y1800D01*
X683Y1800D02*
X690Y1800D01*
X703Y1800D02*
X710Y1800D01*
X0Y1799D02*
X7Y1799D01*
X10Y1799D02*
X18Y1799D01*
X683Y1799D02*
X691Y1799D01*
X703Y1799D02*
X710Y1799D01*
X0Y1798D02*
X7Y1798D01*
X10Y1798D02*
X17Y1798D01*
X684Y1798D02*
X691Y1798D01*
X703Y1798D02*
X710Y1798D01*
X0Y1797D02*
X7Y1797D01*
X10Y1797D02*
X17Y1797D01*
X684Y1797D02*
X692Y1797D01*
X703Y1797D02*
X710Y1797D01*
X0Y1796D02*
X7Y1796D01*
X9Y1796D02*
X17Y1796D01*
X685Y1796D02*
X692Y1796D01*
X703Y1796D02*
X710Y1796D01*
X0Y1795D02*
X7Y1795D01*
X9Y1795D02*
X16Y1795D01*
X685Y1795D02*
X692Y1795D01*
X703Y1795D02*
X710Y1795D01*
X0Y1794D02*
X7Y1794D01*
X9Y1794D02*
X16Y1794D01*
X685Y1794D02*
X692Y1794D01*
X703Y1794D02*
X710Y1794D01*
X0Y1793D02*
X16Y1793D01*
X686Y1793D02*
X693Y1793D01*
X703Y1793D02*
X710Y1793D01*
X0Y1792D02*
X15Y1792D01*
X686Y1792D02*
X693Y1792D01*
X703Y1792D02*
X710Y1792D01*
X0Y1791D02*
X15Y1791D01*
X686Y1791D02*
X693Y1791D01*
X703Y1791D02*
X710Y1791D01*
X0Y1790D02*
X15Y1790D01*
X687Y1790D02*
X694Y1790D01*
X703Y1790D02*
X710Y1790D01*
X0Y1789D02*
X14Y1789D01*
X687Y1789D02*
X694Y1789D01*
X703Y1789D02*
X710Y1789D01*
X0Y1788D02*
X14Y1788D01*
X687Y1788D02*
X694Y1788D01*
X703Y1788D02*
X710Y1788D01*
X0Y1787D02*
X14Y1787D01*
X687Y1787D02*
X694Y1787D01*
X703Y1787D02*
X710Y1787D01*
X0Y1786D02*
X14Y1786D01*
X688Y1786D02*
X695Y1786D01*
X703Y1786D02*
X710Y1786D01*
X0Y1785D02*
X13Y1785D01*
X688Y1785D02*
X695Y1785D01*
X703Y1785D02*
X710Y1785D01*
X0Y1784D02*
X13Y1784D01*
X688Y1784D02*
X695Y1784D01*
X703Y1784D02*
X710Y1784D01*
X0Y1783D02*
X13Y1783D01*
X688Y1783D02*
X695Y1783D01*
X703Y1783D02*
X710Y1783D01*
X0Y1782D02*
X13Y1782D01*
X688Y1782D02*
X695Y1782D01*
X703Y1782D02*
X710Y1782D01*
X0Y1781D02*
X12Y1781D01*
X689Y1781D02*
X696Y1781D01*
X703Y1781D02*
X710Y1781D01*
X0Y1780D02*
X12Y1780D01*
X689Y1780D02*
X696Y1780D01*
X703Y1780D02*
X710Y1780D01*
X0Y1779D02*
X12Y1779D01*
X689Y1779D02*
X696Y1779D01*
X703Y1779D02*
X710Y1779D01*
X0Y1778D02*
X12Y1778D01*
X689Y1778D02*
X696Y1778D01*
X703Y1778D02*
X710Y1778D01*
X0Y1777D02*
X12Y1777D01*
X689Y1777D02*
X696Y1777D01*
X703Y1777D02*
X710Y1777D01*
X0Y1776D02*
X12Y1776D01*
X689Y1776D02*
X696Y1776D01*
X703Y1776D02*
X710Y1776D01*
X0Y1775D02*
X12Y1775D01*
X690Y1775D02*
X697Y1775D01*
X703Y1775D02*
X710Y1775D01*
X0Y1774D02*
X11Y1774D01*
X690Y1774D02*
X697Y1774D01*
X703Y1774D02*
X710Y1774D01*
X0Y1773D02*
X11Y1773D01*
X690Y1773D02*
X697Y1773D01*
X703Y1773D02*
X710Y1773D01*
X0Y1772D02*
X11Y1772D01*
X690Y1772D02*
X697Y1772D01*
X703Y1772D02*
X710Y1772D01*
X0Y1771D02*
X11Y1771D01*
X690Y1771D02*
X697Y1771D01*
X703Y1771D02*
X710Y1771D01*
X0Y1770D02*
X11Y1770D01*
X690Y1770D02*
X697Y1770D01*
X703Y1770D02*
X710Y1770D01*
X0Y1769D02*
X11Y1769D01*
X690Y1769D02*
X697Y1769D01*
X703Y1769D02*
X710Y1769D01*
X0Y1768D02*
X11Y1768D01*
X690Y1768D02*
X697Y1768D01*
X703Y1768D02*
X710Y1768D01*
X0Y1767D02*
X11Y1767D01*
X690Y1767D02*
X697Y1767D01*
X703Y1767D02*
X710Y1767D01*
X0Y1766D02*
X11Y1766D01*
X690Y1766D02*
X697Y1766D01*
X703Y1766D02*
X710Y1766D01*
X0Y1765D02*
X11Y1765D01*
X690Y1765D02*
X697Y1765D01*
X703Y1765D02*
X710Y1765D01*
X0Y1764D02*
X11Y1764D01*
X690Y1764D02*
X697Y1764D01*
X703Y1764D02*
X710Y1764D01*
X0Y1763D02*
X11Y1763D01*
X690Y1763D02*
X697Y1763D01*
X703Y1763D02*
X710Y1763D01*
X0Y1762D02*
X11Y1762D01*
X690Y1762D02*
X697Y1762D01*
X703Y1762D02*
X710Y1762D01*
X0Y1761D02*
X11Y1761D01*
X690Y1761D02*
X697Y1761D01*
X703Y1761D02*
X710Y1761D01*
X0Y1760D02*
X11Y1760D01*
X690Y1760D02*
X697Y1760D01*
X703Y1760D02*
X710Y1760D01*
X0Y1759D02*
X11Y1759D01*
X690Y1759D02*
X697Y1759D01*
X703Y1759D02*
X710Y1759D01*
X0Y1758D02*
X11Y1758D01*
X690Y1758D02*
X697Y1758D01*
X703Y1758D02*
X710Y1758D01*
X0Y1757D02*
X11Y1757D01*
X690Y1757D02*
X697Y1757D01*
X703Y1757D02*
X710Y1757D01*
X0Y1756D02*
X11Y1756D01*
X690Y1756D02*
X697Y1756D01*
X703Y1756D02*
X710Y1756D01*
X0Y1755D02*
X11Y1755D01*
X690Y1755D02*
X697Y1755D01*
X703Y1755D02*
X710Y1755D01*
X0Y1754D02*
X11Y1754D01*
X690Y1754D02*
X697Y1754D01*
X703Y1754D02*
X710Y1754D01*
X0Y1753D02*
X11Y1753D01*
X690Y1753D02*
X697Y1753D01*
X703Y1753D02*
X710Y1753D01*
X0Y1752D02*
X11Y1752D01*
X690Y1752D02*
X697Y1752D01*
X703Y1752D02*
X710Y1752D01*
X0Y1751D02*
X11Y1751D01*
X690Y1751D02*
X697Y1751D01*
X703Y1751D02*
X710Y1751D01*
X0Y1750D02*
X11Y1750D01*
X690Y1750D02*
X697Y1750D01*
X703Y1750D02*
X710Y1750D01*
X0Y1749D02*
X11Y1749D01*
X690Y1749D02*
X697Y1749D01*
X703Y1749D02*
X710Y1749D01*
X0Y1748D02*
X11Y1748D01*
X690Y1748D02*
X697Y1748D01*
X703Y1748D02*
X710Y1748D01*
X0Y1747D02*
X11Y1747D01*
X690Y1747D02*
X697Y1747D01*
X703Y1747D02*
X710Y1747D01*
X0Y1746D02*
X11Y1746D01*
X690Y1746D02*
X697Y1746D01*
X703Y1746D02*
X710Y1746D01*
X0Y1745D02*
X11Y1745D01*
X690Y1745D02*
X697Y1745D01*
X703Y1745D02*
X710Y1745D01*
X0Y1744D02*
X11Y1744D01*
X690Y1744D02*
X697Y1744D01*
X703Y1744D02*
X710Y1744D01*
X0Y1743D02*
X11Y1743D01*
X690Y1743D02*
X697Y1743D01*
X703Y1743D02*
X710Y1743D01*
X0Y1742D02*
X11Y1742D01*
X690Y1742D02*
X697Y1742D01*
X703Y1742D02*
X710Y1742D01*
X0Y1741D02*
X11Y1741D01*
X690Y1741D02*
X697Y1741D01*
X703Y1741D02*
X710Y1741D01*
X0Y1740D02*
X11Y1740D01*
X690Y1740D02*
X697Y1740D01*
X703Y1740D02*
X710Y1740D01*
X0Y1739D02*
X11Y1739D01*
X690Y1739D02*
X697Y1739D01*
X703Y1739D02*
X710Y1739D01*
X0Y1738D02*
X11Y1738D01*
X690Y1738D02*
X697Y1738D01*
X703Y1738D02*
X710Y1738D01*
X0Y1737D02*
X11Y1737D01*
X690Y1737D02*
X697Y1737D01*
X703Y1737D02*
X710Y1737D01*
X0Y1736D02*
X11Y1736D01*
X690Y1736D02*
X697Y1736D01*
X703Y1736D02*
X710Y1736D01*
X0Y1735D02*
X11Y1735D01*
X690Y1735D02*
X697Y1735D01*
X703Y1735D02*
X710Y1735D01*
X0Y1734D02*
X11Y1734D01*
X690Y1734D02*
X697Y1734D01*
X703Y1734D02*
X710Y1734D01*
X0Y1733D02*
X11Y1733D01*
X690Y1733D02*
X697Y1733D01*
X703Y1733D02*
X710Y1733D01*
X0Y1732D02*
X11Y1732D01*
X690Y1732D02*
X697Y1732D01*
X703Y1732D02*
X710Y1732D01*
X0Y1731D02*
X11Y1731D01*
X690Y1731D02*
X697Y1731D01*
X703Y1731D02*
X710Y1731D01*
X0Y1730D02*
X11Y1730D01*
X690Y1730D02*
X697Y1730D01*
X703Y1730D02*
X710Y1730D01*
X0Y1729D02*
X11Y1729D01*
X690Y1729D02*
X697Y1729D01*
X703Y1729D02*
X710Y1729D01*
X0Y1728D02*
X11Y1728D01*
X690Y1728D02*
X697Y1728D01*
X703Y1728D02*
X710Y1728D01*
X0Y1727D02*
X11Y1727D01*
X690Y1727D02*
X697Y1727D01*
X703Y1727D02*
X710Y1727D01*
X0Y1726D02*
X11Y1726D01*
X690Y1726D02*
X697Y1726D01*
X703Y1726D02*
X710Y1726D01*
X0Y1725D02*
X11Y1725D01*
X690Y1725D02*
X697Y1725D01*
X703Y1725D02*
X710Y1725D01*
X0Y1724D02*
X11Y1724D01*
X690Y1724D02*
X697Y1724D01*
X703Y1724D02*
X710Y1724D01*
X0Y1723D02*
X11Y1723D01*
X690Y1723D02*
X697Y1723D01*
X703Y1723D02*
X710Y1723D01*
X0Y1722D02*
X11Y1722D01*
X690Y1722D02*
X697Y1722D01*
X703Y1722D02*
X710Y1722D01*
X0Y1721D02*
X11Y1721D01*
X690Y1721D02*
X697Y1721D01*
X703Y1721D02*
X710Y1721D01*
X0Y1720D02*
X11Y1720D01*
X690Y1720D02*
X697Y1720D01*
X703Y1720D02*
X710Y1720D01*
X0Y1719D02*
X11Y1719D01*
X690Y1719D02*
X697Y1719D01*
X703Y1719D02*
X710Y1719D01*
X0Y1718D02*
X11Y1718D01*
X690Y1718D02*
X697Y1718D01*
X703Y1718D02*
X710Y1718D01*
X0Y1717D02*
X11Y1717D01*
X690Y1717D02*
X697Y1717D01*
X703Y1717D02*
X710Y1717D01*
X0Y1716D02*
X11Y1716D01*
X690Y1716D02*
X697Y1716D01*
X703Y1716D02*
X710Y1716D01*
X0Y1715D02*
X11Y1715D01*
X690Y1715D02*
X697Y1715D01*
X703Y1715D02*
X710Y1715D01*
X0Y1714D02*
X11Y1714D01*
X690Y1714D02*
X697Y1714D01*
X703Y1714D02*
X710Y1714D01*
X0Y1713D02*
X11Y1713D01*
X690Y1713D02*
X697Y1713D01*
X703Y1713D02*
X710Y1713D01*
X0Y1712D02*
X11Y1712D01*
X690Y1712D02*
X697Y1712D01*
X703Y1712D02*
X710Y1712D01*
X0Y1711D02*
X11Y1711D01*
X690Y1711D02*
X697Y1711D01*
X703Y1711D02*
X710Y1711D01*
X0Y1710D02*
X11Y1710D01*
X690Y1710D02*
X697Y1710D01*
X703Y1710D02*
X710Y1710D01*
X0Y1709D02*
X11Y1709D01*
X690Y1709D02*
X697Y1709D01*
X703Y1709D02*
X710Y1709D01*
X0Y1708D02*
X11Y1708D01*
X690Y1708D02*
X697Y1708D01*
X703Y1708D02*
X710Y1708D01*
X0Y1707D02*
X11Y1707D01*
X690Y1707D02*
X697Y1707D01*
X703Y1707D02*
X710Y1707D01*
X0Y1706D02*
X11Y1706D01*
X690Y1706D02*
X697Y1706D01*
X703Y1706D02*
X710Y1706D01*
X0Y1705D02*
X11Y1705D01*
X690Y1705D02*
X697Y1705D01*
X703Y1705D02*
X710Y1705D01*
X0Y1704D02*
X11Y1704D01*
X690Y1704D02*
X697Y1704D01*
X703Y1704D02*
X710Y1704D01*
X0Y1703D02*
X11Y1703D01*
X690Y1703D02*
X697Y1703D01*
X703Y1703D02*
X710Y1703D01*
X0Y1702D02*
X11Y1702D01*
X690Y1702D02*
X697Y1702D01*
X703Y1702D02*
X710Y1702D01*
X0Y1701D02*
X11Y1701D01*
X690Y1701D02*
X697Y1701D01*
X703Y1701D02*
X710Y1701D01*
X0Y1700D02*
X11Y1700D01*
X690Y1700D02*
X697Y1700D01*
X703Y1700D02*
X710Y1700D01*
X0Y1699D02*
X11Y1699D01*
X690Y1699D02*
X697Y1699D01*
X703Y1699D02*
X710Y1699D01*
X0Y1698D02*
X11Y1698D01*
X690Y1698D02*
X697Y1698D01*
X703Y1698D02*
X710Y1698D01*
X0Y1697D02*
X11Y1697D01*
X690Y1697D02*
X697Y1697D01*
X703Y1697D02*
X710Y1697D01*
X0Y1696D02*
X11Y1696D01*
X690Y1696D02*
X697Y1696D01*
X703Y1696D02*
X710Y1696D01*
X0Y1695D02*
X11Y1695D01*
X690Y1695D02*
X697Y1695D01*
X703Y1695D02*
X710Y1695D01*
X0Y1694D02*
X11Y1694D01*
X690Y1694D02*
X697Y1694D01*
X703Y1694D02*
X710Y1694D01*
X0Y1693D02*
X11Y1693D01*
X690Y1693D02*
X697Y1693D01*
X703Y1693D02*
X710Y1693D01*
X0Y1692D02*
X11Y1692D01*
X690Y1692D02*
X697Y1692D01*
X703Y1692D02*
X710Y1692D01*
X0Y1691D02*
X11Y1691D01*
X690Y1691D02*
X697Y1691D01*
X703Y1691D02*
X710Y1691D01*
X0Y1690D02*
X11Y1690D01*
X690Y1690D02*
X697Y1690D01*
X703Y1690D02*
X710Y1690D01*
X0Y1689D02*
X11Y1689D01*
X690Y1689D02*
X697Y1689D01*
X703Y1689D02*
X710Y1689D01*
X0Y1688D02*
X11Y1688D01*
X690Y1688D02*
X697Y1688D01*
X703Y1688D02*
X710Y1688D01*
X0Y1687D02*
X11Y1687D01*
X690Y1687D02*
X697Y1687D01*
X703Y1687D02*
X710Y1687D01*
X0Y1686D02*
X11Y1686D01*
X690Y1686D02*
X697Y1686D01*
X703Y1686D02*
X710Y1686D01*
X0Y1685D02*
X11Y1685D01*
X690Y1685D02*
X697Y1685D01*
X703Y1685D02*
X710Y1685D01*
X0Y1684D02*
X11Y1684D01*
X690Y1684D02*
X697Y1684D01*
X0Y1683D02*
X11Y1683D01*
X690Y1683D02*
X697Y1683D01*
X0Y1682D02*
X11Y1682D01*
X690Y1682D02*
X697Y1682D01*
X0Y1681D02*
X11Y1681D01*
X690Y1681D02*
X697Y1681D01*
X0Y1680D02*
X11Y1680D01*
X690Y1680D02*
X697Y1680D01*
X0Y1679D02*
X11Y1679D01*
X690Y1679D02*
X697Y1679D01*
X0Y1678D02*
X11Y1678D01*
X690Y1678D02*
X697Y1678D01*
X703Y1678D02*
X710Y1678D01*
X0Y1677D02*
X11Y1677D01*
X690Y1677D02*
X697Y1677D01*
X703Y1677D02*
X710Y1677D01*
X0Y1676D02*
X11Y1676D01*
X690Y1676D02*
X697Y1676D01*
X703Y1676D02*
X710Y1676D01*
X0Y1675D02*
X11Y1675D01*
X690Y1675D02*
X697Y1675D01*
X703Y1675D02*
X710Y1675D01*
X0Y1674D02*
X11Y1674D01*
X690Y1674D02*
X697Y1674D01*
X703Y1674D02*
X710Y1674D01*
X0Y1673D02*
X11Y1673D01*
X690Y1673D02*
X697Y1673D01*
X703Y1673D02*
X710Y1673D01*
X0Y1672D02*
X11Y1672D01*
X690Y1672D02*
X697Y1672D01*
X703Y1672D02*
X710Y1672D01*
X0Y1671D02*
X11Y1671D01*
X690Y1671D02*
X697Y1671D01*
X703Y1671D02*
X710Y1671D01*
X0Y1670D02*
X11Y1670D01*
X690Y1670D02*
X697Y1670D01*
X703Y1670D02*
X710Y1670D01*
X0Y1669D02*
X11Y1669D01*
X690Y1669D02*
X697Y1669D01*
X703Y1669D02*
X710Y1669D01*
X0Y1668D02*
X11Y1668D01*
X690Y1668D02*
X697Y1668D01*
X703Y1668D02*
X710Y1668D01*
X0Y1667D02*
X11Y1667D01*
X690Y1667D02*
X697Y1667D01*
X703Y1667D02*
X710Y1667D01*
X0Y1666D02*
X11Y1666D01*
X690Y1666D02*
X697Y1666D01*
X703Y1666D02*
X710Y1666D01*
X0Y1665D02*
X11Y1665D01*
X690Y1665D02*
X697Y1665D01*
X703Y1665D02*
X710Y1665D01*
X0Y1664D02*
X11Y1664D01*
X690Y1664D02*
X697Y1664D01*
X703Y1664D02*
X710Y1664D01*
X0Y1663D02*
X11Y1663D01*
X690Y1663D02*
X697Y1663D01*
X703Y1663D02*
X710Y1663D01*
X0Y1662D02*
X11Y1662D01*
X690Y1662D02*
X697Y1662D01*
X703Y1662D02*
X710Y1662D01*
X0Y1661D02*
X11Y1661D01*
X690Y1661D02*
X697Y1661D01*
X703Y1661D02*
X710Y1661D01*
X0Y1660D02*
X11Y1660D01*
X690Y1660D02*
X697Y1660D01*
X703Y1660D02*
X710Y1660D01*
X0Y1659D02*
X11Y1659D01*
X690Y1659D02*
X697Y1659D01*
X703Y1659D02*
X710Y1659D01*
X0Y1658D02*
X11Y1658D01*
X690Y1658D02*
X697Y1658D01*
X703Y1658D02*
X710Y1658D01*
X0Y1657D02*
X11Y1657D01*
X690Y1657D02*
X697Y1657D01*
X703Y1657D02*
X710Y1657D01*
X0Y1656D02*
X11Y1656D01*
X690Y1656D02*
X697Y1656D01*
X703Y1656D02*
X710Y1656D01*
X0Y1655D02*
X11Y1655D01*
X690Y1655D02*
X697Y1655D01*
X703Y1655D02*
X710Y1655D01*
X0Y1654D02*
X11Y1654D01*
X690Y1654D02*
X697Y1654D01*
X703Y1654D02*
X710Y1654D01*
X0Y1653D02*
X11Y1653D01*
X690Y1653D02*
X697Y1653D01*
X703Y1653D02*
X710Y1653D01*
X0Y1652D02*
X11Y1652D01*
X690Y1652D02*
X697Y1652D01*
X703Y1652D02*
X710Y1652D01*
X0Y1651D02*
X11Y1651D01*
X690Y1651D02*
X697Y1651D01*
X703Y1651D02*
X710Y1651D01*
X0Y1650D02*
X11Y1650D01*
X690Y1650D02*
X697Y1650D01*
X703Y1650D02*
X710Y1650D01*
X0Y1649D02*
X11Y1649D01*
X690Y1649D02*
X697Y1649D01*
X703Y1649D02*
X710Y1649D01*
X0Y1648D02*
X11Y1648D01*
X690Y1648D02*
X697Y1648D01*
X703Y1648D02*
X710Y1648D01*
X0Y1647D02*
X11Y1647D01*
X690Y1647D02*
X697Y1647D01*
X703Y1647D02*
X710Y1647D01*
X0Y1646D02*
X11Y1646D01*
X690Y1646D02*
X697Y1646D01*
X0Y1645D02*
X11Y1645D01*
X690Y1645D02*
X697Y1645D01*
X0Y1644D02*
X11Y1644D01*
X690Y1644D02*
X697Y1644D01*
X0Y1643D02*
X11Y1643D01*
X690Y1643D02*
X697Y1643D01*
X0Y1642D02*
X11Y1642D01*
X690Y1642D02*
X697Y1642D01*
X0Y1641D02*
X11Y1641D01*
X690Y1641D02*
X697Y1641D01*
X703Y1641D02*
X710Y1641D01*
X0Y1640D02*
X11Y1640D01*
X690Y1640D02*
X697Y1640D01*
X703Y1640D02*
X710Y1640D01*
X0Y1639D02*
X11Y1639D01*
X690Y1639D02*
X697Y1639D01*
X703Y1639D02*
X710Y1639D01*
X0Y1638D02*
X11Y1638D01*
X690Y1638D02*
X697Y1638D01*
X703Y1638D02*
X710Y1638D01*
X0Y1637D02*
X11Y1637D01*
X690Y1637D02*
X697Y1637D01*
X703Y1637D02*
X710Y1637D01*
X0Y1636D02*
X11Y1636D01*
X690Y1636D02*
X697Y1636D01*
X703Y1636D02*
X710Y1636D01*
X0Y1635D02*
X11Y1635D01*
X690Y1635D02*
X697Y1635D01*
X703Y1635D02*
X710Y1635D01*
X0Y1634D02*
X11Y1634D01*
X690Y1634D02*
X697Y1634D01*
X703Y1634D02*
X710Y1634D01*
X0Y1633D02*
X11Y1633D01*
X690Y1633D02*
X697Y1633D01*
X703Y1633D02*
X710Y1633D01*
X0Y1632D02*
X11Y1632D01*
X690Y1632D02*
X697Y1632D01*
X703Y1632D02*
X710Y1632D01*
X0Y1631D02*
X11Y1631D01*
X690Y1631D02*
X697Y1631D01*
X703Y1631D02*
X710Y1631D01*
X0Y1630D02*
X11Y1630D01*
X690Y1630D02*
X697Y1630D01*
X703Y1630D02*
X710Y1630D01*
X0Y1629D02*
X11Y1629D01*
X690Y1629D02*
X697Y1629D01*
X703Y1629D02*
X710Y1629D01*
X0Y1628D02*
X11Y1628D01*
X690Y1628D02*
X697Y1628D01*
X703Y1628D02*
X710Y1628D01*
X0Y1627D02*
X11Y1627D01*
X690Y1627D02*
X697Y1627D01*
X703Y1627D02*
X710Y1627D01*
X0Y1626D02*
X11Y1626D01*
X690Y1626D02*
X697Y1626D01*
X703Y1626D02*
X710Y1626D01*
X0Y1625D02*
X11Y1625D01*
X690Y1625D02*
X697Y1625D01*
X703Y1625D02*
X710Y1625D01*
X0Y1624D02*
X11Y1624D01*
X690Y1624D02*
X697Y1624D01*
X703Y1624D02*
X710Y1624D01*
X0Y1623D02*
X11Y1623D01*
X690Y1623D02*
X697Y1623D01*
X703Y1623D02*
X710Y1623D01*
X0Y1622D02*
X11Y1622D01*
X690Y1622D02*
X697Y1622D01*
X703Y1622D02*
X710Y1622D01*
X0Y1621D02*
X11Y1621D01*
X690Y1621D02*
X697Y1621D01*
X703Y1621D02*
X710Y1621D01*
X0Y1620D02*
X11Y1620D01*
X690Y1620D02*
X697Y1620D01*
X703Y1620D02*
X710Y1620D01*
X0Y1619D02*
X11Y1619D01*
X690Y1619D02*
X697Y1619D01*
X703Y1619D02*
X710Y1619D01*
X0Y1618D02*
X11Y1618D01*
X690Y1618D02*
X697Y1618D01*
X703Y1618D02*
X710Y1618D01*
X0Y1617D02*
X11Y1617D01*
X690Y1617D02*
X697Y1617D01*
X703Y1617D02*
X710Y1617D01*
X0Y1616D02*
X11Y1616D01*
X690Y1616D02*
X697Y1616D01*
X703Y1616D02*
X710Y1616D01*
X0Y1615D02*
X11Y1615D01*
X690Y1615D02*
X697Y1615D01*
X703Y1615D02*
X710Y1615D01*
X0Y1614D02*
X11Y1614D01*
X690Y1614D02*
X697Y1614D01*
X703Y1614D02*
X710Y1614D01*
X0Y1613D02*
X11Y1613D01*
X690Y1613D02*
X697Y1613D01*
X703Y1613D02*
X710Y1613D01*
X0Y1612D02*
X11Y1612D01*
X690Y1612D02*
X697Y1612D01*
X703Y1612D02*
X710Y1612D01*
X0Y1611D02*
X11Y1611D01*
X690Y1611D02*
X697Y1611D01*
X703Y1611D02*
X710Y1611D01*
X0Y1610D02*
X11Y1610D01*
X690Y1610D02*
X697Y1610D01*
X703Y1610D02*
X710Y1610D01*
X0Y1609D02*
X11Y1609D01*
X104Y1609D02*
X710Y1609D01*
X0Y1608D02*
X11Y1608D01*
X104Y1608D02*
X710Y1608D01*
X0Y1607D02*
X11Y1607D01*
X104Y1607D02*
X710Y1607D01*
X0Y1606D02*
X11Y1606D01*
X104Y1606D02*
X710Y1606D01*
X0Y1605D02*
X11Y1605D01*
X104Y1605D02*
X710Y1605D01*
X0Y1604D02*
X11Y1604D01*
X104Y1604D02*
X710Y1604D01*
X0Y1603D02*
X11Y1603D01*
X104Y1603D02*
X710Y1603D01*
X0Y1602D02*
X11Y1602D01*
X104Y1602D02*
X710Y1602D01*
X0Y1601D02*
X11Y1601D01*
X104Y1601D02*
X111Y1601D01*
X690Y1601D02*
X710Y1601D01*
X0Y1600D02*
X11Y1600D01*
X104Y1600D02*
X111Y1600D01*
X690Y1600D02*
X710Y1600D01*
X0Y1599D02*
X11Y1599D01*
X104Y1599D02*
X111Y1599D01*
X690Y1599D02*
X710Y1599D01*
X0Y1598D02*
X11Y1598D01*
X104Y1598D02*
X111Y1598D01*
X690Y1598D02*
X710Y1598D01*
X0Y1597D02*
X11Y1597D01*
X104Y1597D02*
X111Y1597D01*
X690Y1597D02*
X710Y1597D01*
X0Y1596D02*
X11Y1596D01*
X104Y1596D02*
X111Y1596D01*
X690Y1596D02*
X710Y1596D01*
X0Y1595D02*
X11Y1595D01*
X104Y1595D02*
X111Y1595D01*
X690Y1595D02*
X710Y1595D01*
X0Y1594D02*
X11Y1594D01*
X104Y1594D02*
X111Y1594D01*
X690Y1594D02*
X710Y1594D01*
X0Y1593D02*
X11Y1593D01*
X104Y1593D02*
X111Y1593D01*
X690Y1593D02*
X710Y1593D01*
X0Y1592D02*
X11Y1592D01*
X104Y1592D02*
X111Y1592D01*
X690Y1592D02*
X710Y1592D01*
X0Y1591D02*
X11Y1591D01*
X104Y1591D02*
X111Y1591D01*
X690Y1591D02*
X710Y1591D01*
X0Y1590D02*
X11Y1590D01*
X104Y1590D02*
X111Y1590D01*
X690Y1590D02*
X710Y1590D01*
X0Y1589D02*
X11Y1589D01*
X104Y1589D02*
X111Y1589D01*
X690Y1589D02*
X710Y1589D01*
X0Y1588D02*
X11Y1588D01*
X104Y1588D02*
X111Y1588D01*
X690Y1588D02*
X710Y1588D01*
X0Y1587D02*
X11Y1587D01*
X104Y1587D02*
X111Y1587D01*
X690Y1587D02*
X710Y1587D01*
X0Y1586D02*
X11Y1586D01*
X104Y1586D02*
X111Y1586D01*
X690Y1586D02*
X710Y1586D01*
X0Y1585D02*
X11Y1585D01*
X104Y1585D02*
X111Y1585D01*
X690Y1585D02*
X710Y1585D01*
X0Y1584D02*
X11Y1584D01*
X104Y1584D02*
X111Y1584D01*
X690Y1584D02*
X710Y1584D01*
X0Y1583D02*
X11Y1583D01*
X104Y1583D02*
X111Y1583D01*
X690Y1583D02*
X710Y1583D01*
X0Y1582D02*
X11Y1582D01*
X104Y1582D02*
X111Y1582D01*
X690Y1582D02*
X710Y1582D01*
X0Y1581D02*
X11Y1581D01*
X104Y1581D02*
X111Y1581D01*
X690Y1581D02*
X710Y1581D01*
X0Y1580D02*
X11Y1580D01*
X104Y1580D02*
X111Y1580D01*
X690Y1580D02*
X710Y1580D01*
X0Y1579D02*
X11Y1579D01*
X104Y1579D02*
X111Y1579D01*
X690Y1579D02*
X710Y1579D01*
X0Y1578D02*
X11Y1578D01*
X104Y1578D02*
X111Y1578D01*
X690Y1578D02*
X710Y1578D01*
X0Y1577D02*
X11Y1577D01*
X104Y1577D02*
X111Y1577D01*
X690Y1577D02*
X710Y1577D01*
X0Y1576D02*
X11Y1576D01*
X104Y1576D02*
X111Y1576D01*
X690Y1576D02*
X710Y1576D01*
X0Y1575D02*
X11Y1575D01*
X104Y1575D02*
X111Y1575D01*
X690Y1575D02*
X710Y1575D01*
X0Y1574D02*
X11Y1574D01*
X104Y1574D02*
X111Y1574D01*
X690Y1574D02*
X710Y1574D01*
X0Y1573D02*
X11Y1573D01*
X104Y1573D02*
X111Y1573D01*
X690Y1573D02*
X710Y1573D01*
X0Y1572D02*
X11Y1572D01*
X104Y1572D02*
X111Y1572D01*
X690Y1572D02*
X710Y1572D01*
X0Y1571D02*
X11Y1571D01*
X104Y1571D02*
X111Y1571D01*
X690Y1571D02*
X710Y1571D01*
X0Y1570D02*
X11Y1570D01*
X104Y1570D02*
X111Y1570D01*
X690Y1570D02*
X710Y1570D01*
X0Y1569D02*
X11Y1569D01*
X104Y1569D02*
X111Y1569D01*
X690Y1569D02*
X710Y1569D01*
X0Y1568D02*
X11Y1568D01*
X104Y1568D02*
X111Y1568D01*
X690Y1568D02*
X710Y1568D01*
X0Y1567D02*
X11Y1567D01*
X104Y1567D02*
X111Y1567D01*
X690Y1567D02*
X710Y1567D01*
X0Y1566D02*
X11Y1566D01*
X104Y1566D02*
X111Y1566D01*
X690Y1566D02*
X710Y1566D01*
X0Y1565D02*
X11Y1565D01*
X104Y1565D02*
X111Y1565D01*
X690Y1565D02*
X710Y1565D01*
X0Y1564D02*
X11Y1564D01*
X104Y1564D02*
X111Y1564D01*
X196Y1564D02*
X243Y1564D01*
X444Y1564D02*
X510Y1564D01*
X690Y1564D02*
X710Y1564D01*
X0Y1563D02*
X11Y1563D01*
X104Y1563D02*
X111Y1563D01*
X196Y1563D02*
X243Y1563D01*
X444Y1563D02*
X510Y1563D01*
X690Y1563D02*
X710Y1563D01*
X0Y1562D02*
X11Y1562D01*
X104Y1562D02*
X111Y1562D01*
X196Y1562D02*
X243Y1562D01*
X444Y1562D02*
X510Y1562D01*
X690Y1562D02*
X710Y1562D01*
X0Y1561D02*
X11Y1561D01*
X104Y1561D02*
X110Y1561D01*
X196Y1561D02*
X243Y1561D01*
X444Y1561D02*
X510Y1561D01*
X690Y1561D02*
X710Y1561D01*
X0Y1560D02*
X11Y1560D01*
X104Y1560D02*
X110Y1560D01*
X196Y1560D02*
X243Y1560D01*
X444Y1560D02*
X510Y1560D01*
X690Y1560D02*
X710Y1560D01*
X0Y1559D02*
X11Y1559D01*
X104Y1559D02*
X110Y1559D01*
X196Y1559D02*
X243Y1559D01*
X444Y1559D02*
X510Y1559D01*
X690Y1559D02*
X710Y1559D01*
X0Y1558D02*
X11Y1558D01*
X104Y1558D02*
X110Y1558D01*
X196Y1558D02*
X243Y1558D01*
X444Y1558D02*
X510Y1558D01*
X690Y1558D02*
X710Y1558D01*
X0Y1557D02*
X11Y1557D01*
X104Y1557D02*
X111Y1557D01*
X196Y1557D02*
X243Y1557D01*
X444Y1557D02*
X510Y1557D01*
X690Y1557D02*
X710Y1557D01*
X0Y1556D02*
X11Y1556D01*
X104Y1556D02*
X111Y1556D01*
X196Y1556D02*
X243Y1556D01*
X444Y1556D02*
X510Y1556D01*
X690Y1556D02*
X710Y1556D01*
X0Y1555D02*
X11Y1555D01*
X104Y1555D02*
X111Y1555D01*
X196Y1555D02*
X243Y1555D01*
X444Y1555D02*
X510Y1555D01*
X690Y1555D02*
X710Y1555D01*
X0Y1554D02*
X11Y1554D01*
X104Y1554D02*
X111Y1554D01*
X690Y1554D02*
X710Y1554D01*
X0Y1553D02*
X11Y1553D01*
X104Y1553D02*
X111Y1553D01*
X690Y1553D02*
X710Y1553D01*
X0Y1552D02*
X11Y1552D01*
X104Y1552D02*
X111Y1552D01*
X690Y1552D02*
X710Y1552D01*
X0Y1551D02*
X11Y1551D01*
X104Y1551D02*
X111Y1551D01*
X690Y1551D02*
X710Y1551D01*
X0Y1550D02*
X11Y1550D01*
X104Y1550D02*
X111Y1550D01*
X690Y1550D02*
X710Y1550D01*
X0Y1549D02*
X11Y1549D01*
X104Y1549D02*
X111Y1549D01*
X690Y1549D02*
X710Y1549D01*
X0Y1548D02*
X11Y1548D01*
X104Y1548D02*
X111Y1548D01*
X690Y1548D02*
X710Y1548D01*
X0Y1547D02*
X11Y1547D01*
X104Y1547D02*
X111Y1547D01*
X690Y1547D02*
X710Y1547D01*
X0Y1546D02*
X11Y1546D01*
X104Y1546D02*
X111Y1546D01*
X690Y1546D02*
X710Y1546D01*
X0Y1545D02*
X11Y1545D01*
X104Y1545D02*
X111Y1545D01*
X690Y1545D02*
X710Y1545D01*
X0Y1544D02*
X11Y1544D01*
X104Y1544D02*
X111Y1544D01*
X690Y1544D02*
X710Y1544D01*
X0Y1543D02*
X11Y1543D01*
X104Y1543D02*
X111Y1543D01*
X690Y1543D02*
X710Y1543D01*
X0Y1542D02*
X11Y1542D01*
X104Y1542D02*
X111Y1542D01*
X690Y1542D02*
X710Y1542D01*
X0Y1541D02*
X11Y1541D01*
X104Y1541D02*
X111Y1541D01*
X690Y1541D02*
X710Y1541D01*
X0Y1540D02*
X11Y1540D01*
X104Y1540D02*
X111Y1540D01*
X690Y1540D02*
X710Y1540D01*
X0Y1539D02*
X11Y1539D01*
X104Y1539D02*
X111Y1539D01*
X690Y1539D02*
X710Y1539D01*
X0Y1538D02*
X11Y1538D01*
X104Y1538D02*
X111Y1538D01*
X690Y1538D02*
X710Y1538D01*
X0Y1537D02*
X11Y1537D01*
X104Y1537D02*
X111Y1537D01*
X690Y1537D02*
X710Y1537D01*
X0Y1536D02*
X11Y1536D01*
X104Y1536D02*
X111Y1536D01*
X690Y1536D02*
X710Y1536D01*
X0Y1535D02*
X11Y1535D01*
X104Y1535D02*
X111Y1535D01*
X690Y1535D02*
X710Y1535D01*
X0Y1534D02*
X11Y1534D01*
X104Y1534D02*
X111Y1534D01*
X690Y1534D02*
X710Y1534D01*
X0Y1533D02*
X11Y1533D01*
X104Y1533D02*
X111Y1533D01*
X690Y1533D02*
X710Y1533D01*
X0Y1532D02*
X11Y1532D01*
X104Y1532D02*
X111Y1532D01*
X690Y1532D02*
X710Y1532D01*
X0Y1531D02*
X11Y1531D01*
X104Y1531D02*
X111Y1531D01*
X690Y1531D02*
X710Y1531D01*
X0Y1530D02*
X11Y1530D01*
X104Y1530D02*
X111Y1530D01*
X690Y1530D02*
X710Y1530D01*
X0Y1529D02*
X11Y1529D01*
X104Y1529D02*
X111Y1529D01*
X690Y1529D02*
X710Y1529D01*
X0Y1528D02*
X11Y1528D01*
X104Y1528D02*
X111Y1528D01*
X690Y1528D02*
X710Y1528D01*
X0Y1527D02*
X11Y1527D01*
X104Y1527D02*
X111Y1527D01*
X690Y1527D02*
X710Y1527D01*
X0Y1526D02*
X11Y1526D01*
X104Y1526D02*
X111Y1526D01*
X690Y1526D02*
X710Y1526D01*
X0Y1525D02*
X11Y1525D01*
X104Y1525D02*
X111Y1525D01*
X690Y1525D02*
X710Y1525D01*
X0Y1524D02*
X11Y1524D01*
X104Y1524D02*
X111Y1524D01*
X690Y1524D02*
X710Y1524D01*
X0Y1523D02*
X11Y1523D01*
X104Y1523D02*
X111Y1523D01*
X690Y1523D02*
X710Y1523D01*
X0Y1522D02*
X11Y1522D01*
X104Y1522D02*
X111Y1522D01*
X690Y1522D02*
X710Y1522D01*
X0Y1521D02*
X11Y1521D01*
X104Y1521D02*
X111Y1521D01*
X690Y1521D02*
X710Y1521D01*
X0Y1520D02*
X11Y1520D01*
X104Y1520D02*
X111Y1520D01*
X690Y1520D02*
X710Y1520D01*
X0Y1519D02*
X11Y1519D01*
X104Y1519D02*
X111Y1519D01*
X690Y1519D02*
X710Y1519D01*
X0Y1518D02*
X11Y1518D01*
X104Y1518D02*
X111Y1518D01*
X690Y1518D02*
X710Y1518D01*
X0Y1517D02*
X11Y1517D01*
X104Y1517D02*
X111Y1517D01*
X690Y1517D02*
X710Y1517D01*
X0Y1516D02*
X11Y1516D01*
X104Y1516D02*
X111Y1516D01*
X690Y1516D02*
X710Y1516D01*
X0Y1515D02*
X11Y1515D01*
X104Y1515D02*
X111Y1515D01*
X690Y1515D02*
X710Y1515D01*
X0Y1514D02*
X11Y1514D01*
X104Y1514D02*
X111Y1514D01*
X690Y1514D02*
X710Y1514D01*
X0Y1513D02*
X11Y1513D01*
X104Y1513D02*
X111Y1513D01*
X690Y1513D02*
X710Y1513D01*
X0Y1512D02*
X11Y1512D01*
X104Y1512D02*
X111Y1512D01*
X690Y1512D02*
X710Y1512D01*
X0Y1511D02*
X11Y1511D01*
X104Y1511D02*
X111Y1511D01*
X690Y1511D02*
X710Y1511D01*
X0Y1510D02*
X11Y1510D01*
X104Y1510D02*
X111Y1510D01*
X690Y1510D02*
X710Y1510D01*
X0Y1509D02*
X11Y1509D01*
X104Y1509D02*
X111Y1509D01*
X690Y1509D02*
X710Y1509D01*
X0Y1508D02*
X11Y1508D01*
X104Y1508D02*
X111Y1508D01*
X690Y1508D02*
X710Y1508D01*
X0Y1507D02*
X11Y1507D01*
X104Y1507D02*
X111Y1507D01*
X690Y1507D02*
X710Y1507D01*
X0Y1506D02*
X11Y1506D01*
X104Y1506D02*
X111Y1506D01*
X690Y1506D02*
X710Y1506D01*
X0Y1505D02*
X11Y1505D01*
X104Y1505D02*
X111Y1505D01*
X690Y1505D02*
X710Y1505D01*
X0Y1504D02*
X11Y1504D01*
X104Y1504D02*
X111Y1504D01*
X690Y1504D02*
X710Y1504D01*
X0Y1503D02*
X11Y1503D01*
X104Y1503D02*
X111Y1503D01*
X690Y1503D02*
X710Y1503D01*
X0Y1502D02*
X11Y1502D01*
X104Y1502D02*
X111Y1502D01*
X690Y1502D02*
X710Y1502D01*
X0Y1501D02*
X11Y1501D01*
X104Y1501D02*
X111Y1501D01*
X690Y1501D02*
X710Y1501D01*
X0Y1500D02*
X11Y1500D01*
X104Y1500D02*
X111Y1500D01*
X690Y1500D02*
X710Y1500D01*
X0Y1499D02*
X11Y1499D01*
X104Y1499D02*
X111Y1499D01*
X690Y1499D02*
X710Y1499D01*
X0Y1498D02*
X11Y1498D01*
X104Y1498D02*
X111Y1498D01*
X690Y1498D02*
X710Y1498D01*
X0Y1497D02*
X11Y1497D01*
X104Y1497D02*
X111Y1497D01*
X690Y1497D02*
X710Y1497D01*
X0Y1496D02*
X11Y1496D01*
X104Y1496D02*
X111Y1496D01*
X690Y1496D02*
X710Y1496D01*
X0Y1495D02*
X11Y1495D01*
X104Y1495D02*
X111Y1495D01*
X690Y1495D02*
X710Y1495D01*
X0Y1494D02*
X11Y1494D01*
X104Y1494D02*
X111Y1494D01*
X690Y1494D02*
X710Y1494D01*
X0Y1493D02*
X11Y1493D01*
X104Y1493D02*
X111Y1493D01*
X690Y1493D02*
X710Y1493D01*
X0Y1492D02*
X11Y1492D01*
X104Y1492D02*
X111Y1492D01*
X690Y1492D02*
X710Y1492D01*
X0Y1491D02*
X11Y1491D01*
X104Y1491D02*
X111Y1491D01*
X690Y1491D02*
X710Y1491D01*
X0Y1490D02*
X11Y1490D01*
X31Y1490D02*
X33Y1490D01*
X76Y1490D02*
X78Y1490D01*
X103Y1490D02*
X111Y1490D01*
X690Y1490D02*
X710Y1490D01*
X0Y1489D02*
X11Y1489D01*
X30Y1489D02*
X34Y1489D01*
X75Y1489D02*
X79Y1489D01*
X102Y1489D02*
X111Y1489D01*
X690Y1489D02*
X710Y1489D01*
X0Y1488D02*
X11Y1488D01*
X29Y1488D02*
X35Y1488D01*
X74Y1488D02*
X80Y1488D01*
X102Y1488D02*
X111Y1488D01*
X690Y1488D02*
X710Y1488D01*
X0Y1487D02*
X11Y1487D01*
X29Y1487D02*
X35Y1487D01*
X74Y1487D02*
X81Y1487D01*
X102Y1487D02*
X111Y1487D01*
X690Y1487D02*
X710Y1487D01*
X0Y1486D02*
X11Y1486D01*
X29Y1486D02*
X35Y1486D01*
X74Y1486D02*
X81Y1486D01*
X102Y1486D02*
X111Y1486D01*
X690Y1486D02*
X710Y1486D01*
X0Y1485D02*
X11Y1485D01*
X29Y1485D02*
X35Y1485D01*
X75Y1485D02*
X82Y1485D01*
X102Y1485D02*
X111Y1485D01*
X690Y1485D02*
X710Y1485D01*
X0Y1484D02*
X11Y1484D01*
X29Y1484D02*
X35Y1484D01*
X75Y1484D02*
X82Y1484D01*
X102Y1484D02*
X111Y1484D01*
X690Y1484D02*
X710Y1484D01*
X0Y1483D02*
X11Y1483D01*
X29Y1483D02*
X35Y1483D01*
X76Y1483D02*
X83Y1483D01*
X102Y1483D02*
X111Y1483D01*
X690Y1483D02*
X710Y1483D01*
X0Y1482D02*
X11Y1482D01*
X29Y1482D02*
X35Y1482D01*
X76Y1482D02*
X84Y1482D01*
X102Y1482D02*
X111Y1482D01*
X690Y1482D02*
X710Y1482D01*
X0Y1481D02*
X11Y1481D01*
X29Y1481D02*
X35Y1481D01*
X77Y1481D02*
X84Y1481D01*
X102Y1481D02*
X111Y1481D01*
X690Y1481D02*
X710Y1481D01*
X0Y1480D02*
X11Y1480D01*
X29Y1480D02*
X35Y1480D01*
X78Y1480D02*
X85Y1480D01*
X102Y1480D02*
X111Y1480D01*
X690Y1480D02*
X710Y1480D01*
X0Y1479D02*
X11Y1479D01*
X29Y1479D02*
X35Y1479D01*
X78Y1479D02*
X85Y1479D01*
X102Y1479D02*
X111Y1479D01*
X690Y1479D02*
X710Y1479D01*
X0Y1478D02*
X11Y1478D01*
X29Y1478D02*
X35Y1478D01*
X79Y1478D02*
X86Y1478D01*
X102Y1478D02*
X111Y1478D01*
X690Y1478D02*
X710Y1478D01*
X0Y1477D02*
X11Y1477D01*
X29Y1477D02*
X35Y1477D01*
X79Y1477D02*
X86Y1477D01*
X102Y1477D02*
X111Y1477D01*
X690Y1477D02*
X710Y1477D01*
X0Y1476D02*
X11Y1476D01*
X29Y1476D02*
X35Y1476D01*
X80Y1476D02*
X87Y1476D01*
X102Y1476D02*
X111Y1476D01*
X690Y1476D02*
X710Y1476D01*
X0Y1475D02*
X11Y1475D01*
X29Y1475D02*
X35Y1475D01*
X80Y1475D02*
X88Y1475D01*
X102Y1475D02*
X111Y1475D01*
X690Y1475D02*
X710Y1475D01*
X0Y1474D02*
X11Y1474D01*
X29Y1474D02*
X35Y1474D01*
X81Y1474D02*
X88Y1474D01*
X102Y1474D02*
X111Y1474D01*
X690Y1474D02*
X710Y1474D01*
X0Y1473D02*
X11Y1473D01*
X29Y1473D02*
X35Y1473D01*
X82Y1473D02*
X89Y1473D01*
X102Y1473D02*
X111Y1473D01*
X690Y1473D02*
X710Y1473D01*
X0Y1472D02*
X11Y1472D01*
X27Y1472D02*
X56Y1472D01*
X82Y1472D02*
X89Y1472D01*
X102Y1472D02*
X111Y1472D01*
X690Y1472D02*
X710Y1472D01*
X0Y1471D02*
X11Y1471D01*
X26Y1471D02*
X56Y1471D01*
X83Y1471D02*
X90Y1471D01*
X102Y1471D02*
X111Y1471D01*
X690Y1471D02*
X710Y1471D01*
X0Y1470D02*
X11Y1470D01*
X26Y1470D02*
X56Y1470D01*
X83Y1470D02*
X91Y1470D01*
X102Y1470D02*
X111Y1470D01*
X690Y1470D02*
X710Y1470D01*
X0Y1469D02*
X11Y1469D01*
X26Y1469D02*
X56Y1469D01*
X84Y1469D02*
X91Y1469D01*
X102Y1469D02*
X111Y1469D01*
X690Y1469D02*
X710Y1469D01*
X0Y1468D02*
X11Y1468D01*
X26Y1468D02*
X56Y1468D01*
X85Y1468D02*
X92Y1468D01*
X102Y1468D02*
X111Y1468D01*
X690Y1468D02*
X710Y1468D01*
X0Y1467D02*
X11Y1467D01*
X27Y1467D02*
X56Y1467D01*
X85Y1467D02*
X92Y1467D01*
X102Y1467D02*
X111Y1467D01*
X690Y1467D02*
X710Y1467D01*
X0Y1466D02*
X11Y1466D01*
X28Y1466D02*
X56Y1466D01*
X86Y1466D02*
X93Y1466D01*
X102Y1466D02*
X111Y1466D01*
X690Y1466D02*
X710Y1466D01*
X0Y1465D02*
X11Y1465D01*
X29Y1465D02*
X35Y1465D01*
X50Y1465D02*
X56Y1465D01*
X86Y1465D02*
X93Y1465D01*
X102Y1465D02*
X111Y1465D01*
X690Y1465D02*
X710Y1465D01*
X0Y1464D02*
X11Y1464D01*
X29Y1464D02*
X35Y1464D01*
X50Y1464D02*
X56Y1464D01*
X87Y1464D02*
X94Y1464D01*
X102Y1464D02*
X111Y1464D01*
X690Y1464D02*
X710Y1464D01*
X0Y1463D02*
X11Y1463D01*
X29Y1463D02*
X35Y1463D01*
X50Y1463D02*
X56Y1463D01*
X87Y1463D02*
X95Y1463D01*
X102Y1463D02*
X111Y1463D01*
X690Y1463D02*
X710Y1463D01*
X0Y1462D02*
X11Y1462D01*
X29Y1462D02*
X35Y1462D01*
X50Y1462D02*
X56Y1462D01*
X88Y1462D02*
X95Y1462D01*
X102Y1462D02*
X111Y1462D01*
X690Y1462D02*
X710Y1462D01*
X0Y1461D02*
X11Y1461D01*
X29Y1461D02*
X35Y1461D01*
X50Y1461D02*
X56Y1461D01*
X83Y1461D02*
X111Y1461D01*
X690Y1461D02*
X710Y1461D01*
X0Y1460D02*
X11Y1460D01*
X29Y1460D02*
X35Y1460D01*
X50Y1460D02*
X56Y1460D01*
X80Y1460D02*
X111Y1460D01*
X690Y1460D02*
X710Y1460D01*
X0Y1459D02*
X11Y1459D01*
X29Y1459D02*
X35Y1459D01*
X50Y1459D02*
X56Y1459D01*
X78Y1459D02*
X111Y1459D01*
X643Y1459D02*
X661Y1459D01*
X687Y1459D02*
X710Y1459D01*
X0Y1458D02*
X11Y1458D01*
X29Y1458D02*
X35Y1458D01*
X50Y1458D02*
X56Y1458D01*
X77Y1458D02*
X111Y1458D01*
X640Y1458D02*
X664Y1458D01*
X0Y1457D02*
X11Y1457D01*
X29Y1457D02*
X35Y1457D01*
X50Y1457D02*
X56Y1457D01*
X76Y1457D02*
X111Y1457D01*
X639Y1457D02*
X666Y1457D01*
X0Y1456D02*
X11Y1456D01*
X29Y1456D02*
X35Y1456D01*
X50Y1456D02*
X56Y1456D01*
X76Y1456D02*
X111Y1456D01*
X638Y1456D02*
X667Y1456D01*
X0Y1455D02*
X11Y1455D01*
X29Y1455D02*
X35Y1455D01*
X50Y1455D02*
X56Y1455D01*
X75Y1455D02*
X111Y1455D01*
X637Y1455D02*
X668Y1455D01*
X0Y1454D02*
X11Y1454D01*
X29Y1454D02*
X35Y1454D01*
X50Y1454D02*
X56Y1454D01*
X75Y1454D02*
X83Y1454D01*
X101Y1454D02*
X111Y1454D01*
X637Y1454D02*
X668Y1454D01*
X0Y1453D02*
X11Y1453D01*
X29Y1453D02*
X35Y1453D01*
X50Y1453D02*
X56Y1453D01*
X74Y1453D02*
X81Y1453D01*
X102Y1453D02*
X111Y1453D01*
X636Y1453D02*
X669Y1453D01*
X0Y1452D02*
X11Y1452D01*
X29Y1452D02*
X35Y1452D01*
X50Y1452D02*
X56Y1452D01*
X74Y1452D02*
X80Y1452D01*
X102Y1452D02*
X111Y1452D01*
X636Y1452D02*
X643Y1452D01*
X662Y1452D02*
X669Y1452D01*
X0Y1451D02*
X11Y1451D01*
X29Y1451D02*
X35Y1451D01*
X50Y1451D02*
X56Y1451D01*
X74Y1451D02*
X80Y1451D01*
X102Y1451D02*
X111Y1451D01*
X636Y1451D02*
X642Y1451D01*
X663Y1451D02*
X669Y1451D01*
X686Y1451D02*
X710Y1451D01*
X0Y1450D02*
X11Y1450D01*
X29Y1450D02*
X35Y1450D01*
X50Y1450D02*
X56Y1450D01*
X74Y1450D02*
X80Y1450D01*
X102Y1450D02*
X111Y1450D01*
X636Y1450D02*
X643Y1450D01*
X664Y1450D02*
X670Y1450D01*
X686Y1450D02*
X710Y1450D01*
X0Y1449D02*
X11Y1449D01*
X29Y1449D02*
X35Y1449D01*
X50Y1449D02*
X56Y1449D01*
X74Y1449D02*
X80Y1449D01*
X102Y1449D02*
X111Y1449D01*
X636Y1449D02*
X644Y1449D01*
X664Y1449D02*
X669Y1449D01*
X686Y1449D02*
X710Y1449D01*
X0Y1448D02*
X11Y1448D01*
X29Y1448D02*
X35Y1448D01*
X50Y1448D02*
X56Y1448D01*
X74Y1448D02*
X80Y1448D01*
X102Y1448D02*
X111Y1448D01*
X637Y1448D02*
X644Y1448D01*
X664Y1448D02*
X669Y1448D01*
X686Y1448D02*
X710Y1448D01*
X0Y1447D02*
X11Y1447D01*
X29Y1447D02*
X35Y1447D01*
X50Y1447D02*
X56Y1447D01*
X74Y1447D02*
X80Y1447D01*
X102Y1447D02*
X111Y1447D01*
X637Y1447D02*
X645Y1447D01*
X665Y1447D02*
X668Y1447D01*
X686Y1447D02*
X710Y1447D01*
X0Y1446D02*
X11Y1446D01*
X29Y1446D02*
X35Y1446D01*
X50Y1446D02*
X56Y1446D01*
X74Y1446D02*
X80Y1446D01*
X102Y1446D02*
X111Y1446D01*
X638Y1446D02*
X646Y1446D01*
X686Y1446D02*
X710Y1446D01*
X0Y1445D02*
X11Y1445D01*
X29Y1445D02*
X35Y1445D01*
X50Y1445D02*
X56Y1445D01*
X74Y1445D02*
X81Y1445D01*
X102Y1445D02*
X111Y1445D01*
X639Y1445D02*
X647Y1445D01*
X686Y1445D02*
X710Y1445D01*
X0Y1444D02*
X11Y1444D01*
X30Y1444D02*
X35Y1444D01*
X50Y1444D02*
X56Y1444D01*
X74Y1444D02*
X82Y1444D01*
X102Y1444D02*
X111Y1444D01*
X639Y1444D02*
X647Y1444D01*
X686Y1444D02*
X710Y1444D01*
X0Y1443D02*
X11Y1443D01*
X31Y1443D02*
X34Y1443D01*
X50Y1443D02*
X56Y1443D01*
X75Y1443D02*
X111Y1443D01*
X640Y1443D02*
X648Y1443D01*
X686Y1443D02*
X710Y1443D01*
X0Y1442D02*
X11Y1442D01*
X50Y1442D02*
X56Y1442D01*
X75Y1442D02*
X111Y1442D01*
X641Y1442D02*
X649Y1442D01*
X686Y1442D02*
X710Y1442D01*
X0Y1441D02*
X11Y1441D01*
X50Y1441D02*
X56Y1441D01*
X76Y1441D02*
X111Y1441D01*
X642Y1441D02*
X650Y1441D01*
X686Y1441D02*
X710Y1441D01*
X0Y1440D02*
X11Y1440D01*
X50Y1440D02*
X56Y1440D01*
X77Y1440D02*
X111Y1440D01*
X643Y1440D02*
X651Y1440D01*
X686Y1440D02*
X710Y1440D01*
X0Y1439D02*
X11Y1439D01*
X50Y1439D02*
X56Y1439D01*
X78Y1439D02*
X111Y1439D01*
X643Y1439D02*
X651Y1439D01*
X686Y1439D02*
X710Y1439D01*
X0Y1438D02*
X11Y1438D01*
X50Y1438D02*
X55Y1438D01*
X79Y1438D02*
X111Y1438D01*
X644Y1438D02*
X652Y1438D01*
X686Y1438D02*
X710Y1438D01*
X0Y1437D02*
X11Y1437D01*
X51Y1437D02*
X54Y1437D01*
X81Y1437D02*
X111Y1437D01*
X645Y1437D02*
X653Y1437D01*
X686Y1437D02*
X710Y1437D01*
X0Y1436D02*
X11Y1436D01*
X104Y1436D02*
X111Y1436D01*
X646Y1436D02*
X654Y1436D01*
X686Y1436D02*
X710Y1436D01*
X0Y1435D02*
X11Y1435D01*
X104Y1435D02*
X111Y1435D01*
X646Y1435D02*
X654Y1435D01*
X686Y1435D02*
X710Y1435D01*
X0Y1434D02*
X11Y1434D01*
X104Y1434D02*
X111Y1434D01*
X647Y1434D02*
X655Y1434D01*
X686Y1434D02*
X710Y1434D01*
X0Y1433D02*
X11Y1433D01*
X104Y1433D02*
X111Y1433D01*
X648Y1433D02*
X656Y1433D01*
X686Y1433D02*
X710Y1433D01*
X0Y1432D02*
X11Y1432D01*
X104Y1432D02*
X111Y1432D01*
X649Y1432D02*
X657Y1432D01*
X0Y1431D02*
X11Y1431D01*
X104Y1431D02*
X111Y1431D01*
X649Y1431D02*
X658Y1431D01*
X0Y1430D02*
X11Y1430D01*
X104Y1430D02*
X111Y1430D01*
X650Y1430D02*
X658Y1430D01*
X0Y1429D02*
X11Y1429D01*
X104Y1429D02*
X111Y1429D01*
X651Y1429D02*
X659Y1429D01*
X0Y1428D02*
X11Y1428D01*
X104Y1428D02*
X111Y1428D01*
X652Y1428D02*
X660Y1428D01*
X0Y1427D02*
X11Y1427D01*
X104Y1427D02*
X111Y1427D01*
X653Y1427D02*
X661Y1427D01*
X0Y1426D02*
X11Y1426D01*
X104Y1426D02*
X111Y1426D01*
X653Y1426D02*
X661Y1426D01*
X0Y1425D02*
X11Y1425D01*
X104Y1425D02*
X111Y1425D01*
X654Y1425D02*
X662Y1425D01*
X686Y1425D02*
X710Y1425D01*
X0Y1424D02*
X11Y1424D01*
X104Y1424D02*
X111Y1424D01*
X655Y1424D02*
X663Y1424D01*
X686Y1424D02*
X710Y1424D01*
X0Y1423D02*
X11Y1423D01*
X104Y1423D02*
X111Y1423D01*
X656Y1423D02*
X664Y1423D01*
X686Y1423D02*
X710Y1423D01*
X0Y1422D02*
X11Y1422D01*
X104Y1422D02*
X111Y1422D01*
X656Y1422D02*
X665Y1422D01*
X686Y1422D02*
X710Y1422D01*
X0Y1421D02*
X11Y1421D01*
X104Y1421D02*
X111Y1421D01*
X657Y1421D02*
X665Y1421D01*
X686Y1421D02*
X710Y1421D01*
X0Y1420D02*
X11Y1420D01*
X104Y1420D02*
X111Y1420D01*
X658Y1420D02*
X666Y1420D01*
X686Y1420D02*
X710Y1420D01*
X0Y1419D02*
X11Y1419D01*
X104Y1419D02*
X111Y1419D01*
X659Y1419D02*
X667Y1419D01*
X686Y1419D02*
X710Y1419D01*
X0Y1418D02*
X11Y1418D01*
X104Y1418D02*
X111Y1418D01*
X660Y1418D02*
X668Y1418D01*
X686Y1418D02*
X710Y1418D01*
X0Y1417D02*
X11Y1417D01*
X104Y1417D02*
X111Y1417D01*
X637Y1417D02*
X641Y1417D01*
X660Y1417D02*
X668Y1417D01*
X686Y1417D02*
X710Y1417D01*
X0Y1416D02*
X11Y1416D01*
X104Y1416D02*
X111Y1416D01*
X636Y1416D02*
X642Y1416D01*
X661Y1416D02*
X669Y1416D01*
X686Y1416D02*
X710Y1416D01*
X0Y1415D02*
X11Y1415D01*
X104Y1415D02*
X111Y1415D01*
X636Y1415D02*
X642Y1415D01*
X662Y1415D02*
X669Y1415D01*
X686Y1415D02*
X710Y1415D01*
X0Y1414D02*
X11Y1414D01*
X104Y1414D02*
X111Y1414D01*
X636Y1414D02*
X642Y1414D01*
X663Y1414D02*
X669Y1414D01*
X686Y1414D02*
X710Y1414D01*
X0Y1413D02*
X11Y1413D01*
X104Y1413D02*
X111Y1413D01*
X636Y1413D02*
X643Y1413D01*
X663Y1413D02*
X670Y1413D01*
X686Y1413D02*
X710Y1413D01*
X0Y1412D02*
X11Y1412D01*
X104Y1412D02*
X111Y1412D01*
X636Y1412D02*
X644Y1412D01*
X663Y1412D02*
X669Y1412D01*
X686Y1412D02*
X710Y1412D01*
X0Y1411D02*
X11Y1411D01*
X104Y1411D02*
X111Y1411D01*
X637Y1411D02*
X669Y1411D01*
X686Y1411D02*
X710Y1411D01*
X0Y1410D02*
X11Y1410D01*
X104Y1410D02*
X111Y1410D01*
X637Y1410D02*
X669Y1410D01*
X686Y1410D02*
X710Y1410D01*
X0Y1409D02*
X11Y1409D01*
X104Y1409D02*
X111Y1409D01*
X638Y1409D02*
X668Y1409D01*
X686Y1409D02*
X710Y1409D01*
X0Y1408D02*
X11Y1408D01*
X104Y1408D02*
X111Y1408D01*
X639Y1408D02*
X668Y1408D01*
X686Y1408D02*
X710Y1408D01*
X0Y1407D02*
X11Y1407D01*
X104Y1407D02*
X111Y1407D01*
X640Y1407D02*
X667Y1407D01*
X687Y1407D02*
X710Y1407D01*
X0Y1406D02*
X11Y1406D01*
X104Y1406D02*
X111Y1406D01*
X641Y1406D02*
X666Y1406D01*
X687Y1406D02*
X710Y1406D01*
X0Y1405D02*
X11Y1405D01*
X104Y1405D02*
X111Y1405D01*
X645Y1405D02*
X662Y1405D01*
X689Y1405D02*
X710Y1405D01*
X0Y1404D02*
X11Y1404D01*
X104Y1404D02*
X111Y1404D01*
X690Y1404D02*
X710Y1404D01*
X0Y1403D02*
X11Y1403D01*
X104Y1403D02*
X111Y1403D01*
X690Y1403D02*
X710Y1403D01*
X0Y1402D02*
X11Y1402D01*
X104Y1402D02*
X111Y1402D01*
X690Y1402D02*
X710Y1402D01*
X0Y1401D02*
X11Y1401D01*
X104Y1401D02*
X111Y1401D01*
X690Y1401D02*
X710Y1401D01*
X0Y1400D02*
X11Y1400D01*
X104Y1400D02*
X111Y1400D01*
X690Y1400D02*
X710Y1400D01*
X0Y1399D02*
X11Y1399D01*
X104Y1399D02*
X111Y1399D01*
X690Y1399D02*
X710Y1399D01*
X0Y1398D02*
X11Y1398D01*
X104Y1398D02*
X111Y1398D01*
X690Y1398D02*
X710Y1398D01*
X0Y1397D02*
X11Y1397D01*
X104Y1397D02*
X111Y1397D01*
X690Y1397D02*
X710Y1397D01*
X0Y1396D02*
X11Y1396D01*
X104Y1396D02*
X111Y1396D01*
X690Y1396D02*
X710Y1396D01*
X0Y1395D02*
X11Y1395D01*
X104Y1395D02*
X111Y1395D01*
X690Y1395D02*
X710Y1395D01*
X0Y1394D02*
X11Y1394D01*
X104Y1394D02*
X111Y1394D01*
X690Y1394D02*
X710Y1394D01*
X0Y1393D02*
X11Y1393D01*
X104Y1393D02*
X111Y1393D01*
X690Y1393D02*
X710Y1393D01*
X0Y1392D02*
X11Y1392D01*
X104Y1392D02*
X111Y1392D01*
X690Y1392D02*
X710Y1392D01*
X0Y1391D02*
X11Y1391D01*
X104Y1391D02*
X111Y1391D01*
X690Y1391D02*
X710Y1391D01*
X0Y1390D02*
X11Y1390D01*
X104Y1390D02*
X111Y1390D01*
X690Y1390D02*
X710Y1390D01*
X0Y1389D02*
X11Y1389D01*
X104Y1389D02*
X111Y1389D01*
X690Y1389D02*
X710Y1389D01*
X0Y1388D02*
X11Y1388D01*
X104Y1388D02*
X111Y1388D01*
X690Y1388D02*
X710Y1388D01*
X0Y1387D02*
X11Y1387D01*
X104Y1387D02*
X111Y1387D01*
X690Y1387D02*
X710Y1387D01*
X0Y1386D02*
X11Y1386D01*
X104Y1386D02*
X111Y1386D01*
X690Y1386D02*
X710Y1386D01*
X0Y1385D02*
X11Y1385D01*
X104Y1385D02*
X111Y1385D01*
X690Y1385D02*
X710Y1385D01*
X0Y1384D02*
X11Y1384D01*
X104Y1384D02*
X111Y1384D01*
X690Y1384D02*
X710Y1384D01*
X0Y1383D02*
X11Y1383D01*
X104Y1383D02*
X111Y1383D01*
X690Y1383D02*
X710Y1383D01*
X0Y1382D02*
X11Y1382D01*
X104Y1382D02*
X111Y1382D01*
X690Y1382D02*
X710Y1382D01*
X0Y1381D02*
X11Y1381D01*
X104Y1381D02*
X111Y1381D01*
X690Y1381D02*
X710Y1381D01*
X0Y1380D02*
X11Y1380D01*
X104Y1380D02*
X111Y1380D01*
X690Y1380D02*
X710Y1380D01*
X0Y1379D02*
X11Y1379D01*
X104Y1379D02*
X111Y1379D01*
X171Y1379D02*
X535Y1379D01*
X690Y1379D02*
X710Y1379D01*
X0Y1378D02*
X11Y1378D01*
X104Y1378D02*
X111Y1378D01*
X163Y1378D02*
X543Y1378D01*
X690Y1378D02*
X710Y1378D01*
X0Y1377D02*
X11Y1377D01*
X104Y1377D02*
X111Y1377D01*
X158Y1377D02*
X548Y1377D01*
X690Y1377D02*
X710Y1377D01*
X0Y1376D02*
X11Y1376D01*
X104Y1376D02*
X111Y1376D01*
X154Y1376D02*
X552Y1376D01*
X690Y1376D02*
X710Y1376D01*
X0Y1375D02*
X11Y1375D01*
X104Y1375D02*
X111Y1375D01*
X150Y1375D02*
X556Y1375D01*
X690Y1375D02*
X710Y1375D01*
X0Y1374D02*
X11Y1374D01*
X104Y1374D02*
X111Y1374D01*
X147Y1374D02*
X559Y1374D01*
X690Y1374D02*
X710Y1374D01*
X0Y1373D02*
X11Y1373D01*
X104Y1373D02*
X111Y1373D01*
X144Y1373D02*
X562Y1373D01*
X690Y1373D02*
X710Y1373D01*
X0Y1372D02*
X11Y1372D01*
X104Y1372D02*
X111Y1372D01*
X142Y1372D02*
X565Y1372D01*
X690Y1372D02*
X710Y1372D01*
X0Y1371D02*
X11Y1371D01*
X104Y1371D02*
X111Y1371D01*
X139Y1371D02*
X170Y1371D01*
X536Y1371D02*
X567Y1371D01*
X690Y1371D02*
X710Y1371D01*
X0Y1370D02*
X11Y1370D01*
X104Y1370D02*
X111Y1370D01*
X137Y1370D02*
X162Y1370D01*
X544Y1370D02*
X569Y1370D01*
X690Y1370D02*
X710Y1370D01*
X0Y1369D02*
X11Y1369D01*
X104Y1369D02*
X111Y1369D01*
X135Y1369D02*
X157Y1369D01*
X549Y1369D02*
X571Y1369D01*
X690Y1369D02*
X710Y1369D01*
X0Y1368D02*
X11Y1368D01*
X104Y1368D02*
X111Y1368D01*
X133Y1368D02*
X153Y1368D01*
X553Y1368D02*
X573Y1368D01*
X690Y1368D02*
X710Y1368D01*
X0Y1367D02*
X11Y1367D01*
X104Y1367D02*
X111Y1367D01*
X131Y1367D02*
X150Y1367D01*
X556Y1367D02*
X575Y1367D01*
X690Y1367D02*
X710Y1367D01*
X0Y1366D02*
X11Y1366D01*
X104Y1366D02*
X111Y1366D01*
X129Y1366D02*
X147Y1366D01*
X559Y1366D02*
X577Y1366D01*
X690Y1366D02*
X710Y1366D01*
X0Y1365D02*
X11Y1365D01*
X104Y1365D02*
X111Y1365D01*
X128Y1365D02*
X144Y1365D01*
X562Y1365D02*
X578Y1365D01*
X690Y1365D02*
X710Y1365D01*
X0Y1364D02*
X11Y1364D01*
X104Y1364D02*
X111Y1364D01*
X126Y1364D02*
X142Y1364D01*
X564Y1364D02*
X580Y1364D01*
X690Y1364D02*
X710Y1364D01*
X0Y1363D02*
X11Y1363D01*
X104Y1363D02*
X111Y1363D01*
X124Y1363D02*
X140Y1363D01*
X566Y1363D02*
X582Y1363D01*
X690Y1363D02*
X710Y1363D01*
X0Y1362D02*
X11Y1362D01*
X104Y1362D02*
X111Y1362D01*
X123Y1362D02*
X138Y1362D01*
X569Y1362D02*
X583Y1362D01*
X690Y1362D02*
X710Y1362D01*
X0Y1361D02*
X11Y1361D01*
X104Y1361D02*
X111Y1361D01*
X121Y1361D02*
X135Y1361D01*
X571Y1361D02*
X585Y1361D01*
X690Y1361D02*
X710Y1361D01*
X0Y1360D02*
X11Y1360D01*
X104Y1360D02*
X111Y1360D01*
X120Y1360D02*
X134Y1360D01*
X572Y1360D02*
X586Y1360D01*
X690Y1360D02*
X710Y1360D01*
X0Y1359D02*
X11Y1359D01*
X104Y1359D02*
X111Y1359D01*
X119Y1359D02*
X132Y1359D01*
X574Y1359D02*
X587Y1359D01*
X690Y1359D02*
X710Y1359D01*
X0Y1358D02*
X11Y1358D01*
X104Y1358D02*
X111Y1358D01*
X117Y1358D02*
X130Y1358D01*
X576Y1358D02*
X589Y1358D01*
X690Y1358D02*
X710Y1358D01*
X0Y1357D02*
X11Y1357D01*
X104Y1357D02*
X111Y1357D01*
X116Y1357D02*
X129Y1357D01*
X578Y1357D02*
X590Y1357D01*
X690Y1357D02*
X710Y1357D01*
X0Y1356D02*
X11Y1356D01*
X104Y1356D02*
X111Y1356D01*
X115Y1356D02*
X127Y1356D01*
X579Y1356D02*
X591Y1356D01*
X690Y1356D02*
X710Y1356D01*
X0Y1355D02*
X11Y1355D01*
X104Y1355D02*
X111Y1355D01*
X114Y1355D02*
X126Y1355D01*
X580Y1355D02*
X593Y1355D01*
X690Y1355D02*
X710Y1355D01*
X0Y1354D02*
X11Y1354D01*
X104Y1354D02*
X124Y1354D01*
X582Y1354D02*
X594Y1354D01*
X690Y1354D02*
X710Y1354D01*
X0Y1353D02*
X11Y1353D01*
X104Y1353D02*
X123Y1353D01*
X583Y1353D02*
X595Y1353D01*
X690Y1353D02*
X710Y1353D01*
X0Y1352D02*
X11Y1352D01*
X104Y1352D02*
X122Y1352D01*
X585Y1352D02*
X596Y1352D01*
X690Y1352D02*
X710Y1352D01*
X0Y1351D02*
X11Y1351D01*
X104Y1351D02*
X120Y1351D01*
X586Y1351D02*
X597Y1351D01*
X690Y1351D02*
X710Y1351D01*
X0Y1350D02*
X11Y1350D01*
X104Y1350D02*
X119Y1350D01*
X587Y1350D02*
X598Y1350D01*
X690Y1350D02*
X710Y1350D01*
X0Y1349D02*
X11Y1349D01*
X104Y1349D02*
X118Y1349D01*
X588Y1349D02*
X599Y1349D01*
X690Y1349D02*
X710Y1349D01*
X0Y1348D02*
X11Y1348D01*
X104Y1348D02*
X117Y1348D01*
X589Y1348D02*
X600Y1348D01*
X690Y1348D02*
X710Y1348D01*
X0Y1347D02*
X11Y1347D01*
X104Y1347D02*
X116Y1347D01*
X590Y1347D02*
X601Y1347D01*
X690Y1347D02*
X710Y1347D01*
X0Y1346D02*
X11Y1346D01*
X104Y1346D02*
X115Y1346D01*
X592Y1346D02*
X602Y1346D01*
X690Y1346D02*
X710Y1346D01*
X0Y1345D02*
X11Y1345D01*
X103Y1345D02*
X113Y1345D01*
X593Y1345D02*
X603Y1345D01*
X690Y1345D02*
X710Y1345D01*
X0Y1344D02*
X11Y1344D01*
X103Y1344D02*
X112Y1344D01*
X594Y1344D02*
X603Y1344D01*
X690Y1344D02*
X710Y1344D01*
X0Y1343D02*
X11Y1343D01*
X102Y1343D02*
X112Y1343D01*
X595Y1343D02*
X604Y1343D01*
X690Y1343D02*
X710Y1343D01*
X0Y1342D02*
X11Y1342D01*
X101Y1342D02*
X111Y1342D01*
X595Y1342D02*
X605Y1342D01*
X690Y1342D02*
X710Y1342D01*
X0Y1341D02*
X11Y1341D01*
X100Y1341D02*
X111Y1341D01*
X342Y1341D02*
X365Y1341D01*
X596Y1341D02*
X606Y1341D01*
X690Y1341D02*
X710Y1341D01*
X0Y1340D02*
X11Y1340D01*
X100Y1340D02*
X111Y1340D01*
X336Y1340D02*
X370Y1340D01*
X597Y1340D02*
X607Y1340D01*
X690Y1340D02*
X710Y1340D01*
X0Y1339D02*
X11Y1339D01*
X99Y1339D02*
X111Y1339D01*
X332Y1339D02*
X374Y1339D01*
X598Y1339D02*
X607Y1339D01*
X690Y1339D02*
X710Y1339D01*
X0Y1338D02*
X11Y1338D01*
X98Y1338D02*
X111Y1338D01*
X328Y1338D02*
X378Y1338D01*
X599Y1338D02*
X608Y1338D01*
X690Y1338D02*
X710Y1338D01*
X0Y1337D02*
X11Y1337D01*
X97Y1337D02*
X111Y1337D01*
X326Y1337D02*
X380Y1337D01*
X600Y1337D02*
X609Y1337D01*
X690Y1337D02*
X710Y1337D01*
X0Y1336D02*
X11Y1336D01*
X97Y1336D02*
X111Y1336D01*
X323Y1336D02*
X383Y1336D01*
X601Y1336D02*
X609Y1336D01*
X690Y1336D02*
X710Y1336D01*
X0Y1335D02*
X11Y1335D01*
X96Y1335D02*
X111Y1335D01*
X321Y1335D02*
X386Y1335D01*
X601Y1335D02*
X610Y1335D01*
X690Y1335D02*
X710Y1335D01*
X0Y1334D02*
X11Y1334D01*
X95Y1334D02*
X111Y1334D01*
X318Y1334D02*
X388Y1334D01*
X602Y1334D02*
X611Y1334D01*
X690Y1334D02*
X710Y1334D01*
X0Y1333D02*
X11Y1333D01*
X95Y1333D02*
X111Y1333D01*
X316Y1333D02*
X341Y1333D01*
X365Y1333D02*
X390Y1333D01*
X603Y1333D02*
X611Y1333D01*
X690Y1333D02*
X710Y1333D01*
X0Y1332D02*
X11Y1332D01*
X94Y1332D02*
X111Y1332D01*
X314Y1332D02*
X335Y1332D01*
X371Y1332D02*
X392Y1332D01*
X604Y1332D02*
X612Y1332D01*
X690Y1332D02*
X710Y1332D01*
X0Y1331D02*
X11Y1331D01*
X93Y1331D02*
X102Y1331D01*
X104Y1331D02*
X111Y1331D01*
X313Y1331D02*
X331Y1331D01*
X375Y1331D02*
X394Y1331D01*
X604Y1331D02*
X613Y1331D01*
X690Y1331D02*
X710Y1331D01*
X0Y1330D02*
X11Y1330D01*
X93Y1330D02*
X101Y1330D01*
X104Y1330D02*
X111Y1330D01*
X311Y1330D02*
X328Y1330D01*
X378Y1330D02*
X395Y1330D01*
X605Y1330D02*
X613Y1330D01*
X690Y1330D02*
X710Y1330D01*
X0Y1329D02*
X11Y1329D01*
X92Y1329D02*
X100Y1329D01*
X104Y1329D02*
X111Y1329D01*
X309Y1329D02*
X326Y1329D01*
X380Y1329D02*
X397Y1329D01*
X606Y1329D02*
X614Y1329D01*
X690Y1329D02*
X710Y1329D01*
X0Y1328D02*
X11Y1328D01*
X92Y1328D02*
X100Y1328D01*
X104Y1328D02*
X111Y1328D01*
X308Y1328D02*
X323Y1328D01*
X383Y1328D02*
X398Y1328D01*
X606Y1328D02*
X614Y1328D01*
X690Y1328D02*
X710Y1328D01*
X0Y1327D02*
X11Y1327D01*
X91Y1327D02*
X99Y1327D01*
X104Y1327D02*
X111Y1327D01*
X306Y1327D02*
X321Y1327D01*
X385Y1327D02*
X400Y1327D01*
X607Y1327D02*
X615Y1327D01*
X690Y1327D02*
X710Y1327D01*
X0Y1326D02*
X11Y1326D01*
X91Y1326D02*
X99Y1326D01*
X104Y1326D02*
X111Y1326D01*
X305Y1326D02*
X319Y1326D01*
X387Y1326D02*
X401Y1326D01*
X607Y1326D02*
X616Y1326D01*
X690Y1326D02*
X710Y1326D01*
X0Y1325D02*
X11Y1325D01*
X90Y1325D02*
X98Y1325D01*
X104Y1325D02*
X111Y1325D01*
X304Y1325D02*
X317Y1325D01*
X389Y1325D02*
X403Y1325D01*
X608Y1325D02*
X616Y1325D01*
X690Y1325D02*
X710Y1325D01*
X0Y1324D02*
X11Y1324D01*
X90Y1324D02*
X97Y1324D01*
X104Y1324D02*
X111Y1324D01*
X302Y1324D02*
X315Y1324D01*
X391Y1324D02*
X404Y1324D01*
X609Y1324D02*
X617Y1324D01*
X690Y1324D02*
X710Y1324D01*
X0Y1323D02*
X11Y1323D01*
X89Y1323D02*
X97Y1323D01*
X104Y1323D02*
X111Y1323D01*
X301Y1323D02*
X314Y1323D01*
X393Y1323D02*
X405Y1323D01*
X609Y1323D02*
X617Y1323D01*
X690Y1323D02*
X710Y1323D01*
X0Y1322D02*
X11Y1322D01*
X89Y1322D02*
X96Y1322D01*
X104Y1322D02*
X111Y1322D01*
X300Y1322D02*
X312Y1322D01*
X394Y1322D02*
X406Y1322D01*
X610Y1322D02*
X618Y1322D01*
X690Y1322D02*
X710Y1322D01*
X0Y1321D02*
X11Y1321D01*
X88Y1321D02*
X96Y1321D01*
X104Y1321D02*
X111Y1321D01*
X299Y1321D02*
X310Y1321D01*
X396Y1321D02*
X407Y1321D01*
X610Y1321D02*
X618Y1321D01*
X690Y1321D02*
X710Y1321D01*
X0Y1320D02*
X11Y1320D01*
X88Y1320D02*
X95Y1320D01*
X104Y1320D02*
X111Y1320D01*
X298Y1320D02*
X309Y1320D01*
X397Y1320D02*
X409Y1320D01*
X611Y1320D02*
X618Y1320D01*
X690Y1320D02*
X710Y1320D01*
X0Y1319D02*
X11Y1319D01*
X87Y1319D02*
X95Y1319D01*
X104Y1319D02*
X111Y1319D01*
X296Y1319D02*
X308Y1319D01*
X398Y1319D02*
X410Y1319D01*
X611Y1319D02*
X619Y1319D01*
X690Y1319D02*
X710Y1319D01*
X0Y1318D02*
X11Y1318D01*
X87Y1318D02*
X94Y1318D01*
X104Y1318D02*
X111Y1318D01*
X295Y1318D02*
X306Y1318D01*
X400Y1318D02*
X411Y1318D01*
X612Y1318D02*
X619Y1318D01*
X690Y1318D02*
X710Y1318D01*
X0Y1317D02*
X11Y1317D01*
X86Y1317D02*
X94Y1317D01*
X104Y1317D02*
X111Y1317D01*
X294Y1317D02*
X305Y1317D01*
X401Y1317D02*
X412Y1317D01*
X612Y1317D02*
X620Y1317D01*
X690Y1317D02*
X710Y1317D01*
X0Y1316D02*
X11Y1316D01*
X86Y1316D02*
X94Y1316D01*
X104Y1316D02*
X111Y1316D01*
X294Y1316D02*
X304Y1316D01*
X402Y1316D02*
X413Y1316D01*
X613Y1316D02*
X620Y1316D01*
X690Y1316D02*
X710Y1316D01*
X0Y1315D02*
X11Y1315D01*
X86Y1315D02*
X93Y1315D01*
X104Y1315D02*
X111Y1315D01*
X293Y1315D02*
X303Y1315D01*
X403Y1315D02*
X414Y1315D01*
X613Y1315D02*
X621Y1315D01*
X690Y1315D02*
X710Y1315D01*
X0Y1314D02*
X11Y1314D01*
X85Y1314D02*
X93Y1314D01*
X104Y1314D02*
X111Y1314D01*
X292Y1314D02*
X302Y1314D01*
X404Y1314D02*
X414Y1314D01*
X613Y1314D02*
X621Y1314D01*
X690Y1314D02*
X710Y1314D01*
X0Y1313D02*
X11Y1313D01*
X85Y1313D02*
X92Y1313D01*
X104Y1313D02*
X111Y1313D01*
X291Y1313D02*
X301Y1313D01*
X405Y1313D02*
X415Y1313D01*
X614Y1313D02*
X621Y1313D01*
X690Y1313D02*
X710Y1313D01*
X0Y1312D02*
X11Y1312D01*
X84Y1312D02*
X92Y1312D01*
X104Y1312D02*
X111Y1312D01*
X290Y1312D02*
X300Y1312D01*
X406Y1312D02*
X416Y1312D01*
X614Y1312D02*
X622Y1312D01*
X690Y1312D02*
X710Y1312D01*
X0Y1311D02*
X11Y1311D01*
X84Y1311D02*
X92Y1311D01*
X104Y1311D02*
X111Y1311D01*
X289Y1311D02*
X299Y1311D01*
X407Y1311D02*
X417Y1311D01*
X615Y1311D02*
X622Y1311D01*
X690Y1311D02*
X710Y1311D01*
X0Y1310D02*
X11Y1310D01*
X84Y1310D02*
X91Y1310D01*
X104Y1310D02*
X111Y1310D01*
X288Y1310D02*
X298Y1310D01*
X408Y1310D02*
X418Y1310D01*
X615Y1310D02*
X622Y1310D01*
X690Y1310D02*
X710Y1310D01*
X0Y1309D02*
X11Y1309D01*
X83Y1309D02*
X91Y1309D01*
X104Y1309D02*
X111Y1309D01*
X288Y1309D02*
X297Y1309D01*
X409Y1309D02*
X418Y1309D01*
X615Y1309D02*
X623Y1309D01*
X690Y1309D02*
X710Y1309D01*
X0Y1308D02*
X11Y1308D01*
X83Y1308D02*
X90Y1308D01*
X104Y1308D02*
X111Y1308D01*
X287Y1308D02*
X296Y1308D01*
X410Y1308D02*
X419Y1308D01*
X616Y1308D02*
X623Y1308D01*
X690Y1308D02*
X710Y1308D01*
X0Y1307D02*
X11Y1307D01*
X83Y1307D02*
X90Y1307D01*
X104Y1307D02*
X111Y1307D01*
X286Y1307D02*
X295Y1307D01*
X411Y1307D02*
X420Y1307D01*
X616Y1307D02*
X623Y1307D01*
X690Y1307D02*
X710Y1307D01*
X0Y1306D02*
X11Y1306D01*
X83Y1306D02*
X90Y1306D01*
X104Y1306D02*
X111Y1306D01*
X285Y1306D02*
X294Y1306D01*
X412Y1306D02*
X421Y1306D01*
X616Y1306D02*
X624Y1306D01*
X690Y1306D02*
X710Y1306D01*
X0Y1305D02*
X11Y1305D01*
X82Y1305D02*
X89Y1305D01*
X104Y1305D02*
X111Y1305D01*
X285Y1305D02*
X294Y1305D01*
X413Y1305D02*
X421Y1305D01*
X617Y1305D02*
X624Y1305D01*
X690Y1305D02*
X710Y1305D01*
X0Y1304D02*
X11Y1304D01*
X82Y1304D02*
X89Y1304D01*
X104Y1304D02*
X111Y1304D01*
X284Y1304D02*
X293Y1304D01*
X413Y1304D02*
X422Y1304D01*
X617Y1304D02*
X624Y1304D01*
X690Y1304D02*
X710Y1304D01*
X0Y1303D02*
X11Y1303D01*
X82Y1303D02*
X89Y1303D01*
X104Y1303D02*
X111Y1303D01*
X284Y1303D02*
X292Y1303D01*
X414Y1303D02*
X423Y1303D01*
X617Y1303D02*
X624Y1303D01*
X690Y1303D02*
X710Y1303D01*
X0Y1302D02*
X11Y1302D01*
X82Y1302D02*
X89Y1302D01*
X104Y1302D02*
X111Y1302D01*
X283Y1302D02*
X291Y1302D01*
X415Y1302D02*
X423Y1302D01*
X617Y1302D02*
X625Y1302D01*
X690Y1302D02*
X710Y1302D01*
X0Y1301D02*
X11Y1301D01*
X81Y1301D02*
X88Y1301D01*
X104Y1301D02*
X111Y1301D01*
X282Y1301D02*
X291Y1301D01*
X416Y1301D02*
X424Y1301D01*
X618Y1301D02*
X625Y1301D01*
X690Y1301D02*
X710Y1301D01*
X0Y1300D02*
X11Y1300D01*
X81Y1300D02*
X88Y1300D01*
X104Y1300D02*
X111Y1300D01*
X282Y1300D02*
X290Y1300D01*
X416Y1300D02*
X424Y1300D01*
X618Y1300D02*
X625Y1300D01*
X690Y1300D02*
X710Y1300D01*
X0Y1299D02*
X11Y1299D01*
X81Y1299D02*
X88Y1299D01*
X104Y1299D02*
X111Y1299D01*
X281Y1299D02*
X289Y1299D01*
X417Y1299D02*
X425Y1299D01*
X618Y1299D02*
X625Y1299D01*
X690Y1299D02*
X710Y1299D01*
X0Y1298D02*
X11Y1298D01*
X81Y1298D02*
X88Y1298D01*
X104Y1298D02*
X111Y1298D01*
X281Y1298D02*
X289Y1298D01*
X417Y1298D02*
X425Y1298D01*
X618Y1298D02*
X625Y1298D01*
X690Y1298D02*
X710Y1298D01*
X0Y1297D02*
X11Y1297D01*
X80Y1297D02*
X88Y1297D01*
X104Y1297D02*
X111Y1297D01*
X280Y1297D02*
X288Y1297D01*
X418Y1297D02*
X426Y1297D01*
X619Y1297D02*
X626Y1297D01*
X690Y1297D02*
X710Y1297D01*
X0Y1296D02*
X11Y1296D01*
X80Y1296D02*
X87Y1296D01*
X104Y1296D02*
X111Y1296D01*
X280Y1296D02*
X288Y1296D01*
X419Y1296D02*
X426Y1296D01*
X619Y1296D02*
X626Y1296D01*
X690Y1296D02*
X710Y1296D01*
X0Y1295D02*
X11Y1295D01*
X80Y1295D02*
X87Y1295D01*
X104Y1295D02*
X111Y1295D01*
X279Y1295D02*
X287Y1295D01*
X419Y1295D02*
X427Y1295D01*
X619Y1295D02*
X626Y1295D01*
X690Y1295D02*
X710Y1295D01*
X0Y1294D02*
X11Y1294D01*
X80Y1294D02*
X87Y1294D01*
X104Y1294D02*
X111Y1294D01*
X279Y1294D02*
X286Y1294D01*
X420Y1294D02*
X427Y1294D01*
X619Y1294D02*
X626Y1294D01*
X690Y1294D02*
X710Y1294D01*
X0Y1293D02*
X11Y1293D01*
X80Y1293D02*
X87Y1293D01*
X104Y1293D02*
X111Y1293D01*
X278Y1293D02*
X286Y1293D01*
X420Y1293D02*
X428Y1293D01*
X619Y1293D02*
X626Y1293D01*
X690Y1293D02*
X710Y1293D01*
X0Y1292D02*
X11Y1292D01*
X80Y1292D02*
X87Y1292D01*
X104Y1292D02*
X111Y1292D01*
X278Y1292D02*
X285Y1292D01*
X421Y1292D02*
X428Y1292D01*
X619Y1292D02*
X626Y1292D01*
X690Y1292D02*
X710Y1292D01*
X0Y1291D02*
X11Y1291D01*
X80Y1291D02*
X87Y1291D01*
X104Y1291D02*
X111Y1291D01*
X277Y1291D02*
X285Y1291D01*
X421Y1291D02*
X429Y1291D01*
X620Y1291D02*
X627Y1291D01*
X690Y1291D02*
X710Y1291D01*
X0Y1290D02*
X11Y1290D01*
X79Y1290D02*
X86Y1290D01*
X104Y1290D02*
X111Y1290D01*
X277Y1290D02*
X284Y1290D01*
X422Y1290D02*
X429Y1290D01*
X620Y1290D02*
X627Y1290D01*
X690Y1290D02*
X710Y1290D01*
X0Y1289D02*
X11Y1289D01*
X79Y1289D02*
X86Y1289D01*
X104Y1289D02*
X111Y1289D01*
X177Y1289D02*
X214Y1289D01*
X277Y1289D02*
X284Y1289D01*
X422Y1289D02*
X429Y1289D01*
X620Y1289D02*
X627Y1289D01*
X0Y1288D02*
X11Y1288D01*
X79Y1288D02*
X86Y1288D01*
X104Y1288D02*
X111Y1288D01*
X179Y1288D02*
X216Y1288D01*
X278Y1288D02*
X284Y1288D01*
X423Y1288D02*
X428Y1288D01*
X620Y1288D02*
X627Y1288D01*
X0Y1287D02*
X11Y1287D01*
X79Y1287D02*
X86Y1287D01*
X104Y1287D02*
X111Y1287D01*
X180Y1287D02*
X217Y1287D01*
X280Y1287D02*
X283Y1287D01*
X423Y1287D02*
X427Y1287D01*
X620Y1287D02*
X627Y1287D01*
X0Y1286D02*
X11Y1286D01*
X79Y1286D02*
X86Y1286D01*
X104Y1286D02*
X111Y1286D01*
X181Y1286D02*
X217Y1286D01*
X281Y1286D02*
X283Y1286D01*
X423Y1286D02*
X425Y1286D01*
X620Y1286D02*
X627Y1286D01*
X0Y1285D02*
X11Y1285D01*
X79Y1285D02*
X86Y1285D01*
X104Y1285D02*
X111Y1285D01*
X182Y1285D02*
X218Y1285D01*
X282Y1285D02*
X282Y1285D01*
X424Y1285D02*
X425Y1285D01*
X620Y1285D02*
X627Y1285D01*
X0Y1284D02*
X11Y1284D01*
X79Y1284D02*
X86Y1284D01*
X104Y1284D02*
X111Y1284D01*
X183Y1284D02*
X218Y1284D01*
X282Y1284D02*
X282Y1284D01*
X424Y1284D02*
X424Y1284D01*
X620Y1284D02*
X627Y1284D01*
X0Y1283D02*
X11Y1283D01*
X79Y1283D02*
X86Y1283D01*
X104Y1283D02*
X111Y1283D01*
X183Y1283D02*
X217Y1283D01*
X620Y1283D02*
X627Y1283D01*
X0Y1282D02*
X11Y1282D01*
X79Y1282D02*
X86Y1282D01*
X104Y1282D02*
X111Y1282D01*
X184Y1282D02*
X217Y1282D01*
X620Y1282D02*
X627Y1282D01*
X0Y1281D02*
X11Y1281D01*
X79Y1281D02*
X86Y1281D01*
X104Y1281D02*
X111Y1281D01*
X185Y1281D02*
X216Y1281D01*
X620Y1281D02*
X627Y1281D01*
X0Y1280D02*
X11Y1280D01*
X79Y1280D02*
X86Y1280D01*
X104Y1280D02*
X111Y1280D01*
X185Y1280D02*
X216Y1280D01*
X620Y1280D02*
X627Y1280D01*
X0Y1279D02*
X11Y1279D01*
X79Y1279D02*
X86Y1279D01*
X104Y1279D02*
X111Y1279D01*
X201Y1279D02*
X215Y1279D01*
X620Y1279D02*
X627Y1279D01*
X0Y1278D02*
X11Y1278D01*
X79Y1278D02*
X86Y1278D01*
X104Y1278D02*
X111Y1278D01*
X200Y1278D02*
X214Y1278D01*
X620Y1278D02*
X627Y1278D01*
X0Y1277D02*
X11Y1277D01*
X79Y1277D02*
X86Y1277D01*
X104Y1277D02*
X111Y1277D01*
X199Y1277D02*
X213Y1277D01*
X620Y1277D02*
X627Y1277D01*
X690Y1277D02*
X710Y1277D01*
X0Y1276D02*
X11Y1276D01*
X79Y1276D02*
X86Y1276D01*
X104Y1276D02*
X111Y1276D01*
X198Y1276D02*
X212Y1276D01*
X620Y1276D02*
X627Y1276D01*
X690Y1276D02*
X710Y1276D01*
X0Y1275D02*
X11Y1275D01*
X79Y1275D02*
X86Y1275D01*
X104Y1275D02*
X111Y1275D01*
X197Y1275D02*
X211Y1275D01*
X620Y1275D02*
X627Y1275D01*
X690Y1275D02*
X710Y1275D01*
X0Y1274D02*
X11Y1274D01*
X79Y1274D02*
X86Y1274D01*
X104Y1274D02*
X111Y1274D01*
X196Y1274D02*
X210Y1274D01*
X620Y1274D02*
X627Y1274D01*
X690Y1274D02*
X710Y1274D01*
X0Y1273D02*
X11Y1273D01*
X79Y1273D02*
X86Y1273D01*
X104Y1273D02*
X111Y1273D01*
X195Y1273D02*
X209Y1273D01*
X620Y1273D02*
X627Y1273D01*
X690Y1273D02*
X710Y1273D01*
X0Y1272D02*
X11Y1272D01*
X79Y1272D02*
X86Y1272D01*
X104Y1272D02*
X111Y1272D01*
X194Y1272D02*
X208Y1272D01*
X620Y1272D02*
X627Y1272D01*
X690Y1272D02*
X710Y1272D01*
X0Y1271D02*
X11Y1271D01*
X79Y1271D02*
X86Y1271D01*
X104Y1271D02*
X111Y1271D01*
X193Y1271D02*
X207Y1271D01*
X620Y1271D02*
X627Y1271D01*
X690Y1271D02*
X710Y1271D01*
X0Y1270D02*
X11Y1270D01*
X79Y1270D02*
X86Y1270D01*
X104Y1270D02*
X111Y1270D01*
X192Y1270D02*
X206Y1270D01*
X620Y1270D02*
X627Y1270D01*
X690Y1270D02*
X710Y1270D01*
X0Y1269D02*
X11Y1269D01*
X79Y1269D02*
X86Y1269D01*
X104Y1269D02*
X111Y1269D01*
X191Y1269D02*
X205Y1269D01*
X620Y1269D02*
X627Y1269D01*
X690Y1269D02*
X710Y1269D01*
X0Y1268D02*
X11Y1268D01*
X79Y1268D02*
X86Y1268D01*
X104Y1268D02*
X111Y1268D01*
X191Y1268D02*
X204Y1268D01*
X620Y1268D02*
X627Y1268D01*
X690Y1268D02*
X710Y1268D01*
X0Y1267D02*
X11Y1267D01*
X79Y1267D02*
X86Y1267D01*
X104Y1267D02*
X111Y1267D01*
X191Y1267D02*
X203Y1267D01*
X620Y1267D02*
X627Y1267D01*
X690Y1267D02*
X710Y1267D01*
X0Y1266D02*
X11Y1266D01*
X79Y1266D02*
X86Y1266D01*
X104Y1266D02*
X111Y1266D01*
X191Y1266D02*
X202Y1266D01*
X620Y1266D02*
X627Y1266D01*
X690Y1266D02*
X710Y1266D01*
X0Y1265D02*
X11Y1265D01*
X79Y1265D02*
X86Y1265D01*
X104Y1265D02*
X111Y1265D01*
X191Y1265D02*
X201Y1265D01*
X620Y1265D02*
X627Y1265D01*
X690Y1265D02*
X710Y1265D01*
X0Y1264D02*
X11Y1264D01*
X79Y1264D02*
X86Y1264D01*
X104Y1264D02*
X111Y1264D01*
X191Y1264D02*
X200Y1264D01*
X620Y1264D02*
X627Y1264D01*
X690Y1264D02*
X710Y1264D01*
X0Y1263D02*
X11Y1263D01*
X79Y1263D02*
X86Y1263D01*
X104Y1263D02*
X111Y1263D01*
X192Y1263D02*
X199Y1263D01*
X620Y1263D02*
X627Y1263D01*
X690Y1263D02*
X710Y1263D01*
X0Y1262D02*
X11Y1262D01*
X79Y1262D02*
X86Y1262D01*
X104Y1262D02*
X111Y1262D01*
X192Y1262D02*
X198Y1262D01*
X620Y1262D02*
X627Y1262D01*
X690Y1262D02*
X710Y1262D01*
X0Y1261D02*
X11Y1261D01*
X79Y1261D02*
X86Y1261D01*
X104Y1261D02*
X111Y1261D01*
X192Y1261D02*
X197Y1261D01*
X620Y1261D02*
X627Y1261D01*
X690Y1261D02*
X710Y1261D01*
X0Y1260D02*
X11Y1260D01*
X79Y1260D02*
X86Y1260D01*
X104Y1260D02*
X111Y1260D01*
X192Y1260D02*
X195Y1260D01*
X620Y1260D02*
X627Y1260D01*
X690Y1260D02*
X710Y1260D01*
X0Y1259D02*
X11Y1259D01*
X79Y1259D02*
X86Y1259D01*
X104Y1259D02*
X111Y1259D01*
X620Y1259D02*
X627Y1259D01*
X690Y1259D02*
X710Y1259D01*
X0Y1258D02*
X11Y1258D01*
X79Y1258D02*
X86Y1258D01*
X104Y1258D02*
X111Y1258D01*
X620Y1258D02*
X627Y1258D01*
X690Y1258D02*
X710Y1258D01*
X0Y1257D02*
X11Y1257D01*
X79Y1257D02*
X86Y1257D01*
X104Y1257D02*
X111Y1257D01*
X620Y1257D02*
X627Y1257D01*
X690Y1257D02*
X710Y1257D01*
X0Y1256D02*
X11Y1256D01*
X79Y1256D02*
X86Y1256D01*
X104Y1256D02*
X111Y1256D01*
X620Y1256D02*
X627Y1256D01*
X690Y1256D02*
X710Y1256D01*
X0Y1255D02*
X11Y1255D01*
X79Y1255D02*
X86Y1255D01*
X104Y1255D02*
X111Y1255D01*
X620Y1255D02*
X627Y1255D01*
X690Y1255D02*
X710Y1255D01*
X0Y1254D02*
X11Y1254D01*
X79Y1254D02*
X86Y1254D01*
X104Y1254D02*
X111Y1254D01*
X620Y1254D02*
X627Y1254D01*
X690Y1254D02*
X710Y1254D01*
X0Y1253D02*
X11Y1253D01*
X79Y1253D02*
X86Y1253D01*
X104Y1253D02*
X111Y1253D01*
X620Y1253D02*
X627Y1253D01*
X690Y1253D02*
X710Y1253D01*
X0Y1252D02*
X11Y1252D01*
X79Y1252D02*
X86Y1252D01*
X104Y1252D02*
X111Y1252D01*
X620Y1252D02*
X627Y1252D01*
X690Y1252D02*
X710Y1252D01*
X0Y1251D02*
X11Y1251D01*
X79Y1251D02*
X86Y1251D01*
X104Y1251D02*
X111Y1251D01*
X620Y1251D02*
X627Y1251D01*
X690Y1251D02*
X710Y1251D01*
X0Y1250D02*
X11Y1250D01*
X79Y1250D02*
X86Y1250D01*
X104Y1250D02*
X111Y1250D01*
X620Y1250D02*
X627Y1250D01*
X690Y1250D02*
X710Y1250D01*
X0Y1249D02*
X12Y1249D01*
X79Y1249D02*
X86Y1249D01*
X104Y1249D02*
X111Y1249D01*
X620Y1249D02*
X627Y1249D01*
X690Y1249D02*
X710Y1249D01*
X0Y1248D02*
X12Y1248D01*
X79Y1248D02*
X86Y1248D01*
X104Y1248D02*
X111Y1248D01*
X620Y1248D02*
X627Y1248D01*
X689Y1248D02*
X710Y1248D01*
X0Y1247D02*
X12Y1247D01*
X79Y1247D02*
X86Y1247D01*
X104Y1247D02*
X111Y1247D01*
X620Y1247D02*
X627Y1247D01*
X689Y1247D02*
X710Y1247D01*
X0Y1246D02*
X12Y1246D01*
X79Y1246D02*
X86Y1246D01*
X104Y1246D02*
X111Y1246D01*
X620Y1246D02*
X627Y1246D01*
X689Y1246D02*
X710Y1246D01*
X0Y1245D02*
X12Y1245D01*
X79Y1245D02*
X86Y1245D01*
X104Y1245D02*
X111Y1245D01*
X620Y1245D02*
X627Y1245D01*
X689Y1245D02*
X710Y1245D01*
X0Y1244D02*
X12Y1244D01*
X79Y1244D02*
X86Y1244D01*
X104Y1244D02*
X111Y1244D01*
X620Y1244D02*
X627Y1244D01*
X689Y1244D02*
X710Y1244D01*
X0Y1243D02*
X12Y1243D01*
X79Y1243D02*
X86Y1243D01*
X104Y1243D02*
X111Y1243D01*
X620Y1243D02*
X627Y1243D01*
X689Y1243D02*
X710Y1243D01*
X0Y1242D02*
X13Y1242D01*
X79Y1242D02*
X86Y1242D01*
X104Y1242D02*
X111Y1242D01*
X620Y1242D02*
X627Y1242D01*
X689Y1242D02*
X710Y1242D01*
X0Y1241D02*
X13Y1241D01*
X79Y1241D02*
X86Y1241D01*
X104Y1241D02*
X111Y1241D01*
X620Y1241D02*
X627Y1241D01*
X688Y1241D02*
X710Y1241D01*
X0Y1240D02*
X13Y1240D01*
X79Y1240D02*
X86Y1240D01*
X104Y1240D02*
X111Y1240D01*
X620Y1240D02*
X627Y1240D01*
X688Y1240D02*
X710Y1240D01*
X0Y1239D02*
X13Y1239D01*
X79Y1239D02*
X86Y1239D01*
X104Y1239D02*
X111Y1239D01*
X620Y1239D02*
X627Y1239D01*
X688Y1239D02*
X710Y1239D01*
X0Y1238D02*
X13Y1238D01*
X79Y1238D02*
X86Y1238D01*
X104Y1238D02*
X111Y1238D01*
X620Y1238D02*
X627Y1238D01*
X688Y1238D02*
X710Y1238D01*
X0Y1237D02*
X14Y1237D01*
X79Y1237D02*
X86Y1237D01*
X104Y1237D02*
X111Y1237D01*
X620Y1237D02*
X627Y1237D01*
X687Y1237D02*
X710Y1237D01*
X0Y1236D02*
X14Y1236D01*
X79Y1236D02*
X86Y1236D01*
X104Y1236D02*
X111Y1236D01*
X620Y1236D02*
X627Y1236D01*
X687Y1236D02*
X710Y1236D01*
X0Y1235D02*
X14Y1235D01*
X79Y1235D02*
X86Y1235D01*
X104Y1235D02*
X111Y1235D01*
X620Y1235D02*
X627Y1235D01*
X687Y1235D02*
X710Y1235D01*
X0Y1234D02*
X14Y1234D01*
X79Y1234D02*
X86Y1234D01*
X104Y1234D02*
X111Y1234D01*
X282Y1234D02*
X282Y1234D01*
X424Y1234D02*
X424Y1234D01*
X620Y1234D02*
X627Y1234D01*
X687Y1234D02*
X710Y1234D01*
X0Y1233D02*
X15Y1233D01*
X79Y1233D02*
X86Y1233D01*
X104Y1233D02*
X111Y1233D01*
X281Y1233D02*
X283Y1233D01*
X423Y1233D02*
X425Y1233D01*
X620Y1233D02*
X627Y1233D01*
X686Y1233D02*
X710Y1233D01*
X0Y1232D02*
X15Y1232D01*
X79Y1232D02*
X86Y1232D01*
X104Y1232D02*
X111Y1232D01*
X280Y1232D02*
X283Y1232D01*
X423Y1232D02*
X426Y1232D01*
X620Y1232D02*
X627Y1232D01*
X686Y1232D02*
X693Y1232D01*
X695Y1232D02*
X710Y1232D01*
X0Y1231D02*
X15Y1231D01*
X79Y1231D02*
X86Y1231D01*
X104Y1231D02*
X111Y1231D01*
X279Y1231D02*
X283Y1231D01*
X423Y1231D02*
X427Y1231D01*
X620Y1231D02*
X627Y1231D01*
X686Y1231D02*
X693Y1231D01*
X695Y1231D02*
X710Y1231D01*
X0Y1230D02*
X16Y1230D01*
X79Y1230D02*
X86Y1230D01*
X104Y1230D02*
X111Y1230D01*
X278Y1230D02*
X284Y1230D01*
X422Y1230D02*
X428Y1230D01*
X620Y1230D02*
X627Y1230D01*
X685Y1230D02*
X693Y1230D01*
X695Y1230D02*
X710Y1230D01*
X0Y1229D02*
X7Y1229D01*
X9Y1229D02*
X16Y1229D01*
X79Y1229D02*
X86Y1229D01*
X104Y1229D02*
X111Y1229D01*
X277Y1229D02*
X284Y1229D01*
X422Y1229D02*
X429Y1229D01*
X620Y1229D02*
X627Y1229D01*
X685Y1229D02*
X692Y1229D01*
X695Y1229D02*
X710Y1229D01*
X0Y1228D02*
X7Y1228D01*
X9Y1228D02*
X16Y1228D01*
X79Y1228D02*
X86Y1228D01*
X104Y1228D02*
X111Y1228D01*
X277Y1228D02*
X285Y1228D01*
X421Y1228D02*
X429Y1228D01*
X620Y1228D02*
X627Y1228D01*
X685Y1228D02*
X692Y1228D01*
X695Y1228D02*
X710Y1228D01*
X0Y1227D02*
X7Y1227D01*
X9Y1227D02*
X17Y1227D01*
X79Y1227D02*
X86Y1227D01*
X104Y1227D02*
X111Y1227D01*
X278Y1227D02*
X285Y1227D01*
X421Y1227D02*
X429Y1227D01*
X620Y1227D02*
X627Y1227D01*
X684Y1227D02*
X692Y1227D01*
X695Y1227D02*
X710Y1227D01*
X0Y1226D02*
X7Y1226D01*
X10Y1226D02*
X17Y1226D01*
X79Y1226D02*
X86Y1226D01*
X104Y1226D02*
X111Y1226D01*
X278Y1226D02*
X286Y1226D01*
X420Y1226D02*
X428Y1226D01*
X620Y1226D02*
X627Y1226D01*
X684Y1226D02*
X691Y1226D01*
X695Y1226D02*
X710Y1226D01*
X0Y1225D02*
X7Y1225D01*
X10Y1225D02*
X17Y1225D01*
X79Y1225D02*
X86Y1225D01*
X104Y1225D02*
X111Y1225D01*
X278Y1225D02*
X286Y1225D01*
X420Y1225D02*
X428Y1225D01*
X620Y1225D02*
X627Y1225D01*
X684Y1225D02*
X691Y1225D01*
X695Y1225D02*
X710Y1225D01*
X0Y1224D02*
X7Y1224D01*
X10Y1224D02*
X18Y1224D01*
X79Y1224D02*
X86Y1224D01*
X104Y1224D02*
X111Y1224D01*
X279Y1224D02*
X287Y1224D01*
X419Y1224D02*
X427Y1224D01*
X620Y1224D02*
X627Y1224D01*
X683Y1224D02*
X691Y1224D01*
X695Y1224D02*
X710Y1224D01*
X0Y1223D02*
X7Y1223D01*
X11Y1223D02*
X18Y1223D01*
X79Y1223D02*
X86Y1223D01*
X104Y1223D02*
X111Y1223D01*
X279Y1223D02*
X287Y1223D01*
X419Y1223D02*
X427Y1223D01*
X620Y1223D02*
X627Y1223D01*
X683Y1223D02*
X690Y1223D01*
X695Y1223D02*
X710Y1223D01*
X0Y1222D02*
X7Y1222D01*
X11Y1222D02*
X19Y1222D01*
X79Y1222D02*
X86Y1222D01*
X104Y1222D02*
X111Y1222D01*
X280Y1222D02*
X288Y1222D01*
X418Y1222D02*
X426Y1222D01*
X620Y1222D02*
X627Y1222D01*
X682Y1222D02*
X690Y1222D01*
X695Y1222D02*
X710Y1222D01*
X0Y1221D02*
X7Y1221D01*
X12Y1221D02*
X19Y1221D01*
X79Y1221D02*
X86Y1221D01*
X104Y1221D02*
X111Y1221D01*
X280Y1221D02*
X288Y1221D01*
X418Y1221D02*
X426Y1221D01*
X620Y1221D02*
X627Y1221D01*
X682Y1221D02*
X689Y1221D01*
X695Y1221D02*
X710Y1221D01*
X0Y1220D02*
X7Y1220D01*
X12Y1220D02*
X20Y1220D01*
X79Y1220D02*
X86Y1220D01*
X104Y1220D02*
X111Y1220D01*
X281Y1220D02*
X289Y1220D01*
X417Y1220D02*
X425Y1220D01*
X620Y1220D02*
X627Y1220D01*
X681Y1220D02*
X689Y1220D01*
X695Y1220D02*
X710Y1220D01*
X0Y1219D02*
X7Y1219D01*
X13Y1219D02*
X20Y1219D01*
X79Y1219D02*
X86Y1219D01*
X104Y1219D02*
X111Y1219D01*
X281Y1219D02*
X290Y1219D01*
X416Y1219D02*
X425Y1219D01*
X620Y1219D02*
X627Y1219D01*
X681Y1219D02*
X689Y1219D01*
X695Y1219D02*
X710Y1219D01*
X0Y1218D02*
X7Y1218D01*
X13Y1218D02*
X21Y1218D01*
X79Y1218D02*
X86Y1218D01*
X104Y1218D02*
X111Y1218D01*
X282Y1218D02*
X290Y1218D01*
X416Y1218D02*
X424Y1218D01*
X620Y1218D02*
X627Y1218D01*
X680Y1218D02*
X688Y1218D01*
X695Y1218D02*
X710Y1218D01*
X0Y1217D02*
X7Y1217D01*
X13Y1217D02*
X21Y1217D01*
X79Y1217D02*
X86Y1217D01*
X104Y1217D02*
X111Y1217D01*
X283Y1217D02*
X291Y1217D01*
X415Y1217D02*
X423Y1217D01*
X620Y1217D02*
X627Y1217D01*
X680Y1217D02*
X688Y1217D01*
X695Y1217D02*
X710Y1217D01*
X0Y1216D02*
X7Y1216D01*
X14Y1216D02*
X22Y1216D01*
X79Y1216D02*
X86Y1216D01*
X104Y1216D02*
X111Y1216D01*
X283Y1216D02*
X292Y1216D01*
X414Y1216D02*
X423Y1216D01*
X620Y1216D02*
X627Y1216D01*
X679Y1216D02*
X687Y1216D01*
X695Y1216D02*
X710Y1216D01*
X0Y1215D02*
X7Y1215D01*
X14Y1215D02*
X22Y1215D01*
X79Y1215D02*
X86Y1215D01*
X104Y1215D02*
X111Y1215D01*
X284Y1215D02*
X293Y1215D01*
X414Y1215D02*
X422Y1215D01*
X620Y1215D02*
X627Y1215D01*
X679Y1215D02*
X687Y1215D01*
X695Y1215D02*
X710Y1215D01*
X0Y1214D02*
X7Y1214D01*
X15Y1214D02*
X23Y1214D01*
X79Y1214D02*
X86Y1214D01*
X104Y1214D02*
X111Y1214D01*
X285Y1214D02*
X293Y1214D01*
X413Y1214D02*
X422Y1214D01*
X620Y1214D02*
X627Y1214D01*
X678Y1214D02*
X686Y1214D01*
X695Y1214D02*
X710Y1214D01*
X0Y1213D02*
X7Y1213D01*
X15Y1213D02*
X23Y1213D01*
X79Y1213D02*
X86Y1213D01*
X104Y1213D02*
X111Y1213D01*
X285Y1213D02*
X294Y1213D01*
X412Y1213D02*
X421Y1213D01*
X620Y1213D02*
X627Y1213D01*
X678Y1213D02*
X686Y1213D01*
X695Y1213D02*
X710Y1213D01*
X0Y1212D02*
X7Y1212D01*
X16Y1212D02*
X24Y1212D01*
X79Y1212D02*
X86Y1212D01*
X104Y1212D02*
X111Y1212D01*
X286Y1212D02*
X295Y1212D01*
X411Y1212D02*
X420Y1212D01*
X620Y1212D02*
X627Y1212D01*
X677Y1212D02*
X685Y1212D01*
X695Y1212D02*
X710Y1212D01*
X0Y1211D02*
X7Y1211D01*
X17Y1211D02*
X25Y1211D01*
X79Y1211D02*
X86Y1211D01*
X104Y1211D02*
X111Y1211D01*
X287Y1211D02*
X296Y1211D01*
X410Y1211D02*
X420Y1211D01*
X620Y1211D02*
X627Y1211D01*
X676Y1211D02*
X685Y1211D01*
X695Y1211D02*
X710Y1211D01*
X0Y1210D02*
X7Y1210D01*
X17Y1210D02*
X25Y1210D01*
X79Y1210D02*
X86Y1210D01*
X104Y1210D02*
X111Y1210D01*
X287Y1210D02*
X297Y1210D01*
X410Y1210D02*
X419Y1210D01*
X620Y1210D02*
X627Y1210D01*
X676Y1210D02*
X684Y1210D01*
X695Y1210D02*
X710Y1210D01*
X0Y1209D02*
X7Y1209D01*
X18Y1209D02*
X26Y1209D01*
X79Y1209D02*
X86Y1209D01*
X104Y1209D02*
X710Y1209D01*
X0Y1208D02*
X7Y1208D01*
X18Y1208D02*
X27Y1208D01*
X79Y1208D02*
X86Y1208D01*
X104Y1208D02*
X710Y1208D01*
X0Y1207D02*
X7Y1207D01*
X19Y1207D02*
X27Y1207D01*
X79Y1207D02*
X86Y1207D01*
X104Y1207D02*
X710Y1207D01*
X0Y1206D02*
X7Y1206D01*
X19Y1206D02*
X28Y1206D01*
X79Y1206D02*
X86Y1206D01*
X104Y1206D02*
X710Y1206D01*
X0Y1205D02*
X7Y1205D01*
X20Y1205D02*
X29Y1205D01*
X79Y1205D02*
X86Y1205D01*
X104Y1205D02*
X710Y1205D01*
X0Y1204D02*
X7Y1204D01*
X21Y1204D02*
X29Y1204D01*
X79Y1204D02*
X86Y1204D01*
X104Y1204D02*
X710Y1204D01*
X0Y1203D02*
X7Y1203D01*
X21Y1203D02*
X30Y1203D01*
X79Y1203D02*
X86Y1203D01*
X104Y1203D02*
X710Y1203D01*
X0Y1202D02*
X7Y1202D01*
X22Y1202D02*
X31Y1202D01*
X79Y1202D02*
X86Y1202D01*
X104Y1202D02*
X710Y1202D01*
X0Y1201D02*
X7Y1201D01*
X23Y1201D02*
X32Y1201D01*
X79Y1201D02*
X86Y1201D01*
X104Y1201D02*
X111Y1201D01*
X295Y1201D02*
X306Y1201D01*
X400Y1201D02*
X411Y1201D01*
X620Y1201D02*
X627Y1201D01*
X669Y1201D02*
X678Y1201D01*
X695Y1201D02*
X710Y1201D01*
X0Y1200D02*
X7Y1200D01*
X24Y1200D02*
X33Y1200D01*
X79Y1200D02*
X86Y1200D01*
X104Y1200D02*
X111Y1200D01*
X296Y1200D02*
X307Y1200D01*
X399Y1200D02*
X410Y1200D01*
X620Y1200D02*
X627Y1200D01*
X668Y1200D02*
X678Y1200D01*
X695Y1200D02*
X710Y1200D01*
X0Y1199D02*
X7Y1199D01*
X24Y1199D02*
X34Y1199D01*
X79Y1199D02*
X86Y1199D01*
X104Y1199D02*
X111Y1199D01*
X297Y1199D02*
X309Y1199D01*
X398Y1199D02*
X409Y1199D01*
X620Y1199D02*
X627Y1199D01*
X668Y1199D02*
X677Y1199D01*
X695Y1199D02*
X710Y1199D01*
X0Y1198D02*
X7Y1198D01*
X25Y1198D02*
X34Y1198D01*
X79Y1198D02*
X86Y1198D01*
X104Y1198D02*
X111Y1198D01*
X298Y1198D02*
X310Y1198D01*
X396Y1198D02*
X408Y1198D01*
X620Y1198D02*
X627Y1198D01*
X667Y1198D02*
X676Y1198D01*
X695Y1198D02*
X710Y1198D01*
X0Y1197D02*
X7Y1197D01*
X26Y1197D02*
X35Y1197D01*
X79Y1197D02*
X86Y1197D01*
X104Y1197D02*
X111Y1197D01*
X299Y1197D02*
X311Y1197D01*
X395Y1197D02*
X407Y1197D01*
X620Y1197D02*
X627Y1197D01*
X666Y1197D02*
X675Y1197D01*
X695Y1197D02*
X710Y1197D01*
X0Y1196D02*
X7Y1196D01*
X27Y1196D02*
X36Y1196D01*
X79Y1196D02*
X86Y1196D01*
X104Y1196D02*
X111Y1196D01*
X300Y1196D02*
X313Y1196D01*
X393Y1196D02*
X406Y1196D01*
X620Y1196D02*
X627Y1196D01*
X665Y1196D02*
X675Y1196D01*
X695Y1196D02*
X710Y1196D01*
X0Y1195D02*
X7Y1195D01*
X27Y1195D02*
X37Y1195D01*
X79Y1195D02*
X86Y1195D01*
X104Y1195D02*
X111Y1195D01*
X302Y1195D02*
X315Y1195D01*
X392Y1195D02*
X404Y1195D01*
X620Y1195D02*
X627Y1195D01*
X664Y1195D02*
X674Y1195D01*
X695Y1195D02*
X710Y1195D01*
X0Y1194D02*
X7Y1194D01*
X28Y1194D02*
X38Y1194D01*
X79Y1194D02*
X86Y1194D01*
X104Y1194D02*
X111Y1194D01*
X303Y1194D02*
X316Y1194D01*
X390Y1194D02*
X403Y1194D01*
X620Y1194D02*
X627Y1194D01*
X663Y1194D02*
X673Y1194D01*
X695Y1194D02*
X710Y1194D01*
X0Y1193D02*
X7Y1193D01*
X29Y1193D02*
X39Y1193D01*
X79Y1193D02*
X86Y1193D01*
X104Y1193D02*
X111Y1193D01*
X304Y1193D02*
X318Y1193D01*
X388Y1193D02*
X402Y1193D01*
X620Y1193D02*
X627Y1193D01*
X662Y1193D02*
X672Y1193D01*
X695Y1193D02*
X710Y1193D01*
X0Y1192D02*
X7Y1192D01*
X30Y1192D02*
X40Y1192D01*
X79Y1192D02*
X86Y1192D01*
X104Y1192D02*
X111Y1192D01*
X306Y1192D02*
X320Y1192D01*
X386Y1192D02*
X400Y1192D01*
X620Y1192D02*
X627Y1192D01*
X661Y1192D02*
X671Y1192D01*
X695Y1192D02*
X710Y1192D01*
X0Y1191D02*
X7Y1191D01*
X31Y1191D02*
X41Y1191D01*
X79Y1191D02*
X86Y1191D01*
X104Y1191D02*
X111Y1191D01*
X307Y1191D02*
X322Y1191D01*
X384Y1191D02*
X399Y1191D01*
X620Y1191D02*
X627Y1191D01*
X660Y1191D02*
X670Y1191D01*
X695Y1191D02*
X710Y1191D01*
X0Y1190D02*
X7Y1190D01*
X32Y1190D02*
X43Y1190D01*
X79Y1190D02*
X86Y1190D01*
X104Y1190D02*
X111Y1190D01*
X309Y1190D02*
X324Y1190D01*
X382Y1190D02*
X398Y1190D01*
X620Y1190D02*
X627Y1190D01*
X659Y1190D02*
X669Y1190D01*
X695Y1190D02*
X710Y1190D01*
X0Y1189D02*
X7Y1189D01*
X33Y1189D02*
X44Y1189D01*
X79Y1189D02*
X86Y1189D01*
X104Y1189D02*
X111Y1189D01*
X310Y1189D02*
X327Y1189D01*
X379Y1189D02*
X396Y1189D01*
X620Y1189D02*
X627Y1189D01*
X657Y1189D02*
X668Y1189D01*
X695Y1189D02*
X710Y1189D01*
X0Y1188D02*
X7Y1188D01*
X34Y1188D02*
X45Y1188D01*
X79Y1188D02*
X86Y1188D01*
X104Y1188D02*
X111Y1188D01*
X312Y1188D02*
X330Y1188D01*
X376Y1188D02*
X394Y1188D01*
X620Y1188D02*
X627Y1188D01*
X656Y1188D02*
X667Y1188D01*
X695Y1188D02*
X710Y1188D01*
X0Y1187D02*
X7Y1187D01*
X35Y1187D02*
X46Y1187D01*
X79Y1187D02*
X86Y1187D01*
X104Y1187D02*
X111Y1187D01*
X314Y1187D02*
X334Y1187D01*
X372Y1187D02*
X393Y1187D01*
X620Y1187D02*
X627Y1187D01*
X655Y1187D02*
X666Y1187D01*
X695Y1187D02*
X710Y1187D01*
X0Y1186D02*
X7Y1186D01*
X36Y1186D02*
X47Y1186D01*
X79Y1186D02*
X86Y1186D01*
X104Y1186D02*
X111Y1186D01*
X315Y1186D02*
X338Y1186D01*
X368Y1186D02*
X391Y1186D01*
X620Y1186D02*
X627Y1186D01*
X654Y1186D02*
X665Y1186D01*
X695Y1186D02*
X710Y1186D01*
X0Y1185D02*
X7Y1185D01*
X37Y1185D02*
X49Y1185D01*
X79Y1185D02*
X86Y1185D01*
X104Y1185D02*
X111Y1185D01*
X318Y1185D02*
X344Y1185D01*
X362Y1185D02*
X389Y1185D01*
X620Y1185D02*
X627Y1185D01*
X652Y1185D02*
X664Y1185D01*
X695Y1185D02*
X710Y1185D01*
X0Y1184D02*
X7Y1184D01*
X38Y1184D02*
X50Y1184D01*
X79Y1184D02*
X86Y1184D01*
X104Y1184D02*
X111Y1184D01*
X320Y1184D02*
X386Y1184D01*
X620Y1184D02*
X627Y1184D01*
X651Y1184D02*
X663Y1184D01*
X695Y1184D02*
X710Y1184D01*
X0Y1183D02*
X7Y1183D01*
X39Y1183D02*
X51Y1183D01*
X79Y1183D02*
X86Y1183D01*
X104Y1183D02*
X111Y1183D01*
X322Y1183D02*
X384Y1183D01*
X620Y1183D02*
X627Y1183D01*
X650Y1183D02*
X662Y1183D01*
X695Y1183D02*
X710Y1183D01*
X0Y1182D02*
X7Y1182D01*
X40Y1182D02*
X53Y1182D01*
X79Y1182D02*
X86Y1182D01*
X104Y1182D02*
X111Y1182D01*
X325Y1182D02*
X382Y1182D01*
X620Y1182D02*
X627Y1182D01*
X648Y1182D02*
X661Y1182D01*
X695Y1182D02*
X710Y1182D01*
X0Y1181D02*
X7Y1181D01*
X42Y1181D02*
X55Y1181D01*
X79Y1181D02*
X86Y1181D01*
X104Y1181D02*
X111Y1181D01*
X327Y1181D02*
X379Y1181D01*
X620Y1181D02*
X627Y1181D01*
X646Y1181D02*
X659Y1181D01*
X695Y1181D02*
X710Y1181D01*
X0Y1180D02*
X7Y1180D01*
X43Y1180D02*
X56Y1180D01*
X79Y1180D02*
X86Y1180D01*
X104Y1180D02*
X111Y1180D01*
X330Y1180D02*
X376Y1180D01*
X620Y1180D02*
X627Y1180D01*
X645Y1180D02*
X658Y1180D01*
X695Y1180D02*
X710Y1180D01*
X0Y1179D02*
X7Y1179D01*
X45Y1179D02*
X58Y1179D01*
X79Y1179D02*
X86Y1179D01*
X104Y1179D02*
X111Y1179D01*
X334Y1179D02*
X372Y1179D01*
X620Y1179D02*
X627Y1179D01*
X643Y1179D02*
X657Y1179D01*
X695Y1179D02*
X710Y1179D01*
X0Y1178D02*
X7Y1178D01*
X46Y1178D02*
X60Y1178D01*
X79Y1178D02*
X86Y1178D01*
X104Y1178D02*
X111Y1178D01*
X339Y1178D02*
X367Y1178D01*
X620Y1178D02*
X627Y1178D01*
X641Y1178D02*
X655Y1178D01*
X695Y1178D02*
X710Y1178D01*
X0Y1177D02*
X7Y1177D01*
X47Y1177D02*
X62Y1177D01*
X79Y1177D02*
X86Y1177D01*
X104Y1177D02*
X111Y1177D01*
X345Y1177D02*
X361Y1177D01*
X620Y1177D02*
X627Y1177D01*
X639Y1177D02*
X654Y1177D01*
X695Y1177D02*
X710Y1177D01*
X0Y1176D02*
X7Y1176D01*
X49Y1176D02*
X64Y1176D01*
X79Y1176D02*
X86Y1176D01*
X104Y1176D02*
X111Y1176D01*
X620Y1176D02*
X627Y1176D01*
X637Y1176D02*
X652Y1176D01*
X695Y1176D02*
X710Y1176D01*
X0Y1175D02*
X7Y1175D01*
X50Y1175D02*
X66Y1175D01*
X79Y1175D02*
X86Y1175D01*
X104Y1175D02*
X111Y1175D01*
X620Y1175D02*
X627Y1175D01*
X635Y1175D02*
X651Y1175D01*
X695Y1175D02*
X710Y1175D01*
X0Y1174D02*
X7Y1174D01*
X52Y1174D02*
X68Y1174D01*
X79Y1174D02*
X86Y1174D01*
X104Y1174D02*
X111Y1174D01*
X620Y1174D02*
X627Y1174D01*
X633Y1174D02*
X649Y1174D01*
X695Y1174D02*
X710Y1174D01*
X0Y1173D02*
X7Y1173D01*
X54Y1173D02*
X71Y1173D01*
X79Y1173D02*
X86Y1173D01*
X104Y1173D02*
X111Y1173D01*
X620Y1173D02*
X627Y1173D01*
X630Y1173D02*
X647Y1173D01*
X695Y1173D02*
X710Y1173D01*
X0Y1172D02*
X7Y1172D01*
X55Y1172D02*
X74Y1172D01*
X79Y1172D02*
X86Y1172D01*
X104Y1172D02*
X111Y1172D01*
X620Y1172D02*
X646Y1172D01*
X695Y1172D02*
X710Y1172D01*
X0Y1171D02*
X7Y1171D01*
X57Y1171D02*
X77Y1171D01*
X79Y1171D02*
X86Y1171D01*
X104Y1171D02*
X111Y1171D01*
X620Y1171D02*
X644Y1171D01*
X695Y1171D02*
X710Y1171D01*
X0Y1170D02*
X7Y1170D01*
X59Y1170D02*
X86Y1170D01*
X104Y1170D02*
X111Y1170D01*
X620Y1170D02*
X642Y1170D01*
X695Y1170D02*
X710Y1170D01*
X0Y1169D02*
X7Y1169D01*
X61Y1169D02*
X86Y1169D01*
X104Y1169D02*
X111Y1169D01*
X616Y1169D02*
X640Y1169D01*
X695Y1169D02*
X710Y1169D01*
X0Y1168D02*
X7Y1168D01*
X63Y1168D02*
X91Y1168D01*
X104Y1168D02*
X111Y1168D01*
X610Y1168D02*
X638Y1168D01*
X695Y1168D02*
X710Y1168D01*
X0Y1167D02*
X7Y1167D01*
X66Y1167D02*
X636Y1167D01*
X695Y1167D02*
X710Y1167D01*
X0Y1166D02*
X7Y1166D01*
X68Y1166D02*
X633Y1166D01*
X695Y1166D02*
X710Y1166D01*
X0Y1165D02*
X7Y1165D01*
X71Y1165D02*
X630Y1165D01*
X695Y1165D02*
X710Y1165D01*
X0Y1164D02*
X7Y1164D01*
X74Y1164D02*
X627Y1164D01*
X695Y1164D02*
X710Y1164D01*
X0Y1163D02*
X7Y1163D01*
X77Y1163D02*
X627Y1163D01*
X695Y1163D02*
X710Y1163D01*
X0Y1162D02*
X7Y1162D01*
X79Y1162D02*
X627Y1162D01*
X695Y1162D02*
X710Y1162D01*
X0Y1161D02*
X7Y1161D01*
X79Y1161D02*
X615Y1161D01*
X620Y1161D02*
X627Y1161D01*
X695Y1161D02*
X710Y1161D01*
X0Y1160D02*
X7Y1160D01*
X79Y1160D02*
X86Y1160D01*
X92Y1160D02*
X609Y1160D01*
X620Y1160D02*
X627Y1160D01*
X695Y1160D02*
X710Y1160D01*
X0Y1159D02*
X7Y1159D01*
X79Y1159D02*
X86Y1159D01*
X104Y1159D02*
X111Y1159D01*
X620Y1159D02*
X627Y1159D01*
X695Y1159D02*
X710Y1159D01*
X0Y1158D02*
X7Y1158D01*
X79Y1158D02*
X86Y1158D01*
X104Y1158D02*
X111Y1158D01*
X620Y1158D02*
X627Y1158D01*
X695Y1158D02*
X710Y1158D01*
X0Y1157D02*
X7Y1157D01*
X79Y1157D02*
X86Y1157D01*
X104Y1157D02*
X111Y1157D01*
X620Y1157D02*
X627Y1157D01*
X695Y1157D02*
X710Y1157D01*
X0Y1156D02*
X7Y1156D01*
X79Y1156D02*
X86Y1156D01*
X104Y1156D02*
X111Y1156D01*
X620Y1156D02*
X627Y1156D01*
X695Y1156D02*
X710Y1156D01*
X0Y1155D02*
X7Y1155D01*
X79Y1155D02*
X86Y1155D01*
X104Y1155D02*
X111Y1155D01*
X620Y1155D02*
X627Y1155D01*
X695Y1155D02*
X710Y1155D01*
X0Y1154D02*
X7Y1154D01*
X79Y1154D02*
X86Y1154D01*
X104Y1154D02*
X111Y1154D01*
X620Y1154D02*
X627Y1154D01*
X695Y1154D02*
X710Y1154D01*
X0Y1153D02*
X7Y1153D01*
X79Y1153D02*
X86Y1153D01*
X104Y1153D02*
X111Y1153D01*
X620Y1153D02*
X627Y1153D01*
X695Y1153D02*
X710Y1153D01*
X0Y1152D02*
X7Y1152D01*
X79Y1152D02*
X86Y1152D01*
X104Y1152D02*
X111Y1152D01*
X620Y1152D02*
X627Y1152D01*
X695Y1152D02*
X710Y1152D01*
X0Y1151D02*
X7Y1151D01*
X79Y1151D02*
X86Y1151D01*
X104Y1151D02*
X111Y1151D01*
X620Y1151D02*
X627Y1151D01*
X695Y1151D02*
X710Y1151D01*
X0Y1150D02*
X7Y1150D01*
X79Y1150D02*
X86Y1150D01*
X104Y1150D02*
X111Y1150D01*
X620Y1150D02*
X627Y1150D01*
X695Y1150D02*
X710Y1150D01*
X0Y1149D02*
X7Y1149D01*
X79Y1149D02*
X86Y1149D01*
X104Y1149D02*
X111Y1149D01*
X620Y1149D02*
X627Y1149D01*
X695Y1149D02*
X710Y1149D01*
X0Y1148D02*
X7Y1148D01*
X79Y1148D02*
X86Y1148D01*
X104Y1148D02*
X111Y1148D01*
X620Y1148D02*
X627Y1148D01*
X695Y1148D02*
X710Y1148D01*
X0Y1147D02*
X7Y1147D01*
X79Y1147D02*
X86Y1147D01*
X104Y1147D02*
X111Y1147D01*
X620Y1147D02*
X627Y1147D01*
X695Y1147D02*
X710Y1147D01*
X0Y1146D02*
X7Y1146D01*
X79Y1146D02*
X86Y1146D01*
X104Y1146D02*
X111Y1146D01*
X620Y1146D02*
X627Y1146D01*
X695Y1146D02*
X710Y1146D01*
X0Y1145D02*
X7Y1145D01*
X79Y1145D02*
X86Y1145D01*
X104Y1145D02*
X111Y1145D01*
X620Y1145D02*
X627Y1145D01*
X695Y1145D02*
X710Y1145D01*
X0Y1144D02*
X7Y1144D01*
X79Y1144D02*
X86Y1144D01*
X104Y1144D02*
X111Y1144D01*
X620Y1144D02*
X627Y1144D01*
X695Y1144D02*
X710Y1144D01*
X0Y1143D02*
X7Y1143D01*
X79Y1143D02*
X86Y1143D01*
X104Y1143D02*
X111Y1143D01*
X620Y1143D02*
X627Y1143D01*
X695Y1143D02*
X710Y1143D01*
X0Y1142D02*
X7Y1142D01*
X79Y1142D02*
X86Y1142D01*
X104Y1142D02*
X111Y1142D01*
X620Y1142D02*
X627Y1142D01*
X695Y1142D02*
X710Y1142D01*
X0Y1141D02*
X7Y1141D01*
X79Y1141D02*
X86Y1141D01*
X104Y1141D02*
X111Y1141D01*
X620Y1141D02*
X627Y1141D01*
X695Y1141D02*
X710Y1141D01*
X0Y1140D02*
X7Y1140D01*
X79Y1140D02*
X86Y1140D01*
X104Y1140D02*
X111Y1140D01*
X620Y1140D02*
X627Y1140D01*
X695Y1140D02*
X710Y1140D01*
X0Y1139D02*
X7Y1139D01*
X79Y1139D02*
X86Y1139D01*
X104Y1139D02*
X111Y1139D01*
X620Y1139D02*
X627Y1139D01*
X695Y1139D02*
X710Y1139D01*
X0Y1138D02*
X7Y1138D01*
X79Y1138D02*
X86Y1138D01*
X104Y1138D02*
X111Y1138D01*
X620Y1138D02*
X627Y1138D01*
X695Y1138D02*
X710Y1138D01*
X0Y1137D02*
X7Y1137D01*
X79Y1137D02*
X86Y1137D01*
X104Y1137D02*
X111Y1137D01*
X620Y1137D02*
X627Y1137D01*
X695Y1137D02*
X710Y1137D01*
X0Y1136D02*
X7Y1136D01*
X79Y1136D02*
X86Y1136D01*
X104Y1136D02*
X111Y1136D01*
X620Y1136D02*
X627Y1136D01*
X695Y1136D02*
X710Y1136D01*
X0Y1135D02*
X7Y1135D01*
X79Y1135D02*
X86Y1135D01*
X104Y1135D02*
X111Y1135D01*
X620Y1135D02*
X627Y1135D01*
X695Y1135D02*
X710Y1135D01*
X0Y1134D02*
X7Y1134D01*
X79Y1134D02*
X86Y1134D01*
X104Y1134D02*
X111Y1134D01*
X620Y1134D02*
X627Y1134D01*
X695Y1134D02*
X710Y1134D01*
X0Y1133D02*
X7Y1133D01*
X79Y1133D02*
X86Y1133D01*
X104Y1133D02*
X111Y1133D01*
X620Y1133D02*
X627Y1133D01*
X695Y1133D02*
X710Y1133D01*
X0Y1132D02*
X7Y1132D01*
X79Y1132D02*
X86Y1132D01*
X104Y1132D02*
X111Y1132D01*
X620Y1132D02*
X627Y1132D01*
X695Y1132D02*
X710Y1132D01*
X0Y1131D02*
X7Y1131D01*
X79Y1131D02*
X86Y1131D01*
X104Y1131D02*
X111Y1131D01*
X620Y1131D02*
X627Y1131D01*
X695Y1131D02*
X710Y1131D01*
X0Y1130D02*
X7Y1130D01*
X79Y1130D02*
X86Y1130D01*
X104Y1130D02*
X111Y1130D01*
X620Y1130D02*
X627Y1130D01*
X695Y1130D02*
X710Y1130D01*
X0Y1129D02*
X7Y1129D01*
X79Y1129D02*
X86Y1129D01*
X104Y1129D02*
X111Y1129D01*
X620Y1129D02*
X627Y1129D01*
X695Y1129D02*
X710Y1129D01*
X0Y1128D02*
X7Y1128D01*
X79Y1128D02*
X86Y1128D01*
X104Y1128D02*
X111Y1128D01*
X620Y1128D02*
X627Y1128D01*
X695Y1128D02*
X710Y1128D01*
X0Y1127D02*
X7Y1127D01*
X79Y1127D02*
X86Y1127D01*
X104Y1127D02*
X111Y1127D01*
X620Y1127D02*
X627Y1127D01*
X695Y1127D02*
X710Y1127D01*
X0Y1126D02*
X7Y1126D01*
X79Y1126D02*
X86Y1126D01*
X104Y1126D02*
X111Y1126D01*
X620Y1126D02*
X627Y1126D01*
X695Y1126D02*
X710Y1126D01*
X0Y1125D02*
X7Y1125D01*
X79Y1125D02*
X86Y1125D01*
X104Y1125D02*
X111Y1125D01*
X620Y1125D02*
X627Y1125D01*
X695Y1125D02*
X710Y1125D01*
X0Y1124D02*
X7Y1124D01*
X79Y1124D02*
X86Y1124D01*
X104Y1124D02*
X111Y1124D01*
X620Y1124D02*
X627Y1124D01*
X695Y1124D02*
X710Y1124D01*
X0Y1123D02*
X7Y1123D01*
X79Y1123D02*
X86Y1123D01*
X104Y1123D02*
X111Y1123D01*
X620Y1123D02*
X627Y1123D01*
X695Y1123D02*
X710Y1123D01*
X0Y1122D02*
X7Y1122D01*
X79Y1122D02*
X86Y1122D01*
X104Y1122D02*
X111Y1122D01*
X620Y1122D02*
X627Y1122D01*
X695Y1122D02*
X710Y1122D01*
X0Y1121D02*
X7Y1121D01*
X79Y1121D02*
X86Y1121D01*
X104Y1121D02*
X111Y1121D01*
X620Y1121D02*
X627Y1121D01*
X695Y1121D02*
X710Y1121D01*
X0Y1120D02*
X7Y1120D01*
X79Y1120D02*
X86Y1120D01*
X104Y1120D02*
X111Y1120D01*
X620Y1120D02*
X627Y1120D01*
X695Y1120D02*
X710Y1120D01*
X0Y1119D02*
X7Y1119D01*
X79Y1119D02*
X86Y1119D01*
X104Y1119D02*
X111Y1119D01*
X620Y1119D02*
X627Y1119D01*
X695Y1119D02*
X710Y1119D01*
X0Y1118D02*
X7Y1118D01*
X79Y1118D02*
X86Y1118D01*
X104Y1118D02*
X111Y1118D01*
X620Y1118D02*
X627Y1118D01*
X695Y1118D02*
X710Y1118D01*
X0Y1117D02*
X7Y1117D01*
X79Y1117D02*
X86Y1117D01*
X104Y1117D02*
X111Y1117D01*
X620Y1117D02*
X627Y1117D01*
X695Y1117D02*
X710Y1117D01*
X0Y1116D02*
X7Y1116D01*
X79Y1116D02*
X86Y1116D01*
X104Y1116D02*
X111Y1116D01*
X620Y1116D02*
X627Y1116D01*
X695Y1116D02*
X710Y1116D01*
X0Y1115D02*
X7Y1115D01*
X79Y1115D02*
X86Y1115D01*
X104Y1115D02*
X111Y1115D01*
X620Y1115D02*
X627Y1115D01*
X695Y1115D02*
X710Y1115D01*
X0Y1114D02*
X7Y1114D01*
X79Y1114D02*
X86Y1114D01*
X104Y1114D02*
X111Y1114D01*
X620Y1114D02*
X627Y1114D01*
X695Y1114D02*
X710Y1114D01*
X0Y1113D02*
X7Y1113D01*
X79Y1113D02*
X86Y1113D01*
X104Y1113D02*
X111Y1113D01*
X227Y1113D02*
X229Y1113D01*
X277Y1113D02*
X279Y1113D01*
X620Y1113D02*
X627Y1113D01*
X695Y1113D02*
X710Y1113D01*
X0Y1112D02*
X7Y1112D01*
X79Y1112D02*
X86Y1112D01*
X104Y1112D02*
X111Y1112D01*
X226Y1112D02*
X231Y1112D01*
X276Y1112D02*
X281Y1112D01*
X620Y1112D02*
X627Y1112D01*
X695Y1112D02*
X710Y1112D01*
X0Y1111D02*
X7Y1111D01*
X79Y1111D02*
X86Y1111D01*
X104Y1111D02*
X111Y1111D01*
X225Y1111D02*
X231Y1111D01*
X275Y1111D02*
X282Y1111D01*
X620Y1111D02*
X627Y1111D01*
X695Y1111D02*
X710Y1111D01*
X0Y1110D02*
X7Y1110D01*
X79Y1110D02*
X86Y1110D01*
X104Y1110D02*
X111Y1110D01*
X224Y1110D02*
X232Y1110D01*
X275Y1110D02*
X283Y1110D01*
X620Y1110D02*
X627Y1110D01*
X695Y1110D02*
X710Y1110D01*
X0Y1109D02*
X7Y1109D01*
X79Y1109D02*
X86Y1109D01*
X104Y1109D02*
X111Y1109D01*
X223Y1109D02*
X232Y1109D01*
X275Y1109D02*
X284Y1109D01*
X620Y1109D02*
X627Y1109D01*
X695Y1109D02*
X710Y1109D01*
X0Y1108D02*
X7Y1108D01*
X79Y1108D02*
X86Y1108D01*
X104Y1108D02*
X111Y1108D01*
X222Y1108D02*
X231Y1108D01*
X275Y1108D02*
X285Y1108D01*
X620Y1108D02*
X627Y1108D01*
X695Y1108D02*
X710Y1108D01*
X0Y1107D02*
X7Y1107D01*
X79Y1107D02*
X86Y1107D01*
X104Y1107D02*
X111Y1107D01*
X221Y1107D02*
X231Y1107D01*
X275Y1107D02*
X286Y1107D01*
X620Y1107D02*
X627Y1107D01*
X695Y1107D02*
X710Y1107D01*
X0Y1106D02*
X7Y1106D01*
X79Y1106D02*
X86Y1106D01*
X104Y1106D02*
X111Y1106D01*
X220Y1106D02*
X230Y1106D01*
X276Y1106D02*
X287Y1106D01*
X620Y1106D02*
X627Y1106D01*
X695Y1106D02*
X710Y1106D01*
X0Y1105D02*
X7Y1105D01*
X79Y1105D02*
X86Y1105D01*
X104Y1105D02*
X111Y1105D01*
X219Y1105D02*
X229Y1105D01*
X277Y1105D02*
X288Y1105D01*
X620Y1105D02*
X627Y1105D01*
X695Y1105D02*
X710Y1105D01*
X0Y1104D02*
X7Y1104D01*
X79Y1104D02*
X86Y1104D01*
X104Y1104D02*
X111Y1104D01*
X218Y1104D02*
X228Y1104D01*
X278Y1104D02*
X289Y1104D01*
X620Y1104D02*
X627Y1104D01*
X695Y1104D02*
X710Y1104D01*
X0Y1103D02*
X7Y1103D01*
X79Y1103D02*
X86Y1103D01*
X104Y1103D02*
X111Y1103D01*
X217Y1103D02*
X227Y1103D01*
X279Y1103D02*
X290Y1103D01*
X620Y1103D02*
X627Y1103D01*
X695Y1103D02*
X710Y1103D01*
X0Y1102D02*
X7Y1102D01*
X79Y1102D02*
X86Y1102D01*
X104Y1102D02*
X111Y1102D01*
X216Y1102D02*
X226Y1102D01*
X280Y1102D02*
X291Y1102D01*
X620Y1102D02*
X627Y1102D01*
X695Y1102D02*
X710Y1102D01*
X0Y1101D02*
X7Y1101D01*
X79Y1101D02*
X86Y1101D01*
X104Y1101D02*
X111Y1101D01*
X620Y1101D02*
X627Y1101D01*
X695Y1101D02*
X710Y1101D01*
X0Y1100D02*
X7Y1100D01*
X79Y1100D02*
X86Y1100D01*
X104Y1100D02*
X111Y1100D01*
X620Y1100D02*
X627Y1100D01*
X695Y1100D02*
X710Y1100D01*
X0Y1099D02*
X7Y1099D01*
X79Y1099D02*
X86Y1099D01*
X104Y1099D02*
X111Y1099D01*
X620Y1099D02*
X627Y1099D01*
X695Y1099D02*
X710Y1099D01*
X0Y1098D02*
X7Y1098D01*
X79Y1098D02*
X86Y1098D01*
X104Y1098D02*
X111Y1098D01*
X620Y1098D02*
X627Y1098D01*
X695Y1098D02*
X710Y1098D01*
X0Y1097D02*
X7Y1097D01*
X79Y1097D02*
X86Y1097D01*
X104Y1097D02*
X111Y1097D01*
X211Y1097D02*
X211Y1097D01*
X296Y1097D02*
X296Y1097D01*
X620Y1097D02*
X627Y1097D01*
X695Y1097D02*
X710Y1097D01*
X0Y1096D02*
X7Y1096D01*
X79Y1096D02*
X86Y1096D01*
X104Y1096D02*
X111Y1096D01*
X210Y1096D02*
X211Y1096D01*
X296Y1096D02*
X297Y1096D01*
X620Y1096D02*
X627Y1096D01*
X695Y1096D02*
X710Y1096D01*
X0Y1095D02*
X7Y1095D01*
X79Y1095D02*
X86Y1095D01*
X104Y1095D02*
X111Y1095D01*
X209Y1095D02*
X211Y1095D01*
X296Y1095D02*
X298Y1095D01*
X620Y1095D02*
X627Y1095D01*
X695Y1095D02*
X710Y1095D01*
X0Y1094D02*
X7Y1094D01*
X79Y1094D02*
X86Y1094D01*
X104Y1094D02*
X111Y1094D01*
X208Y1094D02*
X211Y1094D01*
X296Y1094D02*
X299Y1094D01*
X620Y1094D02*
X627Y1094D01*
X695Y1094D02*
X710Y1094D01*
X0Y1093D02*
X7Y1093D01*
X79Y1093D02*
X86Y1093D01*
X104Y1093D02*
X111Y1093D01*
X207Y1093D02*
X211Y1093D01*
X296Y1093D02*
X300Y1093D01*
X620Y1093D02*
X627Y1093D01*
X695Y1093D02*
X710Y1093D01*
X0Y1092D02*
X7Y1092D01*
X79Y1092D02*
X86Y1092D01*
X104Y1092D02*
X111Y1092D01*
X206Y1092D02*
X211Y1092D01*
X296Y1092D02*
X301Y1092D01*
X620Y1092D02*
X627Y1092D01*
X695Y1092D02*
X710Y1092D01*
X0Y1091D02*
X7Y1091D01*
X79Y1091D02*
X86Y1091D01*
X104Y1091D02*
X111Y1091D01*
X205Y1091D02*
X211Y1091D01*
X296Y1091D02*
X302Y1091D01*
X620Y1091D02*
X627Y1091D01*
X695Y1091D02*
X710Y1091D01*
X0Y1090D02*
X7Y1090D01*
X79Y1090D02*
X86Y1090D01*
X104Y1090D02*
X111Y1090D01*
X204Y1090D02*
X211Y1090D01*
X296Y1090D02*
X303Y1090D01*
X620Y1090D02*
X627Y1090D01*
X695Y1090D02*
X710Y1090D01*
X0Y1089D02*
X7Y1089D01*
X79Y1089D02*
X86Y1089D01*
X104Y1089D02*
X111Y1089D01*
X203Y1089D02*
X211Y1089D01*
X296Y1089D02*
X304Y1089D01*
X620Y1089D02*
X627Y1089D01*
X0Y1088D02*
X7Y1088D01*
X79Y1088D02*
X86Y1088D01*
X104Y1088D02*
X111Y1088D01*
X202Y1088D02*
X211Y1088D01*
X296Y1088D02*
X305Y1088D01*
X620Y1088D02*
X627Y1088D01*
X0Y1087D02*
X7Y1087D01*
X79Y1087D02*
X86Y1087D01*
X104Y1087D02*
X111Y1087D01*
X201Y1087D02*
X211Y1087D01*
X296Y1087D02*
X306Y1087D01*
X620Y1087D02*
X627Y1087D01*
X0Y1086D02*
X7Y1086D01*
X79Y1086D02*
X86Y1086D01*
X104Y1086D02*
X111Y1086D01*
X200Y1086D02*
X210Y1086D01*
X296Y1086D02*
X306Y1086D01*
X620Y1086D02*
X627Y1086D01*
X0Y1085D02*
X7Y1085D01*
X79Y1085D02*
X86Y1085D01*
X104Y1085D02*
X111Y1085D01*
X200Y1085D02*
X209Y1085D01*
X297Y1085D02*
X306Y1085D01*
X620Y1085D02*
X627Y1085D01*
X0Y1084D02*
X7Y1084D01*
X79Y1084D02*
X86Y1084D01*
X104Y1084D02*
X111Y1084D01*
X200Y1084D02*
X208Y1084D01*
X298Y1084D02*
X307Y1084D01*
X620Y1084D02*
X627Y1084D01*
X0Y1083D02*
X7Y1083D01*
X79Y1083D02*
X86Y1083D01*
X104Y1083D02*
X111Y1083D01*
X200Y1083D02*
X207Y1083D01*
X299Y1083D02*
X306Y1083D01*
X620Y1083D02*
X627Y1083D01*
X0Y1082D02*
X7Y1082D01*
X79Y1082D02*
X86Y1082D01*
X104Y1082D02*
X111Y1082D01*
X201Y1082D02*
X206Y1082D01*
X300Y1082D02*
X306Y1082D01*
X620Y1082D02*
X627Y1082D01*
X0Y1081D02*
X7Y1081D01*
X79Y1081D02*
X86Y1081D01*
X104Y1081D02*
X111Y1081D01*
X202Y1081D02*
X205Y1081D01*
X302Y1081D02*
X305Y1081D01*
X620Y1081D02*
X627Y1081D01*
X0Y1080D02*
X7Y1080D01*
X79Y1080D02*
X86Y1080D01*
X104Y1080D02*
X111Y1080D01*
X620Y1080D02*
X627Y1080D01*
X0Y1079D02*
X7Y1079D01*
X79Y1079D02*
X86Y1079D01*
X104Y1079D02*
X111Y1079D01*
X620Y1079D02*
X627Y1079D01*
X0Y1078D02*
X7Y1078D01*
X79Y1078D02*
X86Y1078D01*
X104Y1078D02*
X111Y1078D01*
X620Y1078D02*
X627Y1078D01*
X0Y1077D02*
X7Y1077D01*
X79Y1077D02*
X86Y1077D01*
X104Y1077D02*
X111Y1077D01*
X620Y1077D02*
X627Y1077D01*
X0Y1076D02*
X7Y1076D01*
X79Y1076D02*
X86Y1076D01*
X104Y1076D02*
X111Y1076D01*
X620Y1076D02*
X627Y1076D01*
X0Y1075D02*
X7Y1075D01*
X79Y1075D02*
X86Y1075D01*
X104Y1075D02*
X111Y1075D01*
X620Y1075D02*
X627Y1075D01*
X0Y1074D02*
X7Y1074D01*
X79Y1074D02*
X86Y1074D01*
X104Y1074D02*
X111Y1074D01*
X620Y1074D02*
X627Y1074D01*
X0Y1073D02*
X7Y1073D01*
X79Y1073D02*
X86Y1073D01*
X104Y1073D02*
X111Y1073D01*
X620Y1073D02*
X627Y1073D01*
X0Y1072D02*
X7Y1072D01*
X79Y1072D02*
X86Y1072D01*
X104Y1072D02*
X111Y1072D01*
X620Y1072D02*
X627Y1072D01*
X0Y1071D02*
X7Y1071D01*
X79Y1071D02*
X86Y1071D01*
X104Y1071D02*
X111Y1071D01*
X620Y1071D02*
X627Y1071D01*
X0Y1070D02*
X7Y1070D01*
X79Y1070D02*
X86Y1070D01*
X104Y1070D02*
X111Y1070D01*
X620Y1070D02*
X627Y1070D01*
X0Y1069D02*
X7Y1069D01*
X79Y1069D02*
X86Y1069D01*
X104Y1069D02*
X111Y1069D01*
X620Y1069D02*
X627Y1069D01*
X0Y1068D02*
X7Y1068D01*
X79Y1068D02*
X86Y1068D01*
X104Y1068D02*
X111Y1068D01*
X620Y1068D02*
X627Y1068D01*
X0Y1067D02*
X7Y1067D01*
X79Y1067D02*
X86Y1067D01*
X104Y1067D02*
X111Y1067D01*
X620Y1067D02*
X627Y1067D01*
X0Y1066D02*
X7Y1066D01*
X79Y1066D02*
X86Y1066D01*
X104Y1066D02*
X111Y1066D01*
X620Y1066D02*
X627Y1066D01*
X0Y1065D02*
X7Y1065D01*
X79Y1065D02*
X86Y1065D01*
X104Y1065D02*
X111Y1065D01*
X620Y1065D02*
X627Y1065D01*
X0Y1064D02*
X7Y1064D01*
X79Y1064D02*
X86Y1064D01*
X104Y1064D02*
X111Y1064D01*
X620Y1064D02*
X627Y1064D01*
X0Y1063D02*
X7Y1063D01*
X79Y1063D02*
X86Y1063D01*
X104Y1063D02*
X111Y1063D01*
X620Y1063D02*
X627Y1063D01*
X0Y1062D02*
X7Y1062D01*
X79Y1062D02*
X86Y1062D01*
X104Y1062D02*
X111Y1062D01*
X620Y1062D02*
X627Y1062D01*
X0Y1061D02*
X7Y1061D01*
X79Y1061D02*
X86Y1061D01*
X104Y1061D02*
X111Y1061D01*
X620Y1061D02*
X627Y1061D01*
X0Y1060D02*
X7Y1060D01*
X79Y1060D02*
X86Y1060D01*
X104Y1060D02*
X111Y1060D01*
X620Y1060D02*
X627Y1060D01*
X0Y1059D02*
X7Y1059D01*
X79Y1059D02*
X86Y1059D01*
X104Y1059D02*
X111Y1059D01*
X620Y1059D02*
X627Y1059D01*
X0Y1058D02*
X7Y1058D01*
X79Y1058D02*
X86Y1058D01*
X104Y1058D02*
X111Y1058D01*
X620Y1058D02*
X627Y1058D01*
X0Y1057D02*
X7Y1057D01*
X79Y1057D02*
X86Y1057D01*
X104Y1057D02*
X111Y1057D01*
X620Y1057D02*
X627Y1057D01*
X0Y1056D02*
X7Y1056D01*
X79Y1056D02*
X86Y1056D01*
X104Y1056D02*
X111Y1056D01*
X620Y1056D02*
X627Y1056D01*
X0Y1055D02*
X7Y1055D01*
X79Y1055D02*
X86Y1055D01*
X104Y1055D02*
X111Y1055D01*
X620Y1055D02*
X627Y1055D01*
X0Y1054D02*
X7Y1054D01*
X79Y1054D02*
X86Y1054D01*
X104Y1054D02*
X111Y1054D01*
X620Y1054D02*
X627Y1054D01*
X0Y1053D02*
X7Y1053D01*
X79Y1053D02*
X86Y1053D01*
X104Y1053D02*
X111Y1053D01*
X620Y1053D02*
X627Y1053D01*
X0Y1052D02*
X7Y1052D01*
X79Y1052D02*
X86Y1052D01*
X104Y1052D02*
X111Y1052D01*
X620Y1052D02*
X627Y1052D01*
X0Y1051D02*
X7Y1051D01*
X79Y1051D02*
X86Y1051D01*
X104Y1051D02*
X111Y1051D01*
X620Y1051D02*
X627Y1051D01*
X0Y1050D02*
X7Y1050D01*
X79Y1050D02*
X86Y1050D01*
X104Y1050D02*
X111Y1050D01*
X620Y1050D02*
X627Y1050D01*
X0Y1049D02*
X7Y1049D01*
X79Y1049D02*
X86Y1049D01*
X104Y1049D02*
X111Y1049D01*
X620Y1049D02*
X627Y1049D01*
X0Y1048D02*
X7Y1048D01*
X79Y1048D02*
X86Y1048D01*
X104Y1048D02*
X111Y1048D01*
X620Y1048D02*
X627Y1048D01*
X0Y1047D02*
X7Y1047D01*
X79Y1047D02*
X86Y1047D01*
X104Y1047D02*
X111Y1047D01*
X620Y1047D02*
X627Y1047D01*
X0Y1046D02*
X7Y1046D01*
X79Y1046D02*
X86Y1046D01*
X104Y1046D02*
X111Y1046D01*
X620Y1046D02*
X627Y1046D01*
X0Y1045D02*
X7Y1045D01*
X79Y1045D02*
X86Y1045D01*
X104Y1045D02*
X111Y1045D01*
X620Y1045D02*
X627Y1045D01*
X0Y1044D02*
X7Y1044D01*
X79Y1044D02*
X86Y1044D01*
X104Y1044D02*
X111Y1044D01*
X620Y1044D02*
X627Y1044D01*
X0Y1043D02*
X7Y1043D01*
X79Y1043D02*
X86Y1043D01*
X104Y1043D02*
X111Y1043D01*
X620Y1043D02*
X627Y1043D01*
X0Y1042D02*
X7Y1042D01*
X79Y1042D02*
X86Y1042D01*
X104Y1042D02*
X111Y1042D01*
X620Y1042D02*
X627Y1042D01*
X0Y1041D02*
X7Y1041D01*
X79Y1041D02*
X86Y1041D01*
X104Y1041D02*
X111Y1041D01*
X296Y1041D02*
X310Y1041D01*
X497Y1041D02*
X515Y1041D01*
X620Y1041D02*
X627Y1041D01*
X0Y1040D02*
X7Y1040D01*
X79Y1040D02*
X86Y1040D01*
X104Y1040D02*
X111Y1040D01*
X296Y1040D02*
X311Y1040D01*
X496Y1040D02*
X515Y1040D01*
X620Y1040D02*
X627Y1040D01*
X0Y1039D02*
X7Y1039D01*
X79Y1039D02*
X86Y1039D01*
X104Y1039D02*
X111Y1039D01*
X296Y1039D02*
X312Y1039D01*
X496Y1039D02*
X516Y1039D01*
X620Y1039D02*
X627Y1039D01*
X0Y1038D02*
X7Y1038D01*
X79Y1038D02*
X86Y1038D01*
X104Y1038D02*
X111Y1038D01*
X202Y1038D02*
X204Y1038D01*
X296Y1038D02*
X312Y1038D01*
X496Y1038D02*
X516Y1038D01*
X620Y1038D02*
X627Y1038D01*
X0Y1037D02*
X7Y1037D01*
X79Y1037D02*
X86Y1037D01*
X104Y1037D02*
X111Y1037D01*
X201Y1037D02*
X206Y1037D01*
X296Y1037D02*
X312Y1037D01*
X496Y1037D02*
X517Y1037D01*
X620Y1037D02*
X627Y1037D01*
X0Y1036D02*
X7Y1036D01*
X79Y1036D02*
X86Y1036D01*
X104Y1036D02*
X111Y1036D01*
X200Y1036D02*
X207Y1036D01*
X296Y1036D02*
X312Y1036D01*
X496Y1036D02*
X518Y1036D01*
X620Y1036D02*
X627Y1036D01*
X695Y1036D02*
X710Y1036D01*
X0Y1035D02*
X7Y1035D01*
X79Y1035D02*
X86Y1035D01*
X104Y1035D02*
X111Y1035D01*
X200Y1035D02*
X208Y1035D01*
X296Y1035D02*
X311Y1035D01*
X497Y1035D02*
X518Y1035D01*
X620Y1035D02*
X627Y1035D01*
X695Y1035D02*
X710Y1035D01*
X0Y1034D02*
X7Y1034D01*
X79Y1034D02*
X86Y1034D01*
X104Y1034D02*
X111Y1034D01*
X200Y1034D02*
X209Y1034D01*
X296Y1034D02*
X310Y1034D01*
X498Y1034D02*
X519Y1034D01*
X620Y1034D02*
X627Y1034D01*
X695Y1034D02*
X710Y1034D01*
X0Y1033D02*
X7Y1033D01*
X79Y1033D02*
X86Y1033D01*
X104Y1033D02*
X111Y1033D01*
X200Y1033D02*
X210Y1033D01*
X297Y1033D02*
X306Y1033D01*
X500Y1033D02*
X509Y1033D01*
X620Y1033D02*
X627Y1033D01*
X695Y1033D02*
X710Y1033D01*
X0Y1032D02*
X7Y1032D01*
X79Y1032D02*
X86Y1032D01*
X104Y1032D02*
X111Y1032D01*
X201Y1032D02*
X211Y1032D01*
X296Y1032D02*
X306Y1032D01*
X500Y1032D02*
X510Y1032D01*
X620Y1032D02*
X627Y1032D01*
X695Y1032D02*
X710Y1032D01*
X0Y1031D02*
X7Y1031D01*
X79Y1031D02*
X86Y1031D01*
X104Y1031D02*
X111Y1031D01*
X201Y1031D02*
X211Y1031D01*
X296Y1031D02*
X305Y1031D01*
X501Y1031D02*
X511Y1031D01*
X620Y1031D02*
X627Y1031D01*
X695Y1031D02*
X710Y1031D01*
X0Y1030D02*
X7Y1030D01*
X79Y1030D02*
X86Y1030D01*
X104Y1030D02*
X111Y1030D01*
X202Y1030D02*
X211Y1030D01*
X296Y1030D02*
X304Y1030D01*
X502Y1030D02*
X512Y1030D01*
X620Y1030D02*
X627Y1030D01*
X695Y1030D02*
X710Y1030D01*
X0Y1029D02*
X7Y1029D01*
X79Y1029D02*
X86Y1029D01*
X104Y1029D02*
X111Y1029D01*
X203Y1029D02*
X211Y1029D01*
X296Y1029D02*
X303Y1029D01*
X503Y1029D02*
X513Y1029D01*
X620Y1029D02*
X627Y1029D01*
X695Y1029D02*
X710Y1029D01*
X0Y1028D02*
X7Y1028D01*
X79Y1028D02*
X86Y1028D01*
X104Y1028D02*
X111Y1028D01*
X204Y1028D02*
X211Y1028D01*
X296Y1028D02*
X302Y1028D01*
X504Y1028D02*
X514Y1028D01*
X620Y1028D02*
X627Y1028D01*
X695Y1028D02*
X710Y1028D01*
X0Y1027D02*
X7Y1027D01*
X79Y1027D02*
X86Y1027D01*
X104Y1027D02*
X111Y1027D01*
X205Y1027D02*
X211Y1027D01*
X296Y1027D02*
X301Y1027D01*
X505Y1027D02*
X515Y1027D01*
X620Y1027D02*
X627Y1027D01*
X695Y1027D02*
X710Y1027D01*
X0Y1026D02*
X7Y1026D01*
X79Y1026D02*
X86Y1026D01*
X104Y1026D02*
X111Y1026D01*
X206Y1026D02*
X211Y1026D01*
X296Y1026D02*
X300Y1026D01*
X506Y1026D02*
X516Y1026D01*
X527Y1026D02*
X527Y1026D01*
X620Y1026D02*
X627Y1026D01*
X695Y1026D02*
X710Y1026D01*
X0Y1025D02*
X7Y1025D01*
X79Y1025D02*
X86Y1025D01*
X104Y1025D02*
X111Y1025D01*
X207Y1025D02*
X211Y1025D01*
X296Y1025D02*
X299Y1025D01*
X507Y1025D02*
X517Y1025D01*
X527Y1025D02*
X528Y1025D01*
X620Y1025D02*
X627Y1025D01*
X695Y1025D02*
X710Y1025D01*
X0Y1024D02*
X7Y1024D01*
X79Y1024D02*
X86Y1024D01*
X104Y1024D02*
X111Y1024D01*
X208Y1024D02*
X211Y1024D01*
X296Y1024D02*
X298Y1024D01*
X508Y1024D02*
X518Y1024D01*
X527Y1024D02*
X530Y1024D01*
X620Y1024D02*
X627Y1024D01*
X695Y1024D02*
X710Y1024D01*
X0Y1023D02*
X7Y1023D01*
X79Y1023D02*
X86Y1023D01*
X104Y1023D02*
X111Y1023D01*
X209Y1023D02*
X211Y1023D01*
X296Y1023D02*
X297Y1023D01*
X509Y1023D02*
X519Y1023D01*
X527Y1023D02*
X531Y1023D01*
X620Y1023D02*
X627Y1023D01*
X695Y1023D02*
X710Y1023D01*
X0Y1022D02*
X7Y1022D01*
X79Y1022D02*
X86Y1022D01*
X104Y1022D02*
X111Y1022D01*
X210Y1022D02*
X211Y1022D01*
X296Y1022D02*
X296Y1022D01*
X510Y1022D02*
X520Y1022D01*
X527Y1022D02*
X533Y1022D01*
X620Y1022D02*
X627Y1022D01*
X695Y1022D02*
X710Y1022D01*
X0Y1021D02*
X7Y1021D01*
X79Y1021D02*
X86Y1021D01*
X104Y1021D02*
X111Y1021D01*
X211Y1021D02*
X211Y1021D01*
X511Y1021D02*
X521Y1021D01*
X527Y1021D02*
X534Y1021D01*
X620Y1021D02*
X627Y1021D01*
X695Y1021D02*
X710Y1021D01*
X0Y1020D02*
X7Y1020D01*
X79Y1020D02*
X86Y1020D01*
X104Y1020D02*
X111Y1020D01*
X512Y1020D02*
X522Y1020D01*
X527Y1020D02*
X534Y1020D01*
X620Y1020D02*
X627Y1020D01*
X695Y1020D02*
X710Y1020D01*
X0Y1019D02*
X7Y1019D01*
X79Y1019D02*
X86Y1019D01*
X104Y1019D02*
X111Y1019D01*
X513Y1019D02*
X523Y1019D01*
X527Y1019D02*
X534Y1019D01*
X620Y1019D02*
X627Y1019D01*
X695Y1019D02*
X710Y1019D01*
X0Y1018D02*
X7Y1018D01*
X79Y1018D02*
X86Y1018D01*
X104Y1018D02*
X111Y1018D01*
X514Y1018D02*
X524Y1018D01*
X527Y1018D02*
X534Y1018D01*
X620Y1018D02*
X627Y1018D01*
X695Y1018D02*
X710Y1018D01*
X0Y1017D02*
X7Y1017D01*
X79Y1017D02*
X86Y1017D01*
X104Y1017D02*
X710Y1017D01*
X0Y1016D02*
X7Y1016D01*
X79Y1016D02*
X86Y1016D01*
X104Y1016D02*
X710Y1016D01*
X0Y1015D02*
X7Y1015D01*
X79Y1015D02*
X86Y1015D01*
X104Y1015D02*
X710Y1015D01*
X0Y1014D02*
X7Y1014D01*
X79Y1014D02*
X86Y1014D01*
X104Y1014D02*
X710Y1014D01*
X0Y1013D02*
X7Y1013D01*
X79Y1013D02*
X86Y1013D01*
X104Y1013D02*
X710Y1013D01*
X0Y1012D02*
X7Y1012D01*
X79Y1012D02*
X86Y1012D01*
X104Y1012D02*
X710Y1012D01*
X0Y1011D02*
X7Y1011D01*
X79Y1011D02*
X86Y1011D01*
X104Y1011D02*
X710Y1011D01*
X0Y1010D02*
X7Y1010D01*
X79Y1010D02*
X86Y1010D01*
X104Y1010D02*
X710Y1010D01*
X0Y1009D02*
X7Y1009D01*
X79Y1009D02*
X86Y1009D01*
X104Y1009D02*
X710Y1009D01*
X0Y1008D02*
X7Y1008D01*
X79Y1008D02*
X86Y1008D01*
X104Y1008D02*
X710Y1008D01*
X0Y1007D02*
X7Y1007D01*
X79Y1007D02*
X86Y1007D01*
X104Y1007D02*
X710Y1007D01*
X0Y1006D02*
X7Y1006D01*
X79Y1006D02*
X86Y1006D01*
X104Y1006D02*
X710Y1006D01*
X0Y1005D02*
X7Y1005D01*
X79Y1005D02*
X86Y1005D01*
X104Y1005D02*
X710Y1005D01*
X0Y1004D02*
X7Y1004D01*
X79Y1004D02*
X86Y1004D01*
X104Y1004D02*
X710Y1004D01*
X0Y1003D02*
X7Y1003D01*
X79Y1003D02*
X86Y1003D01*
X104Y1003D02*
X710Y1003D01*
X0Y1002D02*
X7Y1002D01*
X79Y1002D02*
X86Y1002D01*
X104Y1002D02*
X710Y1002D01*
X0Y1001D02*
X7Y1001D01*
X79Y1001D02*
X86Y1001D01*
X104Y1001D02*
X111Y1001D01*
X620Y1001D02*
X627Y1001D01*
X695Y1001D02*
X710Y1001D01*
X0Y1000D02*
X7Y1000D01*
X79Y1000D02*
X86Y1000D01*
X104Y1000D02*
X111Y1000D01*
X620Y1000D02*
X627Y1000D01*
X695Y1000D02*
X710Y1000D01*
X0Y999D02*
X7Y999D01*
X79Y999D02*
X86Y999D01*
X104Y999D02*
X111Y999D01*
X620Y999D02*
X627Y999D01*
X695Y999D02*
X710Y999D01*
X0Y998D02*
X7Y998D01*
X79Y998D02*
X86Y998D01*
X104Y998D02*
X111Y998D01*
X620Y998D02*
X627Y998D01*
X695Y998D02*
X710Y998D01*
X0Y997D02*
X7Y997D01*
X79Y997D02*
X86Y997D01*
X104Y997D02*
X111Y997D01*
X620Y997D02*
X627Y997D01*
X695Y997D02*
X710Y997D01*
X0Y996D02*
X7Y996D01*
X79Y996D02*
X86Y996D01*
X104Y996D02*
X111Y996D01*
X620Y996D02*
X627Y996D01*
X695Y996D02*
X710Y996D01*
X0Y995D02*
X7Y995D01*
X79Y995D02*
X86Y995D01*
X104Y995D02*
X111Y995D01*
X620Y995D02*
X627Y995D01*
X695Y995D02*
X710Y995D01*
X0Y994D02*
X7Y994D01*
X79Y994D02*
X86Y994D01*
X104Y994D02*
X111Y994D01*
X620Y994D02*
X627Y994D01*
X695Y994D02*
X710Y994D01*
X0Y993D02*
X7Y993D01*
X79Y993D02*
X86Y993D01*
X104Y993D02*
X111Y993D01*
X620Y993D02*
X627Y993D01*
X695Y993D02*
X710Y993D01*
X0Y992D02*
X7Y992D01*
X79Y992D02*
X86Y992D01*
X104Y992D02*
X111Y992D01*
X620Y992D02*
X627Y992D01*
X695Y992D02*
X710Y992D01*
X0Y991D02*
X7Y991D01*
X79Y991D02*
X86Y991D01*
X104Y991D02*
X111Y991D01*
X620Y991D02*
X627Y991D01*
X695Y991D02*
X710Y991D01*
X0Y990D02*
X7Y990D01*
X79Y990D02*
X86Y990D01*
X104Y990D02*
X111Y990D01*
X620Y990D02*
X627Y990D01*
X695Y990D02*
X710Y990D01*
X0Y989D02*
X7Y989D01*
X79Y989D02*
X86Y989D01*
X104Y989D02*
X111Y989D01*
X620Y989D02*
X627Y989D01*
X695Y989D02*
X710Y989D01*
X0Y988D02*
X7Y988D01*
X79Y988D02*
X86Y988D01*
X104Y988D02*
X111Y988D01*
X620Y988D02*
X627Y988D01*
X695Y988D02*
X710Y988D01*
X0Y987D02*
X7Y987D01*
X79Y987D02*
X86Y987D01*
X104Y987D02*
X111Y987D01*
X620Y987D02*
X627Y987D01*
X695Y987D02*
X710Y987D01*
X0Y986D02*
X7Y986D01*
X79Y986D02*
X86Y986D01*
X104Y986D02*
X111Y986D01*
X620Y986D02*
X627Y986D01*
X695Y986D02*
X710Y986D01*
X0Y985D02*
X7Y985D01*
X79Y985D02*
X86Y985D01*
X104Y985D02*
X111Y985D01*
X620Y985D02*
X627Y985D01*
X695Y985D02*
X710Y985D01*
X0Y984D02*
X7Y984D01*
X79Y984D02*
X86Y984D01*
X104Y984D02*
X111Y984D01*
X620Y984D02*
X627Y984D01*
X695Y984D02*
X710Y984D01*
X0Y983D02*
X7Y983D01*
X79Y983D02*
X86Y983D01*
X104Y983D02*
X111Y983D01*
X620Y983D02*
X627Y983D01*
X695Y983D02*
X710Y983D01*
X0Y982D02*
X7Y982D01*
X79Y982D02*
X86Y982D01*
X104Y982D02*
X111Y982D01*
X620Y982D02*
X627Y982D01*
X695Y982D02*
X710Y982D01*
X0Y981D02*
X7Y981D01*
X79Y981D02*
X86Y981D01*
X104Y981D02*
X111Y981D01*
X620Y981D02*
X627Y981D01*
X695Y981D02*
X710Y981D01*
X0Y980D02*
X7Y980D01*
X79Y980D02*
X86Y980D01*
X104Y980D02*
X111Y980D01*
X620Y980D02*
X627Y980D01*
X695Y980D02*
X710Y980D01*
X0Y979D02*
X7Y979D01*
X79Y979D02*
X86Y979D01*
X104Y979D02*
X111Y979D01*
X620Y979D02*
X627Y979D01*
X695Y979D02*
X710Y979D01*
X0Y978D02*
X7Y978D01*
X79Y978D02*
X86Y978D01*
X104Y978D02*
X111Y978D01*
X620Y978D02*
X627Y978D01*
X695Y978D02*
X710Y978D01*
X0Y977D02*
X7Y977D01*
X79Y977D02*
X86Y977D01*
X104Y977D02*
X111Y977D01*
X620Y977D02*
X627Y977D01*
X695Y977D02*
X710Y977D01*
X0Y976D02*
X7Y976D01*
X79Y976D02*
X86Y976D01*
X104Y976D02*
X111Y976D01*
X620Y976D02*
X627Y976D01*
X695Y976D02*
X710Y976D01*
X0Y975D02*
X7Y975D01*
X79Y975D02*
X86Y975D01*
X104Y975D02*
X111Y975D01*
X620Y975D02*
X627Y975D01*
X695Y975D02*
X710Y975D01*
X0Y974D02*
X7Y974D01*
X79Y974D02*
X86Y974D01*
X104Y974D02*
X111Y974D01*
X620Y974D02*
X627Y974D01*
X695Y974D02*
X710Y974D01*
X0Y973D02*
X7Y973D01*
X79Y973D02*
X86Y973D01*
X104Y973D02*
X111Y973D01*
X620Y973D02*
X627Y973D01*
X695Y973D02*
X710Y973D01*
X0Y972D02*
X7Y972D01*
X79Y972D02*
X86Y972D01*
X104Y972D02*
X111Y972D01*
X620Y972D02*
X627Y972D01*
X695Y972D02*
X710Y972D01*
X0Y971D02*
X7Y971D01*
X79Y971D02*
X86Y971D01*
X104Y971D02*
X111Y971D01*
X620Y971D02*
X627Y971D01*
X695Y971D02*
X710Y971D01*
X0Y970D02*
X7Y970D01*
X79Y970D02*
X86Y970D01*
X104Y970D02*
X111Y970D01*
X620Y970D02*
X627Y970D01*
X695Y970D02*
X710Y970D01*
X0Y969D02*
X7Y969D01*
X79Y969D02*
X86Y969D01*
X104Y969D02*
X111Y969D01*
X620Y969D02*
X627Y969D01*
X695Y969D02*
X710Y969D01*
X0Y968D02*
X7Y968D01*
X79Y968D02*
X86Y968D01*
X104Y968D02*
X111Y968D01*
X620Y968D02*
X627Y968D01*
X695Y968D02*
X710Y968D01*
X0Y967D02*
X7Y967D01*
X79Y967D02*
X86Y967D01*
X104Y967D02*
X111Y967D01*
X620Y967D02*
X627Y967D01*
X695Y967D02*
X710Y967D01*
X0Y966D02*
X7Y966D01*
X79Y966D02*
X86Y966D01*
X104Y966D02*
X111Y966D01*
X620Y966D02*
X627Y966D01*
X695Y966D02*
X710Y966D01*
X0Y965D02*
X7Y965D01*
X79Y965D02*
X86Y965D01*
X104Y965D02*
X111Y965D01*
X620Y965D02*
X627Y965D01*
X695Y965D02*
X710Y965D01*
X0Y964D02*
X7Y964D01*
X79Y964D02*
X86Y964D01*
X104Y964D02*
X111Y964D01*
X620Y964D02*
X627Y964D01*
X695Y964D02*
X710Y964D01*
X0Y963D02*
X7Y963D01*
X79Y963D02*
X86Y963D01*
X104Y963D02*
X111Y963D01*
X620Y963D02*
X627Y963D01*
X695Y963D02*
X710Y963D01*
X0Y962D02*
X7Y962D01*
X79Y962D02*
X86Y962D01*
X104Y962D02*
X111Y962D01*
X620Y962D02*
X627Y962D01*
X695Y962D02*
X710Y962D01*
X0Y961D02*
X7Y961D01*
X79Y961D02*
X86Y961D01*
X104Y961D02*
X111Y961D01*
X620Y961D02*
X627Y961D01*
X695Y961D02*
X710Y961D01*
X0Y960D02*
X7Y960D01*
X79Y960D02*
X86Y960D01*
X104Y960D02*
X111Y960D01*
X620Y960D02*
X627Y960D01*
X695Y960D02*
X710Y960D01*
X0Y959D02*
X7Y959D01*
X79Y959D02*
X86Y959D01*
X104Y959D02*
X111Y959D01*
X620Y959D02*
X627Y959D01*
X695Y959D02*
X710Y959D01*
X0Y958D02*
X7Y958D01*
X79Y958D02*
X86Y958D01*
X104Y958D02*
X111Y958D01*
X620Y958D02*
X627Y958D01*
X695Y958D02*
X710Y958D01*
X0Y957D02*
X7Y957D01*
X79Y957D02*
X86Y957D01*
X104Y957D02*
X111Y957D01*
X620Y957D02*
X627Y957D01*
X695Y957D02*
X710Y957D01*
X0Y956D02*
X7Y956D01*
X79Y956D02*
X86Y956D01*
X104Y956D02*
X111Y956D01*
X620Y956D02*
X627Y956D01*
X695Y956D02*
X710Y956D01*
X0Y955D02*
X7Y955D01*
X79Y955D02*
X86Y955D01*
X104Y955D02*
X111Y955D01*
X620Y955D02*
X627Y955D01*
X695Y955D02*
X710Y955D01*
X0Y954D02*
X7Y954D01*
X79Y954D02*
X86Y954D01*
X104Y954D02*
X111Y954D01*
X620Y954D02*
X627Y954D01*
X695Y954D02*
X710Y954D01*
X0Y953D02*
X7Y953D01*
X79Y953D02*
X86Y953D01*
X104Y953D02*
X111Y953D01*
X620Y953D02*
X627Y953D01*
X695Y953D02*
X710Y953D01*
X0Y952D02*
X7Y952D01*
X79Y952D02*
X86Y952D01*
X104Y952D02*
X111Y952D01*
X620Y952D02*
X627Y952D01*
X695Y952D02*
X710Y952D01*
X0Y951D02*
X7Y951D01*
X79Y951D02*
X86Y951D01*
X104Y951D02*
X111Y951D01*
X620Y951D02*
X627Y951D01*
X695Y951D02*
X710Y951D01*
X0Y950D02*
X7Y950D01*
X79Y950D02*
X86Y950D01*
X104Y950D02*
X111Y950D01*
X620Y950D02*
X627Y950D01*
X695Y950D02*
X710Y950D01*
X0Y949D02*
X7Y949D01*
X79Y949D02*
X86Y949D01*
X104Y949D02*
X111Y949D01*
X620Y949D02*
X627Y949D01*
X695Y949D02*
X710Y949D01*
X0Y948D02*
X7Y948D01*
X79Y948D02*
X86Y948D01*
X104Y948D02*
X111Y948D01*
X620Y948D02*
X627Y948D01*
X695Y948D02*
X710Y948D01*
X0Y947D02*
X7Y947D01*
X79Y947D02*
X86Y947D01*
X104Y947D02*
X111Y947D01*
X620Y947D02*
X627Y947D01*
X695Y947D02*
X710Y947D01*
X0Y946D02*
X7Y946D01*
X79Y946D02*
X86Y946D01*
X104Y946D02*
X111Y946D01*
X620Y946D02*
X627Y946D01*
X695Y946D02*
X710Y946D01*
X0Y945D02*
X7Y945D01*
X79Y945D02*
X86Y945D01*
X104Y945D02*
X111Y945D01*
X620Y945D02*
X627Y945D01*
X695Y945D02*
X710Y945D01*
X0Y944D02*
X7Y944D01*
X79Y944D02*
X86Y944D01*
X104Y944D02*
X111Y944D01*
X620Y944D02*
X627Y944D01*
X695Y944D02*
X710Y944D01*
X0Y943D02*
X7Y943D01*
X79Y943D02*
X86Y943D01*
X104Y943D02*
X111Y943D01*
X620Y943D02*
X627Y943D01*
X695Y943D02*
X710Y943D01*
X0Y942D02*
X7Y942D01*
X79Y942D02*
X86Y942D01*
X104Y942D02*
X111Y942D01*
X620Y942D02*
X627Y942D01*
X695Y942D02*
X710Y942D01*
X0Y941D02*
X7Y941D01*
X79Y941D02*
X86Y941D01*
X104Y941D02*
X111Y941D01*
X620Y941D02*
X627Y941D01*
X695Y941D02*
X710Y941D01*
X0Y940D02*
X7Y940D01*
X79Y940D02*
X86Y940D01*
X104Y940D02*
X111Y940D01*
X620Y940D02*
X627Y940D01*
X695Y940D02*
X710Y940D01*
X0Y939D02*
X7Y939D01*
X79Y939D02*
X86Y939D01*
X104Y939D02*
X111Y939D01*
X620Y939D02*
X627Y939D01*
X695Y939D02*
X710Y939D01*
X0Y938D02*
X7Y938D01*
X79Y938D02*
X86Y938D01*
X104Y938D02*
X111Y938D01*
X620Y938D02*
X627Y938D01*
X695Y938D02*
X710Y938D01*
X0Y937D02*
X7Y937D01*
X79Y937D02*
X86Y937D01*
X104Y937D02*
X111Y937D01*
X620Y937D02*
X627Y937D01*
X695Y937D02*
X710Y937D01*
X0Y936D02*
X7Y936D01*
X79Y936D02*
X86Y936D01*
X104Y936D02*
X111Y936D01*
X620Y936D02*
X627Y936D01*
X695Y936D02*
X710Y936D01*
X0Y935D02*
X7Y935D01*
X79Y935D02*
X86Y935D01*
X104Y935D02*
X111Y935D01*
X620Y935D02*
X627Y935D01*
X695Y935D02*
X710Y935D01*
X0Y934D02*
X7Y934D01*
X79Y934D02*
X86Y934D01*
X104Y934D02*
X111Y934D01*
X620Y934D02*
X627Y934D01*
X695Y934D02*
X710Y934D01*
X0Y933D02*
X7Y933D01*
X79Y933D02*
X86Y933D01*
X104Y933D02*
X111Y933D01*
X620Y933D02*
X627Y933D01*
X695Y933D02*
X710Y933D01*
X0Y932D02*
X7Y932D01*
X79Y932D02*
X86Y932D01*
X104Y932D02*
X111Y932D01*
X620Y932D02*
X627Y932D01*
X695Y932D02*
X710Y932D01*
X0Y931D02*
X7Y931D01*
X79Y931D02*
X86Y931D01*
X104Y931D02*
X111Y931D01*
X620Y931D02*
X627Y931D01*
X695Y931D02*
X710Y931D01*
X0Y930D02*
X7Y930D01*
X79Y930D02*
X86Y930D01*
X104Y930D02*
X111Y930D01*
X620Y930D02*
X627Y930D01*
X695Y930D02*
X710Y930D01*
X0Y929D02*
X7Y929D01*
X79Y929D02*
X86Y929D01*
X104Y929D02*
X111Y929D01*
X620Y929D02*
X627Y929D01*
X695Y929D02*
X710Y929D01*
X0Y928D02*
X7Y928D01*
X79Y928D02*
X86Y928D01*
X104Y928D02*
X111Y928D01*
X620Y928D02*
X627Y928D01*
X695Y928D02*
X710Y928D01*
X0Y927D02*
X7Y927D01*
X79Y927D02*
X86Y927D01*
X104Y927D02*
X111Y927D01*
X620Y927D02*
X627Y927D01*
X695Y927D02*
X710Y927D01*
X0Y926D02*
X7Y926D01*
X79Y926D02*
X86Y926D01*
X104Y926D02*
X111Y926D01*
X620Y926D02*
X627Y926D01*
X695Y926D02*
X710Y926D01*
X0Y925D02*
X7Y925D01*
X79Y925D02*
X86Y925D01*
X104Y925D02*
X111Y925D01*
X620Y925D02*
X627Y925D01*
X695Y925D02*
X710Y925D01*
X0Y924D02*
X7Y924D01*
X79Y924D02*
X86Y924D01*
X104Y924D02*
X111Y924D01*
X620Y924D02*
X627Y924D01*
X695Y924D02*
X710Y924D01*
X0Y923D02*
X7Y923D01*
X79Y923D02*
X86Y923D01*
X104Y923D02*
X111Y923D01*
X620Y923D02*
X627Y923D01*
X695Y923D02*
X710Y923D01*
X0Y922D02*
X7Y922D01*
X79Y922D02*
X86Y922D01*
X104Y922D02*
X111Y922D01*
X620Y922D02*
X627Y922D01*
X695Y922D02*
X710Y922D01*
X0Y921D02*
X7Y921D01*
X79Y921D02*
X86Y921D01*
X104Y921D02*
X111Y921D01*
X620Y921D02*
X627Y921D01*
X695Y921D02*
X710Y921D01*
X0Y920D02*
X7Y920D01*
X79Y920D02*
X86Y920D01*
X104Y920D02*
X111Y920D01*
X620Y920D02*
X627Y920D01*
X695Y920D02*
X710Y920D01*
X0Y919D02*
X7Y919D01*
X79Y919D02*
X86Y919D01*
X104Y919D02*
X111Y919D01*
X620Y919D02*
X627Y919D01*
X695Y919D02*
X710Y919D01*
X0Y918D02*
X7Y918D01*
X79Y918D02*
X86Y918D01*
X104Y918D02*
X111Y918D01*
X620Y918D02*
X627Y918D01*
X695Y918D02*
X710Y918D01*
X0Y917D02*
X7Y917D01*
X79Y917D02*
X86Y917D01*
X104Y917D02*
X111Y917D01*
X620Y917D02*
X627Y917D01*
X695Y917D02*
X710Y917D01*
X0Y916D02*
X7Y916D01*
X79Y916D02*
X86Y916D01*
X104Y916D02*
X111Y916D01*
X620Y916D02*
X627Y916D01*
X695Y916D02*
X710Y916D01*
X0Y915D02*
X7Y915D01*
X79Y915D02*
X86Y915D01*
X104Y915D02*
X111Y915D01*
X620Y915D02*
X627Y915D01*
X695Y915D02*
X710Y915D01*
X0Y914D02*
X7Y914D01*
X79Y914D02*
X86Y914D01*
X104Y914D02*
X111Y914D01*
X620Y914D02*
X627Y914D01*
X695Y914D02*
X710Y914D01*
X0Y913D02*
X7Y913D01*
X79Y913D02*
X86Y913D01*
X104Y913D02*
X111Y913D01*
X620Y913D02*
X627Y913D01*
X695Y913D02*
X710Y913D01*
X0Y912D02*
X7Y912D01*
X79Y912D02*
X86Y912D01*
X104Y912D02*
X111Y912D01*
X620Y912D02*
X627Y912D01*
X695Y912D02*
X710Y912D01*
X0Y911D02*
X7Y911D01*
X79Y911D02*
X86Y911D01*
X104Y911D02*
X111Y911D01*
X620Y911D02*
X627Y911D01*
X695Y911D02*
X710Y911D01*
X0Y910D02*
X7Y910D01*
X79Y910D02*
X86Y910D01*
X104Y910D02*
X111Y910D01*
X620Y910D02*
X627Y910D01*
X695Y910D02*
X710Y910D01*
X0Y909D02*
X7Y909D01*
X79Y909D02*
X86Y909D01*
X104Y909D02*
X111Y909D01*
X192Y909D02*
X195Y909D01*
X620Y909D02*
X627Y909D01*
X695Y909D02*
X710Y909D01*
X0Y908D02*
X7Y908D01*
X79Y908D02*
X86Y908D01*
X104Y908D02*
X111Y908D01*
X190Y908D02*
X196Y908D01*
X620Y908D02*
X627Y908D01*
X695Y908D02*
X710Y908D01*
X0Y907D02*
X7Y907D01*
X79Y907D02*
X86Y907D01*
X104Y907D02*
X111Y907D01*
X190Y907D02*
X197Y907D01*
X620Y907D02*
X627Y907D01*
X695Y907D02*
X710Y907D01*
X0Y906D02*
X7Y906D01*
X79Y906D02*
X86Y906D01*
X104Y906D02*
X111Y906D01*
X189Y906D02*
X198Y906D01*
X620Y906D02*
X627Y906D01*
X695Y906D02*
X710Y906D01*
X0Y905D02*
X7Y905D01*
X79Y905D02*
X86Y905D01*
X104Y905D02*
X111Y905D01*
X189Y905D02*
X199Y905D01*
X620Y905D02*
X627Y905D01*
X695Y905D02*
X710Y905D01*
X0Y904D02*
X7Y904D01*
X79Y904D02*
X86Y904D01*
X104Y904D02*
X111Y904D01*
X189Y904D02*
X200Y904D01*
X620Y904D02*
X627Y904D01*
X695Y904D02*
X710Y904D01*
X0Y903D02*
X7Y903D01*
X79Y903D02*
X86Y903D01*
X104Y903D02*
X111Y903D01*
X189Y903D02*
X201Y903D01*
X620Y903D02*
X627Y903D01*
X695Y903D02*
X710Y903D01*
X0Y902D02*
X7Y902D01*
X79Y902D02*
X86Y902D01*
X104Y902D02*
X111Y902D01*
X189Y902D02*
X202Y902D01*
X620Y902D02*
X627Y902D01*
X695Y902D02*
X710Y902D01*
X0Y901D02*
X7Y901D01*
X79Y901D02*
X86Y901D01*
X104Y901D02*
X111Y901D01*
X190Y901D02*
X203Y901D01*
X620Y901D02*
X627Y901D01*
X695Y901D02*
X710Y901D01*
X0Y900D02*
X7Y900D01*
X79Y900D02*
X86Y900D01*
X104Y900D02*
X111Y900D01*
X191Y900D02*
X204Y900D01*
X620Y900D02*
X627Y900D01*
X695Y900D02*
X710Y900D01*
X0Y899D02*
X7Y899D01*
X79Y899D02*
X86Y899D01*
X104Y899D02*
X111Y899D01*
X192Y899D02*
X205Y899D01*
X620Y899D02*
X627Y899D01*
X695Y899D02*
X710Y899D01*
X0Y898D02*
X7Y898D01*
X79Y898D02*
X86Y898D01*
X104Y898D02*
X111Y898D01*
X193Y898D02*
X206Y898D01*
X620Y898D02*
X627Y898D01*
X695Y898D02*
X710Y898D01*
X0Y897D02*
X7Y897D01*
X79Y897D02*
X86Y897D01*
X104Y897D02*
X111Y897D01*
X194Y897D02*
X207Y897D01*
X620Y897D02*
X627Y897D01*
X695Y897D02*
X710Y897D01*
X0Y896D02*
X7Y896D01*
X79Y896D02*
X86Y896D01*
X104Y896D02*
X111Y896D01*
X195Y896D02*
X208Y896D01*
X620Y896D02*
X627Y896D01*
X695Y896D02*
X710Y896D01*
X0Y895D02*
X7Y895D01*
X79Y895D02*
X86Y895D01*
X104Y895D02*
X111Y895D01*
X196Y895D02*
X209Y895D01*
X620Y895D02*
X627Y895D01*
X695Y895D02*
X710Y895D01*
X0Y894D02*
X7Y894D01*
X79Y894D02*
X86Y894D01*
X104Y894D02*
X111Y894D01*
X197Y894D02*
X210Y894D01*
X620Y894D02*
X627Y894D01*
X695Y894D02*
X710Y894D01*
X0Y893D02*
X7Y893D01*
X79Y893D02*
X86Y893D01*
X104Y893D02*
X111Y893D01*
X198Y893D02*
X211Y893D01*
X620Y893D02*
X627Y893D01*
X695Y893D02*
X710Y893D01*
X0Y892D02*
X7Y892D01*
X79Y892D02*
X86Y892D01*
X104Y892D02*
X111Y892D01*
X199Y892D02*
X212Y892D01*
X620Y892D02*
X627Y892D01*
X695Y892D02*
X710Y892D01*
X0Y891D02*
X7Y891D01*
X79Y891D02*
X86Y891D01*
X104Y891D02*
X111Y891D01*
X200Y891D02*
X213Y891D01*
X620Y891D02*
X627Y891D01*
X695Y891D02*
X710Y891D01*
X0Y890D02*
X7Y890D01*
X79Y890D02*
X86Y890D01*
X104Y890D02*
X111Y890D01*
X201Y890D02*
X214Y890D01*
X620Y890D02*
X627Y890D01*
X695Y890D02*
X710Y890D01*
X0Y889D02*
X7Y889D01*
X79Y889D02*
X86Y889D01*
X104Y889D02*
X111Y889D01*
X185Y889D02*
X215Y889D01*
X620Y889D02*
X627Y889D01*
X695Y889D02*
X710Y889D01*
X0Y888D02*
X7Y888D01*
X79Y888D02*
X86Y888D01*
X104Y888D02*
X111Y888D01*
X186Y888D02*
X216Y888D01*
X620Y888D02*
X627Y888D01*
X695Y888D02*
X710Y888D01*
X0Y887D02*
X7Y887D01*
X79Y887D02*
X86Y887D01*
X104Y887D02*
X111Y887D01*
X187Y887D02*
X217Y887D01*
X620Y887D02*
X627Y887D01*
X695Y887D02*
X710Y887D01*
X0Y886D02*
X7Y886D01*
X79Y886D02*
X86Y886D01*
X104Y886D02*
X111Y886D01*
X187Y886D02*
X217Y886D01*
X620Y886D02*
X627Y886D01*
X695Y886D02*
X710Y886D01*
X0Y885D02*
X7Y885D01*
X79Y885D02*
X86Y885D01*
X104Y885D02*
X111Y885D01*
X188Y885D02*
X218Y885D01*
X620Y885D02*
X627Y885D01*
X695Y885D02*
X710Y885D01*
X0Y884D02*
X7Y884D01*
X79Y884D02*
X86Y884D01*
X104Y884D02*
X111Y884D01*
X189Y884D02*
X218Y884D01*
X620Y884D02*
X627Y884D01*
X695Y884D02*
X710Y884D01*
X0Y883D02*
X7Y883D01*
X79Y883D02*
X86Y883D01*
X104Y883D02*
X111Y883D01*
X190Y883D02*
X217Y883D01*
X620Y883D02*
X627Y883D01*
X695Y883D02*
X710Y883D01*
X0Y882D02*
X7Y882D01*
X79Y882D02*
X86Y882D01*
X104Y882D02*
X111Y882D01*
X190Y882D02*
X216Y882D01*
X620Y882D02*
X627Y882D01*
X695Y882D02*
X710Y882D01*
X0Y881D02*
X7Y881D01*
X79Y881D02*
X86Y881D01*
X104Y881D02*
X111Y881D01*
X191Y881D02*
X216Y881D01*
X620Y881D02*
X627Y881D01*
X695Y881D02*
X710Y881D01*
X0Y880D02*
X7Y880D01*
X79Y880D02*
X86Y880D01*
X104Y880D02*
X111Y880D01*
X191Y880D02*
X215Y880D01*
X620Y880D02*
X627Y880D01*
X695Y880D02*
X710Y880D01*
X0Y879D02*
X7Y879D01*
X79Y879D02*
X86Y879D01*
X104Y879D02*
X111Y879D01*
X201Y879D02*
X214Y879D01*
X620Y879D02*
X627Y879D01*
X695Y879D02*
X710Y879D01*
X0Y878D02*
X7Y878D01*
X79Y878D02*
X86Y878D01*
X104Y878D02*
X111Y878D01*
X200Y878D02*
X213Y878D01*
X620Y878D02*
X627Y878D01*
X695Y878D02*
X710Y878D01*
X0Y877D02*
X7Y877D01*
X79Y877D02*
X86Y877D01*
X104Y877D02*
X111Y877D01*
X199Y877D02*
X212Y877D01*
X620Y877D02*
X627Y877D01*
X695Y877D02*
X710Y877D01*
X0Y876D02*
X7Y876D01*
X79Y876D02*
X86Y876D01*
X104Y876D02*
X111Y876D01*
X198Y876D02*
X211Y876D01*
X620Y876D02*
X627Y876D01*
X695Y876D02*
X710Y876D01*
X0Y875D02*
X7Y875D01*
X79Y875D02*
X86Y875D01*
X104Y875D02*
X111Y875D01*
X197Y875D02*
X210Y875D01*
X620Y875D02*
X627Y875D01*
X695Y875D02*
X710Y875D01*
X0Y874D02*
X7Y874D01*
X79Y874D02*
X86Y874D01*
X104Y874D02*
X111Y874D01*
X196Y874D02*
X209Y874D01*
X620Y874D02*
X627Y874D01*
X695Y874D02*
X710Y874D01*
X0Y873D02*
X7Y873D01*
X79Y873D02*
X86Y873D01*
X104Y873D02*
X111Y873D01*
X195Y873D02*
X208Y873D01*
X620Y873D02*
X627Y873D01*
X695Y873D02*
X710Y873D01*
X0Y872D02*
X7Y872D01*
X79Y872D02*
X86Y872D01*
X104Y872D02*
X111Y872D01*
X195Y872D02*
X207Y872D01*
X620Y872D02*
X627Y872D01*
X695Y872D02*
X710Y872D01*
X0Y871D02*
X7Y871D01*
X79Y871D02*
X86Y871D01*
X104Y871D02*
X111Y871D01*
X195Y871D02*
X206Y871D01*
X620Y871D02*
X627Y871D01*
X695Y871D02*
X710Y871D01*
X0Y870D02*
X7Y870D01*
X79Y870D02*
X86Y870D01*
X104Y870D02*
X111Y870D01*
X195Y870D02*
X205Y870D01*
X620Y870D02*
X627Y870D01*
X695Y870D02*
X710Y870D01*
X0Y869D02*
X7Y869D01*
X79Y869D02*
X86Y869D01*
X104Y869D02*
X111Y869D01*
X196Y869D02*
X204Y869D01*
X620Y869D02*
X627Y869D01*
X695Y869D02*
X710Y869D01*
X0Y868D02*
X7Y868D01*
X79Y868D02*
X86Y868D01*
X104Y868D02*
X111Y868D01*
X196Y868D02*
X203Y868D01*
X620Y868D02*
X627Y868D01*
X695Y868D02*
X710Y868D01*
X0Y867D02*
X7Y867D01*
X79Y867D02*
X86Y867D01*
X104Y867D02*
X111Y867D01*
X196Y867D02*
X202Y867D01*
X620Y867D02*
X627Y867D01*
X695Y867D02*
X710Y867D01*
X0Y866D02*
X7Y866D01*
X79Y866D02*
X86Y866D01*
X104Y866D02*
X110Y866D01*
X196Y866D02*
X201Y866D01*
X620Y866D02*
X627Y866D01*
X695Y866D02*
X710Y866D01*
X0Y865D02*
X7Y865D01*
X79Y865D02*
X86Y865D01*
X104Y865D02*
X110Y865D01*
X196Y865D02*
X200Y865D01*
X620Y865D02*
X627Y865D01*
X695Y865D02*
X710Y865D01*
X0Y864D02*
X7Y864D01*
X79Y864D02*
X86Y864D01*
X104Y864D02*
X110Y864D01*
X196Y864D02*
X199Y864D01*
X620Y864D02*
X627Y864D01*
X695Y864D02*
X710Y864D01*
X0Y863D02*
X7Y863D01*
X79Y863D02*
X86Y863D01*
X104Y863D02*
X110Y863D01*
X197Y863D02*
X198Y863D01*
X620Y863D02*
X627Y863D01*
X695Y863D02*
X710Y863D01*
X0Y862D02*
X7Y862D01*
X79Y862D02*
X86Y862D01*
X104Y862D02*
X110Y862D01*
X197Y862D02*
X197Y862D01*
X620Y862D02*
X627Y862D01*
X695Y862D02*
X710Y862D01*
X0Y861D02*
X7Y861D01*
X79Y861D02*
X86Y861D01*
X104Y861D02*
X110Y861D01*
X620Y861D02*
X627Y861D01*
X695Y861D02*
X710Y861D01*
X0Y860D02*
X7Y860D01*
X79Y860D02*
X86Y860D01*
X104Y860D02*
X110Y860D01*
X620Y860D02*
X627Y860D01*
X695Y860D02*
X710Y860D01*
X0Y859D02*
X7Y859D01*
X79Y859D02*
X86Y859D01*
X104Y859D02*
X110Y859D01*
X620Y859D02*
X627Y859D01*
X695Y859D02*
X710Y859D01*
X0Y858D02*
X7Y858D01*
X79Y858D02*
X86Y858D01*
X104Y858D02*
X110Y858D01*
X620Y858D02*
X627Y858D01*
X695Y858D02*
X710Y858D01*
X0Y857D02*
X7Y857D01*
X79Y857D02*
X86Y857D01*
X104Y857D02*
X110Y857D01*
X620Y857D02*
X627Y857D01*
X695Y857D02*
X710Y857D01*
X0Y856D02*
X7Y856D01*
X79Y856D02*
X86Y856D01*
X104Y856D02*
X110Y856D01*
X620Y856D02*
X627Y856D01*
X695Y856D02*
X710Y856D01*
X0Y855D02*
X7Y855D01*
X79Y855D02*
X86Y855D01*
X104Y855D02*
X110Y855D01*
X620Y855D02*
X627Y855D01*
X695Y855D02*
X710Y855D01*
X0Y854D02*
X7Y854D01*
X79Y854D02*
X86Y854D01*
X104Y854D02*
X110Y854D01*
X620Y854D02*
X627Y854D01*
X695Y854D02*
X710Y854D01*
X0Y853D02*
X7Y853D01*
X79Y853D02*
X86Y853D01*
X104Y853D02*
X110Y853D01*
X620Y853D02*
X627Y853D01*
X695Y853D02*
X710Y853D01*
X0Y852D02*
X7Y852D01*
X79Y852D02*
X86Y852D01*
X104Y852D02*
X111Y852D01*
X620Y852D02*
X627Y852D01*
X695Y852D02*
X710Y852D01*
X0Y851D02*
X7Y851D01*
X79Y851D02*
X86Y851D01*
X104Y851D02*
X111Y851D01*
X620Y851D02*
X627Y851D01*
X695Y851D02*
X710Y851D01*
X0Y850D02*
X7Y850D01*
X79Y850D02*
X86Y850D01*
X104Y850D02*
X111Y850D01*
X620Y850D02*
X627Y850D01*
X695Y850D02*
X710Y850D01*
X0Y849D02*
X7Y849D01*
X79Y849D02*
X86Y849D01*
X104Y849D02*
X111Y849D01*
X620Y849D02*
X627Y849D01*
X695Y849D02*
X710Y849D01*
X0Y848D02*
X7Y848D01*
X79Y848D02*
X86Y848D01*
X104Y848D02*
X111Y848D01*
X620Y848D02*
X627Y848D01*
X695Y848D02*
X710Y848D01*
X0Y847D02*
X7Y847D01*
X79Y847D02*
X86Y847D01*
X104Y847D02*
X111Y847D01*
X620Y847D02*
X627Y847D01*
X695Y847D02*
X710Y847D01*
X0Y846D02*
X7Y846D01*
X79Y846D02*
X86Y846D01*
X104Y846D02*
X111Y846D01*
X620Y846D02*
X627Y846D01*
X695Y846D02*
X710Y846D01*
X0Y845D02*
X7Y845D01*
X79Y845D02*
X86Y845D01*
X104Y845D02*
X111Y845D01*
X620Y845D02*
X627Y845D01*
X695Y845D02*
X710Y845D01*
X0Y844D02*
X7Y844D01*
X79Y844D02*
X86Y844D01*
X104Y844D02*
X111Y844D01*
X620Y844D02*
X627Y844D01*
X695Y844D02*
X710Y844D01*
X0Y843D02*
X7Y843D01*
X79Y843D02*
X86Y843D01*
X104Y843D02*
X111Y843D01*
X620Y843D02*
X627Y843D01*
X695Y843D02*
X710Y843D01*
X0Y842D02*
X7Y842D01*
X79Y842D02*
X86Y842D01*
X104Y842D02*
X111Y842D01*
X620Y842D02*
X627Y842D01*
X695Y842D02*
X710Y842D01*
X0Y841D02*
X7Y841D01*
X79Y841D02*
X86Y841D01*
X104Y841D02*
X111Y841D01*
X292Y841D02*
X310Y841D01*
X497Y841D02*
X514Y841D01*
X620Y841D02*
X627Y841D01*
X695Y841D02*
X710Y841D01*
X0Y840D02*
X7Y840D01*
X79Y840D02*
X86Y840D01*
X104Y840D02*
X111Y840D01*
X292Y840D02*
X311Y840D01*
X496Y840D02*
X514Y840D01*
X620Y840D02*
X627Y840D01*
X695Y840D02*
X710Y840D01*
X0Y839D02*
X7Y839D01*
X79Y839D02*
X86Y839D01*
X104Y839D02*
X111Y839D01*
X291Y839D02*
X312Y839D01*
X496Y839D02*
X515Y839D01*
X620Y839D02*
X627Y839D01*
X695Y839D02*
X710Y839D01*
X0Y838D02*
X7Y838D01*
X79Y838D02*
X86Y838D01*
X104Y838D02*
X111Y838D01*
X291Y838D02*
X312Y838D01*
X495Y838D02*
X515Y838D01*
X620Y838D02*
X627Y838D01*
X695Y838D02*
X710Y838D01*
X0Y837D02*
X7Y837D01*
X79Y837D02*
X86Y837D01*
X104Y837D02*
X111Y837D01*
X290Y837D02*
X312Y837D01*
X496Y837D02*
X516Y837D01*
X620Y837D02*
X627Y837D01*
X695Y837D02*
X710Y837D01*
X0Y836D02*
X7Y836D01*
X79Y836D02*
X86Y836D01*
X104Y836D02*
X111Y836D01*
X290Y836D02*
X312Y836D01*
X496Y836D02*
X516Y836D01*
X620Y836D02*
X627Y836D01*
X695Y836D02*
X710Y836D01*
X0Y835D02*
X7Y835D01*
X79Y835D02*
X86Y835D01*
X104Y835D02*
X111Y835D01*
X289Y835D02*
X311Y835D01*
X497Y835D02*
X517Y835D01*
X620Y835D02*
X627Y835D01*
X695Y835D02*
X710Y835D01*
X0Y834D02*
X7Y834D01*
X79Y834D02*
X86Y834D01*
X104Y834D02*
X111Y834D01*
X288Y834D02*
X309Y834D01*
X498Y834D02*
X518Y834D01*
X620Y834D02*
X627Y834D01*
X695Y834D02*
X710Y834D01*
X0Y833D02*
X7Y833D01*
X79Y833D02*
X86Y833D01*
X104Y833D02*
X111Y833D01*
X620Y833D02*
X627Y833D01*
X695Y833D02*
X710Y833D01*
X0Y832D02*
X7Y832D01*
X79Y832D02*
X86Y832D01*
X104Y832D02*
X111Y832D01*
X620Y832D02*
X627Y832D01*
X695Y832D02*
X710Y832D01*
X0Y831D02*
X7Y831D01*
X79Y831D02*
X86Y831D01*
X104Y831D02*
X111Y831D01*
X620Y831D02*
X627Y831D01*
X695Y831D02*
X710Y831D01*
X0Y830D02*
X7Y830D01*
X79Y830D02*
X86Y830D01*
X104Y830D02*
X111Y830D01*
X620Y830D02*
X627Y830D01*
X695Y830D02*
X710Y830D01*
X0Y829D02*
X7Y829D01*
X79Y829D02*
X86Y829D01*
X104Y829D02*
X111Y829D01*
X620Y829D02*
X627Y829D01*
X695Y829D02*
X710Y829D01*
X0Y828D02*
X7Y828D01*
X79Y828D02*
X86Y828D01*
X104Y828D02*
X111Y828D01*
X620Y828D02*
X627Y828D01*
X695Y828D02*
X710Y828D01*
X0Y827D02*
X7Y827D01*
X79Y827D02*
X86Y827D01*
X104Y827D02*
X111Y827D01*
X620Y827D02*
X627Y827D01*
X695Y827D02*
X710Y827D01*
X0Y826D02*
X7Y826D01*
X79Y826D02*
X86Y826D01*
X104Y826D02*
X111Y826D01*
X620Y826D02*
X627Y826D01*
X695Y826D02*
X710Y826D01*
X0Y825D02*
X7Y825D01*
X79Y825D02*
X86Y825D01*
X104Y825D02*
X111Y825D01*
X279Y825D02*
X279Y825D01*
X527Y825D02*
X527Y825D01*
X620Y825D02*
X627Y825D01*
X695Y825D02*
X710Y825D01*
X0Y824D02*
X7Y824D01*
X79Y824D02*
X86Y824D01*
X104Y824D02*
X111Y824D01*
X278Y824D02*
X279Y824D01*
X527Y824D02*
X528Y824D01*
X620Y824D02*
X627Y824D01*
X695Y824D02*
X710Y824D01*
X0Y823D02*
X7Y823D01*
X79Y823D02*
X86Y823D01*
X104Y823D02*
X111Y823D01*
X276Y823D02*
X279Y823D01*
X527Y823D02*
X530Y823D01*
X620Y823D02*
X627Y823D01*
X695Y823D02*
X710Y823D01*
X0Y822D02*
X7Y822D01*
X79Y822D02*
X86Y822D01*
X104Y822D02*
X111Y822D01*
X275Y822D02*
X279Y822D01*
X527Y822D02*
X531Y822D01*
X620Y822D02*
X627Y822D01*
X695Y822D02*
X710Y822D01*
X0Y821D02*
X7Y821D01*
X79Y821D02*
X86Y821D01*
X104Y821D02*
X111Y821D01*
X273Y821D02*
X279Y821D01*
X527Y821D02*
X533Y821D01*
X620Y821D02*
X627Y821D01*
X695Y821D02*
X710Y821D01*
X0Y820D02*
X7Y820D01*
X79Y820D02*
X86Y820D01*
X104Y820D02*
X111Y820D01*
X272Y820D02*
X279Y820D01*
X527Y820D02*
X534Y820D01*
X620Y820D02*
X627Y820D01*
X695Y820D02*
X710Y820D01*
X0Y819D02*
X7Y819D01*
X79Y819D02*
X86Y819D01*
X104Y819D02*
X111Y819D01*
X272Y819D02*
X279Y819D01*
X527Y819D02*
X534Y819D01*
X620Y819D02*
X627Y819D01*
X695Y819D02*
X710Y819D01*
X0Y818D02*
X7Y818D01*
X79Y818D02*
X86Y818D01*
X104Y818D02*
X111Y818D01*
X272Y818D02*
X279Y818D01*
X527Y818D02*
X534Y818D01*
X620Y818D02*
X627Y818D01*
X695Y818D02*
X710Y818D01*
X0Y817D02*
X7Y817D01*
X79Y817D02*
X86Y817D01*
X104Y817D02*
X111Y817D01*
X272Y817D02*
X279Y817D01*
X527Y817D02*
X534Y817D01*
X620Y817D02*
X627Y817D01*
X695Y817D02*
X710Y817D01*
X0Y816D02*
X7Y816D01*
X79Y816D02*
X86Y816D01*
X104Y816D02*
X111Y816D01*
X272Y816D02*
X279Y816D01*
X527Y816D02*
X534Y816D01*
X620Y816D02*
X627Y816D01*
X695Y816D02*
X710Y816D01*
X0Y815D02*
X7Y815D01*
X79Y815D02*
X86Y815D01*
X104Y815D02*
X111Y815D01*
X272Y815D02*
X279Y815D01*
X527Y815D02*
X534Y815D01*
X620Y815D02*
X627Y815D01*
X695Y815D02*
X710Y815D01*
X0Y814D02*
X7Y814D01*
X79Y814D02*
X86Y814D01*
X104Y814D02*
X111Y814D01*
X272Y814D02*
X279Y814D01*
X527Y814D02*
X534Y814D01*
X620Y814D02*
X627Y814D01*
X695Y814D02*
X710Y814D01*
X0Y813D02*
X7Y813D01*
X79Y813D02*
X86Y813D01*
X104Y813D02*
X111Y813D01*
X272Y813D02*
X279Y813D01*
X527Y813D02*
X534Y813D01*
X620Y813D02*
X627Y813D01*
X695Y813D02*
X710Y813D01*
X0Y812D02*
X7Y812D01*
X79Y812D02*
X86Y812D01*
X104Y812D02*
X111Y812D01*
X272Y812D02*
X279Y812D01*
X527Y812D02*
X534Y812D01*
X620Y812D02*
X627Y812D01*
X695Y812D02*
X710Y812D01*
X0Y811D02*
X7Y811D01*
X79Y811D02*
X86Y811D01*
X104Y811D02*
X111Y811D01*
X272Y811D02*
X279Y811D01*
X527Y811D02*
X534Y811D01*
X620Y811D02*
X627Y811D01*
X695Y811D02*
X710Y811D01*
X0Y810D02*
X7Y810D01*
X79Y810D02*
X86Y810D01*
X104Y810D02*
X111Y810D01*
X272Y810D02*
X279Y810D01*
X527Y810D02*
X534Y810D01*
X620Y810D02*
X627Y810D01*
X695Y810D02*
X710Y810D01*
X0Y809D02*
X7Y809D01*
X79Y809D02*
X86Y809D01*
X104Y809D02*
X111Y809D01*
X272Y809D02*
X279Y809D01*
X527Y809D02*
X534Y809D01*
X620Y809D02*
X627Y809D01*
X695Y809D02*
X710Y809D01*
X0Y808D02*
X7Y808D01*
X79Y808D02*
X86Y808D01*
X104Y808D02*
X111Y808D01*
X272Y808D02*
X279Y808D01*
X527Y808D02*
X534Y808D01*
X620Y808D02*
X627Y808D01*
X695Y808D02*
X710Y808D01*
X0Y807D02*
X7Y807D01*
X79Y807D02*
X86Y807D01*
X104Y807D02*
X111Y807D01*
X272Y807D02*
X279Y807D01*
X527Y807D02*
X534Y807D01*
X620Y807D02*
X627Y807D01*
X695Y807D02*
X710Y807D01*
X0Y806D02*
X7Y806D01*
X79Y806D02*
X86Y806D01*
X104Y806D02*
X111Y806D01*
X272Y806D02*
X279Y806D01*
X527Y806D02*
X534Y806D01*
X620Y806D02*
X627Y806D01*
X695Y806D02*
X710Y806D01*
X0Y805D02*
X7Y805D01*
X79Y805D02*
X86Y805D01*
X104Y805D02*
X111Y805D01*
X272Y805D02*
X278Y805D01*
X528Y805D02*
X534Y805D01*
X620Y805D02*
X627Y805D01*
X695Y805D02*
X710Y805D01*
X0Y804D02*
X7Y804D01*
X79Y804D02*
X86Y804D01*
X104Y804D02*
X111Y804D01*
X272Y804D02*
X278Y804D01*
X528Y804D02*
X533Y804D01*
X620Y804D02*
X627Y804D01*
X695Y804D02*
X710Y804D01*
X0Y803D02*
X7Y803D01*
X79Y803D02*
X86Y803D01*
X104Y803D02*
X111Y803D01*
X274Y803D02*
X277Y803D01*
X530Y803D02*
X532Y803D01*
X620Y803D02*
X627Y803D01*
X695Y803D02*
X710Y803D01*
X0Y802D02*
X7Y802D01*
X79Y802D02*
X86Y802D01*
X104Y802D02*
X111Y802D01*
X620Y802D02*
X627Y802D01*
X695Y802D02*
X710Y802D01*
X0Y801D02*
X7Y801D01*
X79Y801D02*
X86Y801D01*
X104Y801D02*
X111Y801D01*
X620Y801D02*
X627Y801D01*
X695Y801D02*
X710Y801D01*
X0Y800D02*
X7Y800D01*
X79Y800D02*
X86Y800D01*
X104Y800D02*
X111Y800D01*
X620Y800D02*
X627Y800D01*
X695Y800D02*
X710Y800D01*
X0Y799D02*
X7Y799D01*
X79Y799D02*
X86Y799D01*
X104Y799D02*
X111Y799D01*
X620Y799D02*
X627Y799D01*
X695Y799D02*
X710Y799D01*
X0Y798D02*
X7Y798D01*
X79Y798D02*
X86Y798D01*
X104Y798D02*
X111Y798D01*
X620Y798D02*
X627Y798D01*
X695Y798D02*
X710Y798D01*
X0Y797D02*
X7Y797D01*
X79Y797D02*
X86Y797D01*
X104Y797D02*
X111Y797D01*
X620Y797D02*
X627Y797D01*
X695Y797D02*
X710Y797D01*
X0Y796D02*
X7Y796D01*
X79Y796D02*
X86Y796D01*
X104Y796D02*
X111Y796D01*
X620Y796D02*
X627Y796D01*
X695Y796D02*
X710Y796D01*
X0Y795D02*
X7Y795D01*
X79Y795D02*
X86Y795D01*
X104Y795D02*
X111Y795D01*
X620Y795D02*
X627Y795D01*
X695Y795D02*
X710Y795D01*
X0Y794D02*
X7Y794D01*
X79Y794D02*
X86Y794D01*
X104Y794D02*
X111Y794D01*
X620Y794D02*
X627Y794D01*
X695Y794D02*
X710Y794D01*
X0Y793D02*
X7Y793D01*
X79Y793D02*
X86Y793D01*
X104Y793D02*
X111Y793D01*
X620Y793D02*
X627Y793D01*
X695Y793D02*
X710Y793D01*
X0Y792D02*
X7Y792D01*
X79Y792D02*
X86Y792D01*
X104Y792D02*
X111Y792D01*
X620Y792D02*
X627Y792D01*
X695Y792D02*
X710Y792D01*
X0Y791D02*
X7Y791D01*
X79Y791D02*
X86Y791D01*
X104Y791D02*
X111Y791D01*
X620Y791D02*
X627Y791D01*
X695Y791D02*
X710Y791D01*
X0Y790D02*
X7Y790D01*
X79Y790D02*
X86Y790D01*
X104Y790D02*
X111Y790D01*
X620Y790D02*
X627Y790D01*
X695Y790D02*
X710Y790D01*
X0Y789D02*
X7Y789D01*
X79Y789D02*
X86Y789D01*
X104Y789D02*
X111Y789D01*
X620Y789D02*
X627Y789D01*
X695Y789D02*
X710Y789D01*
X0Y788D02*
X7Y788D01*
X79Y788D02*
X86Y788D01*
X104Y788D02*
X111Y788D01*
X620Y788D02*
X627Y788D01*
X695Y788D02*
X710Y788D01*
X0Y787D02*
X7Y787D01*
X79Y787D02*
X86Y787D01*
X104Y787D02*
X111Y787D01*
X620Y787D02*
X627Y787D01*
X695Y787D02*
X710Y787D01*
X0Y786D02*
X7Y786D01*
X79Y786D02*
X86Y786D01*
X104Y786D02*
X111Y786D01*
X620Y786D02*
X627Y786D01*
X695Y786D02*
X710Y786D01*
X0Y785D02*
X7Y785D01*
X79Y785D02*
X86Y785D01*
X104Y785D02*
X111Y785D01*
X620Y785D02*
X627Y785D01*
X695Y785D02*
X710Y785D01*
X0Y784D02*
X7Y784D01*
X79Y784D02*
X86Y784D01*
X104Y784D02*
X111Y784D01*
X620Y784D02*
X627Y784D01*
X695Y784D02*
X710Y784D01*
X0Y783D02*
X7Y783D01*
X79Y783D02*
X86Y783D01*
X104Y783D02*
X111Y783D01*
X620Y783D02*
X627Y783D01*
X695Y783D02*
X710Y783D01*
X0Y782D02*
X7Y782D01*
X79Y782D02*
X86Y782D01*
X104Y782D02*
X111Y782D01*
X620Y782D02*
X627Y782D01*
X695Y782D02*
X710Y782D01*
X0Y781D02*
X7Y781D01*
X79Y781D02*
X86Y781D01*
X104Y781D02*
X111Y781D01*
X620Y781D02*
X627Y781D01*
X695Y781D02*
X710Y781D01*
X0Y780D02*
X7Y780D01*
X79Y780D02*
X86Y780D01*
X104Y780D02*
X111Y780D01*
X620Y780D02*
X627Y780D01*
X695Y780D02*
X710Y780D01*
X0Y779D02*
X7Y779D01*
X79Y779D02*
X86Y779D01*
X104Y779D02*
X111Y779D01*
X620Y779D02*
X627Y779D01*
X695Y779D02*
X710Y779D01*
X0Y778D02*
X7Y778D01*
X79Y778D02*
X86Y778D01*
X104Y778D02*
X111Y778D01*
X620Y778D02*
X627Y778D01*
X695Y778D02*
X710Y778D01*
X0Y777D02*
X7Y777D01*
X79Y777D02*
X86Y777D01*
X104Y777D02*
X111Y777D01*
X620Y777D02*
X627Y777D01*
X695Y777D02*
X710Y777D01*
X0Y776D02*
X7Y776D01*
X79Y776D02*
X86Y776D01*
X104Y776D02*
X111Y776D01*
X620Y776D02*
X627Y776D01*
X695Y776D02*
X710Y776D01*
X0Y775D02*
X7Y775D01*
X79Y775D02*
X86Y775D01*
X104Y775D02*
X111Y775D01*
X620Y775D02*
X627Y775D01*
X695Y775D02*
X710Y775D01*
X0Y774D02*
X7Y774D01*
X79Y774D02*
X86Y774D01*
X104Y774D02*
X111Y774D01*
X620Y774D02*
X627Y774D01*
X695Y774D02*
X710Y774D01*
X0Y773D02*
X7Y773D01*
X79Y773D02*
X86Y773D01*
X104Y773D02*
X111Y773D01*
X620Y773D02*
X627Y773D01*
X695Y773D02*
X710Y773D01*
X0Y772D02*
X7Y772D01*
X79Y772D02*
X86Y772D01*
X104Y772D02*
X111Y772D01*
X620Y772D02*
X627Y772D01*
X695Y772D02*
X710Y772D01*
X0Y771D02*
X7Y771D01*
X79Y771D02*
X86Y771D01*
X104Y771D02*
X111Y771D01*
X620Y771D02*
X627Y771D01*
X695Y771D02*
X710Y771D01*
X0Y770D02*
X7Y770D01*
X79Y770D02*
X86Y770D01*
X104Y770D02*
X111Y770D01*
X620Y770D02*
X627Y770D01*
X695Y770D02*
X710Y770D01*
X0Y769D02*
X7Y769D01*
X79Y769D02*
X86Y769D01*
X104Y769D02*
X111Y769D01*
X620Y769D02*
X627Y769D01*
X695Y769D02*
X710Y769D01*
X0Y768D02*
X7Y768D01*
X79Y768D02*
X86Y768D01*
X104Y768D02*
X111Y768D01*
X620Y768D02*
X627Y768D01*
X695Y768D02*
X710Y768D01*
X0Y767D02*
X7Y767D01*
X79Y767D02*
X627Y767D01*
X695Y767D02*
X710Y767D01*
X0Y766D02*
X7Y766D01*
X79Y766D02*
X627Y766D01*
X695Y766D02*
X710Y766D01*
X0Y765D02*
X7Y765D01*
X79Y765D02*
X627Y765D01*
X695Y765D02*
X710Y765D01*
X0Y764D02*
X7Y764D01*
X79Y764D02*
X627Y764D01*
X695Y764D02*
X710Y764D01*
X0Y763D02*
X7Y763D01*
X79Y763D02*
X627Y763D01*
X695Y763D02*
X710Y763D01*
X0Y762D02*
X7Y762D01*
X79Y762D02*
X627Y762D01*
X695Y762D02*
X710Y762D01*
X0Y761D02*
X7Y761D01*
X79Y761D02*
X627Y761D01*
X695Y761D02*
X710Y761D01*
X0Y760D02*
X7Y760D01*
X79Y760D02*
X627Y760D01*
X695Y760D02*
X710Y760D01*
X0Y759D02*
X7Y759D01*
X104Y759D02*
X111Y759D01*
X695Y759D02*
X710Y759D01*
X0Y758D02*
X7Y758D01*
X104Y758D02*
X111Y758D01*
X695Y758D02*
X710Y758D01*
X0Y757D02*
X7Y757D01*
X104Y757D02*
X111Y757D01*
X695Y757D02*
X710Y757D01*
X0Y756D02*
X7Y756D01*
X104Y756D02*
X111Y756D01*
X695Y756D02*
X710Y756D01*
X0Y755D02*
X7Y755D01*
X104Y755D02*
X111Y755D01*
X695Y755D02*
X710Y755D01*
X0Y754D02*
X7Y754D01*
X104Y754D02*
X111Y754D01*
X695Y754D02*
X710Y754D01*
X0Y753D02*
X7Y753D01*
X104Y753D02*
X111Y753D01*
X695Y753D02*
X710Y753D01*
X0Y752D02*
X7Y752D01*
X104Y752D02*
X111Y752D01*
X695Y752D02*
X710Y752D01*
X0Y751D02*
X7Y751D01*
X104Y751D02*
X111Y751D01*
X695Y751D02*
X710Y751D01*
X0Y750D02*
X7Y750D01*
X104Y750D02*
X111Y750D01*
X695Y750D02*
X710Y750D01*
X0Y749D02*
X7Y749D01*
X104Y749D02*
X111Y749D01*
X695Y749D02*
X710Y749D01*
X0Y748D02*
X7Y748D01*
X104Y748D02*
X111Y748D01*
X695Y748D02*
X710Y748D01*
X0Y747D02*
X7Y747D01*
X104Y747D02*
X111Y747D01*
X695Y747D02*
X710Y747D01*
X0Y746D02*
X7Y746D01*
X104Y746D02*
X111Y746D01*
X695Y746D02*
X710Y746D01*
X0Y745D02*
X7Y745D01*
X104Y745D02*
X111Y745D01*
X695Y745D02*
X710Y745D01*
X0Y744D02*
X7Y744D01*
X104Y744D02*
X111Y744D01*
X695Y744D02*
X710Y744D01*
X0Y743D02*
X7Y743D01*
X104Y743D02*
X111Y743D01*
X695Y743D02*
X710Y743D01*
X0Y742D02*
X7Y742D01*
X104Y742D02*
X111Y742D01*
X695Y742D02*
X710Y742D01*
X0Y741D02*
X7Y741D01*
X104Y741D02*
X111Y741D01*
X695Y741D02*
X710Y741D01*
X0Y740D02*
X7Y740D01*
X104Y740D02*
X111Y740D01*
X695Y740D02*
X710Y740D01*
X0Y739D02*
X7Y739D01*
X104Y739D02*
X111Y739D01*
X695Y739D02*
X710Y739D01*
X0Y738D02*
X7Y738D01*
X104Y738D02*
X111Y738D01*
X695Y738D02*
X710Y738D01*
X0Y737D02*
X7Y737D01*
X104Y737D02*
X111Y737D01*
X695Y737D02*
X710Y737D01*
X0Y736D02*
X7Y736D01*
X104Y736D02*
X111Y736D01*
X695Y736D02*
X710Y736D01*
X0Y735D02*
X7Y735D01*
X104Y735D02*
X111Y735D01*
X695Y735D02*
X710Y735D01*
X0Y734D02*
X7Y734D01*
X104Y734D02*
X111Y734D01*
X695Y734D02*
X710Y734D01*
X0Y733D02*
X7Y733D01*
X104Y733D02*
X111Y733D01*
X695Y733D02*
X710Y733D01*
X0Y732D02*
X7Y732D01*
X104Y732D02*
X111Y732D01*
X695Y732D02*
X710Y732D01*
X0Y731D02*
X7Y731D01*
X104Y731D02*
X111Y731D01*
X695Y731D02*
X710Y731D01*
X0Y730D02*
X7Y730D01*
X104Y730D02*
X111Y730D01*
X695Y730D02*
X710Y730D01*
X0Y729D02*
X7Y729D01*
X104Y729D02*
X111Y729D01*
X695Y729D02*
X710Y729D01*
X0Y728D02*
X7Y728D01*
X104Y728D02*
X111Y728D01*
X695Y728D02*
X710Y728D01*
X0Y727D02*
X7Y727D01*
X104Y727D02*
X111Y727D01*
X695Y727D02*
X710Y727D01*
X0Y726D02*
X7Y726D01*
X104Y726D02*
X111Y726D01*
X695Y726D02*
X710Y726D01*
X0Y725D02*
X7Y725D01*
X104Y725D02*
X111Y725D01*
X695Y725D02*
X710Y725D01*
X0Y724D02*
X7Y724D01*
X104Y724D02*
X111Y724D01*
X695Y724D02*
X710Y724D01*
X0Y723D02*
X7Y723D01*
X104Y723D02*
X111Y723D01*
X695Y723D02*
X710Y723D01*
X0Y722D02*
X7Y722D01*
X104Y722D02*
X111Y722D01*
X695Y722D02*
X710Y722D01*
X0Y721D02*
X7Y721D01*
X104Y721D02*
X111Y721D01*
X695Y721D02*
X710Y721D01*
X0Y720D02*
X7Y720D01*
X104Y720D02*
X111Y720D01*
X695Y720D02*
X710Y720D01*
X0Y719D02*
X7Y719D01*
X104Y719D02*
X111Y719D01*
X695Y719D02*
X710Y719D01*
X0Y718D02*
X7Y718D01*
X104Y718D02*
X111Y718D01*
X695Y718D02*
X710Y718D01*
X0Y717D02*
X7Y717D01*
X104Y717D02*
X111Y717D01*
X695Y717D02*
X710Y717D01*
X0Y716D02*
X7Y716D01*
X104Y716D02*
X111Y716D01*
X695Y716D02*
X710Y716D01*
X0Y715D02*
X7Y715D01*
X104Y715D02*
X111Y715D01*
X695Y715D02*
X710Y715D01*
X0Y714D02*
X7Y714D01*
X104Y714D02*
X111Y714D01*
X695Y714D02*
X710Y714D01*
X0Y713D02*
X7Y713D01*
X104Y713D02*
X111Y713D01*
X227Y713D02*
X229Y713D01*
X277Y713D02*
X279Y713D01*
X695Y713D02*
X710Y713D01*
X0Y712D02*
X7Y712D01*
X104Y712D02*
X111Y712D01*
X226Y712D02*
X231Y712D01*
X276Y712D02*
X281Y712D01*
X695Y712D02*
X710Y712D01*
X0Y711D02*
X7Y711D01*
X104Y711D02*
X111Y711D01*
X225Y711D02*
X231Y711D01*
X275Y711D02*
X282Y711D01*
X695Y711D02*
X710Y711D01*
X0Y710D02*
X7Y710D01*
X104Y710D02*
X111Y710D01*
X224Y710D02*
X232Y710D01*
X275Y710D02*
X283Y710D01*
X695Y710D02*
X710Y710D01*
X0Y709D02*
X7Y709D01*
X104Y709D02*
X111Y709D01*
X192Y709D02*
X195Y709D01*
X223Y709D02*
X232Y709D01*
X275Y709D02*
X284Y709D01*
X695Y709D02*
X710Y709D01*
X0Y708D02*
X7Y708D01*
X104Y708D02*
X111Y708D01*
X190Y708D02*
X196Y708D01*
X222Y708D02*
X231Y708D01*
X275Y708D02*
X285Y708D01*
X695Y708D02*
X710Y708D01*
X0Y707D02*
X7Y707D01*
X104Y707D02*
X111Y707D01*
X190Y707D02*
X197Y707D01*
X221Y707D02*
X231Y707D01*
X276Y707D02*
X286Y707D01*
X695Y707D02*
X710Y707D01*
X0Y706D02*
X7Y706D01*
X104Y706D02*
X111Y706D01*
X189Y706D02*
X198Y706D01*
X220Y706D02*
X230Y706D01*
X276Y706D02*
X287Y706D01*
X695Y706D02*
X710Y706D01*
X0Y705D02*
X7Y705D01*
X104Y705D02*
X111Y705D01*
X189Y705D02*
X199Y705D01*
X219Y705D02*
X229Y705D01*
X277Y705D02*
X288Y705D01*
X695Y705D02*
X710Y705D01*
X0Y704D02*
X7Y704D01*
X104Y704D02*
X111Y704D01*
X189Y704D02*
X200Y704D01*
X218Y704D02*
X228Y704D01*
X278Y704D02*
X289Y704D01*
X695Y704D02*
X710Y704D01*
X0Y703D02*
X7Y703D01*
X104Y703D02*
X111Y703D01*
X189Y703D02*
X201Y703D01*
X217Y703D02*
X227Y703D01*
X279Y703D02*
X290Y703D01*
X695Y703D02*
X710Y703D01*
X0Y702D02*
X7Y702D01*
X104Y702D02*
X111Y702D01*
X189Y702D02*
X202Y702D01*
X216Y702D02*
X226Y702D01*
X280Y702D02*
X291Y702D01*
X695Y702D02*
X710Y702D01*
X0Y701D02*
X7Y701D01*
X104Y701D02*
X111Y701D01*
X190Y701D02*
X203Y701D01*
X695Y701D02*
X710Y701D01*
X0Y700D02*
X7Y700D01*
X104Y700D02*
X111Y700D01*
X191Y700D02*
X204Y700D01*
X695Y700D02*
X710Y700D01*
X0Y699D02*
X7Y699D01*
X104Y699D02*
X111Y699D01*
X192Y699D02*
X205Y699D01*
X695Y699D02*
X710Y699D01*
X0Y698D02*
X7Y698D01*
X104Y698D02*
X111Y698D01*
X193Y698D02*
X206Y698D01*
X695Y698D02*
X710Y698D01*
X0Y697D02*
X7Y697D01*
X104Y697D02*
X111Y697D01*
X194Y697D02*
X207Y697D01*
X211Y697D02*
X211Y697D01*
X296Y697D02*
X296Y697D01*
X695Y697D02*
X710Y697D01*
X0Y696D02*
X7Y696D01*
X104Y696D02*
X111Y696D01*
X195Y696D02*
X208Y696D01*
X210Y696D02*
X211Y696D01*
X296Y696D02*
X297Y696D01*
X695Y696D02*
X710Y696D01*
X0Y695D02*
X7Y695D01*
X104Y695D02*
X111Y695D01*
X196Y695D02*
X211Y695D01*
X296Y695D02*
X298Y695D01*
X695Y695D02*
X710Y695D01*
X0Y694D02*
X7Y694D01*
X104Y694D02*
X111Y694D01*
X197Y694D02*
X211Y694D01*
X296Y694D02*
X299Y694D01*
X695Y694D02*
X710Y694D01*
X0Y693D02*
X7Y693D01*
X104Y693D02*
X111Y693D01*
X198Y693D02*
X211Y693D01*
X296Y693D02*
X300Y693D01*
X695Y693D02*
X710Y693D01*
X0Y692D02*
X7Y692D01*
X104Y692D02*
X111Y692D01*
X199Y692D02*
X211Y692D01*
X296Y692D02*
X301Y692D01*
X695Y692D02*
X710Y692D01*
X0Y691D02*
X7Y691D01*
X104Y691D02*
X111Y691D01*
X200Y691D02*
X211Y691D01*
X296Y691D02*
X302Y691D01*
X695Y691D02*
X710Y691D01*
X0Y690D02*
X7Y690D01*
X104Y690D02*
X111Y690D01*
X201Y690D02*
X211Y690D01*
X296Y690D02*
X303Y690D01*
X695Y690D02*
X710Y690D01*
X0Y689D02*
X7Y689D01*
X104Y689D02*
X111Y689D01*
X147Y689D02*
X211Y689D01*
X296Y689D02*
X304Y689D01*
X695Y689D02*
X710Y689D01*
X0Y688D02*
X7Y688D01*
X104Y688D02*
X111Y688D01*
X145Y688D02*
X211Y688D01*
X296Y688D02*
X305Y688D01*
X695Y688D02*
X710Y688D01*
X0Y687D02*
X7Y687D01*
X104Y687D02*
X111Y687D01*
X145Y687D02*
X211Y687D01*
X296Y687D02*
X306Y687D01*
X695Y687D02*
X710Y687D01*
X0Y686D02*
X7Y686D01*
X104Y686D02*
X111Y686D01*
X144Y686D02*
X211Y686D01*
X296Y686D02*
X306Y686D01*
X695Y686D02*
X710Y686D01*
X0Y685D02*
X7Y685D01*
X104Y685D02*
X111Y685D01*
X144Y685D02*
X211Y685D01*
X297Y685D02*
X307Y685D01*
X695Y685D02*
X710Y685D01*
X0Y684D02*
X7Y684D01*
X104Y684D02*
X111Y684D01*
X144Y684D02*
X211Y684D01*
X298Y684D02*
X307Y684D01*
X695Y684D02*
X710Y684D01*
X0Y683D02*
X7Y683D01*
X104Y683D02*
X111Y683D01*
X144Y683D02*
X211Y683D01*
X299Y683D02*
X306Y683D01*
X695Y683D02*
X710Y683D01*
X0Y682D02*
X7Y682D01*
X104Y682D02*
X111Y682D01*
X145Y682D02*
X211Y682D01*
X300Y682D02*
X306Y682D01*
X695Y682D02*
X710Y682D01*
X0Y681D02*
X7Y681D01*
X104Y681D02*
X111Y681D01*
X145Y681D02*
X211Y681D01*
X302Y681D02*
X305Y681D01*
X695Y681D02*
X710Y681D01*
X0Y680D02*
X7Y680D01*
X104Y680D02*
X111Y680D01*
X147Y680D02*
X211Y680D01*
X695Y680D02*
X710Y680D01*
X0Y679D02*
X7Y679D01*
X104Y679D02*
X111Y679D01*
X201Y679D02*
X211Y679D01*
X695Y679D02*
X710Y679D01*
X0Y678D02*
X7Y678D01*
X104Y678D02*
X111Y678D01*
X200Y678D02*
X211Y678D01*
X695Y678D02*
X710Y678D01*
X0Y677D02*
X7Y677D01*
X104Y677D02*
X111Y677D01*
X199Y677D02*
X211Y677D01*
X695Y677D02*
X710Y677D01*
X0Y676D02*
X7Y676D01*
X104Y676D02*
X111Y676D01*
X198Y676D02*
X211Y676D01*
X695Y676D02*
X710Y676D01*
X0Y675D02*
X7Y675D01*
X104Y675D02*
X111Y675D01*
X197Y675D02*
X210Y675D01*
X695Y675D02*
X710Y675D01*
X0Y674D02*
X7Y674D01*
X104Y674D02*
X111Y674D01*
X196Y674D02*
X209Y674D01*
X695Y674D02*
X710Y674D01*
X0Y673D02*
X7Y673D01*
X104Y673D02*
X111Y673D01*
X195Y673D02*
X208Y673D01*
X695Y673D02*
X710Y673D01*
X0Y672D02*
X7Y672D01*
X104Y672D02*
X111Y672D01*
X194Y672D02*
X207Y672D01*
X695Y672D02*
X710Y672D01*
X0Y671D02*
X7Y671D01*
X104Y671D02*
X111Y671D01*
X193Y671D02*
X206Y671D01*
X695Y671D02*
X710Y671D01*
X0Y670D02*
X7Y670D01*
X104Y670D02*
X111Y670D01*
X192Y670D02*
X205Y670D01*
X695Y670D02*
X710Y670D01*
X0Y669D02*
X7Y669D01*
X104Y669D02*
X111Y669D01*
X191Y669D02*
X204Y669D01*
X695Y669D02*
X710Y669D01*
X0Y668D02*
X7Y668D01*
X104Y668D02*
X111Y668D01*
X190Y668D02*
X203Y668D01*
X695Y668D02*
X710Y668D01*
X0Y667D02*
X7Y667D01*
X104Y667D02*
X111Y667D01*
X190Y667D02*
X202Y667D01*
X695Y667D02*
X710Y667D01*
X0Y666D02*
X7Y666D01*
X104Y666D02*
X111Y666D01*
X189Y666D02*
X201Y666D01*
X695Y666D02*
X710Y666D01*
X0Y665D02*
X7Y665D01*
X104Y665D02*
X111Y665D01*
X189Y665D02*
X200Y665D01*
X695Y665D02*
X710Y665D01*
X0Y664D02*
X7Y664D01*
X104Y664D02*
X111Y664D01*
X189Y664D02*
X199Y664D01*
X695Y664D02*
X710Y664D01*
X0Y663D02*
X7Y663D01*
X104Y663D02*
X111Y663D01*
X189Y663D02*
X198Y663D01*
X695Y663D02*
X710Y663D01*
X0Y662D02*
X7Y662D01*
X104Y662D02*
X111Y662D01*
X190Y662D02*
X197Y662D01*
X695Y662D02*
X710Y662D01*
X0Y661D02*
X7Y661D01*
X104Y661D02*
X111Y661D01*
X190Y661D02*
X196Y661D01*
X695Y661D02*
X710Y661D01*
X0Y660D02*
X7Y660D01*
X104Y660D02*
X111Y660D01*
X192Y660D02*
X195Y660D01*
X695Y660D02*
X710Y660D01*
X0Y659D02*
X7Y659D01*
X104Y659D02*
X111Y659D01*
X695Y659D02*
X710Y659D01*
X0Y658D02*
X7Y658D01*
X104Y658D02*
X111Y658D01*
X695Y658D02*
X710Y658D01*
X0Y657D02*
X7Y657D01*
X104Y657D02*
X111Y657D01*
X695Y657D02*
X710Y657D01*
X0Y656D02*
X7Y656D01*
X104Y656D02*
X111Y656D01*
X695Y656D02*
X710Y656D01*
X0Y655D02*
X7Y655D01*
X104Y655D02*
X111Y655D01*
X695Y655D02*
X710Y655D01*
X0Y654D02*
X7Y654D01*
X104Y654D02*
X111Y654D01*
X695Y654D02*
X710Y654D01*
X0Y653D02*
X7Y653D01*
X104Y653D02*
X111Y653D01*
X695Y653D02*
X710Y653D01*
X0Y652D02*
X7Y652D01*
X104Y652D02*
X111Y652D01*
X695Y652D02*
X710Y652D01*
X0Y651D02*
X7Y651D01*
X104Y651D02*
X111Y651D01*
X695Y651D02*
X710Y651D01*
X0Y650D02*
X7Y650D01*
X104Y650D02*
X111Y650D01*
X695Y650D02*
X710Y650D01*
X0Y649D02*
X7Y649D01*
X104Y649D02*
X111Y649D01*
X695Y649D02*
X710Y649D01*
X0Y648D02*
X7Y648D01*
X104Y648D02*
X111Y648D01*
X695Y648D02*
X710Y648D01*
X0Y647D02*
X7Y647D01*
X104Y647D02*
X111Y647D01*
X695Y647D02*
X710Y647D01*
X0Y646D02*
X7Y646D01*
X104Y646D02*
X111Y646D01*
X695Y646D02*
X710Y646D01*
X0Y645D02*
X7Y645D01*
X104Y645D02*
X111Y645D01*
X695Y645D02*
X710Y645D01*
X0Y644D02*
X7Y644D01*
X104Y644D02*
X111Y644D01*
X695Y644D02*
X710Y644D01*
X0Y643D02*
X7Y643D01*
X104Y643D02*
X111Y643D01*
X695Y643D02*
X710Y643D01*
X0Y642D02*
X7Y642D01*
X104Y642D02*
X111Y642D01*
X695Y642D02*
X710Y642D01*
X0Y641D02*
X7Y641D01*
X104Y641D02*
X111Y641D01*
X695Y641D02*
X710Y641D01*
X0Y640D02*
X7Y640D01*
X104Y640D02*
X111Y640D01*
X695Y640D02*
X710Y640D01*
X0Y639D02*
X7Y639D01*
X104Y639D02*
X111Y639D01*
X695Y639D02*
X710Y639D01*
X0Y638D02*
X7Y638D01*
X104Y638D02*
X111Y638D01*
X202Y638D02*
X204Y638D01*
X302Y638D02*
X304Y638D01*
X695Y638D02*
X710Y638D01*
X0Y637D02*
X7Y637D01*
X104Y637D02*
X111Y637D01*
X201Y637D02*
X206Y637D01*
X301Y637D02*
X306Y637D01*
X695Y637D02*
X710Y637D01*
X0Y636D02*
X7Y636D01*
X104Y636D02*
X111Y636D01*
X200Y636D02*
X207Y636D01*
X300Y636D02*
X306Y636D01*
X695Y636D02*
X710Y636D01*
X0Y635D02*
X7Y635D01*
X104Y635D02*
X111Y635D01*
X200Y635D02*
X208Y635D01*
X299Y635D02*
X307Y635D01*
X695Y635D02*
X710Y635D01*
X0Y634D02*
X7Y634D01*
X104Y634D02*
X111Y634D01*
X200Y634D02*
X209Y634D01*
X298Y634D02*
X307Y634D01*
X695Y634D02*
X710Y634D01*
X0Y633D02*
X7Y633D01*
X104Y633D02*
X111Y633D01*
X200Y633D02*
X210Y633D01*
X297Y633D02*
X306Y633D01*
X695Y633D02*
X710Y633D01*
X0Y632D02*
X7Y632D01*
X104Y632D02*
X111Y632D01*
X201Y632D02*
X211Y632D01*
X296Y632D02*
X306Y632D01*
X695Y632D02*
X710Y632D01*
X0Y631D02*
X7Y631D01*
X104Y631D02*
X111Y631D01*
X202Y631D02*
X211Y631D01*
X296Y631D02*
X305Y631D01*
X695Y631D02*
X710Y631D01*
X0Y630D02*
X7Y630D01*
X104Y630D02*
X111Y630D01*
X203Y630D02*
X211Y630D01*
X296Y630D02*
X304Y630D01*
X695Y630D02*
X710Y630D01*
X0Y629D02*
X7Y629D01*
X104Y629D02*
X111Y629D01*
X204Y629D02*
X211Y629D01*
X296Y629D02*
X303Y629D01*
X695Y629D02*
X710Y629D01*
X0Y628D02*
X7Y628D01*
X104Y628D02*
X111Y628D01*
X205Y628D02*
X211Y628D01*
X296Y628D02*
X302Y628D01*
X695Y628D02*
X710Y628D01*
X0Y627D02*
X7Y627D01*
X104Y627D02*
X111Y627D01*
X206Y627D02*
X211Y627D01*
X296Y627D02*
X301Y627D01*
X695Y627D02*
X710Y627D01*
X0Y626D02*
X7Y626D01*
X104Y626D02*
X111Y626D01*
X207Y626D02*
X211Y626D01*
X296Y626D02*
X300Y626D01*
X695Y626D02*
X710Y626D01*
X0Y625D02*
X7Y625D01*
X104Y625D02*
X111Y625D01*
X208Y625D02*
X211Y625D01*
X296Y625D02*
X299Y625D01*
X695Y625D02*
X710Y625D01*
X0Y624D02*
X7Y624D01*
X104Y624D02*
X111Y624D01*
X209Y624D02*
X211Y624D01*
X296Y624D02*
X298Y624D01*
X695Y624D02*
X710Y624D01*
X0Y623D02*
X7Y623D01*
X104Y623D02*
X111Y623D01*
X210Y623D02*
X211Y623D01*
X296Y623D02*
X297Y623D01*
X695Y623D02*
X710Y623D01*
X0Y622D02*
X7Y622D01*
X104Y622D02*
X111Y622D01*
X211Y622D02*
X211Y622D01*
X296Y622D02*
X296Y622D01*
X695Y622D02*
X710Y622D01*
X0Y621D02*
X7Y621D01*
X104Y621D02*
X111Y621D01*
X695Y621D02*
X710Y621D01*
X0Y620D02*
X7Y620D01*
X104Y620D02*
X111Y620D01*
X695Y620D02*
X710Y620D01*
X0Y619D02*
X7Y619D01*
X104Y619D02*
X111Y619D01*
X695Y619D02*
X710Y619D01*
X0Y618D02*
X7Y618D01*
X104Y618D02*
X111Y618D01*
X695Y618D02*
X710Y618D01*
X0Y617D02*
X7Y617D01*
X104Y617D02*
X710Y617D01*
X0Y616D02*
X7Y616D01*
X104Y616D02*
X710Y616D01*
X0Y615D02*
X7Y615D01*
X104Y615D02*
X710Y615D01*
X0Y614D02*
X7Y614D01*
X104Y614D02*
X710Y614D01*
X0Y613D02*
X7Y613D01*
X104Y613D02*
X710Y613D01*
X0Y612D02*
X7Y612D01*
X104Y612D02*
X710Y612D01*
X0Y611D02*
X7Y611D01*
X104Y611D02*
X710Y611D01*
X0Y610D02*
X7Y610D01*
X104Y610D02*
X710Y610D01*
X0Y609D02*
X7Y609D01*
X104Y609D02*
X111Y609D01*
X224Y609D02*
X232Y609D01*
X272Y609D02*
X283Y609D01*
X695Y609D02*
X710Y609D01*
X0Y608D02*
X7Y608D01*
X104Y608D02*
X111Y608D01*
X225Y608D02*
X231Y608D01*
X272Y608D02*
X282Y608D01*
X695Y608D02*
X710Y608D01*
X0Y607D02*
X7Y607D01*
X104Y607D02*
X111Y607D01*
X226Y607D02*
X231Y607D01*
X272Y607D02*
X281Y607D01*
X695Y607D02*
X710Y607D01*
X0Y606D02*
X7Y606D01*
X104Y606D02*
X111Y606D01*
X227Y606D02*
X230Y606D01*
X272Y606D02*
X280Y606D01*
X695Y606D02*
X710Y606D01*
X0Y605D02*
X7Y605D01*
X104Y605D02*
X111Y605D01*
X272Y605D02*
X279Y605D01*
X695Y605D02*
X710Y605D01*
X0Y604D02*
X7Y604D01*
X104Y604D02*
X111Y604D01*
X272Y604D02*
X279Y604D01*
X695Y604D02*
X710Y604D01*
X0Y603D02*
X7Y603D01*
X104Y603D02*
X111Y603D01*
X272Y603D02*
X279Y603D01*
X695Y603D02*
X710Y603D01*
X0Y602D02*
X7Y602D01*
X104Y602D02*
X111Y602D01*
X272Y602D02*
X279Y602D01*
X695Y602D02*
X710Y602D01*
X0Y601D02*
X7Y601D01*
X104Y601D02*
X111Y601D01*
X272Y601D02*
X279Y601D01*
X695Y601D02*
X710Y601D01*
X0Y600D02*
X7Y600D01*
X104Y600D02*
X111Y600D01*
X272Y600D02*
X279Y600D01*
X695Y600D02*
X710Y600D01*
X0Y599D02*
X7Y599D01*
X104Y599D02*
X111Y599D01*
X272Y599D02*
X279Y599D01*
X695Y599D02*
X710Y599D01*
X0Y598D02*
X7Y598D01*
X104Y598D02*
X111Y598D01*
X272Y598D02*
X279Y598D01*
X695Y598D02*
X710Y598D01*
X0Y597D02*
X7Y597D01*
X104Y597D02*
X111Y597D01*
X272Y597D02*
X279Y597D01*
X695Y597D02*
X710Y597D01*
X0Y596D02*
X7Y596D01*
X104Y596D02*
X111Y596D01*
X272Y596D02*
X279Y596D01*
X695Y596D02*
X710Y596D01*
X0Y595D02*
X7Y595D01*
X104Y595D02*
X111Y595D01*
X272Y595D02*
X279Y595D01*
X695Y595D02*
X710Y595D01*
X0Y594D02*
X7Y594D01*
X104Y594D02*
X111Y594D01*
X272Y594D02*
X279Y594D01*
X695Y594D02*
X710Y594D01*
X0Y593D02*
X7Y593D01*
X104Y593D02*
X111Y593D01*
X272Y593D02*
X279Y593D01*
X695Y593D02*
X710Y593D01*
X0Y592D02*
X7Y592D01*
X104Y592D02*
X111Y592D01*
X272Y592D02*
X279Y592D01*
X695Y592D02*
X710Y592D01*
X0Y591D02*
X7Y591D01*
X104Y591D02*
X111Y591D01*
X272Y591D02*
X279Y591D01*
X695Y591D02*
X710Y591D01*
X0Y590D02*
X7Y590D01*
X104Y590D02*
X111Y590D01*
X272Y590D02*
X279Y590D01*
X695Y590D02*
X710Y590D01*
X0Y589D02*
X7Y589D01*
X104Y589D02*
X111Y589D01*
X272Y589D02*
X279Y589D01*
X695Y589D02*
X710Y589D01*
X0Y588D02*
X7Y588D01*
X104Y588D02*
X111Y588D01*
X272Y588D02*
X279Y588D01*
X695Y588D02*
X710Y588D01*
X0Y587D02*
X7Y587D01*
X104Y587D02*
X111Y587D01*
X272Y587D02*
X279Y587D01*
X695Y587D02*
X710Y587D01*
X0Y586D02*
X7Y586D01*
X104Y586D02*
X111Y586D01*
X272Y586D02*
X279Y586D01*
X695Y586D02*
X710Y586D01*
X0Y585D02*
X7Y585D01*
X104Y585D02*
X111Y585D01*
X272Y585D02*
X279Y585D01*
X695Y585D02*
X710Y585D01*
X0Y584D02*
X7Y584D01*
X104Y584D02*
X111Y584D01*
X272Y584D02*
X279Y584D01*
X695Y584D02*
X710Y584D01*
X0Y583D02*
X7Y583D01*
X104Y583D02*
X111Y583D01*
X272Y583D02*
X279Y583D01*
X695Y583D02*
X710Y583D01*
X0Y582D02*
X7Y582D01*
X104Y582D02*
X111Y582D01*
X272Y582D02*
X279Y582D01*
X695Y582D02*
X710Y582D01*
X0Y581D02*
X7Y581D01*
X104Y581D02*
X111Y581D01*
X272Y581D02*
X279Y581D01*
X695Y581D02*
X710Y581D01*
X0Y580D02*
X7Y580D01*
X104Y580D02*
X111Y580D01*
X272Y580D02*
X278Y580D01*
X695Y580D02*
X710Y580D01*
X0Y579D02*
X7Y579D01*
X104Y579D02*
X111Y579D01*
X273Y579D02*
X277Y579D01*
X695Y579D02*
X710Y579D01*
X0Y578D02*
X7Y578D01*
X104Y578D02*
X111Y578D01*
X275Y578D02*
X275Y578D01*
X695Y578D02*
X710Y578D01*
X0Y577D02*
X7Y577D01*
X104Y577D02*
X111Y577D01*
X695Y577D02*
X710Y577D01*
X0Y576D02*
X7Y576D01*
X104Y576D02*
X111Y576D01*
X695Y576D02*
X710Y576D01*
X0Y575D02*
X7Y575D01*
X104Y575D02*
X111Y575D01*
X695Y575D02*
X710Y575D01*
X0Y574D02*
X7Y574D01*
X104Y574D02*
X111Y574D01*
X695Y574D02*
X710Y574D01*
X0Y573D02*
X7Y573D01*
X104Y573D02*
X111Y573D01*
X695Y573D02*
X710Y573D01*
X0Y572D02*
X7Y572D01*
X104Y572D02*
X111Y572D01*
X695Y572D02*
X710Y572D01*
X0Y571D02*
X7Y571D01*
X104Y571D02*
X111Y571D01*
X695Y571D02*
X710Y571D01*
X0Y570D02*
X7Y570D01*
X104Y570D02*
X111Y570D01*
X695Y570D02*
X710Y570D01*
X0Y569D02*
X7Y569D01*
X104Y569D02*
X111Y569D01*
X695Y569D02*
X710Y569D01*
X0Y568D02*
X7Y568D01*
X104Y568D02*
X111Y568D01*
X695Y568D02*
X710Y568D01*
X0Y567D02*
X7Y567D01*
X104Y567D02*
X111Y567D01*
X695Y567D02*
X710Y567D01*
X0Y566D02*
X7Y566D01*
X104Y566D02*
X111Y566D01*
X695Y566D02*
X710Y566D01*
X0Y565D02*
X7Y565D01*
X104Y565D02*
X111Y565D01*
X695Y565D02*
X710Y565D01*
X0Y564D02*
X7Y564D01*
X104Y564D02*
X111Y564D01*
X695Y564D02*
X710Y564D01*
X0Y563D02*
X7Y563D01*
X104Y563D02*
X111Y563D01*
X695Y563D02*
X710Y563D01*
X0Y562D02*
X7Y562D01*
X104Y562D02*
X111Y562D01*
X695Y562D02*
X710Y562D01*
X0Y561D02*
X7Y561D01*
X104Y561D02*
X111Y561D01*
X695Y561D02*
X710Y561D01*
X0Y560D02*
X7Y560D01*
X104Y560D02*
X111Y560D01*
X695Y560D02*
X710Y560D01*
X0Y559D02*
X7Y559D01*
X104Y559D02*
X111Y559D01*
X695Y559D02*
X710Y559D01*
X0Y558D02*
X7Y558D01*
X104Y558D02*
X111Y558D01*
X695Y558D02*
X710Y558D01*
X0Y557D02*
X7Y557D01*
X104Y557D02*
X111Y557D01*
X695Y557D02*
X710Y557D01*
X0Y556D02*
X7Y556D01*
X104Y556D02*
X111Y556D01*
X695Y556D02*
X710Y556D01*
X0Y555D02*
X7Y555D01*
X104Y555D02*
X111Y555D01*
X695Y555D02*
X710Y555D01*
X0Y554D02*
X7Y554D01*
X104Y554D02*
X111Y554D01*
X695Y554D02*
X710Y554D01*
X0Y553D02*
X7Y553D01*
X104Y553D02*
X111Y553D01*
X695Y553D02*
X710Y553D01*
X0Y552D02*
X7Y552D01*
X104Y552D02*
X111Y552D01*
X695Y552D02*
X710Y552D01*
X0Y551D02*
X7Y551D01*
X104Y551D02*
X111Y551D01*
X695Y551D02*
X710Y551D01*
X0Y550D02*
X7Y550D01*
X104Y550D02*
X111Y550D01*
X695Y550D02*
X710Y550D01*
X0Y549D02*
X7Y549D01*
X104Y549D02*
X111Y549D01*
X695Y549D02*
X710Y549D01*
X0Y548D02*
X7Y548D01*
X104Y548D02*
X111Y548D01*
X695Y548D02*
X710Y548D01*
X0Y547D02*
X7Y547D01*
X104Y547D02*
X111Y547D01*
X695Y547D02*
X710Y547D01*
X0Y546D02*
X7Y546D01*
X104Y546D02*
X111Y546D01*
X695Y546D02*
X710Y546D01*
X0Y545D02*
X7Y545D01*
X104Y545D02*
X111Y545D01*
X695Y545D02*
X710Y545D01*
X0Y544D02*
X7Y544D01*
X104Y544D02*
X111Y544D01*
X695Y544D02*
X710Y544D01*
X0Y543D02*
X7Y543D01*
X104Y543D02*
X111Y543D01*
X695Y543D02*
X710Y543D01*
X0Y542D02*
X7Y542D01*
X104Y542D02*
X111Y542D01*
X695Y542D02*
X710Y542D01*
X0Y541D02*
X7Y541D01*
X104Y541D02*
X111Y541D01*
X695Y541D02*
X710Y541D01*
X0Y540D02*
X7Y540D01*
X104Y540D02*
X111Y540D01*
X695Y540D02*
X710Y540D01*
X0Y539D02*
X7Y539D01*
X104Y539D02*
X111Y539D01*
X695Y539D02*
X710Y539D01*
X0Y538D02*
X7Y538D01*
X104Y538D02*
X111Y538D01*
X695Y538D02*
X710Y538D01*
X0Y537D02*
X7Y537D01*
X104Y537D02*
X111Y537D01*
X695Y537D02*
X710Y537D01*
X0Y536D02*
X7Y536D01*
X104Y536D02*
X111Y536D01*
X695Y536D02*
X710Y536D01*
X0Y535D02*
X7Y535D01*
X104Y535D02*
X111Y535D01*
X695Y535D02*
X710Y535D01*
X0Y534D02*
X7Y534D01*
X104Y534D02*
X111Y534D01*
X695Y534D02*
X710Y534D01*
X0Y533D02*
X7Y533D01*
X104Y533D02*
X111Y533D01*
X695Y533D02*
X710Y533D01*
X0Y532D02*
X7Y532D01*
X104Y532D02*
X111Y532D01*
X695Y532D02*
X710Y532D01*
X0Y531D02*
X7Y531D01*
X104Y531D02*
X111Y531D01*
X695Y531D02*
X710Y531D01*
X0Y530D02*
X7Y530D01*
X104Y530D02*
X111Y530D01*
X695Y530D02*
X710Y530D01*
X0Y529D02*
X7Y529D01*
X104Y529D02*
X111Y529D01*
X695Y529D02*
X710Y529D01*
X0Y528D02*
X7Y528D01*
X104Y528D02*
X111Y528D01*
X695Y528D02*
X710Y528D01*
X0Y527D02*
X7Y527D01*
X104Y527D02*
X111Y527D01*
X695Y527D02*
X710Y527D01*
X0Y526D02*
X7Y526D01*
X104Y526D02*
X111Y526D01*
X695Y526D02*
X710Y526D01*
X0Y525D02*
X7Y525D01*
X104Y525D02*
X111Y525D01*
X695Y525D02*
X710Y525D01*
X0Y524D02*
X7Y524D01*
X104Y524D02*
X111Y524D01*
X695Y524D02*
X710Y524D01*
X0Y523D02*
X7Y523D01*
X104Y523D02*
X111Y523D01*
X695Y523D02*
X710Y523D01*
X0Y522D02*
X7Y522D01*
X104Y522D02*
X111Y522D01*
X695Y522D02*
X710Y522D01*
X0Y521D02*
X7Y521D01*
X104Y521D02*
X111Y521D01*
X695Y521D02*
X710Y521D01*
X0Y520D02*
X7Y520D01*
X104Y520D02*
X111Y520D01*
X695Y520D02*
X710Y520D01*
X0Y519D02*
X7Y519D01*
X104Y519D02*
X111Y519D01*
X695Y519D02*
X710Y519D01*
X0Y518D02*
X7Y518D01*
X104Y518D02*
X111Y518D01*
X695Y518D02*
X710Y518D01*
X0Y517D02*
X7Y517D01*
X104Y517D02*
X111Y517D01*
X695Y517D02*
X710Y517D01*
X0Y516D02*
X7Y516D01*
X104Y516D02*
X111Y516D01*
X695Y516D02*
X710Y516D01*
X0Y515D02*
X7Y515D01*
X104Y515D02*
X111Y515D01*
X695Y515D02*
X710Y515D01*
X0Y514D02*
X7Y514D01*
X104Y514D02*
X111Y514D01*
X695Y514D02*
X710Y514D01*
X0Y513D02*
X7Y513D01*
X104Y513D02*
X111Y513D01*
X227Y513D02*
X229Y513D01*
X277Y513D02*
X279Y513D01*
X695Y513D02*
X710Y513D01*
X0Y512D02*
X7Y512D01*
X104Y512D02*
X111Y512D01*
X226Y512D02*
X231Y512D01*
X276Y512D02*
X281Y512D01*
X695Y512D02*
X710Y512D01*
X0Y511D02*
X7Y511D01*
X104Y511D02*
X111Y511D01*
X225Y511D02*
X231Y511D01*
X275Y511D02*
X282Y511D01*
X695Y511D02*
X710Y511D01*
X0Y510D02*
X7Y510D01*
X104Y510D02*
X111Y510D01*
X224Y510D02*
X232Y510D01*
X275Y510D02*
X283Y510D01*
X695Y510D02*
X710Y510D01*
X0Y509D02*
X7Y509D01*
X104Y509D02*
X111Y509D01*
X223Y509D02*
X232Y509D01*
X275Y509D02*
X284Y509D01*
X695Y509D02*
X710Y509D01*
X0Y508D02*
X7Y508D01*
X104Y508D02*
X111Y508D01*
X222Y508D02*
X231Y508D01*
X275Y508D02*
X285Y508D01*
X695Y508D02*
X710Y508D01*
X0Y507D02*
X7Y507D01*
X104Y507D02*
X111Y507D01*
X221Y507D02*
X231Y507D01*
X276Y507D02*
X286Y507D01*
X695Y507D02*
X710Y507D01*
X0Y506D02*
X7Y506D01*
X104Y506D02*
X111Y506D01*
X220Y506D02*
X230Y506D01*
X276Y506D02*
X287Y506D01*
X695Y506D02*
X710Y506D01*
X0Y505D02*
X7Y505D01*
X104Y505D02*
X111Y505D01*
X219Y505D02*
X229Y505D01*
X277Y505D02*
X288Y505D01*
X695Y505D02*
X710Y505D01*
X0Y504D02*
X7Y504D01*
X104Y504D02*
X111Y504D01*
X218Y504D02*
X228Y504D01*
X278Y504D02*
X289Y504D01*
X695Y504D02*
X710Y504D01*
X0Y503D02*
X7Y503D01*
X104Y503D02*
X111Y503D01*
X217Y503D02*
X227Y503D01*
X279Y503D02*
X290Y503D01*
X695Y503D02*
X710Y503D01*
X0Y502D02*
X7Y502D01*
X104Y502D02*
X111Y502D01*
X216Y502D02*
X226Y502D01*
X280Y502D02*
X291Y502D01*
X695Y502D02*
X710Y502D01*
X0Y501D02*
X7Y501D01*
X104Y501D02*
X111Y501D01*
X695Y501D02*
X710Y501D01*
X0Y500D02*
X7Y500D01*
X104Y500D02*
X111Y500D01*
X695Y500D02*
X710Y500D01*
X0Y499D02*
X7Y499D01*
X104Y499D02*
X111Y499D01*
X695Y499D02*
X710Y499D01*
X0Y498D02*
X7Y498D01*
X104Y498D02*
X111Y498D01*
X695Y498D02*
X710Y498D01*
X0Y497D02*
X7Y497D01*
X104Y497D02*
X111Y497D01*
X211Y497D02*
X211Y497D01*
X296Y497D02*
X296Y497D01*
X695Y497D02*
X710Y497D01*
X0Y496D02*
X7Y496D01*
X104Y496D02*
X111Y496D01*
X210Y496D02*
X211Y496D01*
X296Y496D02*
X297Y496D01*
X695Y496D02*
X710Y496D01*
X0Y495D02*
X7Y495D01*
X104Y495D02*
X111Y495D01*
X209Y495D02*
X211Y495D01*
X296Y495D02*
X298Y495D01*
X695Y495D02*
X710Y495D01*
X0Y494D02*
X7Y494D01*
X104Y494D02*
X111Y494D01*
X208Y494D02*
X211Y494D01*
X296Y494D02*
X299Y494D01*
X695Y494D02*
X710Y494D01*
X0Y493D02*
X7Y493D01*
X104Y493D02*
X111Y493D01*
X207Y493D02*
X211Y493D01*
X296Y493D02*
X300Y493D01*
X695Y493D02*
X710Y493D01*
X0Y492D02*
X7Y492D01*
X104Y492D02*
X111Y492D01*
X206Y492D02*
X211Y492D01*
X296Y492D02*
X301Y492D01*
X695Y492D02*
X710Y492D01*
X0Y491D02*
X7Y491D01*
X104Y491D02*
X111Y491D01*
X205Y491D02*
X211Y491D01*
X296Y491D02*
X302Y491D01*
X695Y491D02*
X710Y491D01*
X0Y490D02*
X7Y490D01*
X104Y490D02*
X111Y490D01*
X204Y490D02*
X211Y490D01*
X296Y490D02*
X303Y490D01*
X695Y490D02*
X710Y490D01*
X0Y489D02*
X7Y489D01*
X104Y489D02*
X111Y489D01*
X203Y489D02*
X211Y489D01*
X296Y489D02*
X304Y489D01*
X695Y489D02*
X710Y489D01*
X0Y488D02*
X7Y488D01*
X104Y488D02*
X111Y488D01*
X202Y488D02*
X211Y488D01*
X296Y488D02*
X305Y488D01*
X695Y488D02*
X710Y488D01*
X0Y487D02*
X7Y487D01*
X104Y487D02*
X111Y487D01*
X201Y487D02*
X211Y487D01*
X296Y487D02*
X306Y487D01*
X695Y487D02*
X710Y487D01*
X0Y486D02*
X7Y486D01*
X104Y486D02*
X111Y486D01*
X200Y486D02*
X210Y486D01*
X296Y486D02*
X306Y486D01*
X695Y486D02*
X710Y486D01*
X0Y485D02*
X7Y485D01*
X104Y485D02*
X111Y485D01*
X200Y485D02*
X209Y485D01*
X297Y485D02*
X307Y485D01*
X695Y485D02*
X710Y485D01*
X0Y484D02*
X7Y484D01*
X104Y484D02*
X111Y484D01*
X200Y484D02*
X208Y484D01*
X298Y484D02*
X307Y484D01*
X695Y484D02*
X710Y484D01*
X0Y483D02*
X7Y483D01*
X104Y483D02*
X111Y483D01*
X200Y483D02*
X207Y483D01*
X299Y483D02*
X306Y483D01*
X695Y483D02*
X710Y483D01*
X0Y482D02*
X7Y482D01*
X104Y482D02*
X111Y482D01*
X201Y482D02*
X206Y482D01*
X300Y482D02*
X306Y482D01*
X695Y482D02*
X710Y482D01*
X0Y481D02*
X7Y481D01*
X104Y481D02*
X111Y481D01*
X202Y481D02*
X205Y481D01*
X302Y481D02*
X304Y481D01*
X695Y481D02*
X710Y481D01*
X0Y480D02*
X7Y480D01*
X104Y480D02*
X111Y480D01*
X695Y480D02*
X710Y480D01*
X0Y479D02*
X7Y479D01*
X104Y479D02*
X111Y479D01*
X695Y479D02*
X710Y479D01*
X0Y478D02*
X7Y478D01*
X104Y478D02*
X111Y478D01*
X695Y478D02*
X710Y478D01*
X0Y477D02*
X7Y477D01*
X104Y477D02*
X111Y477D01*
X695Y477D02*
X710Y477D01*
X0Y476D02*
X7Y476D01*
X104Y476D02*
X111Y476D01*
X695Y476D02*
X710Y476D01*
X0Y475D02*
X7Y475D01*
X104Y475D02*
X111Y475D01*
X695Y475D02*
X710Y475D01*
X0Y474D02*
X7Y474D01*
X104Y474D02*
X111Y474D01*
X695Y474D02*
X710Y474D01*
X0Y473D02*
X7Y473D01*
X104Y473D02*
X111Y473D01*
X695Y473D02*
X710Y473D01*
X0Y472D02*
X7Y472D01*
X104Y472D02*
X111Y472D01*
X695Y472D02*
X710Y472D01*
X0Y471D02*
X7Y471D01*
X104Y471D02*
X111Y471D01*
X695Y471D02*
X710Y471D01*
X0Y470D02*
X7Y470D01*
X104Y470D02*
X111Y470D01*
X695Y470D02*
X710Y470D01*
X0Y469D02*
X7Y469D01*
X104Y469D02*
X111Y469D01*
X695Y469D02*
X710Y469D01*
X0Y468D02*
X7Y468D01*
X104Y468D02*
X111Y468D01*
X695Y468D02*
X710Y468D01*
X0Y467D02*
X7Y467D01*
X104Y467D02*
X111Y467D01*
X695Y467D02*
X710Y467D01*
X0Y466D02*
X7Y466D01*
X104Y466D02*
X111Y466D01*
X695Y466D02*
X710Y466D01*
X0Y465D02*
X7Y465D01*
X104Y465D02*
X111Y465D01*
X695Y465D02*
X710Y465D01*
X0Y464D02*
X7Y464D01*
X104Y464D02*
X111Y464D01*
X695Y464D02*
X710Y464D01*
X0Y463D02*
X7Y463D01*
X104Y463D02*
X111Y463D01*
X695Y463D02*
X710Y463D01*
X0Y462D02*
X7Y462D01*
X104Y462D02*
X111Y462D01*
X695Y462D02*
X710Y462D01*
X0Y461D02*
X7Y461D01*
X104Y461D02*
X111Y461D01*
X695Y461D02*
X710Y461D01*
X0Y460D02*
X7Y460D01*
X104Y460D02*
X111Y460D01*
X695Y460D02*
X710Y460D01*
X0Y459D02*
X7Y459D01*
X104Y459D02*
X111Y459D01*
X695Y459D02*
X710Y459D01*
X0Y458D02*
X7Y458D01*
X104Y458D02*
X111Y458D01*
X695Y458D02*
X710Y458D01*
X0Y457D02*
X7Y457D01*
X104Y457D02*
X111Y457D01*
X695Y457D02*
X710Y457D01*
X0Y456D02*
X7Y456D01*
X104Y456D02*
X111Y456D01*
X695Y456D02*
X710Y456D01*
X0Y455D02*
X7Y455D01*
X104Y455D02*
X111Y455D01*
X695Y455D02*
X710Y455D01*
X0Y454D02*
X7Y454D01*
X104Y454D02*
X111Y454D01*
X695Y454D02*
X710Y454D01*
X0Y453D02*
X7Y453D01*
X104Y453D02*
X111Y453D01*
X695Y453D02*
X710Y453D01*
X0Y452D02*
X7Y452D01*
X104Y452D02*
X111Y452D01*
X695Y452D02*
X710Y452D01*
X0Y451D02*
X7Y451D01*
X104Y451D02*
X111Y451D01*
X695Y451D02*
X710Y451D01*
X0Y450D02*
X7Y450D01*
X104Y450D02*
X111Y450D01*
X695Y450D02*
X710Y450D01*
X0Y449D02*
X7Y449D01*
X104Y449D02*
X111Y449D01*
X695Y449D02*
X710Y449D01*
X0Y448D02*
X7Y448D01*
X104Y448D02*
X111Y448D01*
X695Y448D02*
X710Y448D01*
X0Y447D02*
X7Y447D01*
X104Y447D02*
X111Y447D01*
X695Y447D02*
X710Y447D01*
X0Y446D02*
X7Y446D01*
X104Y446D02*
X111Y446D01*
X695Y446D02*
X710Y446D01*
X0Y445D02*
X7Y445D01*
X104Y445D02*
X111Y445D01*
X695Y445D02*
X710Y445D01*
X0Y444D02*
X7Y444D01*
X104Y444D02*
X111Y444D01*
X695Y444D02*
X710Y444D01*
X0Y443D02*
X7Y443D01*
X104Y443D02*
X111Y443D01*
X695Y443D02*
X710Y443D01*
X0Y442D02*
X7Y442D01*
X104Y442D02*
X111Y442D01*
X695Y442D02*
X710Y442D01*
X0Y441D02*
X7Y441D01*
X104Y441D02*
X111Y441D01*
X695Y441D02*
X710Y441D01*
X0Y440D02*
X7Y440D01*
X104Y440D02*
X111Y440D01*
X695Y440D02*
X710Y440D01*
X0Y439D02*
X7Y439D01*
X104Y439D02*
X111Y439D01*
X695Y439D02*
X710Y439D01*
X0Y438D02*
X7Y438D01*
X104Y438D02*
X111Y438D01*
X202Y438D02*
X205Y438D01*
X302Y438D02*
X304Y438D01*
X695Y438D02*
X710Y438D01*
X0Y437D02*
X7Y437D01*
X104Y437D02*
X111Y437D01*
X201Y437D02*
X206Y437D01*
X300Y437D02*
X306Y437D01*
X695Y437D02*
X710Y437D01*
X0Y436D02*
X7Y436D01*
X104Y436D02*
X111Y436D01*
X200Y436D02*
X207Y436D01*
X299Y436D02*
X306Y436D01*
X695Y436D02*
X710Y436D01*
X0Y435D02*
X7Y435D01*
X104Y435D02*
X111Y435D01*
X200Y435D02*
X208Y435D01*
X298Y435D02*
X307Y435D01*
X695Y435D02*
X710Y435D01*
X0Y434D02*
X7Y434D01*
X104Y434D02*
X111Y434D01*
X200Y434D02*
X209Y434D01*
X297Y434D02*
X307Y434D01*
X695Y434D02*
X710Y434D01*
X0Y433D02*
X7Y433D01*
X104Y433D02*
X111Y433D01*
X200Y433D02*
X210Y433D01*
X296Y433D02*
X306Y433D01*
X695Y433D02*
X710Y433D01*
X0Y432D02*
X7Y432D01*
X104Y432D02*
X111Y432D01*
X201Y432D02*
X211Y432D01*
X296Y432D02*
X306Y432D01*
X695Y432D02*
X710Y432D01*
X0Y431D02*
X7Y431D01*
X104Y431D02*
X111Y431D01*
X202Y431D02*
X211Y431D01*
X296Y431D02*
X305Y431D01*
X695Y431D02*
X710Y431D01*
X0Y430D02*
X7Y430D01*
X104Y430D02*
X111Y430D01*
X203Y430D02*
X211Y430D01*
X296Y430D02*
X304Y430D01*
X695Y430D02*
X710Y430D01*
X0Y429D02*
X7Y429D01*
X104Y429D02*
X111Y429D01*
X204Y429D02*
X211Y429D01*
X296Y429D02*
X303Y429D01*
X695Y429D02*
X710Y429D01*
X0Y428D02*
X7Y428D01*
X104Y428D02*
X111Y428D01*
X205Y428D02*
X211Y428D01*
X296Y428D02*
X302Y428D01*
X695Y428D02*
X710Y428D01*
X0Y427D02*
X7Y427D01*
X104Y427D02*
X111Y427D01*
X206Y427D02*
X211Y427D01*
X296Y427D02*
X301Y427D01*
X695Y427D02*
X710Y427D01*
X0Y426D02*
X7Y426D01*
X104Y426D02*
X111Y426D01*
X207Y426D02*
X211Y426D01*
X296Y426D02*
X300Y426D01*
X695Y426D02*
X710Y426D01*
X0Y425D02*
X7Y425D01*
X104Y425D02*
X111Y425D01*
X208Y425D02*
X211Y425D01*
X296Y425D02*
X299Y425D01*
X695Y425D02*
X710Y425D01*
X0Y424D02*
X7Y424D01*
X104Y424D02*
X111Y424D01*
X209Y424D02*
X211Y424D01*
X296Y424D02*
X298Y424D01*
X695Y424D02*
X710Y424D01*
X0Y423D02*
X7Y423D01*
X104Y423D02*
X111Y423D01*
X210Y423D02*
X211Y423D01*
X296Y423D02*
X297Y423D01*
X695Y423D02*
X710Y423D01*
X0Y422D02*
X7Y422D01*
X104Y422D02*
X111Y422D01*
X211Y422D02*
X211Y422D01*
X296Y422D02*
X296Y422D01*
X695Y422D02*
X710Y422D01*
X0Y421D02*
X7Y421D01*
X104Y421D02*
X111Y421D01*
X695Y421D02*
X710Y421D01*
X0Y420D02*
X7Y420D01*
X104Y420D02*
X111Y420D01*
X695Y420D02*
X710Y420D01*
X0Y419D02*
X7Y419D01*
X104Y419D02*
X111Y419D01*
X695Y419D02*
X710Y419D01*
X0Y418D02*
X7Y418D01*
X104Y418D02*
X111Y418D01*
X695Y418D02*
X710Y418D01*
X0Y417D02*
X7Y417D01*
X104Y417D02*
X710Y417D01*
X0Y416D02*
X7Y416D01*
X104Y416D02*
X710Y416D01*
X0Y415D02*
X7Y415D01*
X104Y415D02*
X710Y415D01*
X0Y414D02*
X7Y414D01*
X104Y414D02*
X710Y414D01*
X0Y413D02*
X7Y413D01*
X104Y413D02*
X710Y413D01*
X0Y412D02*
X7Y412D01*
X104Y412D02*
X710Y412D01*
X0Y411D02*
X7Y411D01*
X104Y411D02*
X710Y411D01*
X0Y410D02*
X7Y410D01*
X104Y410D02*
X710Y410D01*
X0Y409D02*
X7Y409D01*
X224Y409D02*
X232Y409D01*
X275Y409D02*
X283Y409D01*
X703Y409D02*
X710Y409D01*
X0Y408D02*
X7Y408D01*
X225Y408D02*
X231Y408D01*
X275Y408D02*
X282Y408D01*
X703Y408D02*
X710Y408D01*
X0Y407D02*
X7Y407D01*
X226Y407D02*
X231Y407D01*
X276Y407D02*
X281Y407D01*
X703Y407D02*
X710Y407D01*
X0Y406D02*
X7Y406D01*
X227Y406D02*
X230Y406D01*
X277Y406D02*
X279Y406D01*
X703Y406D02*
X710Y406D01*
X0Y405D02*
X7Y405D01*
X703Y405D02*
X710Y405D01*
X0Y404D02*
X7Y404D01*
X703Y404D02*
X710Y404D01*
X0Y403D02*
X7Y403D01*
X703Y403D02*
X710Y403D01*
X0Y402D02*
X7Y402D01*
X703Y402D02*
X710Y402D01*
X0Y401D02*
X7Y401D01*
X703Y401D02*
X710Y401D01*
X0Y400D02*
X7Y400D01*
X703Y400D02*
X710Y400D01*
X0Y399D02*
X7Y399D01*
X703Y399D02*
X710Y399D01*
X0Y398D02*
X7Y398D01*
X703Y398D02*
X710Y398D01*
X0Y397D02*
X7Y397D01*
X703Y397D02*
X710Y397D01*
X0Y396D02*
X7Y396D01*
X703Y396D02*
X710Y396D01*
X0Y395D02*
X7Y395D01*
X703Y395D02*
X710Y395D01*
X0Y394D02*
X7Y394D01*
X703Y394D02*
X710Y394D01*
X0Y393D02*
X7Y393D01*
X703Y393D02*
X710Y393D01*
X0Y392D02*
X7Y392D01*
X703Y392D02*
X710Y392D01*
X0Y391D02*
X7Y391D01*
X703Y391D02*
X710Y391D01*
X0Y390D02*
X7Y390D01*
X703Y390D02*
X710Y390D01*
X0Y389D02*
X7Y389D01*
X703Y389D02*
X710Y389D01*
X0Y388D02*
X7Y388D01*
X703Y388D02*
X710Y388D01*
X0Y387D02*
X7Y387D01*
X703Y387D02*
X710Y387D01*
X0Y386D02*
X7Y386D01*
X703Y386D02*
X710Y386D01*
X0Y385D02*
X7Y385D01*
X703Y385D02*
X710Y385D01*
X0Y384D02*
X7Y384D01*
X703Y384D02*
X710Y384D01*
X0Y383D02*
X7Y383D01*
X703Y383D02*
X710Y383D01*
X0Y382D02*
X7Y382D01*
X703Y382D02*
X710Y382D01*
X0Y381D02*
X7Y381D01*
X703Y381D02*
X710Y381D01*
X0Y380D02*
X7Y380D01*
X703Y380D02*
X710Y380D01*
X0Y379D02*
X7Y379D01*
X703Y379D02*
X710Y379D01*
X0Y378D02*
X7Y378D01*
X703Y378D02*
X710Y378D01*
X0Y377D02*
X7Y377D01*
X703Y377D02*
X710Y377D01*
X0Y376D02*
X7Y376D01*
X703Y376D02*
X710Y376D01*
X0Y375D02*
X7Y375D01*
X703Y375D02*
X710Y375D01*
X0Y374D02*
X7Y374D01*
X703Y374D02*
X710Y374D01*
X0Y373D02*
X7Y373D01*
X703Y373D02*
X710Y373D01*
X0Y372D02*
X7Y372D01*
X703Y372D02*
X710Y372D01*
X0Y371D02*
X7Y371D01*
X703Y371D02*
X710Y371D01*
X0Y370D02*
X7Y370D01*
X703Y370D02*
X710Y370D01*
X0Y369D02*
X7Y369D01*
X703Y369D02*
X710Y369D01*
X0Y368D02*
X7Y368D01*
X703Y368D02*
X710Y368D01*
X0Y367D02*
X7Y367D01*
X703Y367D02*
X710Y367D01*
X0Y366D02*
X7Y366D01*
X703Y366D02*
X710Y366D01*
X0Y365D02*
X7Y365D01*
X703Y365D02*
X710Y365D01*
X0Y364D02*
X7Y364D01*
X703Y364D02*
X710Y364D01*
X0Y363D02*
X7Y363D01*
X703Y363D02*
X710Y363D01*
X0Y362D02*
X7Y362D01*
X703Y362D02*
X710Y362D01*
X0Y361D02*
X7Y361D01*
X703Y361D02*
X710Y361D01*
X0Y360D02*
X7Y360D01*
X703Y360D02*
X710Y360D01*
X0Y359D02*
X7Y359D01*
X703Y359D02*
X710Y359D01*
X0Y358D02*
X7Y358D01*
X703Y358D02*
X710Y358D01*
X0Y357D02*
X7Y357D01*
X703Y357D02*
X710Y357D01*
X0Y356D02*
X7Y356D01*
X703Y356D02*
X710Y356D01*
X0Y355D02*
X7Y355D01*
X703Y355D02*
X710Y355D01*
X0Y354D02*
X7Y354D01*
X703Y354D02*
X710Y354D01*
X0Y353D02*
X7Y353D01*
X703Y353D02*
X710Y353D01*
X0Y352D02*
X7Y352D01*
X703Y352D02*
X710Y352D01*
X0Y351D02*
X7Y351D01*
X703Y351D02*
X710Y351D01*
X0Y350D02*
X7Y350D01*
X703Y350D02*
X710Y350D01*
X0Y349D02*
X7Y349D01*
X703Y349D02*
X710Y349D01*
X0Y348D02*
X7Y348D01*
X703Y348D02*
X710Y348D01*
X0Y347D02*
X7Y347D01*
X703Y347D02*
X710Y347D01*
X0Y346D02*
X7Y346D01*
X703Y346D02*
X710Y346D01*
X0Y345D02*
X7Y345D01*
X703Y345D02*
X710Y345D01*
X0Y344D02*
X7Y344D01*
X703Y344D02*
X710Y344D01*
X0Y343D02*
X7Y343D01*
X703Y343D02*
X710Y343D01*
X0Y342D02*
X7Y342D01*
X703Y342D02*
X710Y342D01*
X0Y341D02*
X7Y341D01*
X703Y341D02*
X710Y341D01*
X0Y340D02*
X7Y340D01*
X703Y340D02*
X710Y340D01*
X0Y339D02*
X7Y339D01*
X703Y339D02*
X710Y339D01*
X0Y338D02*
X7Y338D01*
X703Y338D02*
X710Y338D01*
X0Y337D02*
X7Y337D01*
X703Y337D02*
X710Y337D01*
X0Y336D02*
X7Y336D01*
X703Y336D02*
X710Y336D01*
X0Y335D02*
X7Y335D01*
X703Y335D02*
X710Y335D01*
X0Y334D02*
X7Y334D01*
X703Y334D02*
X710Y334D01*
X0Y333D02*
X7Y333D01*
X703Y333D02*
X710Y333D01*
X0Y332D02*
X7Y332D01*
X703Y332D02*
X710Y332D01*
X0Y331D02*
X7Y331D01*
X703Y331D02*
X710Y331D01*
X0Y330D02*
X7Y330D01*
X703Y330D02*
X710Y330D01*
X0Y329D02*
X7Y329D01*
X703Y329D02*
X710Y329D01*
X0Y328D02*
X7Y328D01*
X703Y328D02*
X710Y328D01*
X0Y327D02*
X7Y327D01*
X703Y327D02*
X710Y327D01*
X0Y326D02*
X7Y326D01*
X703Y326D02*
X710Y326D01*
X0Y325D02*
X7Y325D01*
X703Y325D02*
X710Y325D01*
X0Y324D02*
X7Y324D01*
X703Y324D02*
X710Y324D01*
X0Y323D02*
X7Y323D01*
X703Y323D02*
X710Y323D01*
X0Y322D02*
X7Y322D01*
X703Y322D02*
X710Y322D01*
X0Y321D02*
X7Y321D01*
X703Y321D02*
X710Y321D01*
X0Y320D02*
X7Y320D01*
X703Y320D02*
X710Y320D01*
X0Y319D02*
X7Y319D01*
X703Y319D02*
X710Y319D01*
X0Y318D02*
X7Y318D01*
X703Y318D02*
X710Y318D01*
X0Y317D02*
X7Y317D01*
X703Y317D02*
X710Y317D01*
X0Y316D02*
X7Y316D01*
X703Y316D02*
X710Y316D01*
X0Y315D02*
X7Y315D01*
X703Y315D02*
X710Y315D01*
X0Y314D02*
X7Y314D01*
X703Y314D02*
X710Y314D01*
X0Y313D02*
X7Y313D01*
X703Y313D02*
X710Y313D01*
X0Y312D02*
X7Y312D01*
X703Y312D02*
X710Y312D01*
X0Y311D02*
X7Y311D01*
X703Y311D02*
X710Y311D01*
X0Y310D02*
X7Y310D01*
X703Y310D02*
X710Y310D01*
X0Y309D02*
X7Y309D01*
X703Y309D02*
X710Y309D01*
X0Y308D02*
X7Y308D01*
X703Y308D02*
X710Y308D01*
X0Y307D02*
X7Y307D01*
X703Y307D02*
X710Y307D01*
X0Y306D02*
X7Y306D01*
X703Y306D02*
X710Y306D01*
X0Y305D02*
X7Y305D01*
X703Y305D02*
X710Y305D01*
X0Y304D02*
X7Y304D01*
X703Y304D02*
X710Y304D01*
X0Y303D02*
X7Y303D01*
X703Y303D02*
X710Y303D01*
X0Y302D02*
X7Y302D01*
X703Y302D02*
X710Y302D01*
X0Y301D02*
X7Y301D01*
X703Y301D02*
X710Y301D01*
X0Y300D02*
X7Y300D01*
X703Y300D02*
X710Y300D01*
X0Y299D02*
X7Y299D01*
X703Y299D02*
X710Y299D01*
X0Y298D02*
X7Y298D01*
X703Y298D02*
X710Y298D01*
X0Y297D02*
X7Y297D01*
X703Y297D02*
X710Y297D01*
X0Y296D02*
X7Y296D01*
X703Y296D02*
X710Y296D01*
X0Y295D02*
X7Y295D01*
X703Y295D02*
X710Y295D01*
X0Y294D02*
X7Y294D01*
X703Y294D02*
X710Y294D01*
X0Y293D02*
X7Y293D01*
X703Y293D02*
X710Y293D01*
X0Y292D02*
X7Y292D01*
X703Y292D02*
X710Y292D01*
X0Y291D02*
X7Y291D01*
X703Y291D02*
X710Y291D01*
X0Y290D02*
X7Y290D01*
X703Y290D02*
X710Y290D01*
X0Y289D02*
X7Y289D01*
X703Y289D02*
X710Y289D01*
X0Y288D02*
X7Y288D01*
X703Y288D02*
X710Y288D01*
X0Y287D02*
X7Y287D01*
X703Y287D02*
X710Y287D01*
X0Y286D02*
X7Y286D01*
X703Y286D02*
X710Y286D01*
X0Y285D02*
X7Y285D01*
X703Y285D02*
X710Y285D01*
X0Y284D02*
X7Y284D01*
X703Y284D02*
X710Y284D01*
X0Y283D02*
X7Y283D01*
X703Y283D02*
X710Y283D01*
X0Y282D02*
X7Y282D01*
X703Y282D02*
X710Y282D01*
X0Y281D02*
X7Y281D01*
X703Y281D02*
X710Y281D01*
X0Y280D02*
X7Y280D01*
X703Y280D02*
X710Y280D01*
X0Y279D02*
X7Y279D01*
X703Y279D02*
X710Y279D01*
X0Y278D02*
X7Y278D01*
X703Y278D02*
X710Y278D01*
X0Y277D02*
X7Y277D01*
X703Y277D02*
X710Y277D01*
X0Y276D02*
X7Y276D01*
X703Y276D02*
X710Y276D01*
X0Y275D02*
X7Y275D01*
X703Y275D02*
X710Y275D01*
X0Y274D02*
X7Y274D01*
X703Y274D02*
X710Y274D01*
X0Y273D02*
X7Y273D01*
X703Y273D02*
X710Y273D01*
X0Y272D02*
X7Y272D01*
X703Y272D02*
X710Y272D01*
X0Y271D02*
X7Y271D01*
X703Y271D02*
X710Y271D01*
X0Y270D02*
X7Y270D01*
X703Y270D02*
X710Y270D01*
X0Y269D02*
X7Y269D01*
X703Y269D02*
X710Y269D01*
X0Y268D02*
X7Y268D01*
X703Y268D02*
X710Y268D01*
X0Y267D02*
X7Y267D01*
X703Y267D02*
X710Y267D01*
X0Y266D02*
X7Y266D01*
X703Y266D02*
X710Y266D01*
X0Y265D02*
X7Y265D01*
X703Y265D02*
X710Y265D01*
X0Y264D02*
X7Y264D01*
X196Y264D02*
X243Y264D01*
X444Y264D02*
X510Y264D01*
X703Y264D02*
X710Y264D01*
X0Y263D02*
X7Y263D01*
X196Y263D02*
X243Y263D01*
X444Y263D02*
X510Y263D01*
X703Y263D02*
X710Y263D01*
X0Y262D02*
X7Y262D01*
X196Y262D02*
X243Y262D01*
X444Y262D02*
X510Y262D01*
X703Y262D02*
X710Y262D01*
X0Y261D02*
X7Y261D01*
X196Y261D02*
X243Y261D01*
X444Y261D02*
X510Y261D01*
X703Y261D02*
X710Y261D01*
X0Y260D02*
X7Y260D01*
X196Y260D02*
X243Y260D01*
X444Y260D02*
X510Y260D01*
X703Y260D02*
X710Y260D01*
X0Y259D02*
X7Y259D01*
X196Y259D02*
X243Y259D01*
X444Y259D02*
X510Y259D01*
X703Y259D02*
X710Y259D01*
X0Y258D02*
X7Y258D01*
X196Y258D02*
X243Y258D01*
X444Y258D02*
X510Y258D01*
X703Y258D02*
X710Y258D01*
X0Y257D02*
X7Y257D01*
X196Y257D02*
X243Y257D01*
X444Y257D02*
X510Y257D01*
X703Y257D02*
X710Y257D01*
X0Y256D02*
X7Y256D01*
X196Y256D02*
X243Y256D01*
X444Y256D02*
X510Y256D01*
X703Y256D02*
X710Y256D01*
X0Y255D02*
X7Y255D01*
X196Y255D02*
X243Y255D01*
X444Y255D02*
X510Y255D01*
X703Y255D02*
X710Y255D01*
X0Y254D02*
X7Y254D01*
X703Y254D02*
X710Y254D01*
X0Y253D02*
X7Y253D01*
X703Y253D02*
X710Y253D01*
X0Y252D02*
X7Y252D01*
X703Y252D02*
X710Y252D01*
X0Y251D02*
X7Y251D01*
X703Y251D02*
X710Y251D01*
X0Y250D02*
X7Y250D01*
X703Y250D02*
X710Y250D01*
X0Y249D02*
X7Y249D01*
X703Y249D02*
X710Y249D01*
X0Y248D02*
X7Y248D01*
X703Y248D02*
X710Y248D01*
X0Y247D02*
X7Y247D01*
X703Y247D02*
X710Y247D01*
X0Y246D02*
X7Y246D01*
X703Y246D02*
X710Y246D01*
X0Y245D02*
X7Y245D01*
X703Y245D02*
X710Y245D01*
X0Y244D02*
X7Y244D01*
X703Y244D02*
X710Y244D01*
X0Y243D02*
X7Y243D01*
X703Y243D02*
X710Y243D01*
X0Y242D02*
X7Y242D01*
X703Y242D02*
X710Y242D01*
X0Y241D02*
X7Y241D01*
X703Y241D02*
X710Y241D01*
X0Y240D02*
X7Y240D01*
X703Y240D02*
X710Y240D01*
X0Y239D02*
X7Y239D01*
X703Y239D02*
X710Y239D01*
X0Y238D02*
X7Y238D01*
X703Y238D02*
X710Y238D01*
X0Y237D02*
X7Y237D01*
X703Y237D02*
X710Y237D01*
X0Y236D02*
X7Y236D01*
X703Y236D02*
X710Y236D01*
X0Y235D02*
X7Y235D01*
X703Y235D02*
X710Y235D01*
X0Y234D02*
X7Y234D01*
X703Y234D02*
X710Y234D01*
X0Y233D02*
X7Y233D01*
X703Y233D02*
X710Y233D01*
X0Y232D02*
X7Y232D01*
X703Y232D02*
X710Y232D01*
X0Y231D02*
X7Y231D01*
X703Y231D02*
X710Y231D01*
X0Y230D02*
X7Y230D01*
X703Y230D02*
X710Y230D01*
X0Y229D02*
X7Y229D01*
X703Y229D02*
X710Y229D01*
X0Y228D02*
X7Y228D01*
X703Y228D02*
X710Y228D01*
X0Y227D02*
X7Y227D01*
X703Y227D02*
X710Y227D01*
X0Y226D02*
X7Y226D01*
X703Y226D02*
X710Y226D01*
X0Y225D02*
X7Y225D01*
X703Y225D02*
X710Y225D01*
X0Y224D02*
X7Y224D01*
X703Y224D02*
X710Y224D01*
X0Y223D02*
X7Y223D01*
X703Y223D02*
X710Y223D01*
X0Y222D02*
X7Y222D01*
X703Y222D02*
X710Y222D01*
X0Y221D02*
X7Y221D01*
X703Y221D02*
X710Y221D01*
X0Y220D02*
X7Y220D01*
X703Y220D02*
X710Y220D01*
X0Y219D02*
X7Y219D01*
X703Y219D02*
X710Y219D01*
X0Y218D02*
X7Y218D01*
X703Y218D02*
X710Y218D01*
X0Y217D02*
X7Y217D01*
X703Y217D02*
X710Y217D01*
X0Y216D02*
X7Y216D01*
X703Y216D02*
X710Y216D01*
X0Y215D02*
X7Y215D01*
X703Y215D02*
X710Y215D01*
X0Y214D02*
X7Y214D01*
X703Y214D02*
X710Y214D01*
X0Y213D02*
X7Y213D01*
X703Y213D02*
X710Y213D01*
X0Y212D02*
X7Y212D01*
X703Y212D02*
X710Y212D01*
X0Y211D02*
X7Y211D01*
X703Y211D02*
X710Y211D01*
X0Y210D02*
X7Y210D01*
X703Y210D02*
X710Y210D01*
X0Y209D02*
X7Y209D01*
X703Y209D02*
X710Y209D01*
X0Y208D02*
X7Y208D01*
X703Y208D02*
X710Y208D01*
X0Y207D02*
X7Y207D01*
X703Y207D02*
X710Y207D01*
X0Y206D02*
X7Y206D01*
X703Y206D02*
X710Y206D01*
X0Y205D02*
X7Y205D01*
X703Y205D02*
X710Y205D01*
X0Y204D02*
X7Y204D01*
X703Y204D02*
X710Y204D01*
X0Y203D02*
X7Y203D01*
X703Y203D02*
X710Y203D01*
X0Y202D02*
X7Y202D01*
X703Y202D02*
X710Y202D01*
X0Y201D02*
X7Y201D01*
X703Y201D02*
X710Y201D01*
X0Y200D02*
X7Y200D01*
X703Y200D02*
X710Y200D01*
X0Y199D02*
X7Y199D01*
X703Y199D02*
X710Y199D01*
X0Y198D02*
X7Y198D01*
X703Y198D02*
X710Y198D01*
X0Y197D02*
X7Y197D01*
X703Y197D02*
X710Y197D01*
X0Y196D02*
X7Y196D01*
X703Y196D02*
X710Y196D01*
X0Y195D02*
X7Y195D01*
X703Y195D02*
X710Y195D01*
X0Y194D02*
X7Y194D01*
X703Y194D02*
X710Y194D01*
X0Y193D02*
X7Y193D01*
X703Y193D02*
X710Y193D01*
X0Y192D02*
X7Y192D01*
X703Y192D02*
X710Y192D01*
X0Y191D02*
X7Y191D01*
X703Y191D02*
X710Y191D01*
X0Y190D02*
X7Y190D01*
X28Y190D02*
X56Y190D01*
X75Y190D02*
X79Y190D01*
X103Y190D02*
X106Y190D01*
X703Y190D02*
X710Y190D01*
X0Y189D02*
X7Y189D01*
X26Y189D02*
X57Y189D01*
X74Y189D02*
X80Y189D01*
X102Y189D02*
X107Y189D01*
X703Y189D02*
X710Y189D01*
X0Y188D02*
X7Y188D01*
X25Y188D02*
X57Y188D01*
X74Y188D02*
X80Y188D01*
X102Y188D02*
X107Y188D01*
X703Y188D02*
X710Y188D01*
X0Y187D02*
X7Y187D01*
X25Y187D02*
X57Y187D01*
X74Y187D02*
X81Y187D01*
X102Y187D02*
X108Y187D01*
X703Y187D02*
X710Y187D01*
X0Y186D02*
X7Y186D01*
X24Y186D02*
X57Y186D01*
X74Y186D02*
X81Y186D01*
X102Y186D02*
X108Y186D01*
X703Y186D02*
X710Y186D01*
X0Y185D02*
X7Y185D01*
X24Y185D02*
X56Y185D01*
X75Y185D02*
X82Y185D01*
X102Y185D02*
X108Y185D01*
X703Y185D02*
X710Y185D01*
X0Y184D02*
X7Y184D01*
X24Y184D02*
X55Y184D01*
X75Y184D02*
X83Y184D01*
X102Y184D02*
X108Y184D01*
X703Y184D02*
X710Y184D01*
X0Y183D02*
X7Y183D01*
X24Y183D02*
X30Y183D01*
X76Y183D02*
X83Y183D01*
X102Y183D02*
X108Y183D01*
X703Y183D02*
X710Y183D01*
X0Y182D02*
X7Y182D01*
X24Y182D02*
X30Y182D01*
X77Y182D02*
X84Y182D01*
X102Y182D02*
X108Y182D01*
X703Y182D02*
X710Y182D01*
X0Y181D02*
X7Y181D01*
X24Y181D02*
X30Y181D01*
X77Y181D02*
X84Y181D01*
X102Y181D02*
X108Y181D01*
X703Y181D02*
X710Y181D01*
X0Y180D02*
X7Y180D01*
X24Y180D02*
X30Y180D01*
X78Y180D02*
X85Y180D01*
X102Y180D02*
X108Y180D01*
X703Y180D02*
X710Y180D01*
X0Y179D02*
X7Y179D01*
X24Y179D02*
X30Y179D01*
X78Y179D02*
X85Y179D01*
X102Y179D02*
X108Y179D01*
X703Y179D02*
X710Y179D01*
X0Y178D02*
X7Y178D01*
X24Y178D02*
X30Y178D01*
X79Y178D02*
X86Y178D01*
X102Y178D02*
X108Y178D01*
X703Y178D02*
X710Y178D01*
X0Y177D02*
X7Y177D01*
X24Y177D02*
X30Y177D01*
X79Y177D02*
X87Y177D01*
X102Y177D02*
X108Y177D01*
X703Y177D02*
X710Y177D01*
X0Y176D02*
X7Y176D01*
X24Y176D02*
X30Y176D01*
X80Y176D02*
X87Y176D01*
X102Y176D02*
X108Y176D01*
X703Y176D02*
X710Y176D01*
X0Y175D02*
X7Y175D01*
X24Y175D02*
X30Y175D01*
X81Y175D02*
X88Y175D01*
X102Y175D02*
X108Y175D01*
X703Y175D02*
X710Y175D01*
X0Y174D02*
X7Y174D01*
X24Y174D02*
X30Y174D01*
X81Y174D02*
X88Y174D01*
X102Y174D02*
X108Y174D01*
X703Y174D02*
X710Y174D01*
X0Y173D02*
X7Y173D01*
X24Y173D02*
X30Y173D01*
X82Y173D02*
X89Y173D01*
X102Y173D02*
X108Y173D01*
X703Y173D02*
X710Y173D01*
X0Y172D02*
X7Y172D01*
X24Y172D02*
X30Y172D01*
X82Y172D02*
X90Y172D01*
X102Y172D02*
X108Y172D01*
X703Y172D02*
X710Y172D01*
X0Y171D02*
X7Y171D01*
X24Y171D02*
X30Y171D01*
X83Y171D02*
X90Y171D01*
X102Y171D02*
X108Y171D01*
X703Y171D02*
X710Y171D01*
X0Y170D02*
X7Y170D01*
X24Y170D02*
X30Y170D01*
X84Y170D02*
X91Y170D01*
X102Y170D02*
X108Y170D01*
X703Y170D02*
X710Y170D01*
X0Y169D02*
X7Y169D01*
X24Y169D02*
X30Y169D01*
X84Y169D02*
X91Y169D01*
X102Y169D02*
X108Y169D01*
X703Y169D02*
X710Y169D01*
X0Y168D02*
X7Y168D01*
X24Y168D02*
X31Y168D01*
X85Y168D02*
X92Y168D01*
X102Y168D02*
X108Y168D01*
X703Y168D02*
X710Y168D01*
X0Y167D02*
X7Y167D01*
X25Y167D02*
X48Y167D01*
X85Y167D02*
X92Y167D01*
X102Y167D02*
X108Y167D01*
X703Y167D02*
X710Y167D01*
X0Y166D02*
X7Y166D01*
X25Y166D02*
X50Y166D01*
X86Y166D02*
X93Y166D01*
X102Y166D02*
X108Y166D01*
X703Y166D02*
X710Y166D01*
X0Y165D02*
X7Y165D01*
X26Y165D02*
X50Y165D01*
X86Y165D02*
X94Y165D01*
X102Y165D02*
X108Y165D01*
X703Y165D02*
X710Y165D01*
X0Y164D02*
X7Y164D01*
X26Y164D02*
X50Y164D01*
X87Y164D02*
X94Y164D01*
X102Y164D02*
X108Y164D01*
X703Y164D02*
X710Y164D01*
X0Y163D02*
X7Y163D01*
X26Y163D02*
X50Y163D01*
X88Y163D02*
X95Y163D01*
X102Y163D02*
X108Y163D01*
X703Y163D02*
X710Y163D01*
X0Y162D02*
X7Y162D01*
X25Y162D02*
X50Y162D01*
X88Y162D02*
X95Y162D01*
X102Y162D02*
X108Y162D01*
X703Y162D02*
X710Y162D01*
X0Y161D02*
X7Y161D01*
X25Y161D02*
X49Y161D01*
X82Y161D02*
X108Y161D01*
X703Y161D02*
X710Y161D01*
X0Y160D02*
X7Y160D01*
X24Y160D02*
X32Y160D01*
X79Y160D02*
X108Y160D01*
X703Y160D02*
X710Y160D01*
X0Y159D02*
X7Y159D01*
X24Y159D02*
X31Y159D01*
X78Y159D02*
X108Y159D01*
X703Y159D02*
X710Y159D01*
X0Y158D02*
X7Y158D01*
X24Y158D02*
X30Y158D01*
X77Y158D02*
X108Y158D01*
X703Y158D02*
X710Y158D01*
X0Y157D02*
X7Y157D01*
X24Y157D02*
X30Y157D01*
X76Y157D02*
X108Y157D01*
X703Y157D02*
X710Y157D01*
X0Y156D02*
X7Y156D01*
X24Y156D02*
X30Y156D01*
X75Y156D02*
X108Y156D01*
X703Y156D02*
X710Y156D01*
X0Y155D02*
X7Y155D01*
X24Y155D02*
X30Y155D01*
X75Y155D02*
X108Y155D01*
X703Y155D02*
X710Y155D01*
X0Y154D02*
X7Y154D01*
X24Y154D02*
X30Y154D01*
X75Y154D02*
X82Y154D01*
X101Y154D02*
X108Y154D01*
X703Y154D02*
X710Y154D01*
X0Y153D02*
X7Y153D01*
X24Y153D02*
X30Y153D01*
X74Y153D02*
X81Y153D01*
X102Y153D02*
X108Y153D01*
X703Y153D02*
X710Y153D01*
X0Y152D02*
X7Y152D01*
X24Y152D02*
X30Y152D01*
X74Y152D02*
X80Y152D01*
X102Y152D02*
X108Y152D01*
X703Y152D02*
X710Y152D01*
X0Y151D02*
X7Y151D01*
X24Y151D02*
X30Y151D01*
X74Y151D02*
X80Y151D01*
X102Y151D02*
X108Y151D01*
X703Y151D02*
X710Y151D01*
X0Y150D02*
X7Y150D01*
X24Y150D02*
X30Y150D01*
X74Y150D02*
X80Y150D01*
X102Y150D02*
X108Y150D01*
X703Y150D02*
X710Y150D01*
X0Y149D02*
X7Y149D01*
X24Y149D02*
X30Y149D01*
X74Y149D02*
X80Y149D01*
X102Y149D02*
X108Y149D01*
X703Y149D02*
X710Y149D01*
X0Y148D02*
X7Y148D01*
X24Y148D02*
X30Y148D01*
X74Y148D02*
X80Y148D01*
X102Y148D02*
X108Y148D01*
X703Y148D02*
X710Y148D01*
X0Y147D02*
X7Y147D01*
X24Y147D02*
X30Y147D01*
X74Y147D02*
X80Y147D01*
X102Y147D02*
X108Y147D01*
X703Y147D02*
X710Y147D01*
X0Y146D02*
X7Y146D01*
X24Y146D02*
X30Y146D01*
X74Y146D02*
X80Y146D01*
X102Y146D02*
X108Y146D01*
X703Y146D02*
X710Y146D01*
X0Y145D02*
X7Y145D01*
X24Y145D02*
X30Y145D01*
X74Y145D02*
X81Y145D01*
X102Y145D02*
X108Y145D01*
X703Y145D02*
X710Y145D01*
X0Y144D02*
X7Y144D01*
X24Y144D02*
X30Y144D01*
X75Y144D02*
X82Y144D01*
X101Y144D02*
X108Y144D01*
X703Y144D02*
X710Y144D01*
X0Y143D02*
X7Y143D01*
X24Y143D02*
X56Y143D01*
X75Y143D02*
X108Y143D01*
X703Y143D02*
X710Y143D01*
X0Y142D02*
X7Y142D01*
X24Y142D02*
X57Y142D01*
X75Y142D02*
X108Y142D01*
X703Y142D02*
X710Y142D01*
X0Y141D02*
X7Y141D01*
X24Y141D02*
X57Y141D01*
X76Y141D02*
X108Y141D01*
X703Y141D02*
X710Y141D01*
X0Y140D02*
X7Y140D01*
X25Y140D02*
X57Y140D01*
X77Y140D02*
X108Y140D01*
X703Y140D02*
X710Y140D01*
X0Y139D02*
X7Y139D01*
X26Y139D02*
X57Y139D01*
X78Y139D02*
X108Y139D01*
X703Y139D02*
X710Y139D01*
X0Y138D02*
X7Y138D01*
X27Y138D02*
X57Y138D01*
X80Y138D02*
X108Y138D01*
X703Y138D02*
X710Y138D01*
X0Y137D02*
X7Y137D01*
X29Y137D02*
X55Y137D01*
X82Y137D02*
X107Y137D01*
X703Y137D02*
X710Y137D01*
X0Y125D02*
X7Y125D01*
X703Y125D02*
X710Y125D01*
X0Y124D02*
X7Y124D01*
X703Y124D02*
X710Y124D01*
X0Y123D02*
X7Y123D01*
X703Y123D02*
X710Y123D01*
X0Y122D02*
X7Y122D01*
X703Y122D02*
X710Y122D01*
X0Y121D02*
X7Y121D01*
X703Y121D02*
X710Y121D01*
X0Y120D02*
X7Y120D01*
X703Y120D02*
X710Y120D01*
X0Y119D02*
X7Y119D01*
X703Y119D02*
X710Y119D01*
X0Y118D02*
X7Y118D01*
X703Y118D02*
X710Y118D01*
X0Y117D02*
X7Y117D01*
X703Y117D02*
X710Y117D01*
X0Y116D02*
X7Y116D01*
X703Y116D02*
X710Y116D01*
X0Y115D02*
X7Y115D01*
X703Y115D02*
X710Y115D01*
X0Y114D02*
X7Y114D01*
X703Y114D02*
X710Y114D01*
X0Y113D02*
X7Y113D01*
X703Y113D02*
X710Y113D01*
X0Y112D02*
X7Y112D01*
X703Y112D02*
X710Y112D01*
X0Y111D02*
X7Y111D01*
X703Y111D02*
X710Y111D01*
X0Y110D02*
X7Y110D01*
X703Y110D02*
X710Y110D01*
X0Y109D02*
X7Y109D01*
X703Y109D02*
X710Y109D01*
X0Y108D02*
X7Y108D01*
X703Y108D02*
X710Y108D01*
X0Y107D02*
X7Y107D01*
X703Y107D02*
X710Y107D01*
X0Y106D02*
X7Y106D01*
X703Y106D02*
X710Y106D01*
X0Y105D02*
X7Y105D01*
X703Y105D02*
X710Y105D01*
X0Y104D02*
X7Y104D01*
X703Y104D02*
X710Y104D01*
X0Y103D02*
X7Y103D01*
X703Y103D02*
X710Y103D01*
X0Y102D02*
X7Y102D01*
X703Y102D02*
X710Y102D01*
X0Y101D02*
X7Y101D01*
X703Y101D02*
X710Y101D01*
X0Y100D02*
X7Y100D01*
X703Y100D02*
X710Y100D01*
X0Y99D02*
X7Y99D01*
X703Y99D02*
X710Y99D01*
X0Y98D02*
X7Y98D01*
X703Y98D02*
X710Y98D01*
X0Y97D02*
X7Y97D01*
X703Y97D02*
X710Y97D01*
X0Y96D02*
X7Y96D01*
X703Y96D02*
X710Y96D01*
X0Y95D02*
X7Y95D01*
X703Y95D02*
X710Y95D01*
X0Y94D02*
X7Y94D01*
X703Y94D02*
X710Y94D01*
X0Y93D02*
X7Y93D01*
X703Y93D02*
X710Y93D01*
X0Y92D02*
X7Y92D01*
X703Y92D02*
X710Y92D01*
X0Y91D02*
X7Y91D01*
X703Y91D02*
X710Y91D01*
X0Y90D02*
X7Y90D01*
X703Y90D02*
X710Y90D01*
X0Y89D02*
X7Y89D01*
X703Y89D02*
X710Y89D01*
X0Y88D02*
X7Y88D01*
X703Y88D02*
X710Y88D01*
X0Y87D02*
X7Y87D01*
X703Y87D02*
X710Y87D01*
X0Y86D02*
X7Y86D01*
X703Y86D02*
X710Y86D01*
X0Y85D02*
X7Y85D01*
X703Y85D02*
X710Y85D01*
X0Y84D02*
X7Y84D01*
X703Y84D02*
X710Y84D01*
X0Y83D02*
X7Y83D01*
X703Y83D02*
X710Y83D01*
X0Y82D02*
X7Y82D01*
X703Y82D02*
X710Y82D01*
X0Y81D02*
X7Y81D01*
X703Y81D02*
X710Y81D01*
X0Y80D02*
X7Y80D01*
X703Y80D02*
X710Y80D01*
X0Y79D02*
X7Y79D01*
X703Y79D02*
X710Y79D01*
X0Y78D02*
X7Y78D01*
X703Y78D02*
X710Y78D01*
X0Y77D02*
X7Y77D01*
X703Y77D02*
X710Y77D01*
X0Y76D02*
X7Y76D01*
X703Y76D02*
X710Y76D01*
X0Y75D02*
X7Y75D01*
X703Y75D02*
X710Y75D01*
X0Y74D02*
X7Y74D01*
X703Y74D02*
X710Y74D01*
X0Y73D02*
X7Y73D01*
X703Y73D02*
X710Y73D01*
X0Y72D02*
X7Y72D01*
X703Y72D02*
X710Y72D01*
X0Y71D02*
X7Y71D01*
X703Y71D02*
X710Y71D01*
X0Y70D02*
X7Y70D01*
X703Y70D02*
X710Y70D01*
X0Y69D02*
X7Y69D01*
X703Y69D02*
X710Y69D01*
X0Y68D02*
X7Y68D01*
X703Y68D02*
X710Y68D01*
X0Y67D02*
X7Y67D01*
X703Y67D02*
X710Y67D01*
X0Y66D02*
X7Y66D01*
X703Y66D02*
X710Y66D01*
X0Y65D02*
X7Y65D01*
X703Y65D02*
X710Y65D01*
X0Y64D02*
X7Y64D01*
X703Y64D02*
X710Y64D01*
X0Y63D02*
X7Y63D01*
X703Y63D02*
X710Y63D01*
X0Y62D02*
X7Y62D01*
X703Y62D02*
X710Y62D01*
X0Y61D02*
X7Y61D01*
X703Y61D02*
X710Y61D01*
X0Y60D02*
X7Y60D01*
X703Y60D02*
X710Y60D01*
X0Y59D02*
X7Y59D01*
X703Y59D02*
X710Y59D01*
X0Y58D02*
X7Y58D01*
X703Y58D02*
X710Y58D01*
X0Y57D02*
X7Y57D01*
X703Y57D02*
X710Y57D01*
X0Y56D02*
X7Y56D01*
X703Y56D02*
X710Y56D01*
X0Y55D02*
X7Y55D01*
X703Y55D02*
X710Y55D01*
X0Y54D02*
X7Y54D01*
X703Y54D02*
X710Y54D01*
X0Y53D02*
X7Y53D01*
X703Y53D02*
X710Y53D01*
X0Y52D02*
X7Y52D01*
X636Y52D02*
X653Y52D01*
X703Y52D02*
X710Y52D01*
X0Y51D02*
X7Y51D01*
X631Y51D02*
X658Y51D01*
X703Y51D02*
X710Y51D01*
X0Y50D02*
X7Y50D01*
X628Y50D02*
X662Y50D01*
X703Y50D02*
X710Y50D01*
X0Y49D02*
X7Y49D01*
X625Y49D02*
X664Y49D01*
X703Y49D02*
X710Y49D01*
X0Y48D02*
X7Y48D01*
X622Y48D02*
X667Y48D01*
X703Y48D02*
X710Y48D01*
X0Y47D02*
X7Y47D01*
X620Y47D02*
X669Y47D01*
X703Y47D02*
X710Y47D01*
X0Y46D02*
X7Y46D01*
X618Y46D02*
X671Y46D01*
X703Y46D02*
X710Y46D01*
X0Y45D02*
X7Y45D01*
X616Y45D02*
X673Y45D01*
X703Y45D02*
X710Y45D01*
X0Y44D02*
X7Y44D01*
X614Y44D02*
X675Y44D01*
X703Y44D02*
X710Y44D01*
X0Y43D02*
X7Y43D01*
X613Y43D02*
X676Y43D01*
X703Y43D02*
X710Y43D01*
X0Y42D02*
X7Y42D01*
X611Y42D02*
X638Y42D01*
X651Y42D02*
X678Y42D01*
X703Y42D02*
X710Y42D01*
X0Y41D02*
X7Y41D01*
X610Y41D02*
X633Y41D01*
X656Y41D02*
X679Y41D01*
X703Y41D02*
X710Y41D01*
X0Y40D02*
X7Y40D01*
X609Y40D02*
X629Y40D01*
X660Y40D02*
X681Y40D01*
X703Y40D02*
X710Y40D01*
X0Y39D02*
X7Y39D01*
X607Y39D02*
X626Y39D01*
X663Y39D02*
X682Y39D01*
X703Y39D02*
X710Y39D01*
X0Y38D02*
X7Y38D01*
X606Y38D02*
X624Y38D01*
X665Y38D02*
X683Y38D01*
X703Y38D02*
X710Y38D01*
X0Y37D02*
X7Y37D01*
X605Y37D02*
X622Y37D01*
X667Y37D02*
X684Y37D01*
X703Y37D02*
X710Y37D01*
X0Y36D02*
X7Y36D01*
X604Y36D02*
X620Y36D01*
X669Y36D02*
X685Y36D01*
X703Y36D02*
X710Y36D01*
X0Y35D02*
X7Y35D01*
X603Y35D02*
X618Y35D01*
X671Y35D02*
X686Y35D01*
X703Y35D02*
X710Y35D01*
X0Y34D02*
X7Y34D01*
X602Y34D02*
X617Y34D01*
X672Y34D02*
X687Y34D01*
X703Y34D02*
X710Y34D01*
X0Y33D02*
X7Y33D01*
X601Y33D02*
X615Y33D01*
X674Y33D02*
X688Y33D01*
X703Y33D02*
X710Y33D01*
X0Y32D02*
X7Y32D01*
X600Y32D02*
X614Y32D01*
X675Y32D02*
X689Y32D01*
X703Y32D02*
X710Y32D01*
X0Y31D02*
X7Y31D01*
X599Y31D02*
X613Y31D01*
X676Y31D02*
X690Y31D01*
X703Y31D02*
X710Y31D01*
X0Y30D02*
X7Y30D01*
X599Y30D02*
X612Y30D01*
X677Y30D02*
X691Y30D01*
X703Y30D02*
X710Y30D01*
X0Y29D02*
X7Y29D01*
X598Y29D02*
X611Y29D01*
X679Y29D02*
X691Y29D01*
X703Y29D02*
X710Y29D01*
X0Y28D02*
X7Y28D01*
X597Y28D02*
X610Y28D01*
X680Y28D02*
X692Y28D01*
X703Y28D02*
X710Y28D01*
X0Y27D02*
X7Y27D01*
X596Y27D02*
X609Y27D01*
X681Y27D02*
X693Y27D01*
X703Y27D02*
X710Y27D01*
X0Y26D02*
X7Y26D01*
X596Y26D02*
X608Y26D01*
X681Y26D02*
X693Y26D01*
X703Y26D02*
X710Y26D01*
X0Y25D02*
X7Y25D01*
X595Y25D02*
X607Y25D01*
X682Y25D02*
X694Y25D01*
X703Y25D02*
X710Y25D01*
X0Y24D02*
X7Y24D01*
X594Y24D02*
X606Y24D01*
X683Y24D02*
X695Y24D01*
X703Y24D02*
X710Y24D01*
X0Y23D02*
X7Y23D01*
X594Y23D02*
X605Y23D01*
X684Y23D02*
X695Y23D01*
X703Y23D02*
X710Y23D01*
X0Y22D02*
X7Y22D01*
X593Y22D02*
X604Y22D01*
X685Y22D02*
X696Y22D01*
X703Y22D02*
X710Y22D01*
X0Y21D02*
X7Y21D01*
X593Y21D02*
X604Y21D01*
X685Y21D02*
X696Y21D01*
X703Y21D02*
X710Y21D01*
X0Y20D02*
X7Y20D01*
X592Y20D02*
X603Y20D01*
X686Y20D02*
X697Y20D01*
X703Y20D02*
X710Y20D01*
X0Y19D02*
X7Y19D01*
X592Y19D02*
X602Y19D01*
X687Y19D02*
X697Y19D01*
X703Y19D02*
X710Y19D01*
X0Y18D02*
X7Y18D01*
X591Y18D02*
X602Y18D01*
X687Y18D02*
X698Y18D01*
X703Y18D02*
X710Y18D01*
X0Y17D02*
X7Y17D01*
X591Y17D02*
X601Y17D01*
X688Y17D02*
X698Y17D01*
X703Y17D02*
X710Y17D01*
X0Y16D02*
X7Y16D01*
X590Y16D02*
X601Y16D01*
X688Y16D02*
X699Y16D01*
X703Y16D02*
X710Y16D01*
X0Y15D02*
X7Y15D01*
X590Y15D02*
X600Y15D01*
X689Y15D02*
X699Y15D01*
X703Y15D02*
X710Y15D01*
X0Y14D02*
X7Y14D01*
X590Y14D02*
X600Y14D01*
X689Y14D02*
X699Y14D01*
X703Y14D02*
X710Y14D01*
X0Y13D02*
X7Y13D01*
X589Y13D02*
X599Y13D01*
X690Y13D02*
X700Y13D01*
X703Y13D02*
X710Y13D01*
X0Y12D02*
X7Y12D01*
X589Y12D02*
X599Y12D01*
X690Y12D02*
X700Y12D01*
X703Y12D02*
X710Y12D01*
X0Y11D02*
X7Y11D01*
X589Y11D02*
X598Y11D01*
X691Y11D02*
X701Y11D01*
X703Y11D02*
X710Y11D01*
X0Y10D02*
X7Y10D01*
X588Y10D02*
X598Y10D01*
X691Y10D02*
X701Y10D01*
X703Y10D02*
X710Y10D01*
X0Y9D02*
X7Y9D01*
X588Y9D02*
X598Y9D01*
X691Y9D02*
X701Y9D01*
X703Y9D02*
X710Y9D01*
X0Y8D02*
X710Y8D01*
X0Y7D02*
X710Y7D01*
X0Y6D02*
X710Y6D01*
X0Y5D02*
X710Y5D01*
X0Y4D02*
X710Y4D01*
X0Y3D02*
X710Y3D01*
X0Y2D02*
X47Y2D01*
X58Y2D02*
X147Y2D01*
X158Y2D02*
X247Y2D01*
X258Y2D02*
X347Y2D01*
X358Y2D02*
X447Y2D01*
X458Y2D02*
X710Y2D01*
X0Y1D02*
X42Y1D01*
X64Y1D02*
X142Y1D01*
X164Y1D02*
X242Y1D01*
X264Y1D02*
X341Y1D01*
X364Y1D02*
X441Y1D01*
X463Y1D02*
X710Y1D01*
X586Y0D02*
X596Y0D01*
X693Y0D02*
X703Y0D01*
X586Y-1D02*
X596Y-1D01*
X694Y-1D02*
X703Y-1D01*
D02*
G04 End of Silk1*
M02*